%TF.GenerationSoftware,KiCad,Pcbnew,9.0.0*%
%TF.CreationDate,2025-06-18T14:15:24-07:00*%
%TF.ProjectId,1U Backplane,31552042-6163-46b7-906c-616e652e6b69,rev?*%
%TF.SameCoordinates,Original*%
%TF.FileFunction,Soldermask,Top*%
%TF.FilePolarity,Negative*%
%FSLAX46Y46*%
G04 Gerber Fmt 4.6, Leading zero omitted, Abs format (unit mm)*
G04 Created by KiCad (PCBNEW 9.0.0) date 2025-06-18 14:15:24*
%MOMM*%
%LPD*%
G01*
G04 APERTURE LIST*
G04 APERTURE END LIST*
G36*
X165644157Y-121634728D02*
G01*
X165961878Y-121697927D01*
X166271873Y-121791963D01*
X166571159Y-121915931D01*
X166856853Y-122068638D01*
X167126203Y-122248612D01*
X167376616Y-122454120D01*
X167605680Y-122683184D01*
X167811188Y-122933597D01*
X167991162Y-123202947D01*
X168143869Y-123488641D01*
X168267837Y-123787927D01*
X168361873Y-124097922D01*
X168425072Y-124415643D01*
X168456824Y-124738028D01*
X168456824Y-125061972D01*
X168425072Y-125384357D01*
X168361873Y-125702078D01*
X168267837Y-126012073D01*
X168143869Y-126311359D01*
X167991162Y-126597053D01*
X167811188Y-126866403D01*
X167605680Y-127116816D01*
X167376616Y-127345880D01*
X167126203Y-127551388D01*
X166856853Y-127731362D01*
X166571159Y-127884069D01*
X166271873Y-128008037D01*
X165961878Y-128102073D01*
X165644157Y-128165272D01*
X165321772Y-128197024D01*
X164997828Y-128197024D01*
X164675443Y-128165272D01*
X164357722Y-128102073D01*
X164047727Y-128008037D01*
X163748441Y-127884069D01*
X163462747Y-127731362D01*
X163193397Y-127551388D01*
X162942984Y-127345880D01*
X162713920Y-127116816D01*
X162508412Y-126866403D01*
X162328438Y-126597053D01*
X162175731Y-126311359D01*
X162051763Y-126012073D01*
X161957727Y-125702078D01*
X161894528Y-125384357D01*
X161862776Y-125061972D01*
X161862776Y-124738028D01*
X161894528Y-124415643D01*
X161957727Y-124097922D01*
X162051763Y-123787927D01*
X162175731Y-123488641D01*
X162328438Y-123202947D01*
X162508412Y-122933597D01*
X162713920Y-122683184D01*
X162942984Y-122454120D01*
X163193397Y-122248612D01*
X163462747Y-122068638D01*
X163748441Y-121915931D01*
X164047727Y-121791963D01*
X164357722Y-121697927D01*
X164675443Y-121634728D01*
X164997828Y-121602976D01*
X165321772Y-121602976D01*
X165644157Y-121634728D01*
G37*
G36*
X171419661Y-124943343D02*
G01*
X171589494Y-124998525D01*
X171748603Y-125079595D01*
X171893072Y-125184558D01*
X172019342Y-125310828D01*
X172124305Y-125455297D01*
X172205375Y-125614406D01*
X172260557Y-125784239D01*
X172288492Y-125960614D01*
X172288492Y-126139186D01*
X172260557Y-126315561D01*
X172205375Y-126485394D01*
X172124305Y-126644503D01*
X172019342Y-126788972D01*
X171893072Y-126915242D01*
X171748603Y-127020205D01*
X171589494Y-127101275D01*
X171419661Y-127156457D01*
X171243286Y-127184392D01*
X171064714Y-127184392D01*
X170888339Y-127156457D01*
X170718506Y-127101275D01*
X170559397Y-127020205D01*
X170414928Y-126915242D01*
X170288658Y-126788972D01*
X170183695Y-126644503D01*
X170102625Y-126485394D01*
X170047443Y-126315561D01*
X170019508Y-126139186D01*
X170019508Y-125960614D01*
X170047443Y-125784239D01*
X170102625Y-125614406D01*
X170183695Y-125455297D01*
X170288658Y-125310828D01*
X170414928Y-125184558D01*
X170559397Y-125079595D01*
X170718506Y-124998525D01*
X170888339Y-124943343D01*
X171064714Y-124915408D01*
X171243286Y-124915408D01*
X171419661Y-124943343D01*
G37*
G36*
X159411773Y-125200137D02*
G01*
X159572600Y-125266754D01*
X159717341Y-125363467D01*
X159840433Y-125486559D01*
X159937146Y-125631300D01*
X160003763Y-125792127D01*
X160037724Y-125962861D01*
X160037724Y-126136939D01*
X160003763Y-126307673D01*
X159937146Y-126468500D01*
X159840433Y-126613241D01*
X159717341Y-126736333D01*
X159572600Y-126833046D01*
X159411773Y-126899663D01*
X159241039Y-126933624D01*
X159066961Y-126933624D01*
X158896227Y-126899663D01*
X158735400Y-126833046D01*
X158590659Y-126736333D01*
X158467567Y-126613241D01*
X158370854Y-126468500D01*
X158304237Y-126307673D01*
X158270276Y-126136939D01*
X158270276Y-125962861D01*
X158304237Y-125792127D01*
X158370854Y-125631300D01*
X158467567Y-125486559D01*
X158590659Y-125363467D01*
X158735400Y-125266754D01*
X158896227Y-125200137D01*
X159066961Y-125166176D01*
X159241039Y-125166176D01*
X159411773Y-125200137D01*
G37*
G36*
X159364782Y-122271127D02*
G01*
X159489306Y-122343021D01*
X159590979Y-122444694D01*
X159662873Y-122569218D01*
X159700088Y-122708106D01*
X159700088Y-122851894D01*
X159662873Y-122990782D01*
X159590979Y-123115306D01*
X159489306Y-123216979D01*
X159364782Y-123288873D01*
X159225894Y-123326088D01*
X159082106Y-123326088D01*
X158943218Y-123288873D01*
X158818694Y-123216979D01*
X158717021Y-123115306D01*
X158645127Y-122990782D01*
X158607912Y-122851894D01*
X158607912Y-122708106D01*
X158645127Y-122569218D01*
X158717021Y-122444694D01*
X158818694Y-122343021D01*
X158943218Y-122271127D01*
X159082106Y-122233912D01*
X159225894Y-122233912D01*
X159364782Y-122271127D01*
G37*
G36*
X171364782Y-122271127D02*
G01*
X171489306Y-122343021D01*
X171590979Y-122444694D01*
X171662873Y-122569218D01*
X171700088Y-122708106D01*
X171700088Y-122851894D01*
X171662873Y-122990782D01*
X171590979Y-123115306D01*
X171489306Y-123216979D01*
X171364782Y-123288873D01*
X171225894Y-123326088D01*
X171082106Y-123326088D01*
X170943218Y-123288873D01*
X170818694Y-123216979D01*
X170717021Y-123115306D01*
X170645127Y-122990782D01*
X170607912Y-122851894D01*
X170607912Y-122708106D01*
X170645127Y-122569218D01*
X170717021Y-122444694D01*
X170818694Y-122343021D01*
X170943218Y-122271127D01*
X171082106Y-122233912D01*
X171225894Y-122233912D01*
X171364782Y-122271127D01*
G37*
G36*
X85920944Y-121088811D02*
G01*
X85981936Y-121129564D01*
X86022689Y-121190556D01*
X86037000Y-121262500D01*
X86037000Y-122287500D01*
X86022689Y-122359444D01*
X85981936Y-122420436D01*
X85920944Y-122461189D01*
X85849000Y-122475500D01*
X85549000Y-122475500D01*
X85477056Y-122461189D01*
X85416064Y-122420436D01*
X85375311Y-122359444D01*
X85361000Y-122287500D01*
X85361000Y-121262500D01*
X85375311Y-121190556D01*
X85416064Y-121129564D01*
X85477056Y-121088811D01*
X85549000Y-121074500D01*
X85849000Y-121074500D01*
X85920944Y-121088811D01*
G37*
G36*
X86870944Y-121088811D02*
G01*
X86931936Y-121129564D01*
X86972689Y-121190556D01*
X86987000Y-121262500D01*
X86987000Y-122287500D01*
X86972689Y-122359444D01*
X86931936Y-122420436D01*
X86870944Y-122461189D01*
X86799000Y-122475500D01*
X86499000Y-122475500D01*
X86427056Y-122461189D01*
X86366064Y-122420436D01*
X86325311Y-122359444D01*
X86311000Y-122287500D01*
X86311000Y-121262500D01*
X86325311Y-121190556D01*
X86366064Y-121129564D01*
X86427056Y-121088811D01*
X86499000Y-121074500D01*
X86799000Y-121074500D01*
X86870944Y-121088811D01*
G37*
G36*
X87820944Y-121088811D02*
G01*
X87881936Y-121129564D01*
X87922689Y-121190556D01*
X87937000Y-121262500D01*
X87937000Y-122287500D01*
X87922689Y-122359444D01*
X87881936Y-122420436D01*
X87820944Y-122461189D01*
X87749000Y-122475500D01*
X87449000Y-122475500D01*
X87377056Y-122461189D01*
X87316064Y-122420436D01*
X87275311Y-122359444D01*
X87261000Y-122287500D01*
X87261000Y-121262500D01*
X87275311Y-121190556D01*
X87316064Y-121129564D01*
X87377056Y-121088811D01*
X87449000Y-121074500D01*
X87749000Y-121074500D01*
X87820944Y-121088811D01*
G37*
G36*
X191795944Y-121088811D02*
G01*
X191856936Y-121129564D01*
X191897689Y-121190556D01*
X191912000Y-121262500D01*
X191912000Y-122287500D01*
X191897689Y-122359444D01*
X191856936Y-122420436D01*
X191795944Y-122461189D01*
X191724000Y-122475500D01*
X191424000Y-122475500D01*
X191352056Y-122461189D01*
X191291064Y-122420436D01*
X191250311Y-122359444D01*
X191236000Y-122287500D01*
X191236000Y-121262500D01*
X191250311Y-121190556D01*
X191291064Y-121129564D01*
X191352056Y-121088811D01*
X191424000Y-121074500D01*
X191724000Y-121074500D01*
X191795944Y-121088811D01*
G37*
G36*
X192745944Y-121088811D02*
G01*
X192806936Y-121129564D01*
X192847689Y-121190556D01*
X192862000Y-121262500D01*
X192862000Y-122287500D01*
X192847689Y-122359444D01*
X192806936Y-122420436D01*
X192745944Y-122461189D01*
X192674000Y-122475500D01*
X192374000Y-122475500D01*
X192302056Y-122461189D01*
X192241064Y-122420436D01*
X192200311Y-122359444D01*
X192186000Y-122287500D01*
X192186000Y-121262500D01*
X192200311Y-121190556D01*
X192241064Y-121129564D01*
X192302056Y-121088811D01*
X192374000Y-121074500D01*
X192674000Y-121074500D01*
X192745944Y-121088811D01*
G37*
G36*
X193695944Y-121088811D02*
G01*
X193756936Y-121129564D01*
X193797689Y-121190556D01*
X193812000Y-121262500D01*
X193812000Y-122287500D01*
X193797689Y-122359444D01*
X193756936Y-122420436D01*
X193695944Y-122461189D01*
X193624000Y-122475500D01*
X193324000Y-122475500D01*
X193252056Y-122461189D01*
X193191064Y-122420436D01*
X193150311Y-122359444D01*
X193136000Y-122287500D01*
X193136000Y-121262500D01*
X193150311Y-121190556D01*
X193191064Y-121129564D01*
X193252056Y-121088811D01*
X193324000Y-121074500D01*
X193624000Y-121074500D01*
X193695944Y-121088811D01*
G37*
G36*
X90014938Y-121269650D02*
G01*
X90019675Y-121271741D01*
X90022305Y-121272088D01*
X90055212Y-121287433D01*
X90111759Y-121312401D01*
X90186599Y-121387241D01*
X90211571Y-121443798D01*
X90226910Y-121476691D01*
X90227256Y-121479319D01*
X90229350Y-121484062D01*
X90237000Y-121550000D01*
X90237000Y-122050000D01*
X90229350Y-122115938D01*
X90227256Y-122120678D01*
X90226911Y-122123305D01*
X90211584Y-122156172D01*
X90186599Y-122212759D01*
X90111759Y-122287599D01*
X90055182Y-122312580D01*
X90022308Y-122327910D01*
X90019680Y-122328255D01*
X90014938Y-122330350D01*
X89949000Y-122338000D01*
X89449000Y-122338000D01*
X89383062Y-122330350D01*
X89378321Y-122328256D01*
X89375694Y-122327911D01*
X89342809Y-122312576D01*
X89286241Y-122287599D01*
X89211401Y-122212759D01*
X89186437Y-122156222D01*
X89171089Y-122123308D01*
X89170742Y-122120677D01*
X89168650Y-122115938D01*
X89161000Y-122050000D01*
X89161000Y-121550000D01*
X89168650Y-121484062D01*
X89170741Y-121479324D01*
X89171088Y-121476694D01*
X89186441Y-121443768D01*
X89211401Y-121387241D01*
X89286241Y-121312401D01*
X89342758Y-121287445D01*
X89375691Y-121272089D01*
X89378322Y-121271742D01*
X89383062Y-121269650D01*
X89449000Y-121262000D01*
X89949000Y-121262000D01*
X90014938Y-121269650D01*
G37*
G36*
X92514938Y-121269650D02*
G01*
X92519675Y-121271741D01*
X92522305Y-121272088D01*
X92555212Y-121287433D01*
X92611759Y-121312401D01*
X92686599Y-121387241D01*
X92711571Y-121443798D01*
X92726910Y-121476691D01*
X92727256Y-121479319D01*
X92729350Y-121484062D01*
X92737000Y-121550000D01*
X92737000Y-122050000D01*
X92729350Y-122115938D01*
X92727256Y-122120678D01*
X92726911Y-122123305D01*
X92711584Y-122156172D01*
X92686599Y-122212759D01*
X92611759Y-122287599D01*
X92555182Y-122312580D01*
X92522308Y-122327910D01*
X92519680Y-122328255D01*
X92514938Y-122330350D01*
X92449000Y-122338000D01*
X91949000Y-122338000D01*
X91883062Y-122330350D01*
X91878321Y-122328256D01*
X91875694Y-122327911D01*
X91842809Y-122312576D01*
X91786241Y-122287599D01*
X91711401Y-122212759D01*
X91686437Y-122156222D01*
X91671089Y-122123308D01*
X91670742Y-122120677D01*
X91668650Y-122115938D01*
X91661000Y-122050000D01*
X91661000Y-121550000D01*
X91668650Y-121484062D01*
X91670741Y-121479324D01*
X91671088Y-121476694D01*
X91686441Y-121443768D01*
X91711401Y-121387241D01*
X91786241Y-121312401D01*
X91842758Y-121287445D01*
X91875691Y-121272089D01*
X91878322Y-121271742D01*
X91883062Y-121269650D01*
X91949000Y-121262000D01*
X92449000Y-121262000D01*
X92514938Y-121269650D01*
G37*
G36*
X159364782Y-121001127D02*
G01*
X159489306Y-121073021D01*
X159590979Y-121174694D01*
X159662873Y-121299218D01*
X159700088Y-121438106D01*
X159700088Y-121581894D01*
X159662873Y-121720782D01*
X159590979Y-121845306D01*
X159489306Y-121946979D01*
X159364782Y-122018873D01*
X159225894Y-122056088D01*
X159082106Y-122056088D01*
X158943218Y-122018873D01*
X158818694Y-121946979D01*
X158717021Y-121845306D01*
X158645127Y-121720782D01*
X158607912Y-121581894D01*
X158607912Y-121438106D01*
X158645127Y-121299218D01*
X158717021Y-121174694D01*
X158818694Y-121073021D01*
X158943218Y-121001127D01*
X159082106Y-120963912D01*
X159225894Y-120963912D01*
X159364782Y-121001127D01*
G37*
G36*
X171364782Y-121001127D02*
G01*
X171489306Y-121073021D01*
X171590979Y-121174694D01*
X171662873Y-121299218D01*
X171700088Y-121438106D01*
X171700088Y-121581894D01*
X171662873Y-121720782D01*
X171590979Y-121845306D01*
X171489306Y-121946979D01*
X171364782Y-122018873D01*
X171225894Y-122056088D01*
X171082106Y-122056088D01*
X170943218Y-122018873D01*
X170818694Y-121946979D01*
X170717021Y-121845306D01*
X170645127Y-121720782D01*
X170607912Y-121581894D01*
X170607912Y-121438106D01*
X170645127Y-121299218D01*
X170717021Y-121174694D01*
X170818694Y-121073021D01*
X170943218Y-121001127D01*
X171082106Y-120963912D01*
X171225894Y-120963912D01*
X171364782Y-121001127D01*
G37*
G36*
X186068009Y-121000794D02*
G01*
X186131569Y-121009162D01*
X186147557Y-121016617D01*
X186166929Y-121020471D01*
X186192589Y-121037616D01*
X186219070Y-121049965D01*
X186235179Y-121066074D01*
X186256308Y-121080192D01*
X186270425Y-121101320D01*
X186286534Y-121117429D01*
X186298881Y-121143908D01*
X186316029Y-121169571D01*
X186319882Y-121188942D01*
X186327336Y-121204927D01*
X186335699Y-121268461D01*
X186337000Y-121275000D01*
X186337000Y-121775000D01*
X186335702Y-121781523D01*
X186327337Y-121845069D01*
X186319882Y-121861054D01*
X186316029Y-121880429D01*
X186298879Y-121906094D01*
X186286534Y-121932570D01*
X186270427Y-121948676D01*
X186256308Y-121969808D01*
X186235176Y-121983927D01*
X186219070Y-122000034D01*
X186192593Y-122012380D01*
X186166929Y-122029529D01*
X186147555Y-122033382D01*
X186131572Y-122040836D01*
X186068040Y-122049199D01*
X186061500Y-122050500D01*
X185586500Y-122050500D01*
X185579978Y-122049202D01*
X185516430Y-122040837D01*
X185500444Y-122033382D01*
X185481071Y-122029529D01*
X185455407Y-122012381D01*
X185428929Y-122000034D01*
X185412820Y-121983925D01*
X185391692Y-121969808D01*
X185377574Y-121948679D01*
X185361465Y-121932570D01*
X185349116Y-121906088D01*
X185331971Y-121880429D01*
X185328118Y-121861059D01*
X185320663Y-121845072D01*
X185312297Y-121781525D01*
X185311000Y-121775000D01*
X185311000Y-121275000D01*
X185312294Y-121268492D01*
X185320662Y-121204930D01*
X185328118Y-121188940D01*
X185331971Y-121169571D01*
X185349115Y-121143912D01*
X185361465Y-121117429D01*
X185377576Y-121101317D01*
X185391692Y-121080192D01*
X185412817Y-121066076D01*
X185428929Y-121049965D01*
X185455413Y-121037614D01*
X185481071Y-121020471D01*
X185500439Y-121016618D01*
X185516427Y-121009163D01*
X185579976Y-121000797D01*
X185586500Y-120999500D01*
X186061500Y-120999500D01*
X186068009Y-121000794D01*
G37*
G36*
X80143009Y-120775794D02*
G01*
X80206569Y-120784162D01*
X80222557Y-120791617D01*
X80241929Y-120795471D01*
X80267589Y-120812616D01*
X80294070Y-120824965D01*
X80310179Y-120841074D01*
X80331308Y-120855192D01*
X80345425Y-120876320D01*
X80361534Y-120892429D01*
X80373881Y-120918908D01*
X80391029Y-120944571D01*
X80394882Y-120963942D01*
X80402336Y-120979927D01*
X80410699Y-121043461D01*
X80412000Y-121050000D01*
X80412000Y-121550000D01*
X80410702Y-121556523D01*
X80402337Y-121620069D01*
X80394882Y-121636054D01*
X80391029Y-121655429D01*
X80373879Y-121681094D01*
X80361534Y-121707570D01*
X80345427Y-121723676D01*
X80331308Y-121744808D01*
X80310176Y-121758927D01*
X80294070Y-121775034D01*
X80267593Y-121787380D01*
X80241929Y-121804529D01*
X80222555Y-121808382D01*
X80206572Y-121815836D01*
X80143040Y-121824199D01*
X80136500Y-121825500D01*
X79661500Y-121825500D01*
X79654978Y-121824202D01*
X79591430Y-121815837D01*
X79575444Y-121808382D01*
X79556071Y-121804529D01*
X79530407Y-121787381D01*
X79503929Y-121775034D01*
X79487820Y-121758925D01*
X79466692Y-121744808D01*
X79452574Y-121723679D01*
X79436465Y-121707570D01*
X79424116Y-121681088D01*
X79406971Y-121655429D01*
X79403118Y-121636059D01*
X79395663Y-121620072D01*
X79387297Y-121556525D01*
X79386000Y-121550000D01*
X79386000Y-121050000D01*
X79387294Y-121043492D01*
X79395662Y-120979930D01*
X79403118Y-120963940D01*
X79406971Y-120944571D01*
X79424115Y-120918912D01*
X79436465Y-120892429D01*
X79452576Y-120876317D01*
X79466692Y-120855192D01*
X79487817Y-120841076D01*
X79503929Y-120824965D01*
X79530413Y-120812614D01*
X79556071Y-120795471D01*
X79575439Y-120791618D01*
X79591427Y-120784163D01*
X79654976Y-120775797D01*
X79661500Y-120774500D01*
X80136500Y-120774500D01*
X80143009Y-120775794D01*
G37*
G36*
X195439938Y-120669650D02*
G01*
X195444675Y-120671741D01*
X195447305Y-120672088D01*
X195480212Y-120687433D01*
X195536759Y-120712401D01*
X195611599Y-120787241D01*
X195636571Y-120843798D01*
X195651910Y-120876691D01*
X195652256Y-120879319D01*
X195654350Y-120884062D01*
X195662000Y-120950000D01*
X195662000Y-121450000D01*
X195654350Y-121515938D01*
X195652256Y-121520678D01*
X195651911Y-121523305D01*
X195636584Y-121556172D01*
X195611599Y-121612759D01*
X195536759Y-121687599D01*
X195480182Y-121712580D01*
X195447308Y-121727910D01*
X195444680Y-121728255D01*
X195439938Y-121730350D01*
X195374000Y-121738000D01*
X194874000Y-121738000D01*
X194808062Y-121730350D01*
X194803321Y-121728256D01*
X194800694Y-121727911D01*
X194767809Y-121712576D01*
X194711241Y-121687599D01*
X194636401Y-121612759D01*
X194611437Y-121556222D01*
X194596089Y-121523308D01*
X194595742Y-121520677D01*
X194593650Y-121515938D01*
X194586000Y-121450000D01*
X194586000Y-120950000D01*
X194593650Y-120884062D01*
X194595741Y-120879324D01*
X194596088Y-120876694D01*
X194611441Y-120843768D01*
X194636401Y-120787241D01*
X194711241Y-120712401D01*
X194767758Y-120687445D01*
X194800691Y-120672089D01*
X194803322Y-120671742D01*
X194808062Y-120669650D01*
X194874000Y-120662000D01*
X195374000Y-120662000D01*
X195439938Y-120669650D01*
G37*
G36*
X197939938Y-120669650D02*
G01*
X197944675Y-120671741D01*
X197947305Y-120672088D01*
X197980212Y-120687433D01*
X198036759Y-120712401D01*
X198111599Y-120787241D01*
X198136571Y-120843798D01*
X198151910Y-120876691D01*
X198152256Y-120879319D01*
X198154350Y-120884062D01*
X198162000Y-120950000D01*
X198162000Y-121450000D01*
X198154350Y-121515938D01*
X198152256Y-121520678D01*
X198151911Y-121523305D01*
X198136584Y-121556172D01*
X198111599Y-121612759D01*
X198036759Y-121687599D01*
X197980182Y-121712580D01*
X197947308Y-121727910D01*
X197944680Y-121728255D01*
X197939938Y-121730350D01*
X197874000Y-121738000D01*
X197374000Y-121738000D01*
X197308062Y-121730350D01*
X197303321Y-121728256D01*
X197300694Y-121727911D01*
X197267809Y-121712576D01*
X197211241Y-121687599D01*
X197136401Y-121612759D01*
X197111437Y-121556222D01*
X197096089Y-121523308D01*
X197095742Y-121520677D01*
X197093650Y-121515938D01*
X197086000Y-121450000D01*
X197086000Y-120950000D01*
X197093650Y-120884062D01*
X197095741Y-120879324D01*
X197096088Y-120876694D01*
X197111441Y-120843768D01*
X197136401Y-120787241D01*
X197211241Y-120712401D01*
X197267758Y-120687445D01*
X197300691Y-120672089D01*
X197303322Y-120671742D01*
X197308062Y-120669650D01*
X197374000Y-120662000D01*
X197874000Y-120662000D01*
X197939938Y-120669650D01*
G37*
G36*
X82455509Y-120588294D02*
G01*
X82519069Y-120596662D01*
X82535057Y-120604117D01*
X82554429Y-120607971D01*
X82580089Y-120625116D01*
X82606570Y-120637465D01*
X82622679Y-120653574D01*
X82643808Y-120667692D01*
X82657925Y-120688820D01*
X82674034Y-120704929D01*
X82686381Y-120731408D01*
X82703529Y-120757071D01*
X82707382Y-120776442D01*
X82714836Y-120792427D01*
X82723199Y-120855961D01*
X82724500Y-120862500D01*
X82724500Y-121337500D01*
X82723202Y-121344023D01*
X82714837Y-121407569D01*
X82707382Y-121423554D01*
X82703529Y-121442929D01*
X82686379Y-121468594D01*
X82674034Y-121495070D01*
X82657927Y-121511176D01*
X82643808Y-121532308D01*
X82622676Y-121546427D01*
X82606570Y-121562534D01*
X82580093Y-121574880D01*
X82554429Y-121592029D01*
X82535055Y-121595882D01*
X82519072Y-121603336D01*
X82455540Y-121611699D01*
X82449000Y-121613000D01*
X81949000Y-121613000D01*
X81942478Y-121611702D01*
X81878930Y-121603337D01*
X81862944Y-121595882D01*
X81843571Y-121592029D01*
X81817907Y-121574881D01*
X81791429Y-121562534D01*
X81775320Y-121546425D01*
X81754192Y-121532308D01*
X81740074Y-121511179D01*
X81723965Y-121495070D01*
X81711616Y-121468588D01*
X81694471Y-121442929D01*
X81690618Y-121423559D01*
X81683163Y-121407572D01*
X81674797Y-121344025D01*
X81673500Y-121337500D01*
X81673500Y-120862500D01*
X81674794Y-120855992D01*
X81683162Y-120792430D01*
X81690618Y-120776440D01*
X81694471Y-120757071D01*
X81711615Y-120731412D01*
X81723965Y-120704929D01*
X81740076Y-120688817D01*
X81754192Y-120667692D01*
X81775317Y-120653576D01*
X81791429Y-120637465D01*
X81817913Y-120625114D01*
X81843571Y-120607971D01*
X81862939Y-120604118D01*
X81878927Y-120596663D01*
X81942476Y-120588297D01*
X81949000Y-120587000D01*
X82449000Y-120587000D01*
X82455509Y-120588294D01*
G37*
G36*
X84280509Y-120588294D02*
G01*
X84344069Y-120596662D01*
X84360057Y-120604117D01*
X84379429Y-120607971D01*
X84405089Y-120625116D01*
X84431570Y-120637465D01*
X84447679Y-120653574D01*
X84468808Y-120667692D01*
X84482925Y-120688820D01*
X84499034Y-120704929D01*
X84511381Y-120731408D01*
X84528529Y-120757071D01*
X84532382Y-120776442D01*
X84539836Y-120792427D01*
X84548199Y-120855961D01*
X84549500Y-120862500D01*
X84549500Y-121337500D01*
X84548202Y-121344023D01*
X84539837Y-121407569D01*
X84532382Y-121423554D01*
X84528529Y-121442929D01*
X84511379Y-121468594D01*
X84499034Y-121495070D01*
X84482927Y-121511176D01*
X84468808Y-121532308D01*
X84447676Y-121546427D01*
X84431570Y-121562534D01*
X84405093Y-121574880D01*
X84379429Y-121592029D01*
X84360055Y-121595882D01*
X84344072Y-121603336D01*
X84280540Y-121611699D01*
X84274000Y-121613000D01*
X83774000Y-121613000D01*
X83767478Y-121611702D01*
X83703930Y-121603337D01*
X83687944Y-121595882D01*
X83668571Y-121592029D01*
X83642907Y-121574881D01*
X83616429Y-121562534D01*
X83600320Y-121546425D01*
X83579192Y-121532308D01*
X83565074Y-121511179D01*
X83548965Y-121495070D01*
X83536616Y-121468588D01*
X83519471Y-121442929D01*
X83515618Y-121423559D01*
X83508163Y-121407572D01*
X83499797Y-121344025D01*
X83498500Y-121337500D01*
X83498500Y-120862500D01*
X83499794Y-120855992D01*
X83508162Y-120792430D01*
X83515618Y-120776440D01*
X83519471Y-120757071D01*
X83536615Y-120731412D01*
X83548965Y-120704929D01*
X83565076Y-120688817D01*
X83579192Y-120667692D01*
X83600317Y-120653576D01*
X83616429Y-120637465D01*
X83642913Y-120625114D01*
X83668571Y-120607971D01*
X83687939Y-120604118D01*
X83703927Y-120596663D01*
X83767476Y-120588297D01*
X83774000Y-120587000D01*
X84274000Y-120587000D01*
X84280509Y-120588294D01*
G37*
G36*
X188080509Y-120388294D02*
G01*
X188144069Y-120396662D01*
X188160057Y-120404117D01*
X188179429Y-120407971D01*
X188205089Y-120425116D01*
X188231570Y-120437465D01*
X188247679Y-120453574D01*
X188268808Y-120467692D01*
X188282925Y-120488820D01*
X188299034Y-120504929D01*
X188311381Y-120531408D01*
X188328529Y-120557071D01*
X188332382Y-120576442D01*
X188339836Y-120592427D01*
X188348199Y-120655961D01*
X188349500Y-120662500D01*
X188349500Y-121137500D01*
X188348202Y-121144023D01*
X188339837Y-121207569D01*
X188332382Y-121223554D01*
X188328529Y-121242929D01*
X188311379Y-121268594D01*
X188299034Y-121295070D01*
X188282927Y-121311176D01*
X188268808Y-121332308D01*
X188247676Y-121346427D01*
X188231570Y-121362534D01*
X188205093Y-121374880D01*
X188179429Y-121392029D01*
X188160055Y-121395882D01*
X188144072Y-121403336D01*
X188080540Y-121411699D01*
X188074000Y-121413000D01*
X187574000Y-121413000D01*
X187567478Y-121411702D01*
X187503930Y-121403337D01*
X187487944Y-121395882D01*
X187468571Y-121392029D01*
X187442907Y-121374881D01*
X187416429Y-121362534D01*
X187400320Y-121346425D01*
X187379192Y-121332308D01*
X187365074Y-121311179D01*
X187348965Y-121295070D01*
X187336616Y-121268588D01*
X187319471Y-121242929D01*
X187315618Y-121223559D01*
X187308163Y-121207572D01*
X187299797Y-121144025D01*
X187298500Y-121137500D01*
X187298500Y-120662500D01*
X187299794Y-120655992D01*
X187308162Y-120592430D01*
X187315618Y-120576440D01*
X187319471Y-120557071D01*
X187336615Y-120531412D01*
X187348965Y-120504929D01*
X187365076Y-120488817D01*
X187379192Y-120467692D01*
X187400317Y-120453576D01*
X187416429Y-120437465D01*
X187442913Y-120425114D01*
X187468571Y-120407971D01*
X187487939Y-120404118D01*
X187503927Y-120396663D01*
X187567476Y-120388297D01*
X187574000Y-120387000D01*
X188074000Y-120387000D01*
X188080509Y-120388294D01*
G37*
G36*
X189905509Y-120388294D02*
G01*
X189969069Y-120396662D01*
X189985057Y-120404117D01*
X190004429Y-120407971D01*
X190030089Y-120425116D01*
X190056570Y-120437465D01*
X190072679Y-120453574D01*
X190093808Y-120467692D01*
X190107925Y-120488820D01*
X190124034Y-120504929D01*
X190136381Y-120531408D01*
X190153529Y-120557071D01*
X190157382Y-120576442D01*
X190164836Y-120592427D01*
X190173199Y-120655961D01*
X190174500Y-120662500D01*
X190174500Y-121137500D01*
X190173202Y-121144023D01*
X190164837Y-121207569D01*
X190157382Y-121223554D01*
X190153529Y-121242929D01*
X190136379Y-121268594D01*
X190124034Y-121295070D01*
X190107927Y-121311176D01*
X190093808Y-121332308D01*
X190072676Y-121346427D01*
X190056570Y-121362534D01*
X190030093Y-121374880D01*
X190004429Y-121392029D01*
X189985055Y-121395882D01*
X189969072Y-121403336D01*
X189905540Y-121411699D01*
X189899000Y-121413000D01*
X189399000Y-121413000D01*
X189392478Y-121411702D01*
X189328930Y-121403337D01*
X189312944Y-121395882D01*
X189293571Y-121392029D01*
X189267907Y-121374881D01*
X189241429Y-121362534D01*
X189225320Y-121346425D01*
X189204192Y-121332308D01*
X189190074Y-121311179D01*
X189173965Y-121295070D01*
X189161616Y-121268588D01*
X189144471Y-121242929D01*
X189140618Y-121223559D01*
X189133163Y-121207572D01*
X189124797Y-121144025D01*
X189123500Y-121137500D01*
X189123500Y-120662500D01*
X189124794Y-120655992D01*
X189133162Y-120592430D01*
X189140618Y-120576440D01*
X189144471Y-120557071D01*
X189161615Y-120531412D01*
X189173965Y-120504929D01*
X189190076Y-120488817D01*
X189204192Y-120467692D01*
X189225317Y-120453576D01*
X189241429Y-120437465D01*
X189267913Y-120425114D01*
X189293571Y-120407971D01*
X189312939Y-120404118D01*
X189328927Y-120396663D01*
X189392476Y-120388297D01*
X189399000Y-120387000D01*
X189899000Y-120387000D01*
X189905509Y-120388294D01*
G37*
G36*
X159364782Y-119731127D02*
G01*
X159489306Y-119803021D01*
X159590979Y-119904694D01*
X159662873Y-120029218D01*
X159700088Y-120168106D01*
X159700088Y-120311894D01*
X159662873Y-120450782D01*
X159590979Y-120575306D01*
X159489306Y-120676979D01*
X159364782Y-120748873D01*
X159225894Y-120786088D01*
X159082106Y-120786088D01*
X158943218Y-120748873D01*
X158818694Y-120676979D01*
X158717021Y-120575306D01*
X158645127Y-120450782D01*
X158607912Y-120311894D01*
X158607912Y-120168106D01*
X158645127Y-120029218D01*
X158717021Y-119904694D01*
X158818694Y-119803021D01*
X158943218Y-119731127D01*
X159082106Y-119693912D01*
X159225894Y-119693912D01*
X159364782Y-119731127D01*
G37*
G36*
X171364782Y-119731127D02*
G01*
X171489306Y-119803021D01*
X171590979Y-119904694D01*
X171662873Y-120029218D01*
X171700088Y-120168106D01*
X171700088Y-120311894D01*
X171662873Y-120450782D01*
X171590979Y-120575306D01*
X171489306Y-120676979D01*
X171364782Y-120748873D01*
X171225894Y-120786088D01*
X171082106Y-120786088D01*
X170943218Y-120748873D01*
X170818694Y-120676979D01*
X170717021Y-120575306D01*
X170645127Y-120450782D01*
X170607912Y-120311894D01*
X170607912Y-120168106D01*
X170645127Y-120029218D01*
X170717021Y-119904694D01*
X170818694Y-119803021D01*
X170943218Y-119731127D01*
X171082106Y-119693912D01*
X171225894Y-119693912D01*
X171364782Y-119731127D01*
G37*
G36*
X165468000Y-118716372D02*
G01*
X165642578Y-118751098D01*
X165807028Y-118819215D01*
X165955029Y-118918107D01*
X166080893Y-119043971D01*
X166179785Y-119191972D01*
X166247902Y-119356422D01*
X166282628Y-119531000D01*
X166282628Y-119709000D01*
X166247902Y-119883578D01*
X166179785Y-120048028D01*
X166080893Y-120196029D01*
X165955029Y-120321893D01*
X165807028Y-120420785D01*
X165642578Y-120488902D01*
X165468000Y-120523628D01*
X165379000Y-120528000D01*
X165377749Y-120528000D01*
X164930251Y-120528000D01*
X164929000Y-120528000D01*
X164840000Y-120523628D01*
X164665422Y-120488902D01*
X164500972Y-120420785D01*
X164352971Y-120321893D01*
X164227107Y-120196029D01*
X164128215Y-120048028D01*
X164060098Y-119883578D01*
X164025372Y-119709000D01*
X164025372Y-119531000D01*
X164060098Y-119356422D01*
X164128215Y-119191972D01*
X164227107Y-119043971D01*
X164352971Y-118918107D01*
X164500972Y-118819215D01*
X164665422Y-118751098D01*
X164840000Y-118716372D01*
X164929000Y-118712000D01*
X165379000Y-118712000D01*
X165468000Y-118716372D01*
G37*
G36*
X186068009Y-119175794D02*
G01*
X186131569Y-119184162D01*
X186147557Y-119191617D01*
X186166929Y-119195471D01*
X186192589Y-119212616D01*
X186219070Y-119224965D01*
X186235179Y-119241074D01*
X186256308Y-119255192D01*
X186270425Y-119276320D01*
X186286534Y-119292429D01*
X186298881Y-119318908D01*
X186316029Y-119344571D01*
X186319882Y-119363942D01*
X186327336Y-119379927D01*
X186335699Y-119443461D01*
X186337000Y-119450000D01*
X186337000Y-119950000D01*
X186335702Y-119956523D01*
X186327337Y-120020069D01*
X186319882Y-120036054D01*
X186316029Y-120055429D01*
X186298879Y-120081094D01*
X186286534Y-120107570D01*
X186270427Y-120123676D01*
X186256308Y-120144808D01*
X186235176Y-120158927D01*
X186219070Y-120175034D01*
X186192593Y-120187380D01*
X186166929Y-120204529D01*
X186147555Y-120208382D01*
X186131572Y-120215836D01*
X186068040Y-120224199D01*
X186061500Y-120225500D01*
X185586500Y-120225500D01*
X185579978Y-120224202D01*
X185516430Y-120215837D01*
X185500444Y-120208382D01*
X185481071Y-120204529D01*
X185455407Y-120187381D01*
X185428929Y-120175034D01*
X185412820Y-120158925D01*
X185391692Y-120144808D01*
X185377574Y-120123679D01*
X185361465Y-120107570D01*
X185349116Y-120081088D01*
X185331971Y-120055429D01*
X185328118Y-120036059D01*
X185320663Y-120020072D01*
X185312297Y-119956525D01*
X185311000Y-119950000D01*
X185311000Y-119450000D01*
X185312294Y-119443492D01*
X185320662Y-119379930D01*
X185328118Y-119363940D01*
X185331971Y-119344571D01*
X185349115Y-119318912D01*
X185361465Y-119292429D01*
X185377576Y-119276317D01*
X185391692Y-119255192D01*
X185412817Y-119241076D01*
X185428929Y-119224965D01*
X185455413Y-119212614D01*
X185481071Y-119195471D01*
X185500439Y-119191618D01*
X185516427Y-119184163D01*
X185579976Y-119175797D01*
X185586500Y-119174500D01*
X186061500Y-119174500D01*
X186068009Y-119175794D01*
G37*
G36*
X85920944Y-118813811D02*
G01*
X85981936Y-118854564D01*
X86022689Y-118915556D01*
X86037000Y-118987500D01*
X86037000Y-120012500D01*
X86022689Y-120084444D01*
X85981936Y-120145436D01*
X85920944Y-120186189D01*
X85849000Y-120200500D01*
X85549000Y-120200500D01*
X85477056Y-120186189D01*
X85416064Y-120145436D01*
X85375311Y-120084444D01*
X85361000Y-120012500D01*
X85361000Y-118987500D01*
X85375311Y-118915556D01*
X85416064Y-118854564D01*
X85477056Y-118813811D01*
X85549000Y-118799500D01*
X85849000Y-118799500D01*
X85920944Y-118813811D01*
G37*
G36*
X87820944Y-118813811D02*
G01*
X87881936Y-118854564D01*
X87922689Y-118915556D01*
X87937000Y-118987500D01*
X87937000Y-120012500D01*
X87922689Y-120084444D01*
X87881936Y-120145436D01*
X87820944Y-120186189D01*
X87749000Y-120200500D01*
X87449000Y-120200500D01*
X87377056Y-120186189D01*
X87316064Y-120145436D01*
X87275311Y-120084444D01*
X87261000Y-120012500D01*
X87261000Y-118987500D01*
X87275311Y-118915556D01*
X87316064Y-118854564D01*
X87377056Y-118813811D01*
X87449000Y-118799500D01*
X87749000Y-118799500D01*
X87820944Y-118813811D01*
G37*
G36*
X191795944Y-118813811D02*
G01*
X191856936Y-118854564D01*
X191897689Y-118915556D01*
X191912000Y-118987500D01*
X191912000Y-120012500D01*
X191897689Y-120084444D01*
X191856936Y-120145436D01*
X191795944Y-120186189D01*
X191724000Y-120200500D01*
X191424000Y-120200500D01*
X191352056Y-120186189D01*
X191291064Y-120145436D01*
X191250311Y-120084444D01*
X191236000Y-120012500D01*
X191236000Y-118987500D01*
X191250311Y-118915556D01*
X191291064Y-118854564D01*
X191352056Y-118813811D01*
X191424000Y-118799500D01*
X191724000Y-118799500D01*
X191795944Y-118813811D01*
G37*
G36*
X193695944Y-118813811D02*
G01*
X193756936Y-118854564D01*
X193797689Y-118915556D01*
X193812000Y-118987500D01*
X193812000Y-120012500D01*
X193797689Y-120084444D01*
X193756936Y-120145436D01*
X193695944Y-120186189D01*
X193624000Y-120200500D01*
X193324000Y-120200500D01*
X193252056Y-120186189D01*
X193191064Y-120145436D01*
X193150311Y-120084444D01*
X193136000Y-120012500D01*
X193136000Y-118987500D01*
X193150311Y-118915556D01*
X193191064Y-118854564D01*
X193252056Y-118813811D01*
X193324000Y-118799500D01*
X193624000Y-118799500D01*
X193695944Y-118813811D01*
G37*
G36*
X89930509Y-119088294D02*
G01*
X89994069Y-119096662D01*
X90010057Y-119104117D01*
X90029429Y-119107971D01*
X90055089Y-119125116D01*
X90081570Y-119137465D01*
X90097679Y-119153574D01*
X90118808Y-119167692D01*
X90132925Y-119188820D01*
X90149034Y-119204929D01*
X90161381Y-119231408D01*
X90178529Y-119257071D01*
X90182382Y-119276442D01*
X90189836Y-119292427D01*
X90198199Y-119355961D01*
X90199500Y-119362500D01*
X90199500Y-119837500D01*
X90198202Y-119844023D01*
X90189837Y-119907569D01*
X90182382Y-119923554D01*
X90178529Y-119942929D01*
X90161379Y-119968594D01*
X90149034Y-119995070D01*
X90132927Y-120011176D01*
X90118808Y-120032308D01*
X90097676Y-120046427D01*
X90081570Y-120062534D01*
X90055093Y-120074880D01*
X90029429Y-120092029D01*
X90010055Y-120095882D01*
X89994072Y-120103336D01*
X89930540Y-120111699D01*
X89924000Y-120113000D01*
X89424000Y-120113000D01*
X89417478Y-120111702D01*
X89353930Y-120103337D01*
X89337944Y-120095882D01*
X89318571Y-120092029D01*
X89292907Y-120074881D01*
X89266429Y-120062534D01*
X89250320Y-120046425D01*
X89229192Y-120032308D01*
X89215074Y-120011179D01*
X89198965Y-119995070D01*
X89186616Y-119968588D01*
X89169471Y-119942929D01*
X89165618Y-119923559D01*
X89158163Y-119907572D01*
X89149797Y-119844025D01*
X89148500Y-119837500D01*
X89148500Y-119362500D01*
X89149794Y-119355992D01*
X89158162Y-119292430D01*
X89165618Y-119276440D01*
X89169471Y-119257071D01*
X89186615Y-119231412D01*
X89198965Y-119204929D01*
X89215076Y-119188817D01*
X89229192Y-119167692D01*
X89250317Y-119153576D01*
X89266429Y-119137465D01*
X89292913Y-119125114D01*
X89318571Y-119107971D01*
X89337939Y-119104118D01*
X89353927Y-119096663D01*
X89417476Y-119088297D01*
X89424000Y-119087000D01*
X89924000Y-119087000D01*
X89930509Y-119088294D01*
G37*
G36*
X91755509Y-119088294D02*
G01*
X91819069Y-119096662D01*
X91835057Y-119104117D01*
X91854429Y-119107971D01*
X91880089Y-119125116D01*
X91906570Y-119137465D01*
X91922679Y-119153574D01*
X91943808Y-119167692D01*
X91957925Y-119188820D01*
X91974034Y-119204929D01*
X91986381Y-119231408D01*
X92003529Y-119257071D01*
X92007382Y-119276442D01*
X92014836Y-119292427D01*
X92023199Y-119355961D01*
X92024500Y-119362500D01*
X92024500Y-119837500D01*
X92023202Y-119844023D01*
X92014837Y-119907569D01*
X92007382Y-119923554D01*
X92003529Y-119942929D01*
X91986379Y-119968594D01*
X91974034Y-119995070D01*
X91957927Y-120011176D01*
X91943808Y-120032308D01*
X91922676Y-120046427D01*
X91906570Y-120062534D01*
X91880093Y-120074880D01*
X91854429Y-120092029D01*
X91835055Y-120095882D01*
X91819072Y-120103336D01*
X91755540Y-120111699D01*
X91749000Y-120113000D01*
X91249000Y-120113000D01*
X91242478Y-120111702D01*
X91178930Y-120103337D01*
X91162944Y-120095882D01*
X91143571Y-120092029D01*
X91117907Y-120074881D01*
X91091429Y-120062534D01*
X91075320Y-120046425D01*
X91054192Y-120032308D01*
X91040074Y-120011179D01*
X91023965Y-119995070D01*
X91011616Y-119968588D01*
X90994471Y-119942929D01*
X90990618Y-119923559D01*
X90983163Y-119907572D01*
X90974797Y-119844025D01*
X90973500Y-119837500D01*
X90973500Y-119362500D01*
X90974794Y-119355992D01*
X90983162Y-119292430D01*
X90990618Y-119276440D01*
X90994471Y-119257071D01*
X91011615Y-119231412D01*
X91023965Y-119204929D01*
X91040076Y-119188817D01*
X91054192Y-119167692D01*
X91075317Y-119153576D01*
X91091429Y-119137465D01*
X91117913Y-119125114D01*
X91143571Y-119107971D01*
X91162939Y-119104118D01*
X91178927Y-119096663D01*
X91242476Y-119088297D01*
X91249000Y-119087000D01*
X91749000Y-119087000D01*
X91755509Y-119088294D01*
G37*
G36*
X82580509Y-118988294D02*
G01*
X82644069Y-118996662D01*
X82660057Y-119004117D01*
X82679429Y-119007971D01*
X82705089Y-119025116D01*
X82731570Y-119037465D01*
X82747679Y-119053574D01*
X82768808Y-119067692D01*
X82782925Y-119088820D01*
X82799034Y-119104929D01*
X82811381Y-119131408D01*
X82828529Y-119157071D01*
X82832382Y-119176442D01*
X82839836Y-119192427D01*
X82848199Y-119255961D01*
X82849500Y-119262500D01*
X82849500Y-119737500D01*
X82848202Y-119744023D01*
X82839837Y-119807569D01*
X82832382Y-119823554D01*
X82828529Y-119842929D01*
X82811379Y-119868594D01*
X82799034Y-119895070D01*
X82782927Y-119911176D01*
X82768808Y-119932308D01*
X82747676Y-119946427D01*
X82731570Y-119962534D01*
X82705093Y-119974880D01*
X82679429Y-119992029D01*
X82660055Y-119995882D01*
X82644072Y-120003336D01*
X82580540Y-120011699D01*
X82574000Y-120013000D01*
X81974000Y-120013000D01*
X81967478Y-120011702D01*
X81903930Y-120003337D01*
X81887944Y-119995882D01*
X81868571Y-119992029D01*
X81842907Y-119974881D01*
X81816429Y-119962534D01*
X81800320Y-119946425D01*
X81779192Y-119932308D01*
X81765074Y-119911179D01*
X81748965Y-119895070D01*
X81736616Y-119868588D01*
X81719471Y-119842929D01*
X81715618Y-119823559D01*
X81708163Y-119807572D01*
X81699797Y-119744025D01*
X81698500Y-119737500D01*
X81698500Y-119262500D01*
X81699794Y-119255992D01*
X81708162Y-119192430D01*
X81715618Y-119176440D01*
X81719471Y-119157071D01*
X81736615Y-119131412D01*
X81748965Y-119104929D01*
X81765076Y-119088817D01*
X81779192Y-119067692D01*
X81800317Y-119053576D01*
X81816429Y-119037465D01*
X81842913Y-119025114D01*
X81868571Y-119007971D01*
X81887939Y-119004118D01*
X81903927Y-118996663D01*
X81967476Y-118988297D01*
X81974000Y-118987000D01*
X82574000Y-118987000D01*
X82580509Y-118988294D01*
G37*
G36*
X84305509Y-118988294D02*
G01*
X84369069Y-118996662D01*
X84385057Y-119004117D01*
X84404429Y-119007971D01*
X84430089Y-119025116D01*
X84456570Y-119037465D01*
X84472679Y-119053574D01*
X84493808Y-119067692D01*
X84507925Y-119088820D01*
X84524034Y-119104929D01*
X84536381Y-119131408D01*
X84553529Y-119157071D01*
X84557382Y-119176442D01*
X84564836Y-119192427D01*
X84573199Y-119255961D01*
X84574500Y-119262500D01*
X84574500Y-119737500D01*
X84573202Y-119744023D01*
X84564837Y-119807569D01*
X84557382Y-119823554D01*
X84553529Y-119842929D01*
X84536379Y-119868594D01*
X84524034Y-119895070D01*
X84507927Y-119911176D01*
X84493808Y-119932308D01*
X84472676Y-119946427D01*
X84456570Y-119962534D01*
X84430093Y-119974880D01*
X84404429Y-119992029D01*
X84385055Y-119995882D01*
X84369072Y-120003336D01*
X84305540Y-120011699D01*
X84299000Y-120013000D01*
X83699000Y-120013000D01*
X83692478Y-120011702D01*
X83628930Y-120003337D01*
X83612944Y-119995882D01*
X83593571Y-119992029D01*
X83567907Y-119974881D01*
X83541429Y-119962534D01*
X83525320Y-119946425D01*
X83504192Y-119932308D01*
X83490074Y-119911179D01*
X83473965Y-119895070D01*
X83461616Y-119868588D01*
X83444471Y-119842929D01*
X83440618Y-119823559D01*
X83433163Y-119807572D01*
X83424797Y-119744025D01*
X83423500Y-119737500D01*
X83423500Y-119262500D01*
X83424794Y-119255992D01*
X83433162Y-119192430D01*
X83440618Y-119176440D01*
X83444471Y-119157071D01*
X83461615Y-119131412D01*
X83473965Y-119104929D01*
X83490076Y-119088817D01*
X83504192Y-119067692D01*
X83525317Y-119053576D01*
X83541429Y-119037465D01*
X83567913Y-119025114D01*
X83593571Y-119007971D01*
X83612939Y-119004118D01*
X83628927Y-118996663D01*
X83692476Y-118988297D01*
X83699000Y-118987000D01*
X84299000Y-118987000D01*
X84305509Y-118988294D01*
G37*
G36*
X80143009Y-118950794D02*
G01*
X80206569Y-118959162D01*
X80222557Y-118966617D01*
X80241929Y-118970471D01*
X80267589Y-118987616D01*
X80294070Y-118999965D01*
X80310179Y-119016074D01*
X80331308Y-119030192D01*
X80345425Y-119051320D01*
X80361534Y-119067429D01*
X80373881Y-119093908D01*
X80391029Y-119119571D01*
X80394882Y-119138942D01*
X80402336Y-119154927D01*
X80410699Y-119218461D01*
X80412000Y-119225000D01*
X80412000Y-119725000D01*
X80410702Y-119731523D01*
X80402337Y-119795069D01*
X80394882Y-119811054D01*
X80391029Y-119830429D01*
X80373879Y-119856094D01*
X80361534Y-119882570D01*
X80345427Y-119898676D01*
X80331308Y-119919808D01*
X80310176Y-119933927D01*
X80294070Y-119950034D01*
X80267593Y-119962380D01*
X80241929Y-119979529D01*
X80222555Y-119983382D01*
X80206572Y-119990836D01*
X80143040Y-119999199D01*
X80136500Y-120000500D01*
X79661500Y-120000500D01*
X79654978Y-119999202D01*
X79591430Y-119990837D01*
X79575444Y-119983382D01*
X79556071Y-119979529D01*
X79530407Y-119962381D01*
X79503929Y-119950034D01*
X79487820Y-119933925D01*
X79466692Y-119919808D01*
X79452574Y-119898679D01*
X79436465Y-119882570D01*
X79424116Y-119856088D01*
X79406971Y-119830429D01*
X79403118Y-119811059D01*
X79395663Y-119795072D01*
X79387297Y-119731525D01*
X79386000Y-119725000D01*
X79386000Y-119225000D01*
X79387294Y-119218492D01*
X79395662Y-119154930D01*
X79403118Y-119138940D01*
X79406971Y-119119571D01*
X79424115Y-119093912D01*
X79436465Y-119067429D01*
X79452576Y-119051317D01*
X79466692Y-119030192D01*
X79487817Y-119016076D01*
X79503929Y-118999965D01*
X79530413Y-118987614D01*
X79556071Y-118970471D01*
X79575439Y-118966618D01*
X79591427Y-118959163D01*
X79654976Y-118950797D01*
X79661500Y-118949500D01*
X80136500Y-118949500D01*
X80143009Y-118950794D01*
G37*
G36*
X195255509Y-118888294D02*
G01*
X195319069Y-118896662D01*
X195335057Y-118904117D01*
X195354429Y-118907971D01*
X195380089Y-118925116D01*
X195406570Y-118937465D01*
X195422679Y-118953574D01*
X195443808Y-118967692D01*
X195457925Y-118988820D01*
X195474034Y-119004929D01*
X195486381Y-119031408D01*
X195503529Y-119057071D01*
X195507382Y-119076442D01*
X195514836Y-119092427D01*
X195523199Y-119155961D01*
X195524500Y-119162500D01*
X195524500Y-119637500D01*
X195523202Y-119644023D01*
X195514837Y-119707569D01*
X195507382Y-119723554D01*
X195503529Y-119742929D01*
X195486379Y-119768594D01*
X195474034Y-119795070D01*
X195457927Y-119811176D01*
X195443808Y-119832308D01*
X195422676Y-119846427D01*
X195406570Y-119862534D01*
X195380093Y-119874880D01*
X195354429Y-119892029D01*
X195335055Y-119895882D01*
X195319072Y-119903336D01*
X195255540Y-119911699D01*
X195249000Y-119913000D01*
X194749000Y-119913000D01*
X194742478Y-119911702D01*
X194678930Y-119903337D01*
X194662944Y-119895882D01*
X194643571Y-119892029D01*
X194617907Y-119874881D01*
X194591429Y-119862534D01*
X194575320Y-119846425D01*
X194554192Y-119832308D01*
X194540074Y-119811179D01*
X194523965Y-119795070D01*
X194511616Y-119768588D01*
X194494471Y-119742929D01*
X194490618Y-119723559D01*
X194483163Y-119707572D01*
X194474797Y-119644025D01*
X194473500Y-119637500D01*
X194473500Y-119162500D01*
X194474794Y-119155992D01*
X194483162Y-119092430D01*
X194490618Y-119076440D01*
X194494471Y-119057071D01*
X194511615Y-119031412D01*
X194523965Y-119004929D01*
X194540076Y-118988817D01*
X194554192Y-118967692D01*
X194575317Y-118953576D01*
X194591429Y-118937465D01*
X194617913Y-118925114D01*
X194643571Y-118907971D01*
X194662939Y-118904118D01*
X194678927Y-118896663D01*
X194742476Y-118888297D01*
X194749000Y-118887000D01*
X195249000Y-118887000D01*
X195255509Y-118888294D01*
G37*
G36*
X197080509Y-118888294D02*
G01*
X197144069Y-118896662D01*
X197160057Y-118904117D01*
X197179429Y-118907971D01*
X197205089Y-118925116D01*
X197231570Y-118937465D01*
X197247679Y-118953574D01*
X197268808Y-118967692D01*
X197282925Y-118988820D01*
X197299034Y-119004929D01*
X197311381Y-119031408D01*
X197328529Y-119057071D01*
X197332382Y-119076442D01*
X197339836Y-119092427D01*
X197348199Y-119155961D01*
X197349500Y-119162500D01*
X197349500Y-119637500D01*
X197348202Y-119644023D01*
X197339837Y-119707569D01*
X197332382Y-119723554D01*
X197328529Y-119742929D01*
X197311379Y-119768594D01*
X197299034Y-119795070D01*
X197282927Y-119811176D01*
X197268808Y-119832308D01*
X197247676Y-119846427D01*
X197231570Y-119862534D01*
X197205093Y-119874880D01*
X197179429Y-119892029D01*
X197160055Y-119895882D01*
X197144072Y-119903336D01*
X197080540Y-119911699D01*
X197074000Y-119913000D01*
X196574000Y-119913000D01*
X196567478Y-119911702D01*
X196503930Y-119903337D01*
X196487944Y-119895882D01*
X196468571Y-119892029D01*
X196442907Y-119874881D01*
X196416429Y-119862534D01*
X196400320Y-119846425D01*
X196379192Y-119832308D01*
X196365074Y-119811179D01*
X196348965Y-119795070D01*
X196336616Y-119768588D01*
X196319471Y-119742929D01*
X196315618Y-119723559D01*
X196308163Y-119707572D01*
X196299797Y-119644025D01*
X196298500Y-119637500D01*
X196298500Y-119162500D01*
X196299794Y-119155992D01*
X196308162Y-119092430D01*
X196315618Y-119076440D01*
X196319471Y-119057071D01*
X196336615Y-119031412D01*
X196348965Y-119004929D01*
X196365076Y-118988817D01*
X196379192Y-118967692D01*
X196400317Y-118953576D01*
X196416429Y-118937465D01*
X196442913Y-118925114D01*
X196468571Y-118907971D01*
X196487939Y-118904118D01*
X196503927Y-118896663D01*
X196567476Y-118888297D01*
X196574000Y-118887000D01*
X197074000Y-118887000D01*
X197080509Y-118888294D01*
G37*
G36*
X188130509Y-118788294D02*
G01*
X188194069Y-118796662D01*
X188210057Y-118804117D01*
X188229429Y-118807971D01*
X188255089Y-118825116D01*
X188281570Y-118837465D01*
X188297679Y-118853574D01*
X188318808Y-118867692D01*
X188332925Y-118888820D01*
X188349034Y-118904929D01*
X188361381Y-118931408D01*
X188378529Y-118957071D01*
X188382382Y-118976442D01*
X188389836Y-118992427D01*
X188398199Y-119055961D01*
X188399500Y-119062500D01*
X188399500Y-119537500D01*
X188398202Y-119544023D01*
X188389837Y-119607569D01*
X188382382Y-119623554D01*
X188378529Y-119642929D01*
X188361379Y-119668594D01*
X188349034Y-119695070D01*
X188332927Y-119711176D01*
X188318808Y-119732308D01*
X188297676Y-119746427D01*
X188281570Y-119762534D01*
X188255093Y-119774880D01*
X188229429Y-119792029D01*
X188210055Y-119795882D01*
X188194072Y-119803336D01*
X188130540Y-119811699D01*
X188124000Y-119813000D01*
X187524000Y-119813000D01*
X187517478Y-119811702D01*
X187453930Y-119803337D01*
X187437944Y-119795882D01*
X187418571Y-119792029D01*
X187392907Y-119774881D01*
X187366429Y-119762534D01*
X187350320Y-119746425D01*
X187329192Y-119732308D01*
X187315074Y-119711179D01*
X187298965Y-119695070D01*
X187286616Y-119668588D01*
X187269471Y-119642929D01*
X187265618Y-119623559D01*
X187258163Y-119607572D01*
X187249797Y-119544025D01*
X187248500Y-119537500D01*
X187248500Y-119062500D01*
X187249794Y-119055992D01*
X187258162Y-118992430D01*
X187265618Y-118976440D01*
X187269471Y-118957071D01*
X187286615Y-118931412D01*
X187298965Y-118904929D01*
X187315076Y-118888817D01*
X187329192Y-118867692D01*
X187350317Y-118853576D01*
X187366429Y-118837465D01*
X187392913Y-118825114D01*
X187418571Y-118807971D01*
X187437939Y-118804118D01*
X187453927Y-118796663D01*
X187517476Y-118788297D01*
X187524000Y-118787000D01*
X188124000Y-118787000D01*
X188130509Y-118788294D01*
G37*
G36*
X189855509Y-118788294D02*
G01*
X189919069Y-118796662D01*
X189935057Y-118804117D01*
X189954429Y-118807971D01*
X189980089Y-118825116D01*
X190006570Y-118837465D01*
X190022679Y-118853574D01*
X190043808Y-118867692D01*
X190057925Y-118888820D01*
X190074034Y-118904929D01*
X190086381Y-118931408D01*
X190103529Y-118957071D01*
X190107382Y-118976442D01*
X190114836Y-118992427D01*
X190123199Y-119055961D01*
X190124500Y-119062500D01*
X190124500Y-119537500D01*
X190123202Y-119544023D01*
X190114837Y-119607569D01*
X190107382Y-119623554D01*
X190103529Y-119642929D01*
X190086379Y-119668594D01*
X190074034Y-119695070D01*
X190057927Y-119711176D01*
X190043808Y-119732308D01*
X190022676Y-119746427D01*
X190006570Y-119762534D01*
X189980093Y-119774880D01*
X189954429Y-119792029D01*
X189935055Y-119795882D01*
X189919072Y-119803336D01*
X189855540Y-119811699D01*
X189849000Y-119813000D01*
X189249000Y-119813000D01*
X189242478Y-119811702D01*
X189178930Y-119803337D01*
X189162944Y-119795882D01*
X189143571Y-119792029D01*
X189117907Y-119774881D01*
X189091429Y-119762534D01*
X189075320Y-119746425D01*
X189054192Y-119732308D01*
X189040074Y-119711179D01*
X189023965Y-119695070D01*
X189011616Y-119668588D01*
X188994471Y-119642929D01*
X188990618Y-119623559D01*
X188983163Y-119607572D01*
X188974797Y-119544025D01*
X188973500Y-119537500D01*
X188973500Y-119062500D01*
X188974794Y-119055992D01*
X188983162Y-118992430D01*
X188990618Y-118976440D01*
X188994471Y-118957071D01*
X189011615Y-118931412D01*
X189023965Y-118904929D01*
X189040076Y-118888817D01*
X189054192Y-118867692D01*
X189075317Y-118853576D01*
X189091429Y-118837465D01*
X189117913Y-118825114D01*
X189143571Y-118807971D01*
X189162939Y-118804118D01*
X189178927Y-118796663D01*
X189242476Y-118788297D01*
X189249000Y-118787000D01*
X189849000Y-118787000D01*
X189855509Y-118788294D01*
G37*
G36*
X159364782Y-118461127D02*
G01*
X159489306Y-118533021D01*
X159590979Y-118634694D01*
X159662873Y-118759218D01*
X159700088Y-118898106D01*
X159700088Y-119041894D01*
X159662873Y-119180782D01*
X159590979Y-119305306D01*
X159489306Y-119406979D01*
X159364782Y-119478873D01*
X159225894Y-119516088D01*
X159082106Y-119516088D01*
X158943218Y-119478873D01*
X158818694Y-119406979D01*
X158717021Y-119305306D01*
X158645127Y-119180782D01*
X158607912Y-119041894D01*
X158607912Y-118898106D01*
X158645127Y-118759218D01*
X158717021Y-118634694D01*
X158818694Y-118533021D01*
X158943218Y-118461127D01*
X159082106Y-118423912D01*
X159225894Y-118423912D01*
X159364782Y-118461127D01*
G37*
G36*
X171364782Y-118461127D02*
G01*
X171489306Y-118533021D01*
X171590979Y-118634694D01*
X171662873Y-118759218D01*
X171700088Y-118898106D01*
X171700088Y-119041894D01*
X171662873Y-119180782D01*
X171590979Y-119305306D01*
X171489306Y-119406979D01*
X171364782Y-119478873D01*
X171225894Y-119516088D01*
X171082106Y-119516088D01*
X170943218Y-119478873D01*
X170818694Y-119406979D01*
X170717021Y-119305306D01*
X170645127Y-119180782D01*
X170607912Y-119041894D01*
X170607912Y-118898106D01*
X170645127Y-118759218D01*
X170717021Y-118634694D01*
X170818694Y-118533021D01*
X170943218Y-118461127D01*
X171082106Y-118423912D01*
X171225894Y-118423912D01*
X171364782Y-118461127D01*
G37*
G36*
X66484357Y-112484728D02*
G01*
X66802078Y-112547927D01*
X67112073Y-112641963D01*
X67411359Y-112765931D01*
X67697053Y-112918638D01*
X67966403Y-113098612D01*
X68216816Y-113304120D01*
X68445880Y-113533184D01*
X68651388Y-113783597D01*
X68831362Y-114052947D01*
X68984069Y-114338641D01*
X69108037Y-114637927D01*
X69202073Y-114947922D01*
X69265272Y-115265643D01*
X69297024Y-115588028D01*
X69297024Y-115911972D01*
X69265272Y-116234357D01*
X69202073Y-116552078D01*
X69108037Y-116862073D01*
X68984069Y-117161359D01*
X68831362Y-117447053D01*
X68651388Y-117716403D01*
X68445880Y-117966816D01*
X68216816Y-118195880D01*
X67966403Y-118401388D01*
X67697053Y-118581362D01*
X67411359Y-118734069D01*
X67112073Y-118858037D01*
X66802078Y-118952073D01*
X66484357Y-119015272D01*
X66161972Y-119047024D01*
X65838028Y-119047024D01*
X65515643Y-119015272D01*
X65197922Y-118952073D01*
X64887927Y-118858037D01*
X64588641Y-118734069D01*
X64302947Y-118581362D01*
X64033597Y-118401388D01*
X63783184Y-118195880D01*
X63554120Y-117966816D01*
X63348612Y-117716403D01*
X63168638Y-117447053D01*
X63015931Y-117161359D01*
X62891963Y-116862073D01*
X62797927Y-116552078D01*
X62734728Y-116234357D01*
X62702976Y-115911972D01*
X62702976Y-115588028D01*
X62734728Y-115265643D01*
X62797927Y-114947922D01*
X62891963Y-114637927D01*
X63015931Y-114338641D01*
X63168638Y-114052947D01*
X63348612Y-113783597D01*
X63554120Y-113533184D01*
X63783184Y-113304120D01*
X64033597Y-113098612D01*
X64302947Y-112918638D01*
X64588641Y-112765931D01*
X64887927Y-112641963D01*
X65197922Y-112547927D01*
X65515643Y-112484728D01*
X65838028Y-112452976D01*
X66161972Y-112452976D01*
X66484357Y-112484728D01*
G37*
G36*
X223534057Y-112484728D02*
G01*
X223851778Y-112547927D01*
X224161773Y-112641963D01*
X224461059Y-112765931D01*
X224746753Y-112918638D01*
X225016103Y-113098612D01*
X225266516Y-113304120D01*
X225495580Y-113533184D01*
X225701088Y-113783597D01*
X225881062Y-114052947D01*
X226033769Y-114338641D01*
X226157737Y-114637927D01*
X226251773Y-114947922D01*
X226314972Y-115265643D01*
X226346724Y-115588028D01*
X226346724Y-115911972D01*
X226314972Y-116234357D01*
X226251773Y-116552078D01*
X226157737Y-116862073D01*
X226033769Y-117161359D01*
X225881062Y-117447053D01*
X225701088Y-117716403D01*
X225495580Y-117966816D01*
X225266516Y-118195880D01*
X225016103Y-118401388D01*
X224746753Y-118581362D01*
X224461059Y-118734069D01*
X224161773Y-118858037D01*
X223851778Y-118952073D01*
X223534057Y-119015272D01*
X223211672Y-119047024D01*
X222887728Y-119047024D01*
X222565343Y-119015272D01*
X222247622Y-118952073D01*
X221937627Y-118858037D01*
X221638341Y-118734069D01*
X221352647Y-118581362D01*
X221083297Y-118401388D01*
X220832884Y-118195880D01*
X220603820Y-117966816D01*
X220398312Y-117716403D01*
X220218338Y-117447053D01*
X220065631Y-117161359D01*
X219941663Y-116862073D01*
X219847627Y-116552078D01*
X219784428Y-116234357D01*
X219752676Y-115911972D01*
X219752676Y-115588028D01*
X219784428Y-115265643D01*
X219847627Y-114947922D01*
X219941663Y-114637927D01*
X220065631Y-114338641D01*
X220218338Y-114052947D01*
X220398312Y-113783597D01*
X220603820Y-113533184D01*
X220832884Y-113304120D01*
X221083297Y-113098612D01*
X221352647Y-112918638D01*
X221638341Y-112765931D01*
X221937627Y-112641963D01*
X222247622Y-112547927D01*
X222565343Y-112484728D01*
X222887728Y-112452976D01*
X223211672Y-112452976D01*
X223534057Y-112484728D01*
G37*
G36*
X71292136Y-116904260D02*
G01*
X71302196Y-116904260D01*
X71341505Y-116912079D01*
X71444468Y-116928386D01*
X71477588Y-116939147D01*
X71504231Y-116944447D01*
X71541827Y-116960020D01*
X71601267Y-116979333D01*
X71656950Y-117007705D01*
X71694544Y-117023277D01*
X71717128Y-117038367D01*
X71748158Y-117054178D01*
X71832506Y-117115461D01*
X71865820Y-117137721D01*
X71872930Y-117144831D01*
X71881539Y-117151086D01*
X71998113Y-117267660D01*
X72004367Y-117276268D01*
X72011479Y-117283380D01*
X72033741Y-117316698D01*
X72095021Y-117401041D01*
X72110830Y-117432068D01*
X72125923Y-117454656D01*
X72141496Y-117492254D01*
X72169866Y-117547932D01*
X72189176Y-117607364D01*
X72204753Y-117644969D01*
X72210053Y-117671616D01*
X72220813Y-117704731D01*
X72237119Y-117807689D01*
X72244940Y-117847004D01*
X72244940Y-117857063D01*
X72246604Y-117867570D01*
X72246604Y-118032429D01*
X72244940Y-118042935D01*
X72244940Y-118052996D01*
X72237119Y-118092314D01*
X72220813Y-118195268D01*
X72210054Y-118228380D01*
X72204753Y-118255031D01*
X72189175Y-118292639D01*
X72169866Y-118352067D01*
X72141498Y-118407740D01*
X72125923Y-118445344D01*
X72110828Y-118467934D01*
X72095021Y-118498958D01*
X72033749Y-118583289D01*
X72011479Y-118616620D01*
X72004364Y-118623734D01*
X71998113Y-118632339D01*
X71881539Y-118748913D01*
X71872934Y-118755164D01*
X71865820Y-118762279D01*
X71832489Y-118784549D01*
X71748158Y-118845821D01*
X71717134Y-118861628D01*
X71694544Y-118876723D01*
X71656940Y-118892298D01*
X71601267Y-118920666D01*
X71541839Y-118939975D01*
X71504231Y-118955553D01*
X71477580Y-118960854D01*
X71444468Y-118971613D01*
X71341514Y-118987919D01*
X71302196Y-118995740D01*
X71292135Y-118995740D01*
X71281629Y-118997404D01*
X71116771Y-118997404D01*
X71106265Y-118995740D01*
X71096204Y-118995740D01*
X71056887Y-118987919D01*
X70953931Y-118971613D01*
X70920816Y-118960853D01*
X70894169Y-118955553D01*
X70856564Y-118939976D01*
X70797132Y-118920666D01*
X70741454Y-118892296D01*
X70703856Y-118876723D01*
X70681268Y-118861630D01*
X70650241Y-118845821D01*
X70565898Y-118784541D01*
X70532580Y-118762279D01*
X70525468Y-118755167D01*
X70516860Y-118748913D01*
X70400286Y-118632339D01*
X70394031Y-118623730D01*
X70386921Y-118616620D01*
X70364661Y-118583306D01*
X70303378Y-118498958D01*
X70287567Y-118467928D01*
X70272477Y-118445344D01*
X70256905Y-118407750D01*
X70228533Y-118352067D01*
X70209220Y-118292627D01*
X70193647Y-118255031D01*
X70188347Y-118228388D01*
X70177586Y-118195268D01*
X70161279Y-118092305D01*
X70153460Y-118052996D01*
X70153460Y-118042935D01*
X70151796Y-118032429D01*
X70151796Y-117867570D01*
X70153460Y-117857063D01*
X70153460Y-117847004D01*
X70161278Y-117807698D01*
X70177586Y-117704731D01*
X70188348Y-117671608D01*
X70193647Y-117644969D01*
X70209218Y-117607375D01*
X70228533Y-117547932D01*
X70256907Y-117492243D01*
X70272477Y-117454656D01*
X70287565Y-117432074D01*
X70303378Y-117401041D01*
X70364669Y-117316680D01*
X70386921Y-117283380D01*
X70394028Y-117276272D01*
X70400286Y-117267660D01*
X70516860Y-117151086D01*
X70525472Y-117144828D01*
X70532580Y-117137721D01*
X70565880Y-117115469D01*
X70650241Y-117054178D01*
X70681274Y-117038365D01*
X70703856Y-117023277D01*
X70741443Y-117007707D01*
X70797132Y-116979333D01*
X70856575Y-116960018D01*
X70894169Y-116944447D01*
X70920808Y-116939148D01*
X70953931Y-116928386D01*
X71056896Y-116912078D01*
X71096204Y-116904260D01*
X71106264Y-116904260D01*
X71116771Y-116902596D01*
X71281629Y-116902596D01*
X71292136Y-116904260D01*
G37*
G36*
X112791936Y-116904260D02*
G01*
X112801996Y-116904260D01*
X112841305Y-116912079D01*
X112944268Y-116928386D01*
X112977388Y-116939147D01*
X113004031Y-116944447D01*
X113041627Y-116960020D01*
X113101067Y-116979333D01*
X113156750Y-117007705D01*
X113194344Y-117023277D01*
X113216928Y-117038367D01*
X113247958Y-117054178D01*
X113332306Y-117115461D01*
X113365620Y-117137721D01*
X113372730Y-117144831D01*
X113381339Y-117151086D01*
X113497913Y-117267660D01*
X113504167Y-117276268D01*
X113511279Y-117283380D01*
X113533541Y-117316698D01*
X113594821Y-117401041D01*
X113610630Y-117432068D01*
X113625723Y-117454656D01*
X113641296Y-117492254D01*
X113669666Y-117547932D01*
X113688976Y-117607364D01*
X113704553Y-117644969D01*
X113709853Y-117671616D01*
X113720613Y-117704731D01*
X113736919Y-117807689D01*
X113744740Y-117847004D01*
X113744740Y-117857063D01*
X113746404Y-117867570D01*
X113746404Y-118032429D01*
X113744740Y-118042935D01*
X113744740Y-118052996D01*
X113736919Y-118092314D01*
X113720613Y-118195268D01*
X113709854Y-118228380D01*
X113704553Y-118255031D01*
X113688975Y-118292639D01*
X113669666Y-118352067D01*
X113641298Y-118407740D01*
X113625723Y-118445344D01*
X113610628Y-118467934D01*
X113594821Y-118498958D01*
X113533549Y-118583289D01*
X113511279Y-118616620D01*
X113504164Y-118623734D01*
X113497913Y-118632339D01*
X113381339Y-118748913D01*
X113372734Y-118755164D01*
X113365620Y-118762279D01*
X113332289Y-118784549D01*
X113247958Y-118845821D01*
X113216934Y-118861628D01*
X113194344Y-118876723D01*
X113156740Y-118892298D01*
X113101067Y-118920666D01*
X113041639Y-118939975D01*
X113004031Y-118955553D01*
X112977380Y-118960854D01*
X112944268Y-118971613D01*
X112841314Y-118987919D01*
X112801996Y-118995740D01*
X112791935Y-118995740D01*
X112781429Y-118997404D01*
X112616571Y-118997404D01*
X112606065Y-118995740D01*
X112596004Y-118995740D01*
X112556687Y-118987919D01*
X112453731Y-118971613D01*
X112420616Y-118960853D01*
X112393969Y-118955553D01*
X112356364Y-118939976D01*
X112296932Y-118920666D01*
X112241254Y-118892296D01*
X112203656Y-118876723D01*
X112181068Y-118861630D01*
X112150041Y-118845821D01*
X112065698Y-118784541D01*
X112032380Y-118762279D01*
X112025268Y-118755167D01*
X112016660Y-118748913D01*
X111900086Y-118632339D01*
X111893831Y-118623730D01*
X111886721Y-118616620D01*
X111864461Y-118583306D01*
X111803178Y-118498958D01*
X111787367Y-118467928D01*
X111772277Y-118445344D01*
X111756705Y-118407750D01*
X111728333Y-118352067D01*
X111709020Y-118292627D01*
X111693447Y-118255031D01*
X111688147Y-118228388D01*
X111677386Y-118195268D01*
X111661079Y-118092305D01*
X111653260Y-118052996D01*
X111653260Y-118042935D01*
X111651596Y-118032429D01*
X111651596Y-117867570D01*
X111653260Y-117857063D01*
X111653260Y-117847004D01*
X111661078Y-117807698D01*
X111677386Y-117704731D01*
X111688148Y-117671608D01*
X111693447Y-117644969D01*
X111709018Y-117607375D01*
X111728333Y-117547932D01*
X111756707Y-117492243D01*
X111772277Y-117454656D01*
X111787365Y-117432074D01*
X111803178Y-117401041D01*
X111864469Y-117316680D01*
X111886721Y-117283380D01*
X111893828Y-117276272D01*
X111900086Y-117267660D01*
X112016660Y-117151086D01*
X112025272Y-117144828D01*
X112032380Y-117137721D01*
X112065680Y-117115469D01*
X112150041Y-117054178D01*
X112181074Y-117038365D01*
X112203656Y-117023277D01*
X112241243Y-117007707D01*
X112296932Y-116979333D01*
X112356375Y-116960018D01*
X112393969Y-116944447D01*
X112420608Y-116939148D01*
X112453731Y-116928386D01*
X112556696Y-116912078D01*
X112596004Y-116904260D01*
X112606064Y-116904260D01*
X112616571Y-116902596D01*
X112781429Y-116902596D01*
X112791936Y-116904260D01*
G37*
G36*
X176342136Y-116904260D02*
G01*
X176352196Y-116904260D01*
X176391505Y-116912079D01*
X176494468Y-116928386D01*
X176527588Y-116939147D01*
X176554231Y-116944447D01*
X176591827Y-116960020D01*
X176651267Y-116979333D01*
X176706950Y-117007705D01*
X176744544Y-117023277D01*
X176767128Y-117038367D01*
X176798158Y-117054178D01*
X176882506Y-117115461D01*
X176915820Y-117137721D01*
X176922930Y-117144831D01*
X176931539Y-117151086D01*
X177048113Y-117267660D01*
X177054367Y-117276268D01*
X177061479Y-117283380D01*
X177083741Y-117316698D01*
X177145021Y-117401041D01*
X177160830Y-117432068D01*
X177175923Y-117454656D01*
X177191496Y-117492254D01*
X177219866Y-117547932D01*
X177239176Y-117607364D01*
X177254753Y-117644969D01*
X177260053Y-117671616D01*
X177270813Y-117704731D01*
X177287119Y-117807689D01*
X177294940Y-117847004D01*
X177294940Y-117857063D01*
X177296604Y-117867570D01*
X177296604Y-118032429D01*
X177294940Y-118042935D01*
X177294940Y-118052996D01*
X177287119Y-118092314D01*
X177270813Y-118195268D01*
X177260054Y-118228380D01*
X177254753Y-118255031D01*
X177239175Y-118292639D01*
X177219866Y-118352067D01*
X177191498Y-118407740D01*
X177175923Y-118445344D01*
X177160828Y-118467934D01*
X177145021Y-118498958D01*
X177083749Y-118583289D01*
X177061479Y-118616620D01*
X177054364Y-118623734D01*
X177048113Y-118632339D01*
X176931539Y-118748913D01*
X176922934Y-118755164D01*
X176915820Y-118762279D01*
X176882489Y-118784549D01*
X176798158Y-118845821D01*
X176767134Y-118861628D01*
X176744544Y-118876723D01*
X176706940Y-118892298D01*
X176651267Y-118920666D01*
X176591839Y-118939975D01*
X176554231Y-118955553D01*
X176527580Y-118960854D01*
X176494468Y-118971613D01*
X176391514Y-118987919D01*
X176352196Y-118995740D01*
X176342135Y-118995740D01*
X176331629Y-118997404D01*
X176166771Y-118997404D01*
X176156265Y-118995740D01*
X176146204Y-118995740D01*
X176106887Y-118987919D01*
X176003931Y-118971613D01*
X175970816Y-118960853D01*
X175944169Y-118955553D01*
X175906564Y-118939976D01*
X175847132Y-118920666D01*
X175791454Y-118892296D01*
X175753856Y-118876723D01*
X175731268Y-118861630D01*
X175700241Y-118845821D01*
X175615898Y-118784541D01*
X175582580Y-118762279D01*
X175575468Y-118755167D01*
X175566860Y-118748913D01*
X175450286Y-118632339D01*
X175444031Y-118623730D01*
X175436921Y-118616620D01*
X175414661Y-118583306D01*
X175353378Y-118498958D01*
X175337567Y-118467928D01*
X175322477Y-118445344D01*
X175306905Y-118407750D01*
X175278533Y-118352067D01*
X175259220Y-118292627D01*
X175243647Y-118255031D01*
X175238347Y-118228388D01*
X175227586Y-118195268D01*
X175211279Y-118092305D01*
X175203460Y-118052996D01*
X175203460Y-118042935D01*
X175201796Y-118032429D01*
X175201796Y-117867570D01*
X175203460Y-117857063D01*
X175203460Y-117847004D01*
X175211278Y-117807698D01*
X175227586Y-117704731D01*
X175238348Y-117671608D01*
X175243647Y-117644969D01*
X175259218Y-117607375D01*
X175278533Y-117547932D01*
X175306907Y-117492243D01*
X175322477Y-117454656D01*
X175337565Y-117432074D01*
X175353378Y-117401041D01*
X175414669Y-117316680D01*
X175436921Y-117283380D01*
X175444028Y-117276272D01*
X175450286Y-117267660D01*
X175566860Y-117151086D01*
X175575472Y-117144828D01*
X175582580Y-117137721D01*
X175615880Y-117115469D01*
X175700241Y-117054178D01*
X175731274Y-117038365D01*
X175753856Y-117023277D01*
X175791443Y-117007707D01*
X175847132Y-116979333D01*
X175906575Y-116960018D01*
X175944169Y-116944447D01*
X175970808Y-116939148D01*
X176003931Y-116928386D01*
X176106896Y-116912078D01*
X176146204Y-116904260D01*
X176156264Y-116904260D01*
X176166771Y-116902596D01*
X176331629Y-116902596D01*
X176342136Y-116904260D01*
G37*
G36*
X217841936Y-116904260D02*
G01*
X217851996Y-116904260D01*
X217891305Y-116912079D01*
X217994268Y-116928386D01*
X218027388Y-116939147D01*
X218054031Y-116944447D01*
X218091627Y-116960020D01*
X218151067Y-116979333D01*
X218206750Y-117007705D01*
X218244344Y-117023277D01*
X218266928Y-117038367D01*
X218297958Y-117054178D01*
X218382306Y-117115461D01*
X218415620Y-117137721D01*
X218422730Y-117144831D01*
X218431339Y-117151086D01*
X218547913Y-117267660D01*
X218554167Y-117276268D01*
X218561279Y-117283380D01*
X218583541Y-117316698D01*
X218644821Y-117401041D01*
X218660630Y-117432068D01*
X218675723Y-117454656D01*
X218691296Y-117492254D01*
X218719666Y-117547932D01*
X218738976Y-117607364D01*
X218754553Y-117644969D01*
X218759853Y-117671616D01*
X218770613Y-117704731D01*
X218786919Y-117807689D01*
X218794740Y-117847004D01*
X218794740Y-117857063D01*
X218796404Y-117867570D01*
X218796404Y-118032429D01*
X218794740Y-118042935D01*
X218794740Y-118052996D01*
X218786919Y-118092314D01*
X218770613Y-118195268D01*
X218759854Y-118228380D01*
X218754553Y-118255031D01*
X218738975Y-118292639D01*
X218719666Y-118352067D01*
X218691298Y-118407740D01*
X218675723Y-118445344D01*
X218660628Y-118467934D01*
X218644821Y-118498958D01*
X218583549Y-118583289D01*
X218561279Y-118616620D01*
X218554164Y-118623734D01*
X218547913Y-118632339D01*
X218431339Y-118748913D01*
X218422734Y-118755164D01*
X218415620Y-118762279D01*
X218382289Y-118784549D01*
X218297958Y-118845821D01*
X218266934Y-118861628D01*
X218244344Y-118876723D01*
X218206740Y-118892298D01*
X218151067Y-118920666D01*
X218091639Y-118939975D01*
X218054031Y-118955553D01*
X218027380Y-118960854D01*
X217994268Y-118971613D01*
X217891314Y-118987919D01*
X217851996Y-118995740D01*
X217841935Y-118995740D01*
X217831429Y-118997404D01*
X217666571Y-118997404D01*
X217656065Y-118995740D01*
X217646004Y-118995740D01*
X217606687Y-118987919D01*
X217503731Y-118971613D01*
X217470616Y-118960853D01*
X217443969Y-118955553D01*
X217406364Y-118939976D01*
X217346932Y-118920666D01*
X217291254Y-118892296D01*
X217253656Y-118876723D01*
X217231068Y-118861630D01*
X217200041Y-118845821D01*
X217115698Y-118784541D01*
X217082380Y-118762279D01*
X217075268Y-118755167D01*
X217066660Y-118748913D01*
X216950086Y-118632339D01*
X216943831Y-118623730D01*
X216936721Y-118616620D01*
X216914461Y-118583306D01*
X216853178Y-118498958D01*
X216837367Y-118467928D01*
X216822277Y-118445344D01*
X216806705Y-118407750D01*
X216778333Y-118352067D01*
X216759020Y-118292627D01*
X216743447Y-118255031D01*
X216738147Y-118228388D01*
X216727386Y-118195268D01*
X216711079Y-118092305D01*
X216703260Y-118052996D01*
X216703260Y-118042935D01*
X216701596Y-118032429D01*
X216701596Y-117867570D01*
X216703260Y-117857063D01*
X216703260Y-117847004D01*
X216711078Y-117807698D01*
X216727386Y-117704731D01*
X216738148Y-117671608D01*
X216743447Y-117644969D01*
X216759018Y-117607375D01*
X216778333Y-117547932D01*
X216806707Y-117492243D01*
X216822277Y-117454656D01*
X216837365Y-117432074D01*
X216853178Y-117401041D01*
X216914469Y-117316680D01*
X216936721Y-117283380D01*
X216943828Y-117276272D01*
X216950086Y-117267660D01*
X217066660Y-117151086D01*
X217075272Y-117144828D01*
X217082380Y-117137721D01*
X217115680Y-117115469D01*
X217200041Y-117054178D01*
X217231074Y-117038365D01*
X217253656Y-117023277D01*
X217291243Y-117007707D01*
X217346932Y-116979333D01*
X217406375Y-116960018D01*
X217443969Y-116944447D01*
X217470608Y-116939148D01*
X217503731Y-116928386D01*
X217606696Y-116912078D01*
X217646004Y-116904260D01*
X217656064Y-116904260D01*
X217666571Y-116902596D01*
X217831429Y-116902596D01*
X217841936Y-116904260D01*
G37*
G36*
X76329982Y-117441127D02*
G01*
X76454506Y-117513021D01*
X76556179Y-117614694D01*
X76628073Y-117739218D01*
X76665288Y-117878106D01*
X76665288Y-118021894D01*
X76628073Y-118160782D01*
X76556179Y-118285306D01*
X76454506Y-118386979D01*
X76329982Y-118458873D01*
X76191094Y-118496088D01*
X76047306Y-118496088D01*
X75908418Y-118458873D01*
X75783894Y-118386979D01*
X75682221Y-118285306D01*
X75610327Y-118160782D01*
X75573112Y-118021894D01*
X75573112Y-117878106D01*
X75610327Y-117739218D01*
X75682221Y-117614694D01*
X75783894Y-117513021D01*
X75908418Y-117441127D01*
X76047306Y-117403912D01*
X76191094Y-117403912D01*
X76329982Y-117441127D01*
G37*
G36*
X77599982Y-117441127D02*
G01*
X77724506Y-117513021D01*
X77826179Y-117614694D01*
X77898073Y-117739218D01*
X77935288Y-117878106D01*
X77935288Y-118021894D01*
X77898073Y-118160782D01*
X77826179Y-118285306D01*
X77724506Y-118386979D01*
X77599982Y-118458873D01*
X77461094Y-118496088D01*
X77317306Y-118496088D01*
X77178418Y-118458873D01*
X77053894Y-118386979D01*
X76952221Y-118285306D01*
X76880327Y-118160782D01*
X76843112Y-118021894D01*
X76843112Y-117878106D01*
X76880327Y-117739218D01*
X76952221Y-117614694D01*
X77053894Y-117513021D01*
X77178418Y-117441127D01*
X77317306Y-117403912D01*
X77461094Y-117403912D01*
X77599982Y-117441127D01*
G37*
G36*
X78869982Y-117441127D02*
G01*
X78994506Y-117513021D01*
X79096179Y-117614694D01*
X79168073Y-117739218D01*
X79205288Y-117878106D01*
X79205288Y-118021894D01*
X79168073Y-118160782D01*
X79096179Y-118285306D01*
X78994506Y-118386979D01*
X78869982Y-118458873D01*
X78731094Y-118496088D01*
X78587306Y-118496088D01*
X78448418Y-118458873D01*
X78323894Y-118386979D01*
X78222221Y-118285306D01*
X78150327Y-118160782D01*
X78113112Y-118021894D01*
X78113112Y-117878106D01*
X78150327Y-117739218D01*
X78222221Y-117614694D01*
X78323894Y-117513021D01*
X78448418Y-117441127D01*
X78587306Y-117403912D01*
X78731094Y-117403912D01*
X78869982Y-117441127D01*
G37*
G36*
X80139982Y-117441127D02*
G01*
X80264506Y-117513021D01*
X80366179Y-117614694D01*
X80438073Y-117739218D01*
X80475288Y-117878106D01*
X80475288Y-118021894D01*
X80438073Y-118160782D01*
X80366179Y-118285306D01*
X80264506Y-118386979D01*
X80139982Y-118458873D01*
X80001094Y-118496088D01*
X79857306Y-118496088D01*
X79718418Y-118458873D01*
X79593894Y-118386979D01*
X79492221Y-118285306D01*
X79420327Y-118160782D01*
X79383112Y-118021894D01*
X79383112Y-117878106D01*
X79420327Y-117739218D01*
X79492221Y-117614694D01*
X79593894Y-117513021D01*
X79718418Y-117441127D01*
X79857306Y-117403912D01*
X80001094Y-117403912D01*
X80139982Y-117441127D01*
G37*
G36*
X81409982Y-117441127D02*
G01*
X81534506Y-117513021D01*
X81636179Y-117614694D01*
X81708073Y-117739218D01*
X81745288Y-117878106D01*
X81745288Y-118021894D01*
X81708073Y-118160782D01*
X81636179Y-118285306D01*
X81534506Y-118386979D01*
X81409982Y-118458873D01*
X81271094Y-118496088D01*
X81127306Y-118496088D01*
X80988418Y-118458873D01*
X80863894Y-118386979D01*
X80762221Y-118285306D01*
X80690327Y-118160782D01*
X80653112Y-118021894D01*
X80653112Y-117878106D01*
X80690327Y-117739218D01*
X80762221Y-117614694D01*
X80863894Y-117513021D01*
X80988418Y-117441127D01*
X81127306Y-117403912D01*
X81271094Y-117403912D01*
X81409982Y-117441127D01*
G37*
G36*
X82679982Y-117441127D02*
G01*
X82804506Y-117513021D01*
X82906179Y-117614694D01*
X82978073Y-117739218D01*
X83015288Y-117878106D01*
X83015288Y-118021894D01*
X82978073Y-118160782D01*
X82906179Y-118285306D01*
X82804506Y-118386979D01*
X82679982Y-118458873D01*
X82541094Y-118496088D01*
X82397306Y-118496088D01*
X82258418Y-118458873D01*
X82133894Y-118386979D01*
X82032221Y-118285306D01*
X81960327Y-118160782D01*
X81923112Y-118021894D01*
X81923112Y-117878106D01*
X81960327Y-117739218D01*
X82032221Y-117614694D01*
X82133894Y-117513021D01*
X82258418Y-117441127D01*
X82397306Y-117403912D01*
X82541094Y-117403912D01*
X82679982Y-117441127D01*
G37*
G36*
X83949982Y-117441127D02*
G01*
X84074506Y-117513021D01*
X84176179Y-117614694D01*
X84248073Y-117739218D01*
X84285288Y-117878106D01*
X84285288Y-118021894D01*
X84248073Y-118160782D01*
X84176179Y-118285306D01*
X84074506Y-118386979D01*
X83949982Y-118458873D01*
X83811094Y-118496088D01*
X83667306Y-118496088D01*
X83528418Y-118458873D01*
X83403894Y-118386979D01*
X83302221Y-118285306D01*
X83230327Y-118160782D01*
X83193112Y-118021894D01*
X83193112Y-117878106D01*
X83230327Y-117739218D01*
X83302221Y-117614694D01*
X83403894Y-117513021D01*
X83528418Y-117441127D01*
X83667306Y-117403912D01*
X83811094Y-117403912D01*
X83949982Y-117441127D01*
G37*
G36*
X85219982Y-117441127D02*
G01*
X85344506Y-117513021D01*
X85446179Y-117614694D01*
X85518073Y-117739218D01*
X85555288Y-117878106D01*
X85555288Y-118021894D01*
X85518073Y-118160782D01*
X85446179Y-118285306D01*
X85344506Y-118386979D01*
X85219982Y-118458873D01*
X85081094Y-118496088D01*
X84937306Y-118496088D01*
X84798418Y-118458873D01*
X84673894Y-118386979D01*
X84572221Y-118285306D01*
X84500327Y-118160782D01*
X84463112Y-118021894D01*
X84463112Y-117878106D01*
X84500327Y-117739218D01*
X84572221Y-117614694D01*
X84673894Y-117513021D01*
X84798418Y-117441127D01*
X84937306Y-117403912D01*
X85081094Y-117403912D01*
X85219982Y-117441127D01*
G37*
G36*
X86489982Y-117441127D02*
G01*
X86614506Y-117513021D01*
X86716179Y-117614694D01*
X86788073Y-117739218D01*
X86825288Y-117878106D01*
X86825288Y-118021894D01*
X86788073Y-118160782D01*
X86716179Y-118285306D01*
X86614506Y-118386979D01*
X86489982Y-118458873D01*
X86351094Y-118496088D01*
X86207306Y-118496088D01*
X86068418Y-118458873D01*
X85943894Y-118386979D01*
X85842221Y-118285306D01*
X85770327Y-118160782D01*
X85733112Y-118021894D01*
X85733112Y-117878106D01*
X85770327Y-117739218D01*
X85842221Y-117614694D01*
X85943894Y-117513021D01*
X86068418Y-117441127D01*
X86207306Y-117403912D01*
X86351094Y-117403912D01*
X86489982Y-117441127D01*
G37*
G36*
X87759982Y-117441127D02*
G01*
X87884506Y-117513021D01*
X87986179Y-117614694D01*
X88058073Y-117739218D01*
X88095288Y-117878106D01*
X88095288Y-118021894D01*
X88058073Y-118160782D01*
X87986179Y-118285306D01*
X87884506Y-118386979D01*
X87759982Y-118458873D01*
X87621094Y-118496088D01*
X87477306Y-118496088D01*
X87338418Y-118458873D01*
X87213894Y-118386979D01*
X87112221Y-118285306D01*
X87040327Y-118160782D01*
X87003112Y-118021894D01*
X87003112Y-117878106D01*
X87040327Y-117739218D01*
X87112221Y-117614694D01*
X87213894Y-117513021D01*
X87338418Y-117441127D01*
X87477306Y-117403912D01*
X87621094Y-117403912D01*
X87759982Y-117441127D01*
G37*
G36*
X89029982Y-117441127D02*
G01*
X89154506Y-117513021D01*
X89256179Y-117614694D01*
X89328073Y-117739218D01*
X89365288Y-117878106D01*
X89365288Y-118021894D01*
X89328073Y-118160782D01*
X89256179Y-118285306D01*
X89154506Y-118386979D01*
X89029982Y-118458873D01*
X88891094Y-118496088D01*
X88747306Y-118496088D01*
X88608418Y-118458873D01*
X88483894Y-118386979D01*
X88382221Y-118285306D01*
X88310327Y-118160782D01*
X88273112Y-118021894D01*
X88273112Y-117878106D01*
X88310327Y-117739218D01*
X88382221Y-117614694D01*
X88483894Y-117513021D01*
X88608418Y-117441127D01*
X88747306Y-117403912D01*
X88891094Y-117403912D01*
X89029982Y-117441127D01*
G37*
G36*
X90299982Y-117441127D02*
G01*
X90424506Y-117513021D01*
X90526179Y-117614694D01*
X90598073Y-117739218D01*
X90635288Y-117878106D01*
X90635288Y-118021894D01*
X90598073Y-118160782D01*
X90526179Y-118285306D01*
X90424506Y-118386979D01*
X90299982Y-118458873D01*
X90161094Y-118496088D01*
X90017306Y-118496088D01*
X89878418Y-118458873D01*
X89753894Y-118386979D01*
X89652221Y-118285306D01*
X89580327Y-118160782D01*
X89543112Y-118021894D01*
X89543112Y-117878106D01*
X89580327Y-117739218D01*
X89652221Y-117614694D01*
X89753894Y-117513021D01*
X89878418Y-117441127D01*
X90017306Y-117403912D01*
X90161094Y-117403912D01*
X90299982Y-117441127D01*
G37*
G36*
X91569982Y-117441127D02*
G01*
X91694506Y-117513021D01*
X91796179Y-117614694D01*
X91868073Y-117739218D01*
X91905288Y-117878106D01*
X91905288Y-118021894D01*
X91868073Y-118160782D01*
X91796179Y-118285306D01*
X91694506Y-118386979D01*
X91569982Y-118458873D01*
X91431094Y-118496088D01*
X91287306Y-118496088D01*
X91148418Y-118458873D01*
X91023894Y-118386979D01*
X90922221Y-118285306D01*
X90850327Y-118160782D01*
X90813112Y-118021894D01*
X90813112Y-117878106D01*
X90850327Y-117739218D01*
X90922221Y-117614694D01*
X91023894Y-117513021D01*
X91148418Y-117441127D01*
X91287306Y-117403912D01*
X91431094Y-117403912D01*
X91569982Y-117441127D01*
G37*
G36*
X92839982Y-117441127D02*
G01*
X92964506Y-117513021D01*
X93066179Y-117614694D01*
X93138073Y-117739218D01*
X93175288Y-117878106D01*
X93175288Y-118021894D01*
X93138073Y-118160782D01*
X93066179Y-118285306D01*
X92964506Y-118386979D01*
X92839982Y-118458873D01*
X92701094Y-118496088D01*
X92557306Y-118496088D01*
X92418418Y-118458873D01*
X92293894Y-118386979D01*
X92192221Y-118285306D01*
X92120327Y-118160782D01*
X92083112Y-118021894D01*
X92083112Y-117878106D01*
X92120327Y-117739218D01*
X92192221Y-117614694D01*
X92293894Y-117513021D01*
X92418418Y-117441127D01*
X92557306Y-117403912D01*
X92701094Y-117403912D01*
X92839982Y-117441127D01*
G37*
G36*
X94109982Y-117441127D02*
G01*
X94234506Y-117513021D01*
X94336179Y-117614694D01*
X94408073Y-117739218D01*
X94445288Y-117878106D01*
X94445288Y-118021894D01*
X94408073Y-118160782D01*
X94336179Y-118285306D01*
X94234506Y-118386979D01*
X94109982Y-118458873D01*
X93971094Y-118496088D01*
X93827306Y-118496088D01*
X93688418Y-118458873D01*
X93563894Y-118386979D01*
X93462221Y-118285306D01*
X93390327Y-118160782D01*
X93353112Y-118021894D01*
X93353112Y-117878106D01*
X93390327Y-117739218D01*
X93462221Y-117614694D01*
X93563894Y-117513021D01*
X93688418Y-117441127D01*
X93827306Y-117403912D01*
X93971094Y-117403912D01*
X94109982Y-117441127D01*
G37*
G36*
X100369782Y-117441127D02*
G01*
X100494306Y-117513021D01*
X100595979Y-117614694D01*
X100667873Y-117739218D01*
X100705088Y-117878106D01*
X100705088Y-118021894D01*
X100667873Y-118160782D01*
X100595979Y-118285306D01*
X100494306Y-118386979D01*
X100369782Y-118458873D01*
X100230894Y-118496088D01*
X100087106Y-118496088D01*
X99948218Y-118458873D01*
X99823694Y-118386979D01*
X99722021Y-118285306D01*
X99650127Y-118160782D01*
X99612912Y-118021894D01*
X99612912Y-117878106D01*
X99650127Y-117739218D01*
X99722021Y-117614694D01*
X99823694Y-117513021D01*
X99948218Y-117441127D01*
X100087106Y-117403912D01*
X100230894Y-117403912D01*
X100369782Y-117441127D01*
G37*
G36*
X101639782Y-117441127D02*
G01*
X101764306Y-117513021D01*
X101865979Y-117614694D01*
X101937873Y-117739218D01*
X101975088Y-117878106D01*
X101975088Y-118021894D01*
X101937873Y-118160782D01*
X101865979Y-118285306D01*
X101764306Y-118386979D01*
X101639782Y-118458873D01*
X101500894Y-118496088D01*
X101357106Y-118496088D01*
X101218218Y-118458873D01*
X101093694Y-118386979D01*
X100992021Y-118285306D01*
X100920127Y-118160782D01*
X100882912Y-118021894D01*
X100882912Y-117878106D01*
X100920127Y-117739218D01*
X100992021Y-117614694D01*
X101093694Y-117513021D01*
X101218218Y-117441127D01*
X101357106Y-117403912D01*
X101500894Y-117403912D01*
X101639782Y-117441127D01*
G37*
G36*
X102909782Y-117441127D02*
G01*
X103034306Y-117513021D01*
X103135979Y-117614694D01*
X103207873Y-117739218D01*
X103245088Y-117878106D01*
X103245088Y-118021894D01*
X103207873Y-118160782D01*
X103135979Y-118285306D01*
X103034306Y-118386979D01*
X102909782Y-118458873D01*
X102770894Y-118496088D01*
X102627106Y-118496088D01*
X102488218Y-118458873D01*
X102363694Y-118386979D01*
X102262021Y-118285306D01*
X102190127Y-118160782D01*
X102152912Y-118021894D01*
X102152912Y-117878106D01*
X102190127Y-117739218D01*
X102262021Y-117614694D01*
X102363694Y-117513021D01*
X102488218Y-117441127D01*
X102627106Y-117403912D01*
X102770894Y-117403912D01*
X102909782Y-117441127D01*
G37*
G36*
X104179782Y-117441127D02*
G01*
X104304306Y-117513021D01*
X104405979Y-117614694D01*
X104477873Y-117739218D01*
X104515088Y-117878106D01*
X104515088Y-118021894D01*
X104477873Y-118160782D01*
X104405979Y-118285306D01*
X104304306Y-118386979D01*
X104179782Y-118458873D01*
X104040894Y-118496088D01*
X103897106Y-118496088D01*
X103758218Y-118458873D01*
X103633694Y-118386979D01*
X103532021Y-118285306D01*
X103460127Y-118160782D01*
X103422912Y-118021894D01*
X103422912Y-117878106D01*
X103460127Y-117739218D01*
X103532021Y-117614694D01*
X103633694Y-117513021D01*
X103758218Y-117441127D01*
X103897106Y-117403912D01*
X104040894Y-117403912D01*
X104179782Y-117441127D01*
G37*
G36*
X105449782Y-117441127D02*
G01*
X105574306Y-117513021D01*
X105675979Y-117614694D01*
X105747873Y-117739218D01*
X105785088Y-117878106D01*
X105785088Y-118021894D01*
X105747873Y-118160782D01*
X105675979Y-118285306D01*
X105574306Y-118386979D01*
X105449782Y-118458873D01*
X105310894Y-118496088D01*
X105167106Y-118496088D01*
X105028218Y-118458873D01*
X104903694Y-118386979D01*
X104802021Y-118285306D01*
X104730127Y-118160782D01*
X104692912Y-118021894D01*
X104692912Y-117878106D01*
X104730127Y-117739218D01*
X104802021Y-117614694D01*
X104903694Y-117513021D01*
X105028218Y-117441127D01*
X105167106Y-117403912D01*
X105310894Y-117403912D01*
X105449782Y-117441127D01*
G37*
G36*
X106719782Y-117441127D02*
G01*
X106844306Y-117513021D01*
X106945979Y-117614694D01*
X107017873Y-117739218D01*
X107055088Y-117878106D01*
X107055088Y-118021894D01*
X107017873Y-118160782D01*
X106945979Y-118285306D01*
X106844306Y-118386979D01*
X106719782Y-118458873D01*
X106580894Y-118496088D01*
X106437106Y-118496088D01*
X106298218Y-118458873D01*
X106173694Y-118386979D01*
X106072021Y-118285306D01*
X106000127Y-118160782D01*
X105962912Y-118021894D01*
X105962912Y-117878106D01*
X106000127Y-117739218D01*
X106072021Y-117614694D01*
X106173694Y-117513021D01*
X106298218Y-117441127D01*
X106437106Y-117403912D01*
X106580894Y-117403912D01*
X106719782Y-117441127D01*
G37*
G36*
X107989782Y-117441127D02*
G01*
X108114306Y-117513021D01*
X108215979Y-117614694D01*
X108287873Y-117739218D01*
X108325088Y-117878106D01*
X108325088Y-118021894D01*
X108287873Y-118160782D01*
X108215979Y-118285306D01*
X108114306Y-118386979D01*
X107989782Y-118458873D01*
X107850894Y-118496088D01*
X107707106Y-118496088D01*
X107568218Y-118458873D01*
X107443694Y-118386979D01*
X107342021Y-118285306D01*
X107270127Y-118160782D01*
X107232912Y-118021894D01*
X107232912Y-117878106D01*
X107270127Y-117739218D01*
X107342021Y-117614694D01*
X107443694Y-117513021D01*
X107568218Y-117441127D01*
X107707106Y-117403912D01*
X107850894Y-117403912D01*
X107989782Y-117441127D01*
G37*
G36*
X181379982Y-117441127D02*
G01*
X181504506Y-117513021D01*
X181606179Y-117614694D01*
X181678073Y-117739218D01*
X181715288Y-117878106D01*
X181715288Y-118021894D01*
X181678073Y-118160782D01*
X181606179Y-118285306D01*
X181504506Y-118386979D01*
X181379982Y-118458873D01*
X181241094Y-118496088D01*
X181097306Y-118496088D01*
X180958418Y-118458873D01*
X180833894Y-118386979D01*
X180732221Y-118285306D01*
X180660327Y-118160782D01*
X180623112Y-118021894D01*
X180623112Y-117878106D01*
X180660327Y-117739218D01*
X180732221Y-117614694D01*
X180833894Y-117513021D01*
X180958418Y-117441127D01*
X181097306Y-117403912D01*
X181241094Y-117403912D01*
X181379982Y-117441127D01*
G37*
G36*
X182649982Y-117441127D02*
G01*
X182774506Y-117513021D01*
X182876179Y-117614694D01*
X182948073Y-117739218D01*
X182985288Y-117878106D01*
X182985288Y-118021894D01*
X182948073Y-118160782D01*
X182876179Y-118285306D01*
X182774506Y-118386979D01*
X182649982Y-118458873D01*
X182511094Y-118496088D01*
X182367306Y-118496088D01*
X182228418Y-118458873D01*
X182103894Y-118386979D01*
X182002221Y-118285306D01*
X181930327Y-118160782D01*
X181893112Y-118021894D01*
X181893112Y-117878106D01*
X181930327Y-117739218D01*
X182002221Y-117614694D01*
X182103894Y-117513021D01*
X182228418Y-117441127D01*
X182367306Y-117403912D01*
X182511094Y-117403912D01*
X182649982Y-117441127D01*
G37*
G36*
X183919982Y-117441127D02*
G01*
X184044506Y-117513021D01*
X184146179Y-117614694D01*
X184218073Y-117739218D01*
X184255288Y-117878106D01*
X184255288Y-118021894D01*
X184218073Y-118160782D01*
X184146179Y-118285306D01*
X184044506Y-118386979D01*
X183919982Y-118458873D01*
X183781094Y-118496088D01*
X183637306Y-118496088D01*
X183498418Y-118458873D01*
X183373894Y-118386979D01*
X183272221Y-118285306D01*
X183200327Y-118160782D01*
X183163112Y-118021894D01*
X183163112Y-117878106D01*
X183200327Y-117739218D01*
X183272221Y-117614694D01*
X183373894Y-117513021D01*
X183498418Y-117441127D01*
X183637306Y-117403912D01*
X183781094Y-117403912D01*
X183919982Y-117441127D01*
G37*
G36*
X185189982Y-117441127D02*
G01*
X185314506Y-117513021D01*
X185416179Y-117614694D01*
X185488073Y-117739218D01*
X185525288Y-117878106D01*
X185525288Y-118021894D01*
X185488073Y-118160782D01*
X185416179Y-118285306D01*
X185314506Y-118386979D01*
X185189982Y-118458873D01*
X185051094Y-118496088D01*
X184907306Y-118496088D01*
X184768418Y-118458873D01*
X184643894Y-118386979D01*
X184542221Y-118285306D01*
X184470327Y-118160782D01*
X184433112Y-118021894D01*
X184433112Y-117878106D01*
X184470327Y-117739218D01*
X184542221Y-117614694D01*
X184643894Y-117513021D01*
X184768418Y-117441127D01*
X184907306Y-117403912D01*
X185051094Y-117403912D01*
X185189982Y-117441127D01*
G37*
G36*
X186459982Y-117441127D02*
G01*
X186584506Y-117513021D01*
X186686179Y-117614694D01*
X186758073Y-117739218D01*
X186795288Y-117878106D01*
X186795288Y-118021894D01*
X186758073Y-118160782D01*
X186686179Y-118285306D01*
X186584506Y-118386979D01*
X186459982Y-118458873D01*
X186321094Y-118496088D01*
X186177306Y-118496088D01*
X186038418Y-118458873D01*
X185913894Y-118386979D01*
X185812221Y-118285306D01*
X185740327Y-118160782D01*
X185703112Y-118021894D01*
X185703112Y-117878106D01*
X185740327Y-117739218D01*
X185812221Y-117614694D01*
X185913894Y-117513021D01*
X186038418Y-117441127D01*
X186177306Y-117403912D01*
X186321094Y-117403912D01*
X186459982Y-117441127D01*
G37*
G36*
X187729982Y-117441127D02*
G01*
X187854506Y-117513021D01*
X187956179Y-117614694D01*
X188028073Y-117739218D01*
X188065288Y-117878106D01*
X188065288Y-118021894D01*
X188028073Y-118160782D01*
X187956179Y-118285306D01*
X187854506Y-118386979D01*
X187729982Y-118458873D01*
X187591094Y-118496088D01*
X187447306Y-118496088D01*
X187308418Y-118458873D01*
X187183894Y-118386979D01*
X187082221Y-118285306D01*
X187010327Y-118160782D01*
X186973112Y-118021894D01*
X186973112Y-117878106D01*
X187010327Y-117739218D01*
X187082221Y-117614694D01*
X187183894Y-117513021D01*
X187308418Y-117441127D01*
X187447306Y-117403912D01*
X187591094Y-117403912D01*
X187729982Y-117441127D01*
G37*
G36*
X188999982Y-117441127D02*
G01*
X189124506Y-117513021D01*
X189226179Y-117614694D01*
X189298073Y-117739218D01*
X189335288Y-117878106D01*
X189335288Y-118021894D01*
X189298073Y-118160782D01*
X189226179Y-118285306D01*
X189124506Y-118386979D01*
X188999982Y-118458873D01*
X188861094Y-118496088D01*
X188717306Y-118496088D01*
X188578418Y-118458873D01*
X188453894Y-118386979D01*
X188352221Y-118285306D01*
X188280327Y-118160782D01*
X188243112Y-118021894D01*
X188243112Y-117878106D01*
X188280327Y-117739218D01*
X188352221Y-117614694D01*
X188453894Y-117513021D01*
X188578418Y-117441127D01*
X188717306Y-117403912D01*
X188861094Y-117403912D01*
X188999982Y-117441127D01*
G37*
G36*
X190269982Y-117441127D02*
G01*
X190394506Y-117513021D01*
X190496179Y-117614694D01*
X190568073Y-117739218D01*
X190605288Y-117878106D01*
X190605288Y-118021894D01*
X190568073Y-118160782D01*
X190496179Y-118285306D01*
X190394506Y-118386979D01*
X190269982Y-118458873D01*
X190131094Y-118496088D01*
X189987306Y-118496088D01*
X189848418Y-118458873D01*
X189723894Y-118386979D01*
X189622221Y-118285306D01*
X189550327Y-118160782D01*
X189513112Y-118021894D01*
X189513112Y-117878106D01*
X189550327Y-117739218D01*
X189622221Y-117614694D01*
X189723894Y-117513021D01*
X189848418Y-117441127D01*
X189987306Y-117403912D01*
X190131094Y-117403912D01*
X190269982Y-117441127D01*
G37*
G36*
X191539982Y-117441127D02*
G01*
X191664506Y-117513021D01*
X191766179Y-117614694D01*
X191838073Y-117739218D01*
X191875288Y-117878106D01*
X191875288Y-118021894D01*
X191838073Y-118160782D01*
X191766179Y-118285306D01*
X191664506Y-118386979D01*
X191539982Y-118458873D01*
X191401094Y-118496088D01*
X191257306Y-118496088D01*
X191118418Y-118458873D01*
X190993894Y-118386979D01*
X190892221Y-118285306D01*
X190820327Y-118160782D01*
X190783112Y-118021894D01*
X190783112Y-117878106D01*
X190820327Y-117739218D01*
X190892221Y-117614694D01*
X190993894Y-117513021D01*
X191118418Y-117441127D01*
X191257306Y-117403912D01*
X191401094Y-117403912D01*
X191539982Y-117441127D01*
G37*
G36*
X192809982Y-117441127D02*
G01*
X192934506Y-117513021D01*
X193036179Y-117614694D01*
X193108073Y-117739218D01*
X193145288Y-117878106D01*
X193145288Y-118021894D01*
X193108073Y-118160782D01*
X193036179Y-118285306D01*
X192934506Y-118386979D01*
X192809982Y-118458873D01*
X192671094Y-118496088D01*
X192527306Y-118496088D01*
X192388418Y-118458873D01*
X192263894Y-118386979D01*
X192162221Y-118285306D01*
X192090327Y-118160782D01*
X192053112Y-118021894D01*
X192053112Y-117878106D01*
X192090327Y-117739218D01*
X192162221Y-117614694D01*
X192263894Y-117513021D01*
X192388418Y-117441127D01*
X192527306Y-117403912D01*
X192671094Y-117403912D01*
X192809982Y-117441127D01*
G37*
G36*
X194079982Y-117441127D02*
G01*
X194204506Y-117513021D01*
X194306179Y-117614694D01*
X194378073Y-117739218D01*
X194415288Y-117878106D01*
X194415288Y-118021894D01*
X194378073Y-118160782D01*
X194306179Y-118285306D01*
X194204506Y-118386979D01*
X194079982Y-118458873D01*
X193941094Y-118496088D01*
X193797306Y-118496088D01*
X193658418Y-118458873D01*
X193533894Y-118386979D01*
X193432221Y-118285306D01*
X193360327Y-118160782D01*
X193323112Y-118021894D01*
X193323112Y-117878106D01*
X193360327Y-117739218D01*
X193432221Y-117614694D01*
X193533894Y-117513021D01*
X193658418Y-117441127D01*
X193797306Y-117403912D01*
X193941094Y-117403912D01*
X194079982Y-117441127D01*
G37*
G36*
X195349982Y-117441127D02*
G01*
X195474506Y-117513021D01*
X195576179Y-117614694D01*
X195648073Y-117739218D01*
X195685288Y-117878106D01*
X195685288Y-118021894D01*
X195648073Y-118160782D01*
X195576179Y-118285306D01*
X195474506Y-118386979D01*
X195349982Y-118458873D01*
X195211094Y-118496088D01*
X195067306Y-118496088D01*
X194928418Y-118458873D01*
X194803894Y-118386979D01*
X194702221Y-118285306D01*
X194630327Y-118160782D01*
X194593112Y-118021894D01*
X194593112Y-117878106D01*
X194630327Y-117739218D01*
X194702221Y-117614694D01*
X194803894Y-117513021D01*
X194928418Y-117441127D01*
X195067306Y-117403912D01*
X195211094Y-117403912D01*
X195349982Y-117441127D01*
G37*
G36*
X196619982Y-117441127D02*
G01*
X196744506Y-117513021D01*
X196846179Y-117614694D01*
X196918073Y-117739218D01*
X196955288Y-117878106D01*
X196955288Y-118021894D01*
X196918073Y-118160782D01*
X196846179Y-118285306D01*
X196744506Y-118386979D01*
X196619982Y-118458873D01*
X196481094Y-118496088D01*
X196337306Y-118496088D01*
X196198418Y-118458873D01*
X196073894Y-118386979D01*
X195972221Y-118285306D01*
X195900327Y-118160782D01*
X195863112Y-118021894D01*
X195863112Y-117878106D01*
X195900327Y-117739218D01*
X195972221Y-117614694D01*
X196073894Y-117513021D01*
X196198418Y-117441127D01*
X196337306Y-117403912D01*
X196481094Y-117403912D01*
X196619982Y-117441127D01*
G37*
G36*
X197889982Y-117441127D02*
G01*
X198014506Y-117513021D01*
X198116179Y-117614694D01*
X198188073Y-117739218D01*
X198225288Y-117878106D01*
X198225288Y-118021894D01*
X198188073Y-118160782D01*
X198116179Y-118285306D01*
X198014506Y-118386979D01*
X197889982Y-118458873D01*
X197751094Y-118496088D01*
X197607306Y-118496088D01*
X197468418Y-118458873D01*
X197343894Y-118386979D01*
X197242221Y-118285306D01*
X197170327Y-118160782D01*
X197133112Y-118021894D01*
X197133112Y-117878106D01*
X197170327Y-117739218D01*
X197242221Y-117614694D01*
X197343894Y-117513021D01*
X197468418Y-117441127D01*
X197607306Y-117403912D01*
X197751094Y-117403912D01*
X197889982Y-117441127D01*
G37*
G36*
X199159982Y-117441127D02*
G01*
X199284506Y-117513021D01*
X199386179Y-117614694D01*
X199458073Y-117739218D01*
X199495288Y-117878106D01*
X199495288Y-118021894D01*
X199458073Y-118160782D01*
X199386179Y-118285306D01*
X199284506Y-118386979D01*
X199159982Y-118458873D01*
X199021094Y-118496088D01*
X198877306Y-118496088D01*
X198738418Y-118458873D01*
X198613894Y-118386979D01*
X198512221Y-118285306D01*
X198440327Y-118160782D01*
X198403112Y-118021894D01*
X198403112Y-117878106D01*
X198440327Y-117739218D01*
X198512221Y-117614694D01*
X198613894Y-117513021D01*
X198738418Y-117441127D01*
X198877306Y-117403912D01*
X199021094Y-117403912D01*
X199159982Y-117441127D01*
G37*
G36*
X205419782Y-117441127D02*
G01*
X205544306Y-117513021D01*
X205645979Y-117614694D01*
X205717873Y-117739218D01*
X205755088Y-117878106D01*
X205755088Y-118021894D01*
X205717873Y-118160782D01*
X205645979Y-118285306D01*
X205544306Y-118386979D01*
X205419782Y-118458873D01*
X205280894Y-118496088D01*
X205137106Y-118496088D01*
X204998218Y-118458873D01*
X204873694Y-118386979D01*
X204772021Y-118285306D01*
X204700127Y-118160782D01*
X204662912Y-118021894D01*
X204662912Y-117878106D01*
X204700127Y-117739218D01*
X204772021Y-117614694D01*
X204873694Y-117513021D01*
X204998218Y-117441127D01*
X205137106Y-117403912D01*
X205280894Y-117403912D01*
X205419782Y-117441127D01*
G37*
G36*
X206689782Y-117441127D02*
G01*
X206814306Y-117513021D01*
X206915979Y-117614694D01*
X206987873Y-117739218D01*
X207025088Y-117878106D01*
X207025088Y-118021894D01*
X206987873Y-118160782D01*
X206915979Y-118285306D01*
X206814306Y-118386979D01*
X206689782Y-118458873D01*
X206550894Y-118496088D01*
X206407106Y-118496088D01*
X206268218Y-118458873D01*
X206143694Y-118386979D01*
X206042021Y-118285306D01*
X205970127Y-118160782D01*
X205932912Y-118021894D01*
X205932912Y-117878106D01*
X205970127Y-117739218D01*
X206042021Y-117614694D01*
X206143694Y-117513021D01*
X206268218Y-117441127D01*
X206407106Y-117403912D01*
X206550894Y-117403912D01*
X206689782Y-117441127D01*
G37*
G36*
X207959782Y-117441127D02*
G01*
X208084306Y-117513021D01*
X208185979Y-117614694D01*
X208257873Y-117739218D01*
X208295088Y-117878106D01*
X208295088Y-118021894D01*
X208257873Y-118160782D01*
X208185979Y-118285306D01*
X208084306Y-118386979D01*
X207959782Y-118458873D01*
X207820894Y-118496088D01*
X207677106Y-118496088D01*
X207538218Y-118458873D01*
X207413694Y-118386979D01*
X207312021Y-118285306D01*
X207240127Y-118160782D01*
X207202912Y-118021894D01*
X207202912Y-117878106D01*
X207240127Y-117739218D01*
X207312021Y-117614694D01*
X207413694Y-117513021D01*
X207538218Y-117441127D01*
X207677106Y-117403912D01*
X207820894Y-117403912D01*
X207959782Y-117441127D01*
G37*
G36*
X209229782Y-117441127D02*
G01*
X209354306Y-117513021D01*
X209455979Y-117614694D01*
X209527873Y-117739218D01*
X209565088Y-117878106D01*
X209565088Y-118021894D01*
X209527873Y-118160782D01*
X209455979Y-118285306D01*
X209354306Y-118386979D01*
X209229782Y-118458873D01*
X209090894Y-118496088D01*
X208947106Y-118496088D01*
X208808218Y-118458873D01*
X208683694Y-118386979D01*
X208582021Y-118285306D01*
X208510127Y-118160782D01*
X208472912Y-118021894D01*
X208472912Y-117878106D01*
X208510127Y-117739218D01*
X208582021Y-117614694D01*
X208683694Y-117513021D01*
X208808218Y-117441127D01*
X208947106Y-117403912D01*
X209090894Y-117403912D01*
X209229782Y-117441127D01*
G37*
G36*
X210499782Y-117441127D02*
G01*
X210624306Y-117513021D01*
X210725979Y-117614694D01*
X210797873Y-117739218D01*
X210835088Y-117878106D01*
X210835088Y-118021894D01*
X210797873Y-118160782D01*
X210725979Y-118285306D01*
X210624306Y-118386979D01*
X210499782Y-118458873D01*
X210360894Y-118496088D01*
X210217106Y-118496088D01*
X210078218Y-118458873D01*
X209953694Y-118386979D01*
X209852021Y-118285306D01*
X209780127Y-118160782D01*
X209742912Y-118021894D01*
X209742912Y-117878106D01*
X209780127Y-117739218D01*
X209852021Y-117614694D01*
X209953694Y-117513021D01*
X210078218Y-117441127D01*
X210217106Y-117403912D01*
X210360894Y-117403912D01*
X210499782Y-117441127D01*
G37*
G36*
X211769782Y-117441127D02*
G01*
X211894306Y-117513021D01*
X211995979Y-117614694D01*
X212067873Y-117739218D01*
X212105088Y-117878106D01*
X212105088Y-118021894D01*
X212067873Y-118160782D01*
X211995979Y-118285306D01*
X211894306Y-118386979D01*
X211769782Y-118458873D01*
X211630894Y-118496088D01*
X211487106Y-118496088D01*
X211348218Y-118458873D01*
X211223694Y-118386979D01*
X211122021Y-118285306D01*
X211050127Y-118160782D01*
X211012912Y-118021894D01*
X211012912Y-117878106D01*
X211050127Y-117739218D01*
X211122021Y-117614694D01*
X211223694Y-117513021D01*
X211348218Y-117441127D01*
X211487106Y-117403912D01*
X211630894Y-117403912D01*
X211769782Y-117441127D01*
G37*
G36*
X213039782Y-117441127D02*
G01*
X213164306Y-117513021D01*
X213265979Y-117614694D01*
X213337873Y-117739218D01*
X213375088Y-117878106D01*
X213375088Y-118021894D01*
X213337873Y-118160782D01*
X213265979Y-118285306D01*
X213164306Y-118386979D01*
X213039782Y-118458873D01*
X212900894Y-118496088D01*
X212757106Y-118496088D01*
X212618218Y-118458873D01*
X212493694Y-118386979D01*
X212392021Y-118285306D01*
X212320127Y-118160782D01*
X212282912Y-118021894D01*
X212282912Y-117878106D01*
X212320127Y-117739218D01*
X212392021Y-117614694D01*
X212493694Y-117513021D01*
X212618218Y-117441127D01*
X212757106Y-117403912D01*
X212900894Y-117403912D01*
X213039782Y-117441127D01*
G37*
G36*
X159364782Y-117191127D02*
G01*
X159489306Y-117263021D01*
X159590979Y-117364694D01*
X159662873Y-117489218D01*
X159700088Y-117628106D01*
X159700088Y-117771894D01*
X159662873Y-117910782D01*
X159590979Y-118035306D01*
X159489306Y-118136979D01*
X159364782Y-118208873D01*
X159225894Y-118246088D01*
X159082106Y-118246088D01*
X158943218Y-118208873D01*
X158818694Y-118136979D01*
X158717021Y-118035306D01*
X158645127Y-117910782D01*
X158607912Y-117771894D01*
X158607912Y-117628106D01*
X158645127Y-117489218D01*
X158717021Y-117364694D01*
X158818694Y-117263021D01*
X158943218Y-117191127D01*
X159082106Y-117153912D01*
X159225894Y-117153912D01*
X159364782Y-117191127D01*
G37*
G36*
X171364782Y-117191127D02*
G01*
X171489306Y-117263021D01*
X171590979Y-117364694D01*
X171662873Y-117489218D01*
X171700088Y-117628106D01*
X171700088Y-117771894D01*
X171662873Y-117910782D01*
X171590979Y-118035306D01*
X171489306Y-118136979D01*
X171364782Y-118208873D01*
X171225894Y-118246088D01*
X171082106Y-118246088D01*
X170943218Y-118208873D01*
X170818694Y-118136979D01*
X170717021Y-118035306D01*
X170645127Y-117910782D01*
X170607912Y-117771894D01*
X170607912Y-117628106D01*
X170645127Y-117489218D01*
X170717021Y-117364694D01*
X170818694Y-117263021D01*
X170943218Y-117191127D01*
X171082106Y-117153912D01*
X171225894Y-117153912D01*
X171364782Y-117191127D01*
G37*
G36*
X165468000Y-116176372D02*
G01*
X165642578Y-116211098D01*
X165807028Y-116279215D01*
X165955029Y-116378107D01*
X166080893Y-116503971D01*
X166179785Y-116651972D01*
X166247902Y-116816422D01*
X166282628Y-116991000D01*
X166282628Y-117169000D01*
X166247902Y-117343578D01*
X166179785Y-117508028D01*
X166080893Y-117656029D01*
X165955029Y-117781893D01*
X165807028Y-117880785D01*
X165642578Y-117948902D01*
X165468000Y-117983628D01*
X165379000Y-117988000D01*
X165377749Y-117988000D01*
X164930251Y-117988000D01*
X164929000Y-117988000D01*
X164840000Y-117983628D01*
X164665422Y-117948902D01*
X164500972Y-117880785D01*
X164352971Y-117781893D01*
X164227107Y-117656029D01*
X164128215Y-117508028D01*
X164060098Y-117343578D01*
X164025372Y-117169000D01*
X164025372Y-116991000D01*
X164060098Y-116816422D01*
X164128215Y-116651972D01*
X164227107Y-116503971D01*
X164352971Y-116378107D01*
X164500972Y-116279215D01*
X164665422Y-116211098D01*
X164840000Y-116176372D01*
X164929000Y-116172000D01*
X165379000Y-116172000D01*
X165468000Y-116176372D01*
G37*
G36*
X159364782Y-115921127D02*
G01*
X159489306Y-115993021D01*
X159590979Y-116094694D01*
X159662873Y-116219218D01*
X159700088Y-116358106D01*
X159700088Y-116501894D01*
X159662873Y-116640782D01*
X159590979Y-116765306D01*
X159489306Y-116866979D01*
X159364782Y-116938873D01*
X159225894Y-116976088D01*
X159082106Y-116976088D01*
X158943218Y-116938873D01*
X158818694Y-116866979D01*
X158717021Y-116765306D01*
X158645127Y-116640782D01*
X158607912Y-116501894D01*
X158607912Y-116358106D01*
X158645127Y-116219218D01*
X158717021Y-116094694D01*
X158818694Y-115993021D01*
X158943218Y-115921127D01*
X159082106Y-115883912D01*
X159225894Y-115883912D01*
X159364782Y-115921127D01*
G37*
G36*
X171364782Y-115921127D02*
G01*
X171489306Y-115993021D01*
X171590979Y-116094694D01*
X171662873Y-116219218D01*
X171700088Y-116358106D01*
X171700088Y-116501894D01*
X171662873Y-116640782D01*
X171590979Y-116765306D01*
X171489306Y-116866979D01*
X171364782Y-116938873D01*
X171225894Y-116976088D01*
X171082106Y-116976088D01*
X170943218Y-116938873D01*
X170818694Y-116866979D01*
X170717021Y-116765306D01*
X170645127Y-116640782D01*
X170607912Y-116501894D01*
X170607912Y-116358106D01*
X170645127Y-116219218D01*
X170717021Y-116094694D01*
X170818694Y-115993021D01*
X170943218Y-115921127D01*
X171082106Y-115883912D01*
X171225894Y-115883912D01*
X171364782Y-115921127D01*
G37*
G36*
X159364782Y-114651127D02*
G01*
X159489306Y-114723021D01*
X159590979Y-114824694D01*
X159662873Y-114949218D01*
X159700088Y-115088106D01*
X159700088Y-115231894D01*
X159662873Y-115370782D01*
X159590979Y-115495306D01*
X159489306Y-115596979D01*
X159364782Y-115668873D01*
X159225894Y-115706088D01*
X159082106Y-115706088D01*
X158943218Y-115668873D01*
X158818694Y-115596979D01*
X158717021Y-115495306D01*
X158645127Y-115370782D01*
X158607912Y-115231894D01*
X158607912Y-115088106D01*
X158645127Y-114949218D01*
X158717021Y-114824694D01*
X158818694Y-114723021D01*
X158943218Y-114651127D01*
X159082106Y-114613912D01*
X159225894Y-114613912D01*
X159364782Y-114651127D01*
G37*
G36*
X171364782Y-114651127D02*
G01*
X171489306Y-114723021D01*
X171590979Y-114824694D01*
X171662873Y-114949218D01*
X171700088Y-115088106D01*
X171700088Y-115231894D01*
X171662873Y-115370782D01*
X171590979Y-115495306D01*
X171489306Y-115596979D01*
X171364782Y-115668873D01*
X171225894Y-115706088D01*
X171082106Y-115706088D01*
X170943218Y-115668873D01*
X170818694Y-115596979D01*
X170717021Y-115495306D01*
X170645127Y-115370782D01*
X170607912Y-115231894D01*
X170607912Y-115088106D01*
X170645127Y-114949218D01*
X170717021Y-114824694D01*
X170818694Y-114723021D01*
X170943218Y-114651127D01*
X171082106Y-114613912D01*
X171225894Y-114613912D01*
X171364782Y-114651127D01*
G37*
G36*
X165468000Y-113636372D02*
G01*
X165642578Y-113671098D01*
X165807028Y-113739215D01*
X165955029Y-113838107D01*
X166080893Y-113963971D01*
X166179785Y-114111972D01*
X166247902Y-114276422D01*
X166282628Y-114451000D01*
X166282628Y-114629000D01*
X166247902Y-114803578D01*
X166179785Y-114968028D01*
X166080893Y-115116029D01*
X165955029Y-115241893D01*
X165807028Y-115340785D01*
X165642578Y-115408902D01*
X165468000Y-115443628D01*
X165379000Y-115448000D01*
X165377749Y-115448000D01*
X164930251Y-115448000D01*
X164929000Y-115448000D01*
X164840000Y-115443628D01*
X164665422Y-115408902D01*
X164500972Y-115340785D01*
X164352971Y-115241893D01*
X164227107Y-115116029D01*
X164128215Y-114968028D01*
X164060098Y-114803578D01*
X164025372Y-114629000D01*
X164025372Y-114451000D01*
X164060098Y-114276422D01*
X164128215Y-114111972D01*
X164227107Y-113963971D01*
X164352971Y-113838107D01*
X164500972Y-113739215D01*
X164665422Y-113671098D01*
X164840000Y-113636372D01*
X164929000Y-113632000D01*
X165379000Y-113632000D01*
X165468000Y-113636372D01*
G37*
G36*
X171364782Y-113381127D02*
G01*
X171489306Y-113453021D01*
X171590979Y-113554694D01*
X171662873Y-113679218D01*
X171700088Y-113818106D01*
X171700088Y-113961894D01*
X171662873Y-114100782D01*
X171590979Y-114225306D01*
X171489306Y-114326979D01*
X171364782Y-114398873D01*
X171225894Y-114436088D01*
X171082106Y-114436088D01*
X170943218Y-114398873D01*
X170818694Y-114326979D01*
X170717021Y-114225306D01*
X170645127Y-114100782D01*
X170607912Y-113961894D01*
X170607912Y-113818106D01*
X170645127Y-113679218D01*
X170717021Y-113554694D01*
X170818694Y-113453021D01*
X170943218Y-113381127D01*
X171082106Y-113343912D01*
X171225894Y-113343912D01*
X171364782Y-113381127D01*
G37*
G36*
X171364782Y-112111127D02*
G01*
X171489306Y-112183021D01*
X171590979Y-112284694D01*
X171662873Y-112409218D01*
X171700088Y-112548106D01*
X171700088Y-112691894D01*
X171662873Y-112830782D01*
X171590979Y-112955306D01*
X171489306Y-113056979D01*
X171364782Y-113128873D01*
X171225894Y-113166088D01*
X171082106Y-113166088D01*
X170943218Y-113128873D01*
X170818694Y-113056979D01*
X170717021Y-112955306D01*
X170645127Y-112830782D01*
X170607912Y-112691894D01*
X170607912Y-112548106D01*
X170645127Y-112409218D01*
X170717021Y-112284694D01*
X170818694Y-112183021D01*
X170943218Y-112111127D01*
X171082106Y-112073912D01*
X171225894Y-112073912D01*
X171364782Y-112111127D01*
G37*
G36*
X159246936Y-110934160D02*
G01*
X159256996Y-110934160D01*
X159296305Y-110941979D01*
X159399268Y-110958286D01*
X159432388Y-110969047D01*
X159459031Y-110974347D01*
X159496627Y-110989920D01*
X159556067Y-111009233D01*
X159611750Y-111037605D01*
X159649344Y-111053177D01*
X159671928Y-111068267D01*
X159702958Y-111084078D01*
X159787306Y-111145361D01*
X159820620Y-111167621D01*
X159827730Y-111174731D01*
X159836339Y-111180986D01*
X159952913Y-111297560D01*
X159959167Y-111306168D01*
X159966279Y-111313280D01*
X159988541Y-111346598D01*
X160049821Y-111430941D01*
X160065630Y-111461968D01*
X160080723Y-111484556D01*
X160096296Y-111522154D01*
X160124666Y-111577832D01*
X160143976Y-111637264D01*
X160159553Y-111674869D01*
X160164853Y-111701516D01*
X160175613Y-111734631D01*
X160191919Y-111837589D01*
X160199740Y-111876904D01*
X160199740Y-111886963D01*
X160201404Y-111897470D01*
X160201404Y-112062329D01*
X160199740Y-112072835D01*
X160199740Y-112082896D01*
X160191919Y-112122214D01*
X160175613Y-112225168D01*
X160164854Y-112258280D01*
X160159553Y-112284931D01*
X160143975Y-112322539D01*
X160124666Y-112381967D01*
X160096298Y-112437640D01*
X160080723Y-112475244D01*
X160065628Y-112497834D01*
X160049821Y-112528858D01*
X159988549Y-112613189D01*
X159966279Y-112646520D01*
X159959164Y-112653634D01*
X159952913Y-112662239D01*
X159836339Y-112778813D01*
X159827734Y-112785064D01*
X159820620Y-112792179D01*
X159787289Y-112814449D01*
X159702958Y-112875721D01*
X159671934Y-112891528D01*
X159649344Y-112906623D01*
X159611740Y-112922198D01*
X159556067Y-112950566D01*
X159496639Y-112969875D01*
X159459031Y-112985453D01*
X159432380Y-112990754D01*
X159399268Y-113001513D01*
X159296314Y-113017819D01*
X159256996Y-113025640D01*
X159246935Y-113025640D01*
X159236429Y-113027304D01*
X159071571Y-113027304D01*
X159061065Y-113025640D01*
X159051004Y-113025640D01*
X159011687Y-113017819D01*
X158908731Y-113001513D01*
X158875616Y-112990753D01*
X158848969Y-112985453D01*
X158811364Y-112969876D01*
X158751932Y-112950566D01*
X158696254Y-112922196D01*
X158658656Y-112906623D01*
X158636068Y-112891530D01*
X158605041Y-112875721D01*
X158520698Y-112814441D01*
X158487380Y-112792179D01*
X158480268Y-112785067D01*
X158471660Y-112778813D01*
X158355086Y-112662239D01*
X158348831Y-112653630D01*
X158341721Y-112646520D01*
X158319461Y-112613206D01*
X158258178Y-112528858D01*
X158242367Y-112497828D01*
X158227277Y-112475244D01*
X158211705Y-112437650D01*
X158183333Y-112381967D01*
X158164020Y-112322527D01*
X158148447Y-112284931D01*
X158143147Y-112258288D01*
X158132386Y-112225168D01*
X158116079Y-112122205D01*
X158108260Y-112082896D01*
X158108260Y-112072835D01*
X158106596Y-112062329D01*
X158106596Y-111897470D01*
X158108260Y-111886963D01*
X158108260Y-111876904D01*
X158116078Y-111837598D01*
X158132386Y-111734631D01*
X158143148Y-111701508D01*
X158148447Y-111674869D01*
X158164018Y-111637275D01*
X158183333Y-111577832D01*
X158211707Y-111522143D01*
X158227277Y-111484556D01*
X158242365Y-111461974D01*
X158258178Y-111430941D01*
X158319469Y-111346580D01*
X158341721Y-111313280D01*
X158348828Y-111306172D01*
X158355086Y-111297560D01*
X158471660Y-111180986D01*
X158480272Y-111174728D01*
X158487380Y-111167621D01*
X158520680Y-111145369D01*
X158605041Y-111084078D01*
X158636074Y-111068265D01*
X158658656Y-111053177D01*
X158696243Y-111037607D01*
X158751932Y-111009233D01*
X158811375Y-110989918D01*
X158848969Y-110974347D01*
X158875608Y-110969048D01*
X158908731Y-110958286D01*
X159011696Y-110941978D01*
X159051004Y-110934160D01*
X159061064Y-110934160D01*
X159071571Y-110932496D01*
X159236429Y-110932496D01*
X159246936Y-110934160D01*
G37*
G36*
X166064938Y-111099650D02*
G01*
X166069675Y-111101741D01*
X166072305Y-111102088D01*
X166105212Y-111117433D01*
X166161759Y-111142401D01*
X166236599Y-111217241D01*
X166261571Y-111273798D01*
X166276910Y-111306691D01*
X166277256Y-111309319D01*
X166279350Y-111314062D01*
X166287000Y-111380000D01*
X166287000Y-112620000D01*
X166279350Y-112685938D01*
X166277256Y-112690678D01*
X166276911Y-112693305D01*
X166261584Y-112726172D01*
X166236599Y-112782759D01*
X166161759Y-112857599D01*
X166105182Y-112882580D01*
X166072308Y-112897910D01*
X166069680Y-112898255D01*
X166064938Y-112900350D01*
X165999000Y-112908000D01*
X164309000Y-112908000D01*
X164243062Y-112900350D01*
X164238321Y-112898256D01*
X164235694Y-112897911D01*
X164202809Y-112882576D01*
X164146241Y-112857599D01*
X164071401Y-112782759D01*
X164046437Y-112726222D01*
X164031089Y-112693308D01*
X164030742Y-112690677D01*
X164028650Y-112685938D01*
X164021000Y-112620000D01*
X164021000Y-111380000D01*
X164028650Y-111314062D01*
X164030741Y-111309324D01*
X164031088Y-111306694D01*
X164046441Y-111273768D01*
X164071401Y-111217241D01*
X164146241Y-111142401D01*
X164202758Y-111117445D01*
X164235691Y-111102089D01*
X164238322Y-111101742D01*
X164243062Y-111099650D01*
X164309000Y-111092000D01*
X165999000Y-111092000D01*
X166064938Y-111099650D01*
G37*
G36*
X171364782Y-110841127D02*
G01*
X171489306Y-110913021D01*
X171590979Y-111014694D01*
X171662873Y-111139218D01*
X171700088Y-111278106D01*
X171700088Y-111421894D01*
X171662873Y-111560782D01*
X171590979Y-111685306D01*
X171489306Y-111786979D01*
X171364782Y-111858873D01*
X171225894Y-111896088D01*
X171082106Y-111896088D01*
X170943218Y-111858873D01*
X170818694Y-111786979D01*
X170717021Y-111685306D01*
X170645127Y-111560782D01*
X170607912Y-111421894D01*
X170607912Y-111278106D01*
X170645127Y-111139218D01*
X170717021Y-111014694D01*
X170818694Y-110913021D01*
X170943218Y-110841127D01*
X171082106Y-110803912D01*
X171225894Y-110803912D01*
X171364782Y-110841127D01*
G37*
G36*
X171364782Y-109571127D02*
G01*
X171489306Y-109643021D01*
X171590979Y-109744694D01*
X171662873Y-109869218D01*
X171700088Y-110008106D01*
X171700088Y-110151894D01*
X171662873Y-110290782D01*
X171590979Y-110415306D01*
X171489306Y-110516979D01*
X171364782Y-110588873D01*
X171225894Y-110626088D01*
X171082106Y-110626088D01*
X170943218Y-110588873D01*
X170818694Y-110516979D01*
X170717021Y-110415306D01*
X170645127Y-110290782D01*
X170607912Y-110151894D01*
X170607912Y-110008106D01*
X170645127Y-109869218D01*
X170717021Y-109744694D01*
X170818694Y-109643021D01*
X170943218Y-109571127D01*
X171082106Y-109533912D01*
X171225894Y-109533912D01*
X171364782Y-109571127D01*
G37*
G36*
X171364782Y-108301127D02*
G01*
X171489306Y-108373021D01*
X171590979Y-108474694D01*
X171662873Y-108599218D01*
X171700088Y-108738106D01*
X171700088Y-108881894D01*
X171662873Y-109020782D01*
X171590979Y-109145306D01*
X171489306Y-109246979D01*
X171364782Y-109318873D01*
X171225894Y-109356088D01*
X171082106Y-109356088D01*
X170943218Y-109318873D01*
X170818694Y-109246979D01*
X170717021Y-109145306D01*
X170645127Y-109020782D01*
X170607912Y-108881894D01*
X170607912Y-108738106D01*
X170645127Y-108599218D01*
X170717021Y-108474694D01*
X170818694Y-108373021D01*
X170943218Y-108301127D01*
X171082106Y-108263912D01*
X171225894Y-108263912D01*
X171364782Y-108301127D01*
G37*
G36*
X159364782Y-108291127D02*
G01*
X159489306Y-108363021D01*
X159590979Y-108464694D01*
X159662873Y-108589218D01*
X159700088Y-108728106D01*
X159700088Y-108871894D01*
X159662873Y-109010782D01*
X159590979Y-109135306D01*
X159489306Y-109236979D01*
X159364782Y-109308873D01*
X159225894Y-109346088D01*
X159082106Y-109346088D01*
X158943218Y-109308873D01*
X158818694Y-109236979D01*
X158717021Y-109135306D01*
X158645127Y-109010782D01*
X158607912Y-108871894D01*
X158607912Y-108728106D01*
X158645127Y-108589218D01*
X158717021Y-108464694D01*
X158818694Y-108363021D01*
X158943218Y-108291127D01*
X159082106Y-108253912D01*
X159225894Y-108253912D01*
X159364782Y-108291127D01*
G37*
G36*
X166168542Y-107664893D02*
G01*
X166180870Y-107673130D01*
X166189107Y-107685458D01*
X166192000Y-107700000D01*
X166192000Y-109300000D01*
X166189107Y-109314542D01*
X166180870Y-109326870D01*
X166168542Y-109335107D01*
X166154000Y-109338000D01*
X164154000Y-109338000D01*
X164139458Y-109335107D01*
X164127130Y-109326870D01*
X164118893Y-109314542D01*
X164116000Y-109300000D01*
X164116000Y-107700000D01*
X164118893Y-107685458D01*
X164127130Y-107673130D01*
X164139458Y-107664893D01*
X164154000Y-107662000D01*
X166154000Y-107662000D01*
X166168542Y-107664893D01*
G37*
G36*
X171364782Y-107031127D02*
G01*
X171489306Y-107103021D01*
X171590979Y-107204694D01*
X171662873Y-107329218D01*
X171700088Y-107468106D01*
X171700088Y-107611894D01*
X171662873Y-107750782D01*
X171590979Y-107875306D01*
X171489306Y-107976979D01*
X171364782Y-108048873D01*
X171225894Y-108086088D01*
X171082106Y-108086088D01*
X170943218Y-108048873D01*
X170818694Y-107976979D01*
X170717021Y-107875306D01*
X170645127Y-107750782D01*
X170607912Y-107611894D01*
X170607912Y-107468106D01*
X170645127Y-107329218D01*
X170717021Y-107204694D01*
X170818694Y-107103021D01*
X170943218Y-107031127D01*
X171082106Y-106993912D01*
X171225894Y-106993912D01*
X171364782Y-107031127D01*
G37*
G36*
X159364782Y-107021127D02*
G01*
X159489306Y-107093021D01*
X159590979Y-107194694D01*
X159662873Y-107319218D01*
X159700088Y-107458106D01*
X159700088Y-107601894D01*
X159662873Y-107740782D01*
X159590979Y-107865306D01*
X159489306Y-107966979D01*
X159364782Y-108038873D01*
X159225894Y-108076088D01*
X159082106Y-108076088D01*
X158943218Y-108038873D01*
X158818694Y-107966979D01*
X158717021Y-107865306D01*
X158645127Y-107740782D01*
X158607912Y-107601894D01*
X158607912Y-107458106D01*
X158645127Y-107319218D01*
X158717021Y-107194694D01*
X158818694Y-107093021D01*
X158943218Y-107021127D01*
X159082106Y-106983912D01*
X159225894Y-106983912D01*
X159364782Y-107021127D01*
G37*
G36*
X171364782Y-105761127D02*
G01*
X171489306Y-105833021D01*
X171590979Y-105934694D01*
X171662873Y-106059218D01*
X171700088Y-106198106D01*
X171700088Y-106341894D01*
X171662873Y-106480782D01*
X171590979Y-106605306D01*
X171489306Y-106706979D01*
X171364782Y-106778873D01*
X171225894Y-106816088D01*
X171082106Y-106816088D01*
X170943218Y-106778873D01*
X170818694Y-106706979D01*
X170717021Y-106605306D01*
X170645127Y-106480782D01*
X170607912Y-106341894D01*
X170607912Y-106198106D01*
X170645127Y-106059218D01*
X170717021Y-105934694D01*
X170818694Y-105833021D01*
X170943218Y-105761127D01*
X171082106Y-105723912D01*
X171225894Y-105723912D01*
X171364782Y-105761127D01*
G37*
G36*
X159364782Y-105751127D02*
G01*
X159489306Y-105823021D01*
X159590979Y-105924694D01*
X159662873Y-106049218D01*
X159700088Y-106188106D01*
X159700088Y-106331894D01*
X159662873Y-106470782D01*
X159590979Y-106595306D01*
X159489306Y-106696979D01*
X159364782Y-106768873D01*
X159225894Y-106806088D01*
X159082106Y-106806088D01*
X158943218Y-106768873D01*
X158818694Y-106696979D01*
X158717021Y-106595306D01*
X158645127Y-106470782D01*
X158607912Y-106331894D01*
X158607912Y-106188106D01*
X158645127Y-106049218D01*
X158717021Y-105924694D01*
X158818694Y-105823021D01*
X158943218Y-105751127D01*
X159082106Y-105713912D01*
X159225894Y-105713912D01*
X159364782Y-105751127D01*
G37*
G36*
X164568542Y-104764893D02*
G01*
X164580870Y-104773130D01*
X164589107Y-104785458D01*
X164592000Y-104800000D01*
X164592000Y-106400000D01*
X164589107Y-106414542D01*
X164580870Y-106426870D01*
X164568542Y-106435107D01*
X164554000Y-106438000D01*
X163254000Y-106438000D01*
X163239458Y-106435107D01*
X163227130Y-106426870D01*
X163218893Y-106414542D01*
X163216000Y-106400000D01*
X163216000Y-104800000D01*
X163218893Y-104785458D01*
X163227130Y-104773130D01*
X163239458Y-104764893D01*
X163254000Y-104762000D01*
X164554000Y-104762000D01*
X164568542Y-104764893D01*
G37*
G36*
X167068542Y-104764893D02*
G01*
X167080870Y-104773130D01*
X167089107Y-104785458D01*
X167092000Y-104800000D01*
X167092000Y-106400000D01*
X167089107Y-106414542D01*
X167080870Y-106426870D01*
X167068542Y-106435107D01*
X167054000Y-106438000D01*
X165754000Y-106438000D01*
X165739458Y-106435107D01*
X165727130Y-106426870D01*
X165718893Y-106414542D01*
X165716000Y-106400000D01*
X165716000Y-104800000D01*
X165718893Y-104785458D01*
X165727130Y-104773130D01*
X165739458Y-104764893D01*
X165754000Y-104762000D01*
X167054000Y-104762000D01*
X167068542Y-104764893D01*
G37*
G36*
X171364782Y-104491127D02*
G01*
X171489306Y-104563021D01*
X171590979Y-104664694D01*
X171662873Y-104789218D01*
X171700088Y-104928106D01*
X171700088Y-105071894D01*
X171662873Y-105210782D01*
X171590979Y-105335306D01*
X171489306Y-105436979D01*
X171364782Y-105508873D01*
X171225894Y-105546088D01*
X171082106Y-105546088D01*
X170943218Y-105508873D01*
X170818694Y-105436979D01*
X170717021Y-105335306D01*
X170645127Y-105210782D01*
X170607912Y-105071894D01*
X170607912Y-104928106D01*
X170645127Y-104789218D01*
X170717021Y-104664694D01*
X170818694Y-104563021D01*
X170943218Y-104491127D01*
X171082106Y-104453912D01*
X171225894Y-104453912D01*
X171364782Y-104491127D01*
G37*
G36*
X159364782Y-104481127D02*
G01*
X159489306Y-104553021D01*
X159590979Y-104654694D01*
X159662873Y-104779218D01*
X159700088Y-104918106D01*
X159700088Y-105061894D01*
X159662873Y-105200782D01*
X159590979Y-105325306D01*
X159489306Y-105426979D01*
X159364782Y-105498873D01*
X159225894Y-105536088D01*
X159082106Y-105536088D01*
X158943218Y-105498873D01*
X158818694Y-105426979D01*
X158717021Y-105325306D01*
X158645127Y-105200782D01*
X158607912Y-105061894D01*
X158607912Y-104918106D01*
X158645127Y-104779218D01*
X158717021Y-104654694D01*
X158818694Y-104553021D01*
X158943218Y-104481127D01*
X159082106Y-104443912D01*
X159225894Y-104443912D01*
X159364782Y-104481127D01*
G37*
G36*
X159364782Y-103211127D02*
G01*
X159489306Y-103283021D01*
X159590979Y-103384694D01*
X159662873Y-103509218D01*
X159700088Y-103648106D01*
X159700088Y-103791894D01*
X159662873Y-103930782D01*
X159590979Y-104055306D01*
X159489306Y-104156979D01*
X159364782Y-104228873D01*
X159225894Y-104266088D01*
X159082106Y-104266088D01*
X158943218Y-104228873D01*
X158818694Y-104156979D01*
X158717021Y-104055306D01*
X158645127Y-103930782D01*
X158607912Y-103791894D01*
X158607912Y-103648106D01*
X158645127Y-103509218D01*
X158717021Y-103384694D01*
X158818694Y-103283021D01*
X158943218Y-103211127D01*
X159082106Y-103173912D01*
X159225894Y-103173912D01*
X159364782Y-103211127D01*
G37*
G36*
X159364782Y-101941127D02*
G01*
X159489306Y-102013021D01*
X159590979Y-102114694D01*
X159662873Y-102239218D01*
X159700088Y-102378106D01*
X159700088Y-102521894D01*
X159662873Y-102660782D01*
X159590979Y-102785306D01*
X159489306Y-102886979D01*
X159364782Y-102958873D01*
X159225894Y-102996088D01*
X159082106Y-102996088D01*
X158943218Y-102958873D01*
X158818694Y-102886979D01*
X158717021Y-102785306D01*
X158645127Y-102660782D01*
X158607912Y-102521894D01*
X158607912Y-102378106D01*
X158645127Y-102239218D01*
X158717021Y-102114694D01*
X158818694Y-102013021D01*
X158943218Y-101941127D01*
X159082106Y-101903912D01*
X159225894Y-101903912D01*
X159364782Y-101941127D01*
G37*
G36*
X171246936Y-100774360D02*
G01*
X171256996Y-100774360D01*
X171296305Y-100782179D01*
X171399268Y-100798486D01*
X171432388Y-100809247D01*
X171459031Y-100814547D01*
X171496627Y-100830120D01*
X171556067Y-100849433D01*
X171611750Y-100877805D01*
X171649344Y-100893377D01*
X171671928Y-100908467D01*
X171702958Y-100924278D01*
X171787306Y-100985561D01*
X171820620Y-101007821D01*
X171827730Y-101014931D01*
X171836339Y-101021186D01*
X171952913Y-101137760D01*
X171959167Y-101146368D01*
X171966279Y-101153480D01*
X171988541Y-101186798D01*
X172049821Y-101271141D01*
X172065630Y-101302168D01*
X172080723Y-101324756D01*
X172096296Y-101362354D01*
X172124666Y-101418032D01*
X172143976Y-101477464D01*
X172159553Y-101515069D01*
X172164853Y-101541716D01*
X172175613Y-101574831D01*
X172191919Y-101677789D01*
X172199740Y-101717104D01*
X172199740Y-101727163D01*
X172201404Y-101737670D01*
X172201404Y-101902529D01*
X172199740Y-101913035D01*
X172199740Y-101923096D01*
X172191919Y-101962414D01*
X172175613Y-102065368D01*
X172164854Y-102098480D01*
X172159553Y-102125131D01*
X172143975Y-102162739D01*
X172124666Y-102222167D01*
X172096298Y-102277840D01*
X172080723Y-102315444D01*
X172065628Y-102338034D01*
X172049821Y-102369058D01*
X171988549Y-102453389D01*
X171966279Y-102486720D01*
X171959164Y-102493834D01*
X171952913Y-102502439D01*
X171836339Y-102619013D01*
X171827734Y-102625264D01*
X171820620Y-102632379D01*
X171787289Y-102654649D01*
X171702958Y-102715921D01*
X171671934Y-102731728D01*
X171649344Y-102746823D01*
X171611740Y-102762398D01*
X171556067Y-102790766D01*
X171496639Y-102810075D01*
X171459031Y-102825653D01*
X171432380Y-102830954D01*
X171399268Y-102841713D01*
X171296314Y-102858019D01*
X171256996Y-102865840D01*
X171246935Y-102865840D01*
X171236429Y-102867504D01*
X171071571Y-102867504D01*
X171061065Y-102865840D01*
X171051004Y-102865840D01*
X171011687Y-102858019D01*
X170908731Y-102841713D01*
X170875616Y-102830953D01*
X170848969Y-102825653D01*
X170811364Y-102810076D01*
X170751932Y-102790766D01*
X170696254Y-102762396D01*
X170658656Y-102746823D01*
X170636068Y-102731730D01*
X170605041Y-102715921D01*
X170520698Y-102654641D01*
X170487380Y-102632379D01*
X170480268Y-102625267D01*
X170471660Y-102619013D01*
X170355086Y-102502439D01*
X170348831Y-102493830D01*
X170341721Y-102486720D01*
X170319461Y-102453406D01*
X170258178Y-102369058D01*
X170242367Y-102338028D01*
X170227277Y-102315444D01*
X170211705Y-102277850D01*
X170183333Y-102222167D01*
X170164020Y-102162727D01*
X170148447Y-102125131D01*
X170143147Y-102098488D01*
X170132386Y-102065368D01*
X170116079Y-101962405D01*
X170108260Y-101923096D01*
X170108260Y-101913035D01*
X170106596Y-101902529D01*
X170106596Y-101737670D01*
X170108260Y-101727163D01*
X170108260Y-101717104D01*
X170116078Y-101677798D01*
X170132386Y-101574831D01*
X170143148Y-101541708D01*
X170148447Y-101515069D01*
X170164018Y-101477475D01*
X170183333Y-101418032D01*
X170211707Y-101362343D01*
X170227277Y-101324756D01*
X170242365Y-101302174D01*
X170258178Y-101271141D01*
X170319469Y-101186780D01*
X170341721Y-101153480D01*
X170348828Y-101146372D01*
X170355086Y-101137760D01*
X170471660Y-101021186D01*
X170480272Y-101014928D01*
X170487380Y-101007821D01*
X170520680Y-100985569D01*
X170605041Y-100924278D01*
X170636074Y-100908465D01*
X170658656Y-100893377D01*
X170696243Y-100877807D01*
X170751932Y-100849433D01*
X170811375Y-100830118D01*
X170848969Y-100814547D01*
X170875608Y-100809248D01*
X170908731Y-100798486D01*
X171011696Y-100782178D01*
X171051004Y-100774360D01*
X171061064Y-100774360D01*
X171071571Y-100772696D01*
X171236429Y-100772696D01*
X171246936Y-100774360D01*
G37*
G36*
X166064938Y-100899650D02*
G01*
X166069675Y-100901741D01*
X166072305Y-100902088D01*
X166105212Y-100917433D01*
X166161759Y-100942401D01*
X166236599Y-101017241D01*
X166261571Y-101073798D01*
X166276910Y-101106691D01*
X166277256Y-101109319D01*
X166279350Y-101114062D01*
X166287000Y-101180000D01*
X166287000Y-102420000D01*
X166279350Y-102485938D01*
X166277256Y-102490678D01*
X166276911Y-102493305D01*
X166261584Y-102526172D01*
X166236599Y-102582759D01*
X166161759Y-102657599D01*
X166105182Y-102682580D01*
X166072308Y-102697910D01*
X166069680Y-102698255D01*
X166064938Y-102700350D01*
X165999000Y-102708000D01*
X164309000Y-102708000D01*
X164243062Y-102700350D01*
X164238321Y-102698256D01*
X164235694Y-102697911D01*
X164202809Y-102682576D01*
X164146241Y-102657599D01*
X164071401Y-102582759D01*
X164046437Y-102526222D01*
X164031089Y-102493308D01*
X164030742Y-102490677D01*
X164028650Y-102485938D01*
X164021000Y-102420000D01*
X164021000Y-101180000D01*
X164028650Y-101114062D01*
X164030741Y-101109324D01*
X164031088Y-101106694D01*
X164046441Y-101073768D01*
X164071401Y-101017241D01*
X164146241Y-100942401D01*
X164202758Y-100917445D01*
X164235691Y-100902089D01*
X164238322Y-100901742D01*
X164243062Y-100899650D01*
X164309000Y-100892000D01*
X165999000Y-100892000D01*
X166064938Y-100899650D01*
G37*
G36*
X159364782Y-100671127D02*
G01*
X159489306Y-100743021D01*
X159590979Y-100844694D01*
X159662873Y-100969218D01*
X159700088Y-101108106D01*
X159700088Y-101251894D01*
X159662873Y-101390782D01*
X159590979Y-101515306D01*
X159489306Y-101616979D01*
X159364782Y-101688873D01*
X159225894Y-101726088D01*
X159082106Y-101726088D01*
X158943218Y-101688873D01*
X158818694Y-101616979D01*
X158717021Y-101515306D01*
X158645127Y-101390782D01*
X158607912Y-101251894D01*
X158607912Y-101108106D01*
X158645127Y-100969218D01*
X158717021Y-100844694D01*
X158818694Y-100743021D01*
X158943218Y-100671127D01*
X159082106Y-100633912D01*
X159225894Y-100633912D01*
X159364782Y-100671127D01*
G37*
G36*
X159364782Y-99401127D02*
G01*
X159489306Y-99473021D01*
X159590979Y-99574694D01*
X159662873Y-99699218D01*
X159700088Y-99838106D01*
X159700088Y-99981894D01*
X159662873Y-100120782D01*
X159590979Y-100245306D01*
X159489306Y-100346979D01*
X159364782Y-100418873D01*
X159225894Y-100456088D01*
X159082106Y-100456088D01*
X158943218Y-100418873D01*
X158818694Y-100346979D01*
X158717021Y-100245306D01*
X158645127Y-100120782D01*
X158607912Y-99981894D01*
X158607912Y-99838106D01*
X158645127Y-99699218D01*
X158717021Y-99574694D01*
X158818694Y-99473021D01*
X158943218Y-99401127D01*
X159082106Y-99363912D01*
X159225894Y-99363912D01*
X159364782Y-99401127D01*
G37*
G36*
X165468000Y-98356372D02*
G01*
X165642578Y-98391098D01*
X165807028Y-98459215D01*
X165955029Y-98558107D01*
X166080893Y-98683971D01*
X166179785Y-98831972D01*
X166247902Y-98996422D01*
X166282628Y-99171000D01*
X166282628Y-99349000D01*
X166247902Y-99523578D01*
X166179785Y-99688028D01*
X166080893Y-99836029D01*
X165955029Y-99961893D01*
X165807028Y-100060785D01*
X165642578Y-100128902D01*
X165468000Y-100163628D01*
X165379000Y-100168000D01*
X165377749Y-100168000D01*
X164930251Y-100168000D01*
X164929000Y-100168000D01*
X164840000Y-100163628D01*
X164665422Y-100128902D01*
X164500972Y-100060785D01*
X164352971Y-99961893D01*
X164227107Y-99836029D01*
X164128215Y-99688028D01*
X164060098Y-99523578D01*
X164025372Y-99349000D01*
X164025372Y-99171000D01*
X164060098Y-98996422D01*
X164128215Y-98831972D01*
X164227107Y-98683971D01*
X164352971Y-98558107D01*
X164500972Y-98459215D01*
X164665422Y-98391098D01*
X164840000Y-98356372D01*
X164929000Y-98352000D01*
X165379000Y-98352000D01*
X165468000Y-98356372D01*
G37*
G36*
X159364782Y-98131127D02*
G01*
X159489306Y-98203021D01*
X159590979Y-98304694D01*
X159662873Y-98429218D01*
X159700088Y-98568106D01*
X159700088Y-98711894D01*
X159662873Y-98850782D01*
X159590979Y-98975306D01*
X159489306Y-99076979D01*
X159364782Y-99148873D01*
X159225894Y-99186088D01*
X159082106Y-99186088D01*
X158943218Y-99148873D01*
X158818694Y-99076979D01*
X158717021Y-98975306D01*
X158645127Y-98850782D01*
X158607912Y-98711894D01*
X158607912Y-98568106D01*
X158645127Y-98429218D01*
X158717021Y-98304694D01*
X158818694Y-98203021D01*
X158943218Y-98131127D01*
X159082106Y-98093912D01*
X159225894Y-98093912D01*
X159364782Y-98131127D01*
G37*
G36*
X171364782Y-98131127D02*
G01*
X171489306Y-98203021D01*
X171590979Y-98304694D01*
X171662873Y-98429218D01*
X171700088Y-98568106D01*
X171700088Y-98711894D01*
X171662873Y-98850782D01*
X171590979Y-98975306D01*
X171489306Y-99076979D01*
X171364782Y-99148873D01*
X171225894Y-99186088D01*
X171082106Y-99186088D01*
X170943218Y-99148873D01*
X170818694Y-99076979D01*
X170717021Y-98975306D01*
X170645127Y-98850782D01*
X170607912Y-98711894D01*
X170607912Y-98568106D01*
X170645127Y-98429218D01*
X170717021Y-98304694D01*
X170818694Y-98203021D01*
X170943218Y-98131127D01*
X171082106Y-98093912D01*
X171225894Y-98093912D01*
X171364782Y-98131127D01*
G37*
G36*
X159364782Y-96861127D02*
G01*
X159489306Y-96933021D01*
X159590979Y-97034694D01*
X159662873Y-97159218D01*
X159700088Y-97298106D01*
X159700088Y-97441894D01*
X159662873Y-97580782D01*
X159590979Y-97705306D01*
X159489306Y-97806979D01*
X159364782Y-97878873D01*
X159225894Y-97916088D01*
X159082106Y-97916088D01*
X158943218Y-97878873D01*
X158818694Y-97806979D01*
X158717021Y-97705306D01*
X158645127Y-97580782D01*
X158607912Y-97441894D01*
X158607912Y-97298106D01*
X158645127Y-97159218D01*
X158717021Y-97034694D01*
X158818694Y-96933021D01*
X158943218Y-96861127D01*
X159082106Y-96823912D01*
X159225894Y-96823912D01*
X159364782Y-96861127D01*
G37*
G36*
X171364782Y-96861127D02*
G01*
X171489306Y-96933021D01*
X171590979Y-97034694D01*
X171662873Y-97159218D01*
X171700088Y-97298106D01*
X171700088Y-97441894D01*
X171662873Y-97580782D01*
X171590979Y-97705306D01*
X171489306Y-97806979D01*
X171364782Y-97878873D01*
X171225894Y-97916088D01*
X171082106Y-97916088D01*
X170943218Y-97878873D01*
X170818694Y-97806979D01*
X170717021Y-97705306D01*
X170645127Y-97580782D01*
X170607912Y-97441894D01*
X170607912Y-97298106D01*
X170645127Y-97159218D01*
X170717021Y-97034694D01*
X170818694Y-96933021D01*
X170943218Y-96861127D01*
X171082106Y-96823912D01*
X171225894Y-96823912D01*
X171364782Y-96861127D01*
G37*
G36*
X165468000Y-95816372D02*
G01*
X165642578Y-95851098D01*
X165807028Y-95919215D01*
X165955029Y-96018107D01*
X166080893Y-96143971D01*
X166179785Y-96291972D01*
X166247902Y-96456422D01*
X166282628Y-96631000D01*
X166282628Y-96809000D01*
X166247902Y-96983578D01*
X166179785Y-97148028D01*
X166080893Y-97296029D01*
X165955029Y-97421893D01*
X165807028Y-97520785D01*
X165642578Y-97588902D01*
X165468000Y-97623628D01*
X165379000Y-97628000D01*
X165377749Y-97628000D01*
X164930251Y-97628000D01*
X164929000Y-97628000D01*
X164840000Y-97623628D01*
X164665422Y-97588902D01*
X164500972Y-97520785D01*
X164352971Y-97421893D01*
X164227107Y-97296029D01*
X164128215Y-97148028D01*
X164060098Y-96983578D01*
X164025372Y-96809000D01*
X164025372Y-96631000D01*
X164060098Y-96456422D01*
X164128215Y-96291972D01*
X164227107Y-96143971D01*
X164352971Y-96018107D01*
X164500972Y-95919215D01*
X164665422Y-95851098D01*
X164840000Y-95816372D01*
X164929000Y-95812000D01*
X165379000Y-95812000D01*
X165468000Y-95816372D01*
G37*
G36*
X159364782Y-95591127D02*
G01*
X159489306Y-95663021D01*
X159590979Y-95764694D01*
X159662873Y-95889218D01*
X159700088Y-96028106D01*
X159700088Y-96171894D01*
X159662873Y-96310782D01*
X159590979Y-96435306D01*
X159489306Y-96536979D01*
X159364782Y-96608873D01*
X159225894Y-96646088D01*
X159082106Y-96646088D01*
X158943218Y-96608873D01*
X158818694Y-96536979D01*
X158717021Y-96435306D01*
X158645127Y-96310782D01*
X158607912Y-96171894D01*
X158607912Y-96028106D01*
X158645127Y-95889218D01*
X158717021Y-95764694D01*
X158818694Y-95663021D01*
X158943218Y-95591127D01*
X159082106Y-95553912D01*
X159225894Y-95553912D01*
X159364782Y-95591127D01*
G37*
G36*
X171364782Y-95591127D02*
G01*
X171489306Y-95663021D01*
X171590979Y-95764694D01*
X171662873Y-95889218D01*
X171700088Y-96028106D01*
X171700088Y-96171894D01*
X171662873Y-96310782D01*
X171590979Y-96435306D01*
X171489306Y-96536979D01*
X171364782Y-96608873D01*
X171225894Y-96646088D01*
X171082106Y-96646088D01*
X170943218Y-96608873D01*
X170818694Y-96536979D01*
X170717021Y-96435306D01*
X170645127Y-96310782D01*
X170607912Y-96171894D01*
X170607912Y-96028106D01*
X170645127Y-95889218D01*
X170717021Y-95764694D01*
X170818694Y-95663021D01*
X170943218Y-95591127D01*
X171082106Y-95553912D01*
X171225894Y-95553912D01*
X171364782Y-95591127D01*
G37*
G36*
X159364782Y-94321127D02*
G01*
X159489306Y-94393021D01*
X159590979Y-94494694D01*
X159662873Y-94619218D01*
X159700088Y-94758106D01*
X159700088Y-94901894D01*
X159662873Y-95040782D01*
X159590979Y-95165306D01*
X159489306Y-95266979D01*
X159364782Y-95338873D01*
X159225894Y-95376088D01*
X159082106Y-95376088D01*
X158943218Y-95338873D01*
X158818694Y-95266979D01*
X158717021Y-95165306D01*
X158645127Y-95040782D01*
X158607912Y-94901894D01*
X158607912Y-94758106D01*
X158645127Y-94619218D01*
X158717021Y-94494694D01*
X158818694Y-94393021D01*
X158943218Y-94321127D01*
X159082106Y-94283912D01*
X159225894Y-94283912D01*
X159364782Y-94321127D01*
G37*
G36*
X171364782Y-94321127D02*
G01*
X171489306Y-94393021D01*
X171590979Y-94494694D01*
X171662873Y-94619218D01*
X171700088Y-94758106D01*
X171700088Y-94901894D01*
X171662873Y-95040782D01*
X171590979Y-95165306D01*
X171489306Y-95266979D01*
X171364782Y-95338873D01*
X171225894Y-95376088D01*
X171082106Y-95376088D01*
X170943218Y-95338873D01*
X170818694Y-95266979D01*
X170717021Y-95165306D01*
X170645127Y-95040782D01*
X170607912Y-94901894D01*
X170607912Y-94758106D01*
X170645127Y-94619218D01*
X170717021Y-94494694D01*
X170818694Y-94393021D01*
X170943218Y-94321127D01*
X171082106Y-94283912D01*
X171225894Y-94283912D01*
X171364782Y-94321127D01*
G37*
G36*
X165468000Y-93276372D02*
G01*
X165642578Y-93311098D01*
X165807028Y-93379215D01*
X165955029Y-93478107D01*
X166080893Y-93603971D01*
X166179785Y-93751972D01*
X166247902Y-93916422D01*
X166282628Y-94091000D01*
X166282628Y-94269000D01*
X166247902Y-94443578D01*
X166179785Y-94608028D01*
X166080893Y-94756029D01*
X165955029Y-94881893D01*
X165807028Y-94980785D01*
X165642578Y-95048902D01*
X165468000Y-95083628D01*
X165379000Y-95088000D01*
X165377749Y-95088000D01*
X164930251Y-95088000D01*
X164929000Y-95088000D01*
X164840000Y-95083628D01*
X164665422Y-95048902D01*
X164500972Y-94980785D01*
X164352971Y-94881893D01*
X164227107Y-94756029D01*
X164128215Y-94608028D01*
X164060098Y-94443578D01*
X164025372Y-94269000D01*
X164025372Y-94091000D01*
X164060098Y-93916422D01*
X164128215Y-93751972D01*
X164227107Y-93603971D01*
X164352971Y-93478107D01*
X164500972Y-93379215D01*
X164665422Y-93311098D01*
X164840000Y-93276372D01*
X164929000Y-93272000D01*
X165379000Y-93272000D01*
X165468000Y-93276372D01*
G37*
G36*
X159364782Y-93051127D02*
G01*
X159489306Y-93123021D01*
X159590979Y-93224694D01*
X159662873Y-93349218D01*
X159700088Y-93488106D01*
X159700088Y-93631894D01*
X159662873Y-93770782D01*
X159590979Y-93895306D01*
X159489306Y-93996979D01*
X159364782Y-94068873D01*
X159225894Y-94106088D01*
X159082106Y-94106088D01*
X158943218Y-94068873D01*
X158818694Y-93996979D01*
X158717021Y-93895306D01*
X158645127Y-93770782D01*
X158607912Y-93631894D01*
X158607912Y-93488106D01*
X158645127Y-93349218D01*
X158717021Y-93224694D01*
X158818694Y-93123021D01*
X158943218Y-93051127D01*
X159082106Y-93013912D01*
X159225894Y-93013912D01*
X159364782Y-93051127D01*
G37*
G36*
X171364782Y-93051127D02*
G01*
X171489306Y-93123021D01*
X171590979Y-93224694D01*
X171662873Y-93349218D01*
X171700088Y-93488106D01*
X171700088Y-93631894D01*
X171662873Y-93770782D01*
X171590979Y-93895306D01*
X171489306Y-93996979D01*
X171364782Y-94068873D01*
X171225894Y-94106088D01*
X171082106Y-94106088D01*
X170943218Y-94068873D01*
X170818694Y-93996979D01*
X170717021Y-93895306D01*
X170645127Y-93770782D01*
X170607912Y-93631894D01*
X170607912Y-93488106D01*
X170645127Y-93349218D01*
X170717021Y-93224694D01*
X170818694Y-93123021D01*
X170943218Y-93051127D01*
X171082106Y-93013912D01*
X171225894Y-93013912D01*
X171364782Y-93051127D01*
G37*
G36*
X159364782Y-91781127D02*
G01*
X159489306Y-91853021D01*
X159590979Y-91954694D01*
X159662873Y-92079218D01*
X159700088Y-92218106D01*
X159700088Y-92361894D01*
X159662873Y-92500782D01*
X159590979Y-92625306D01*
X159489306Y-92726979D01*
X159364782Y-92798873D01*
X159225894Y-92836088D01*
X159082106Y-92836088D01*
X158943218Y-92798873D01*
X158818694Y-92726979D01*
X158717021Y-92625306D01*
X158645127Y-92500782D01*
X158607912Y-92361894D01*
X158607912Y-92218106D01*
X158645127Y-92079218D01*
X158717021Y-91954694D01*
X158818694Y-91853021D01*
X158943218Y-91781127D01*
X159082106Y-91743912D01*
X159225894Y-91743912D01*
X159364782Y-91781127D01*
G37*
G36*
X171364782Y-91781127D02*
G01*
X171489306Y-91853021D01*
X171590979Y-91954694D01*
X171662873Y-92079218D01*
X171700088Y-92218106D01*
X171700088Y-92361894D01*
X171662873Y-92500782D01*
X171590979Y-92625306D01*
X171489306Y-92726979D01*
X171364782Y-92798873D01*
X171225894Y-92836088D01*
X171082106Y-92836088D01*
X170943218Y-92798873D01*
X170818694Y-92726979D01*
X170717021Y-92625306D01*
X170645127Y-92500782D01*
X170607912Y-92361894D01*
X170607912Y-92218106D01*
X170645127Y-92079218D01*
X170717021Y-91954694D01*
X170818694Y-91853021D01*
X170943218Y-91781127D01*
X171082106Y-91743912D01*
X171225894Y-91743912D01*
X171364782Y-91781127D01*
G37*
G36*
X165644157Y-85634828D02*
G01*
X165961878Y-85698027D01*
X166271873Y-85792063D01*
X166571159Y-85916031D01*
X166856853Y-86068738D01*
X167126203Y-86248712D01*
X167376616Y-86454220D01*
X167605680Y-86683284D01*
X167811188Y-86933697D01*
X167991162Y-87203047D01*
X168143869Y-87488741D01*
X168267837Y-87788027D01*
X168361873Y-88098022D01*
X168425072Y-88415743D01*
X168456824Y-88738128D01*
X168456824Y-89062072D01*
X168425072Y-89384457D01*
X168361873Y-89702178D01*
X168267837Y-90012173D01*
X168143869Y-90311459D01*
X167991162Y-90597153D01*
X167811188Y-90866503D01*
X167605680Y-91116916D01*
X167376616Y-91345980D01*
X167126203Y-91551488D01*
X166856853Y-91731462D01*
X166571159Y-91884169D01*
X166271873Y-92008137D01*
X165961878Y-92102173D01*
X165644157Y-92165372D01*
X165321772Y-92197124D01*
X164997828Y-92197124D01*
X164675443Y-92165372D01*
X164357722Y-92102173D01*
X164047727Y-92008137D01*
X163748441Y-91884169D01*
X163462747Y-91731462D01*
X163193397Y-91551488D01*
X162942984Y-91345980D01*
X162713920Y-91116916D01*
X162508412Y-90866503D01*
X162328438Y-90597153D01*
X162175731Y-90311459D01*
X162051763Y-90012173D01*
X161957727Y-89702178D01*
X161894528Y-89384457D01*
X161862776Y-89062072D01*
X161862776Y-88738128D01*
X161894528Y-88415743D01*
X161957727Y-88098022D01*
X162051763Y-87788027D01*
X162175731Y-87488741D01*
X162328438Y-87203047D01*
X162508412Y-86933697D01*
X162713920Y-86683284D01*
X162942984Y-86454220D01*
X163193397Y-86248712D01*
X163462747Y-86068738D01*
X163748441Y-85916031D01*
X164047727Y-85792063D01*
X164357722Y-85698027D01*
X164675443Y-85634828D01*
X164997828Y-85603076D01*
X165321772Y-85603076D01*
X165644157Y-85634828D01*
G37*
G36*
X159364782Y-90511127D02*
G01*
X159489306Y-90583021D01*
X159590979Y-90684694D01*
X159662873Y-90809218D01*
X159700088Y-90948106D01*
X159700088Y-91091894D01*
X159662873Y-91230782D01*
X159590979Y-91355306D01*
X159489306Y-91456979D01*
X159364782Y-91528873D01*
X159225894Y-91566088D01*
X159082106Y-91566088D01*
X158943218Y-91528873D01*
X158818694Y-91456979D01*
X158717021Y-91355306D01*
X158645127Y-91230782D01*
X158607912Y-91091894D01*
X158607912Y-90948106D01*
X158645127Y-90809218D01*
X158717021Y-90684694D01*
X158818694Y-90583021D01*
X158943218Y-90511127D01*
X159082106Y-90473912D01*
X159225894Y-90473912D01*
X159364782Y-90511127D01*
G37*
G36*
X171364782Y-90511127D02*
G01*
X171489306Y-90583021D01*
X171590979Y-90684694D01*
X171662873Y-90809218D01*
X171700088Y-90948106D01*
X171700088Y-91091894D01*
X171662873Y-91230782D01*
X171590979Y-91355306D01*
X171489306Y-91456979D01*
X171364782Y-91528873D01*
X171225894Y-91566088D01*
X171082106Y-91566088D01*
X170943218Y-91528873D01*
X170818694Y-91456979D01*
X170717021Y-91355306D01*
X170645127Y-91230782D01*
X170607912Y-91091894D01*
X170607912Y-90948106D01*
X170645127Y-90809218D01*
X170717021Y-90684694D01*
X170818694Y-90583021D01*
X170943218Y-90511127D01*
X171082106Y-90473912D01*
X171225894Y-90473912D01*
X171364782Y-90511127D01*
G37*
G36*
X159419661Y-86643543D02*
G01*
X159589494Y-86698725D01*
X159748603Y-86779795D01*
X159893072Y-86884758D01*
X160019342Y-87011028D01*
X160124305Y-87155497D01*
X160205375Y-87314606D01*
X160260557Y-87484439D01*
X160288492Y-87660814D01*
X160288492Y-87839386D01*
X160260557Y-88015761D01*
X160205375Y-88185594D01*
X160124305Y-88344703D01*
X160019342Y-88489172D01*
X159893072Y-88615442D01*
X159748603Y-88720405D01*
X159589494Y-88801475D01*
X159419661Y-88856657D01*
X159243286Y-88884592D01*
X159064714Y-88884592D01*
X158888339Y-88856657D01*
X158718506Y-88801475D01*
X158559397Y-88720405D01*
X158414928Y-88615442D01*
X158288658Y-88489172D01*
X158183695Y-88344703D01*
X158102625Y-88185594D01*
X158047443Y-88015761D01*
X158019508Y-87839386D01*
X158019508Y-87660814D01*
X158047443Y-87484439D01*
X158102625Y-87314606D01*
X158183695Y-87155497D01*
X158288658Y-87011028D01*
X158414928Y-86884758D01*
X158559397Y-86779795D01*
X158718506Y-86698725D01*
X158888339Y-86643543D01*
X159064714Y-86615608D01*
X159243286Y-86615608D01*
X159419661Y-86643543D01*
G37*
G36*
X171411773Y-86900337D02*
G01*
X171572600Y-86966954D01*
X171717341Y-87063667D01*
X171840433Y-87186759D01*
X171937146Y-87331500D01*
X172003763Y-87492327D01*
X172037724Y-87663061D01*
X172037724Y-87837139D01*
X172003763Y-88007873D01*
X171937146Y-88168700D01*
X171840433Y-88313441D01*
X171717341Y-88436533D01*
X171572600Y-88533246D01*
X171411773Y-88599863D01*
X171241039Y-88633824D01*
X171066961Y-88633824D01*
X170896227Y-88599863D01*
X170735400Y-88533246D01*
X170590659Y-88436533D01*
X170467567Y-88313441D01*
X170370854Y-88168700D01*
X170304237Y-88007873D01*
X170270276Y-87837139D01*
X170270276Y-87663061D01*
X170304237Y-87492327D01*
X170370854Y-87331500D01*
X170467567Y-87186759D01*
X170590659Y-87063667D01*
X170735400Y-86966954D01*
X170896227Y-86900337D01*
X171066961Y-86866376D01*
X171241039Y-86866376D01*
X171411773Y-86900337D01*
G37*
M02*
