M48
; DRILL file {KiCad 9.0.0} date 2025-06-18T14:15:31-0700
; FORMAT={-:-/ absolute / inch / decimal}
; #@! TF.CreationDate,2025-06-18T14:15:31-07:00
; #@! TF.GenerationSoftware,Kicad,Pcbnew,9.0.0
; #@! TF.FileFunction,Plated,1,4,PTH
FMAT,2
INCH
; #@! TA.AperFunction,Plated,PTH,ViaDrill
T1C0.0118
; #@! TA.AperFunction,Plated,PTH,ViaDrill
T2C0.0130
; #@! TA.AperFunction,Plated,PTH,ComponentDrill
T3C0.0295
; #@! TA.AperFunction,Plated,PTH,ComponentDrill
T4C0.0469
; #@! TA.AperFunction,Plated,PTH,ComponentDrill
T5C0.0551
; #@! TA.AperFunction,Plated,PTH,ComponentDrill
T6C0.1260
%
G90
G05
T1
X3.937Y-4.3228
X4.0157Y-4.3228
X4.0944Y-4.3228
X4.6063Y-4.7244
X4.6811Y-4.7244
X4.7637Y-4.3228
X4.7637Y-4.7244
X4.8425Y-4.3228
X4.8425Y-4.7244
X4.9212Y-4.3228
X4.9212Y-4.7244
X5.0Y-4.3228
X5.0Y-4.7244
X5.0787Y-4.3228
X5.0787Y-4.7244
X5.1574Y-4.3228
X5.1574Y-4.7244
X5.2362Y-4.3228
X5.2362Y-4.7244
X5.3149Y-4.3228
X5.3149Y-4.7244
X5.3937Y-4.3228
X5.3937Y-4.7244
X5.4724Y-4.3228
X5.4724Y-4.7244
X5.5511Y-4.7244
X5.5551Y-4.3228
X5.6299Y-4.3228
X5.6299Y-4.7244
X5.7086Y-4.7244
X5.7126Y-4.3228
X5.7874Y-4.3228
X5.7874Y-4.7244
X5.8661Y-4.3228
X5.8661Y-4.7244
X5.9488Y-4.3228
X5.9488Y-4.7244
X6.0236Y-4.7244
X6.1023Y-4.8031
X6.8582Y-4.1417
X6.9055Y-4.1969
X6.9724Y-4.2756
X7.0236Y-4.3268
X7.0393Y-3.9134
X7.0708Y-4.378
X7.0984Y-3.9567
X7.1181Y-4.437
X7.1653Y-4.0079
X7.1653Y-4.4961
X7.2441Y-4.0079
X7.2441Y-4.2913
X7.2441Y-4.4961
X7.3228Y-4.0079
X7.3228Y-4.2913
X7.3228Y-4.4961
X7.4015Y-4.0079
X7.4015Y-4.252
X7.4015Y-4.4961
X7.4803Y-4.0079
X7.4803Y-4.252
X7.4803Y-4.4961
X7.559Y-4.0079
X7.559Y-4.252
X7.6378Y-4.0079
X7.6378Y-4.252
X7.6771Y-4.4961
X7.7165Y-4.0079
X7.7165Y-4.252
X7.7559Y-4.4961
X7.7952Y-4.252
X7.7992Y-4.0079
X7.8346Y-4.4961
X7.874Y-4.0079
X7.874Y-4.252
X7.9133Y-4.4961
X7.9527Y-4.0079
X7.9527Y-4.252
X7.9921Y-4.4961
X8.0236Y-4.0079
X8.0708Y-4.0669
X8.1259Y-4.1181
X8.1771Y-4.1654
X8.2362Y-4.2165
X8.2913Y-4.2756
X8.3425Y-4.3307
T2
X3.1456Y-4.7414
X3.6063Y-4.7441
X6.3769Y-4.3543
X6.3779Y-4.2717
X6.4089Y-4.3543
X6.4409Y-4.3543
X6.8858Y-3.5827
X7.3159Y-4.7503
X7.8317Y-4.7441
T3
X2.9968Y-4.6437
X3.0468Y-4.6437
X3.0968Y-4.6437
X3.1468Y-4.6437
X3.1968Y-4.6437
X3.2468Y-4.6437
X3.2968Y-4.6437
X3.3468Y-4.6437
X3.3968Y-4.6437
X3.4468Y-4.6437
X3.4968Y-4.6437
X3.5468Y-4.6437
X3.5968Y-4.6437
X3.6468Y-4.6437
X3.6968Y-4.6437
X3.9433Y-4.6437
X3.9933Y-4.6437
X4.0433Y-4.6437
X4.0933Y-4.6437
X4.1433Y-4.6437
X4.1933Y-4.6437
X4.2433Y-4.6437
X6.2659Y-3.5835
X6.2659Y-3.6335
X6.2659Y-3.6835
X6.2659Y-3.7335
X6.2659Y-3.7835
X6.2659Y-3.8335
X6.2659Y-3.8835
X6.2659Y-3.9335
X6.2659Y-3.9835
X6.2659Y-4.0335
X6.2659Y-4.0835
X6.2659Y-4.1335
X6.2659Y-4.1835
X6.2659Y-4.2335
X6.2659Y-4.2835
X6.2659Y-4.5339
X6.2659Y-4.5839
X6.2659Y-4.6339
X6.2659Y-4.6839
X6.2659Y-4.7339
X6.2659Y-4.7839
X6.2659Y-4.8339
X6.7383Y-3.5835
X6.7383Y-3.6335
X6.7383Y-3.6835
X6.7383Y-3.7335
X6.7383Y-3.7835
X6.7383Y-3.8335
X6.7383Y-3.8835
X6.7383Y-4.1339
X6.7383Y-4.1839
X6.7383Y-4.2339
X6.7383Y-4.2839
X6.7383Y-4.3339
X6.7383Y-4.3839
X6.7383Y-4.4339
X6.7383Y-4.4839
X6.7383Y-4.5339
X6.7383Y-4.5839
X6.7383Y-4.6339
X6.7383Y-4.6839
X6.7383Y-4.7339
X6.7383Y-4.7839
X6.7383Y-4.8339
X7.1326Y-4.6437
X7.1826Y-4.6437
X7.2326Y-4.6437
X7.2826Y-4.6437
X7.3326Y-4.6437
X7.3826Y-4.6437
X7.4326Y-4.6437
X7.4826Y-4.6437
X7.5326Y-4.6437
X7.5826Y-4.6437
X7.6326Y-4.6437
X7.6826Y-4.6437
X7.7326Y-4.6437
X7.7826Y-4.6437
X7.8326Y-4.6437
X8.0791Y-4.6437
X8.1291Y-4.6437
X8.1791Y-4.6437
X8.2291Y-4.6437
X8.2791Y-4.6437
X8.3291Y-4.6437
X8.3791Y-4.6437
T4
X6.5021Y-3.7079
X6.5021Y-3.8079
X6.5021Y-3.9079
X6.5021Y-4.0079
X6.5021Y-4.4094
X6.5021Y-4.5094
X6.5021Y-4.6094
X6.5021Y-4.7094
T5
X2.8031Y-4.6437
X4.437Y-4.6437
X6.2659Y-4.4087
X6.7383Y-4.0087
X6.9389Y-4.6437
X8.5728Y-4.6437
T6
X2.5984Y-4.5571
X6.5024Y-3.5
X6.5024Y-4.9173
X8.7815Y-4.5571
M30
