%TF.GenerationSoftware,KiCad,Pcbnew,9.0.0*%
%TF.CreationDate,2025-06-18T14:15:24-07:00*%
%TF.ProjectId,1U Backplane,31552042-6163-46b7-906c-616e652e6b69,rev?*%
%TF.SameCoordinates,Original*%
%TF.FileFunction,Soldermask,Bot*%
%TF.FilePolarity,Negative*%
%FSLAX46Y46*%
G04 Gerber Fmt 4.6, Leading zero omitted, Abs format (unit mm)*
G04 Created by KiCad (PCBNEW 9.0.0) date 2025-06-18 14:15:24*
%MOMM*%
%LPD*%
G01*
G04 APERTURE LIST*
G04 APERTURE END LIST*
G36*
X165642250Y-121647588D02*
G01*
X165958719Y-121710537D01*
X166267494Y-121804203D01*
X166565601Y-121927683D01*
X166850170Y-122079788D01*
X167118459Y-122259054D01*
X167367886Y-122463753D01*
X167596047Y-122691914D01*
X167800746Y-122941341D01*
X167980012Y-123209630D01*
X168132117Y-123494199D01*
X168255597Y-123792306D01*
X168349263Y-124101081D01*
X168412212Y-124417550D01*
X168443839Y-124738665D01*
X168443839Y-125061335D01*
X168412212Y-125382450D01*
X168349263Y-125698919D01*
X168255597Y-126007694D01*
X168132117Y-126305801D01*
X167980012Y-126590370D01*
X167800746Y-126858659D01*
X167596047Y-127108086D01*
X167367886Y-127336247D01*
X167118459Y-127540946D01*
X166850170Y-127720212D01*
X166565601Y-127872317D01*
X166267494Y-127995797D01*
X165958719Y-128089463D01*
X165642250Y-128152412D01*
X165321135Y-128184039D01*
X164998465Y-128184039D01*
X164677350Y-128152412D01*
X164360881Y-128089463D01*
X164052106Y-127995797D01*
X163753999Y-127872317D01*
X163469430Y-127720212D01*
X163201141Y-127540946D01*
X162951714Y-127336247D01*
X162723553Y-127108086D01*
X162518854Y-126858659D01*
X162339588Y-126590370D01*
X162187483Y-126305801D01*
X162064003Y-126007694D01*
X161970337Y-125698919D01*
X161907388Y-125382450D01*
X161875761Y-125061335D01*
X161875761Y-124738665D01*
X161907388Y-124417550D01*
X161970337Y-124101081D01*
X162064003Y-123792306D01*
X162187483Y-123494199D01*
X162339588Y-123209630D01*
X162518854Y-122941341D01*
X162723553Y-122691914D01*
X162951714Y-122463753D01*
X163201141Y-122259054D01*
X163469430Y-122079788D01*
X163753999Y-121927683D01*
X164052106Y-121804203D01*
X164360881Y-121710537D01*
X164677350Y-121647588D01*
X164998465Y-121615961D01*
X165321135Y-121615961D01*
X165642250Y-121647588D01*
G37*
G36*
X171419661Y-124943343D02*
G01*
X171589494Y-124998525D01*
X171748603Y-125079595D01*
X171893072Y-125184558D01*
X172019342Y-125310828D01*
X172124305Y-125455297D01*
X172205375Y-125614406D01*
X172260557Y-125784239D01*
X172288492Y-125960614D01*
X172288492Y-126139186D01*
X172260557Y-126315561D01*
X172205375Y-126485394D01*
X172124305Y-126644503D01*
X172019342Y-126788972D01*
X171893072Y-126915242D01*
X171748603Y-127020205D01*
X171589494Y-127101275D01*
X171419661Y-127156457D01*
X171243286Y-127184392D01*
X171064714Y-127184392D01*
X170888339Y-127156457D01*
X170718506Y-127101275D01*
X170559397Y-127020205D01*
X170414928Y-126915242D01*
X170288658Y-126788972D01*
X170183695Y-126644503D01*
X170102625Y-126485394D01*
X170047443Y-126315561D01*
X170019508Y-126139186D01*
X170019508Y-125960614D01*
X170047443Y-125784239D01*
X170102625Y-125614406D01*
X170183695Y-125455297D01*
X170288658Y-125310828D01*
X170414928Y-125184558D01*
X170559397Y-125079595D01*
X170718506Y-124998525D01*
X170888339Y-124943343D01*
X171064714Y-124915408D01*
X171243286Y-124915408D01*
X171419661Y-124943343D01*
G37*
G36*
X159411773Y-125200137D02*
G01*
X159572600Y-125266754D01*
X159717341Y-125363467D01*
X159840433Y-125486559D01*
X159937146Y-125631300D01*
X160003763Y-125792127D01*
X160037724Y-125962861D01*
X160037724Y-126136939D01*
X160003763Y-126307673D01*
X159937146Y-126468500D01*
X159840433Y-126613241D01*
X159717341Y-126736333D01*
X159572600Y-126833046D01*
X159411773Y-126899663D01*
X159241039Y-126933624D01*
X159066961Y-126933624D01*
X158896227Y-126899663D01*
X158735400Y-126833046D01*
X158590659Y-126736333D01*
X158467567Y-126613241D01*
X158370854Y-126468500D01*
X158304237Y-126307673D01*
X158270276Y-126136939D01*
X158270276Y-125962861D01*
X158304237Y-125792127D01*
X158370854Y-125631300D01*
X158467567Y-125486559D01*
X158590659Y-125363467D01*
X158735400Y-125266754D01*
X158896227Y-125200137D01*
X159066961Y-125166176D01*
X159241039Y-125166176D01*
X159411773Y-125200137D01*
G37*
G36*
X159359884Y-122282953D02*
G01*
X159481514Y-122353176D01*
X159580824Y-122452486D01*
X159651047Y-122574116D01*
X159687397Y-122709777D01*
X159687397Y-122850223D01*
X159651047Y-122985884D01*
X159580824Y-123107514D01*
X159481514Y-123206824D01*
X159359884Y-123277047D01*
X159224223Y-123313397D01*
X159083777Y-123313397D01*
X158948116Y-123277047D01*
X158826486Y-123206824D01*
X158727176Y-123107514D01*
X158656953Y-122985884D01*
X158620603Y-122850223D01*
X158620603Y-122709777D01*
X158656953Y-122574116D01*
X158727176Y-122452486D01*
X158826486Y-122353176D01*
X158948116Y-122282953D01*
X159083777Y-122246603D01*
X159224223Y-122246603D01*
X159359884Y-122282953D01*
G37*
G36*
X171359884Y-122282953D02*
G01*
X171481514Y-122353176D01*
X171580824Y-122452486D01*
X171651047Y-122574116D01*
X171687397Y-122709777D01*
X171687397Y-122850223D01*
X171651047Y-122985884D01*
X171580824Y-123107514D01*
X171481514Y-123206824D01*
X171359884Y-123277047D01*
X171224223Y-123313397D01*
X171083777Y-123313397D01*
X170948116Y-123277047D01*
X170826486Y-123206824D01*
X170727176Y-123107514D01*
X170656953Y-122985884D01*
X170620603Y-122850223D01*
X170620603Y-122709777D01*
X170656953Y-122574116D01*
X170727176Y-122452486D01*
X170826486Y-122353176D01*
X170948116Y-122282953D01*
X171083777Y-122246603D01*
X171224223Y-122246603D01*
X171359884Y-122282953D01*
G37*
G36*
X79718009Y-121188294D02*
G01*
X79781569Y-121196662D01*
X79797557Y-121204117D01*
X79816929Y-121207971D01*
X79842589Y-121225116D01*
X79869070Y-121237465D01*
X79885179Y-121253574D01*
X79906308Y-121267692D01*
X79920425Y-121288820D01*
X79936534Y-121304929D01*
X79948881Y-121331408D01*
X79966029Y-121357071D01*
X79969882Y-121376442D01*
X79977336Y-121392427D01*
X79985699Y-121455961D01*
X79987000Y-121462500D01*
X79987000Y-121937500D01*
X79985702Y-121944023D01*
X79977337Y-122007569D01*
X79969882Y-122023554D01*
X79966029Y-122042929D01*
X79948879Y-122068594D01*
X79936534Y-122095070D01*
X79920427Y-122111176D01*
X79906308Y-122132308D01*
X79885176Y-122146427D01*
X79869070Y-122162534D01*
X79842593Y-122174880D01*
X79816929Y-122192029D01*
X79797555Y-122195882D01*
X79781572Y-122203336D01*
X79718040Y-122211699D01*
X79711500Y-122213000D01*
X79136500Y-122213000D01*
X79129978Y-122211702D01*
X79066430Y-122203337D01*
X79050444Y-122195882D01*
X79031071Y-122192029D01*
X79005407Y-122174881D01*
X78978929Y-122162534D01*
X78962820Y-122146425D01*
X78941692Y-122132308D01*
X78927574Y-122111179D01*
X78911465Y-122095070D01*
X78899116Y-122068588D01*
X78881971Y-122042929D01*
X78878118Y-122023559D01*
X78870663Y-122007572D01*
X78862297Y-121944025D01*
X78861000Y-121937500D01*
X78861000Y-121462500D01*
X78862294Y-121455992D01*
X78870662Y-121392430D01*
X78878118Y-121376440D01*
X78881971Y-121357071D01*
X78899115Y-121331412D01*
X78911465Y-121304929D01*
X78927576Y-121288817D01*
X78941692Y-121267692D01*
X78962817Y-121253576D01*
X78978929Y-121237465D01*
X79005413Y-121225114D01*
X79031071Y-121207971D01*
X79050439Y-121204118D01*
X79066427Y-121196663D01*
X79129976Y-121188297D01*
X79136500Y-121187000D01*
X79711500Y-121187000D01*
X79718009Y-121188294D01*
G37*
G36*
X81468009Y-121188294D02*
G01*
X81531569Y-121196662D01*
X81547557Y-121204117D01*
X81566929Y-121207971D01*
X81592589Y-121225116D01*
X81619070Y-121237465D01*
X81635179Y-121253574D01*
X81656308Y-121267692D01*
X81670425Y-121288820D01*
X81686534Y-121304929D01*
X81698881Y-121331408D01*
X81716029Y-121357071D01*
X81719882Y-121376442D01*
X81727336Y-121392427D01*
X81735699Y-121455961D01*
X81737000Y-121462500D01*
X81737000Y-121937500D01*
X81735702Y-121944023D01*
X81727337Y-122007569D01*
X81719882Y-122023554D01*
X81716029Y-122042929D01*
X81698879Y-122068594D01*
X81686534Y-122095070D01*
X81670427Y-122111176D01*
X81656308Y-122132308D01*
X81635176Y-122146427D01*
X81619070Y-122162534D01*
X81592593Y-122174880D01*
X81566929Y-122192029D01*
X81547555Y-122195882D01*
X81531572Y-122203336D01*
X81468040Y-122211699D01*
X81461500Y-122213000D01*
X80886500Y-122213000D01*
X80879978Y-122211702D01*
X80816430Y-122203337D01*
X80800444Y-122195882D01*
X80781071Y-122192029D01*
X80755407Y-122174881D01*
X80728929Y-122162534D01*
X80712820Y-122146425D01*
X80691692Y-122132308D01*
X80677574Y-122111179D01*
X80661465Y-122095070D01*
X80649116Y-122068588D01*
X80631971Y-122042929D01*
X80628118Y-122023559D01*
X80620663Y-122007572D01*
X80612297Y-121944025D01*
X80611000Y-121937500D01*
X80611000Y-121462500D01*
X80612294Y-121455992D01*
X80620662Y-121392430D01*
X80628118Y-121376440D01*
X80631971Y-121357071D01*
X80649115Y-121331412D01*
X80661465Y-121304929D01*
X80677576Y-121288817D01*
X80691692Y-121267692D01*
X80712817Y-121253576D01*
X80728929Y-121237465D01*
X80755413Y-121225114D01*
X80781071Y-121207971D01*
X80800439Y-121204118D01*
X80816427Y-121196663D01*
X80879976Y-121188297D01*
X80886500Y-121187000D01*
X81461500Y-121187000D01*
X81468009Y-121188294D01*
G37*
G36*
X90418009Y-121188294D02*
G01*
X90481569Y-121196662D01*
X90497557Y-121204117D01*
X90516929Y-121207971D01*
X90542589Y-121225116D01*
X90569070Y-121237465D01*
X90585179Y-121253574D01*
X90606308Y-121267692D01*
X90620425Y-121288820D01*
X90636534Y-121304929D01*
X90648881Y-121331408D01*
X90666029Y-121357071D01*
X90669882Y-121376442D01*
X90677336Y-121392427D01*
X90685699Y-121455961D01*
X90687000Y-121462500D01*
X90687000Y-121937500D01*
X90685702Y-121944023D01*
X90677337Y-122007569D01*
X90669882Y-122023554D01*
X90666029Y-122042929D01*
X90648879Y-122068594D01*
X90636534Y-122095070D01*
X90620427Y-122111176D01*
X90606308Y-122132308D01*
X90585176Y-122146427D01*
X90569070Y-122162534D01*
X90542593Y-122174880D01*
X90516929Y-122192029D01*
X90497555Y-122195882D01*
X90481572Y-122203336D01*
X90418040Y-122211699D01*
X90411500Y-122213000D01*
X89836500Y-122213000D01*
X89829978Y-122211702D01*
X89766430Y-122203337D01*
X89750444Y-122195882D01*
X89731071Y-122192029D01*
X89705407Y-122174881D01*
X89678929Y-122162534D01*
X89662820Y-122146425D01*
X89641692Y-122132308D01*
X89627574Y-122111179D01*
X89611465Y-122095070D01*
X89599116Y-122068588D01*
X89581971Y-122042929D01*
X89578118Y-122023559D01*
X89570663Y-122007572D01*
X89562297Y-121944025D01*
X89561000Y-121937500D01*
X89561000Y-121462500D01*
X89562294Y-121455992D01*
X89570662Y-121392430D01*
X89578118Y-121376440D01*
X89581971Y-121357071D01*
X89599115Y-121331412D01*
X89611465Y-121304929D01*
X89627576Y-121288817D01*
X89641692Y-121267692D01*
X89662817Y-121253576D01*
X89678929Y-121237465D01*
X89705413Y-121225114D01*
X89731071Y-121207971D01*
X89750439Y-121204118D01*
X89766427Y-121196663D01*
X89829976Y-121188297D01*
X89836500Y-121187000D01*
X90411500Y-121187000D01*
X90418009Y-121188294D01*
G37*
G36*
X92168009Y-121188294D02*
G01*
X92231569Y-121196662D01*
X92247557Y-121204117D01*
X92266929Y-121207971D01*
X92292589Y-121225116D01*
X92319070Y-121237465D01*
X92335179Y-121253574D01*
X92356308Y-121267692D01*
X92370425Y-121288820D01*
X92386534Y-121304929D01*
X92398881Y-121331408D01*
X92416029Y-121357071D01*
X92419882Y-121376442D01*
X92427336Y-121392427D01*
X92435699Y-121455961D01*
X92437000Y-121462500D01*
X92437000Y-121937500D01*
X92435702Y-121944023D01*
X92427337Y-122007569D01*
X92419882Y-122023554D01*
X92416029Y-122042929D01*
X92398879Y-122068594D01*
X92386534Y-122095070D01*
X92370427Y-122111176D01*
X92356308Y-122132308D01*
X92335176Y-122146427D01*
X92319070Y-122162534D01*
X92292593Y-122174880D01*
X92266929Y-122192029D01*
X92247555Y-122195882D01*
X92231572Y-122203336D01*
X92168040Y-122211699D01*
X92161500Y-122213000D01*
X91586500Y-122213000D01*
X91579978Y-122211702D01*
X91516430Y-122203337D01*
X91500444Y-122195882D01*
X91481071Y-122192029D01*
X91455407Y-122174881D01*
X91428929Y-122162534D01*
X91412820Y-122146425D01*
X91391692Y-122132308D01*
X91377574Y-122111179D01*
X91361465Y-122095070D01*
X91349116Y-122068588D01*
X91331971Y-122042929D01*
X91328118Y-122023559D01*
X91320663Y-122007572D01*
X91312297Y-121944025D01*
X91311000Y-121937500D01*
X91311000Y-121462500D01*
X91312294Y-121455992D01*
X91320662Y-121392430D01*
X91328118Y-121376440D01*
X91331971Y-121357071D01*
X91349115Y-121331412D01*
X91361465Y-121304929D01*
X91377576Y-121288817D01*
X91391692Y-121267692D01*
X91412817Y-121253576D01*
X91428929Y-121237465D01*
X91455413Y-121225114D01*
X91481071Y-121207971D01*
X91500439Y-121204118D01*
X91516427Y-121196663D01*
X91579976Y-121188297D01*
X91586500Y-121187000D01*
X92161500Y-121187000D01*
X92168009Y-121188294D01*
G37*
G36*
X186368009Y-121188294D02*
G01*
X186431569Y-121196662D01*
X186447557Y-121204117D01*
X186466929Y-121207971D01*
X186492589Y-121225116D01*
X186519070Y-121237465D01*
X186535179Y-121253574D01*
X186556308Y-121267692D01*
X186570425Y-121288820D01*
X186586534Y-121304929D01*
X186598881Y-121331408D01*
X186616029Y-121357071D01*
X186619882Y-121376442D01*
X186627336Y-121392427D01*
X186635699Y-121455961D01*
X186637000Y-121462500D01*
X186637000Y-121937500D01*
X186635702Y-121944023D01*
X186627337Y-122007569D01*
X186619882Y-122023554D01*
X186616029Y-122042929D01*
X186598879Y-122068594D01*
X186586534Y-122095070D01*
X186570427Y-122111176D01*
X186556308Y-122132308D01*
X186535176Y-122146427D01*
X186519070Y-122162534D01*
X186492593Y-122174880D01*
X186466929Y-122192029D01*
X186447555Y-122195882D01*
X186431572Y-122203336D01*
X186368040Y-122211699D01*
X186361500Y-122213000D01*
X185786500Y-122213000D01*
X185779978Y-122211702D01*
X185716430Y-122203337D01*
X185700444Y-122195882D01*
X185681071Y-122192029D01*
X185655407Y-122174881D01*
X185628929Y-122162534D01*
X185612820Y-122146425D01*
X185591692Y-122132308D01*
X185577574Y-122111179D01*
X185561465Y-122095070D01*
X185549116Y-122068588D01*
X185531971Y-122042929D01*
X185528118Y-122023559D01*
X185520663Y-122007572D01*
X185512297Y-121944025D01*
X185511000Y-121937500D01*
X185511000Y-121462500D01*
X185512294Y-121455992D01*
X185520662Y-121392430D01*
X185528118Y-121376440D01*
X185531971Y-121357071D01*
X185549115Y-121331412D01*
X185561465Y-121304929D01*
X185577576Y-121288817D01*
X185591692Y-121267692D01*
X185612817Y-121253576D01*
X185628929Y-121237465D01*
X185655413Y-121225114D01*
X185681071Y-121207971D01*
X185700439Y-121204118D01*
X185716427Y-121196663D01*
X185779976Y-121188297D01*
X185786500Y-121187000D01*
X186361500Y-121187000D01*
X186368009Y-121188294D01*
G37*
G36*
X188118009Y-121188294D02*
G01*
X188181569Y-121196662D01*
X188197557Y-121204117D01*
X188216929Y-121207971D01*
X188242589Y-121225116D01*
X188269070Y-121237465D01*
X188285179Y-121253574D01*
X188306308Y-121267692D01*
X188320425Y-121288820D01*
X188336534Y-121304929D01*
X188348881Y-121331408D01*
X188366029Y-121357071D01*
X188369882Y-121376442D01*
X188377336Y-121392427D01*
X188385699Y-121455961D01*
X188387000Y-121462500D01*
X188387000Y-121937500D01*
X188385702Y-121944023D01*
X188377337Y-122007569D01*
X188369882Y-122023554D01*
X188366029Y-122042929D01*
X188348879Y-122068594D01*
X188336534Y-122095070D01*
X188320427Y-122111176D01*
X188306308Y-122132308D01*
X188285176Y-122146427D01*
X188269070Y-122162534D01*
X188242593Y-122174880D01*
X188216929Y-122192029D01*
X188197555Y-122195882D01*
X188181572Y-122203336D01*
X188118040Y-122211699D01*
X188111500Y-122213000D01*
X187536500Y-122213000D01*
X187529978Y-122211702D01*
X187466430Y-122203337D01*
X187450444Y-122195882D01*
X187431071Y-122192029D01*
X187405407Y-122174881D01*
X187378929Y-122162534D01*
X187362820Y-122146425D01*
X187341692Y-122132308D01*
X187327574Y-122111179D01*
X187311465Y-122095070D01*
X187299116Y-122068588D01*
X187281971Y-122042929D01*
X187278118Y-122023559D01*
X187270663Y-122007572D01*
X187262297Y-121944025D01*
X187261000Y-121937500D01*
X187261000Y-121462500D01*
X187262294Y-121455992D01*
X187270662Y-121392430D01*
X187278118Y-121376440D01*
X187281971Y-121357071D01*
X187299115Y-121331412D01*
X187311465Y-121304929D01*
X187327576Y-121288817D01*
X187341692Y-121267692D01*
X187362817Y-121253576D01*
X187378929Y-121237465D01*
X187405413Y-121225114D01*
X187431071Y-121207971D01*
X187450439Y-121204118D01*
X187466427Y-121196663D01*
X187529976Y-121188297D01*
X187536500Y-121187000D01*
X188111500Y-121187000D01*
X188118009Y-121188294D01*
G37*
G36*
X196818009Y-121188294D02*
G01*
X196881569Y-121196662D01*
X196897557Y-121204117D01*
X196916929Y-121207971D01*
X196942589Y-121225116D01*
X196969070Y-121237465D01*
X196985179Y-121253574D01*
X197006308Y-121267692D01*
X197020425Y-121288820D01*
X197036534Y-121304929D01*
X197048881Y-121331408D01*
X197066029Y-121357071D01*
X197069882Y-121376442D01*
X197077336Y-121392427D01*
X197085699Y-121455961D01*
X197087000Y-121462500D01*
X197087000Y-121937500D01*
X197085702Y-121944023D01*
X197077337Y-122007569D01*
X197069882Y-122023554D01*
X197066029Y-122042929D01*
X197048879Y-122068594D01*
X197036534Y-122095070D01*
X197020427Y-122111176D01*
X197006308Y-122132308D01*
X196985176Y-122146427D01*
X196969070Y-122162534D01*
X196942593Y-122174880D01*
X196916929Y-122192029D01*
X196897555Y-122195882D01*
X196881572Y-122203336D01*
X196818040Y-122211699D01*
X196811500Y-122213000D01*
X196236500Y-122213000D01*
X196229978Y-122211702D01*
X196166430Y-122203337D01*
X196150444Y-122195882D01*
X196131071Y-122192029D01*
X196105407Y-122174881D01*
X196078929Y-122162534D01*
X196062820Y-122146425D01*
X196041692Y-122132308D01*
X196027574Y-122111179D01*
X196011465Y-122095070D01*
X195999116Y-122068588D01*
X195981971Y-122042929D01*
X195978118Y-122023559D01*
X195970663Y-122007572D01*
X195962297Y-121944025D01*
X195961000Y-121937500D01*
X195961000Y-121462500D01*
X195962294Y-121455992D01*
X195970662Y-121392430D01*
X195978118Y-121376440D01*
X195981971Y-121357071D01*
X195999115Y-121331412D01*
X196011465Y-121304929D01*
X196027576Y-121288817D01*
X196041692Y-121267692D01*
X196062817Y-121253576D01*
X196078929Y-121237465D01*
X196105413Y-121225114D01*
X196131071Y-121207971D01*
X196150439Y-121204118D01*
X196166427Y-121196663D01*
X196229976Y-121188297D01*
X196236500Y-121187000D01*
X196811500Y-121187000D01*
X196818009Y-121188294D01*
G37*
G36*
X198568009Y-121188294D02*
G01*
X198631569Y-121196662D01*
X198647557Y-121204117D01*
X198666929Y-121207971D01*
X198692589Y-121225116D01*
X198719070Y-121237465D01*
X198735179Y-121253574D01*
X198756308Y-121267692D01*
X198770425Y-121288820D01*
X198786534Y-121304929D01*
X198798881Y-121331408D01*
X198816029Y-121357071D01*
X198819882Y-121376442D01*
X198827336Y-121392427D01*
X198835699Y-121455961D01*
X198837000Y-121462500D01*
X198837000Y-121937500D01*
X198835702Y-121944023D01*
X198827337Y-122007569D01*
X198819882Y-122023554D01*
X198816029Y-122042929D01*
X198798879Y-122068594D01*
X198786534Y-122095070D01*
X198770427Y-122111176D01*
X198756308Y-122132308D01*
X198735176Y-122146427D01*
X198719070Y-122162534D01*
X198692593Y-122174880D01*
X198666929Y-122192029D01*
X198647555Y-122195882D01*
X198631572Y-122203336D01*
X198568040Y-122211699D01*
X198561500Y-122213000D01*
X197986500Y-122213000D01*
X197979978Y-122211702D01*
X197916430Y-122203337D01*
X197900444Y-122195882D01*
X197881071Y-122192029D01*
X197855407Y-122174881D01*
X197828929Y-122162534D01*
X197812820Y-122146425D01*
X197791692Y-122132308D01*
X197777574Y-122111179D01*
X197761465Y-122095070D01*
X197749116Y-122068588D01*
X197731971Y-122042929D01*
X197728118Y-122023559D01*
X197720663Y-122007572D01*
X197712297Y-121944025D01*
X197711000Y-121937500D01*
X197711000Y-121462500D01*
X197712294Y-121455992D01*
X197720662Y-121392430D01*
X197728118Y-121376440D01*
X197731971Y-121357071D01*
X197749115Y-121331412D01*
X197761465Y-121304929D01*
X197777576Y-121288817D01*
X197791692Y-121267692D01*
X197812817Y-121253576D01*
X197828929Y-121237465D01*
X197855413Y-121225114D01*
X197881071Y-121207971D01*
X197900439Y-121204118D01*
X197916427Y-121196663D01*
X197979976Y-121188297D01*
X197986500Y-121187000D01*
X198561500Y-121187000D01*
X198568009Y-121188294D01*
G37*
G36*
X159359884Y-121012953D02*
G01*
X159481514Y-121083176D01*
X159580824Y-121182486D01*
X159651047Y-121304116D01*
X159687397Y-121439777D01*
X159687397Y-121580223D01*
X159651047Y-121715884D01*
X159580824Y-121837514D01*
X159481514Y-121936824D01*
X159359884Y-122007047D01*
X159224223Y-122043397D01*
X159083777Y-122043397D01*
X158948116Y-122007047D01*
X158826486Y-121936824D01*
X158727176Y-121837514D01*
X158656953Y-121715884D01*
X158620603Y-121580223D01*
X158620603Y-121439777D01*
X158656953Y-121304116D01*
X158727176Y-121182486D01*
X158826486Y-121083176D01*
X158948116Y-121012953D01*
X159083777Y-120976603D01*
X159224223Y-120976603D01*
X159359884Y-121012953D01*
G37*
G36*
X171359884Y-121012953D02*
G01*
X171481514Y-121083176D01*
X171580824Y-121182486D01*
X171651047Y-121304116D01*
X171687397Y-121439777D01*
X171687397Y-121580223D01*
X171651047Y-121715884D01*
X171580824Y-121837514D01*
X171481514Y-121936824D01*
X171359884Y-122007047D01*
X171224223Y-122043397D01*
X171083777Y-122043397D01*
X170948116Y-122007047D01*
X170826486Y-121936824D01*
X170727176Y-121837514D01*
X170656953Y-121715884D01*
X170620603Y-121580223D01*
X170620603Y-121439777D01*
X170656953Y-121304116D01*
X170727176Y-121182486D01*
X170826486Y-121083176D01*
X170948116Y-121012953D01*
X171083777Y-120976603D01*
X171224223Y-120976603D01*
X171359884Y-121012953D01*
G37*
G36*
X159359884Y-119742953D02*
G01*
X159481514Y-119813176D01*
X159580824Y-119912486D01*
X159651047Y-120034116D01*
X159687397Y-120169777D01*
X159687397Y-120310223D01*
X159651047Y-120445884D01*
X159580824Y-120567514D01*
X159481514Y-120666824D01*
X159359884Y-120737047D01*
X159224223Y-120773397D01*
X159083777Y-120773397D01*
X158948116Y-120737047D01*
X158826486Y-120666824D01*
X158727176Y-120567514D01*
X158656953Y-120445884D01*
X158620603Y-120310223D01*
X158620603Y-120169777D01*
X158656953Y-120034116D01*
X158727176Y-119912486D01*
X158826486Y-119813176D01*
X158948116Y-119742953D01*
X159083777Y-119706603D01*
X159224223Y-119706603D01*
X159359884Y-119742953D01*
G37*
G36*
X171359884Y-119742953D02*
G01*
X171481514Y-119813176D01*
X171580824Y-119912486D01*
X171651047Y-120034116D01*
X171687397Y-120169777D01*
X171687397Y-120310223D01*
X171651047Y-120445884D01*
X171580824Y-120567514D01*
X171481514Y-120666824D01*
X171359884Y-120737047D01*
X171224223Y-120773397D01*
X171083777Y-120773397D01*
X170948116Y-120737047D01*
X170826486Y-120666824D01*
X170727176Y-120567514D01*
X170656953Y-120445884D01*
X170620603Y-120310223D01*
X170620603Y-120169777D01*
X170656953Y-120034116D01*
X170727176Y-119912486D01*
X170826486Y-119813176D01*
X170948116Y-119742953D01*
X171083777Y-119706603D01*
X171224223Y-119706603D01*
X171359884Y-119742953D01*
G37*
G36*
X165468000Y-118716372D02*
G01*
X165642578Y-118751098D01*
X165807028Y-118819215D01*
X165955029Y-118918107D01*
X166080893Y-119043971D01*
X166179785Y-119191972D01*
X166247902Y-119356422D01*
X166282628Y-119531000D01*
X166282628Y-119709000D01*
X166247902Y-119883578D01*
X166179785Y-120048028D01*
X166080893Y-120196029D01*
X165955029Y-120321893D01*
X165807028Y-120420785D01*
X165642578Y-120488902D01*
X165468000Y-120523628D01*
X165379000Y-120528000D01*
X165377749Y-120528000D01*
X164930251Y-120528000D01*
X164929000Y-120528000D01*
X164840000Y-120523628D01*
X164665422Y-120488902D01*
X164500972Y-120420785D01*
X164352971Y-120321893D01*
X164227107Y-120196029D01*
X164128215Y-120048028D01*
X164060098Y-119883578D01*
X164025372Y-119709000D01*
X164025372Y-119531000D01*
X164060098Y-119356422D01*
X164128215Y-119191972D01*
X164227107Y-119043971D01*
X164352971Y-118918107D01*
X164500972Y-118819215D01*
X164665422Y-118751098D01*
X164840000Y-118716372D01*
X164929000Y-118712000D01*
X165379000Y-118712000D01*
X165468000Y-118716372D01*
G37*
G36*
X159359884Y-118472953D02*
G01*
X159481514Y-118543176D01*
X159580824Y-118642486D01*
X159651047Y-118764116D01*
X159687397Y-118899777D01*
X159687397Y-119040223D01*
X159651047Y-119175884D01*
X159580824Y-119297514D01*
X159481514Y-119396824D01*
X159359884Y-119467047D01*
X159224223Y-119503397D01*
X159083777Y-119503397D01*
X158948116Y-119467047D01*
X158826486Y-119396824D01*
X158727176Y-119297514D01*
X158656953Y-119175884D01*
X158620603Y-119040223D01*
X158620603Y-118899777D01*
X158656953Y-118764116D01*
X158727176Y-118642486D01*
X158826486Y-118543176D01*
X158948116Y-118472953D01*
X159083777Y-118436603D01*
X159224223Y-118436603D01*
X159359884Y-118472953D01*
G37*
G36*
X171359884Y-118472953D02*
G01*
X171481514Y-118543176D01*
X171580824Y-118642486D01*
X171651047Y-118764116D01*
X171687397Y-118899777D01*
X171687397Y-119040223D01*
X171651047Y-119175884D01*
X171580824Y-119297514D01*
X171481514Y-119396824D01*
X171359884Y-119467047D01*
X171224223Y-119503397D01*
X171083777Y-119503397D01*
X170948116Y-119467047D01*
X170826486Y-119396824D01*
X170727176Y-119297514D01*
X170656953Y-119175884D01*
X170620603Y-119040223D01*
X170620603Y-118899777D01*
X170656953Y-118764116D01*
X170727176Y-118642486D01*
X170826486Y-118543176D01*
X170948116Y-118472953D01*
X171083777Y-118436603D01*
X171224223Y-118436603D01*
X171359884Y-118472953D01*
G37*
G36*
X161370944Y-117813811D02*
G01*
X161431936Y-117854564D01*
X161472689Y-117915556D01*
X161487000Y-117987500D01*
X161487000Y-119162500D01*
X161472689Y-119234444D01*
X161431936Y-119295436D01*
X161370944Y-119336189D01*
X161299000Y-119350500D01*
X160999000Y-119350500D01*
X160927056Y-119336189D01*
X160866064Y-119295436D01*
X160825311Y-119234444D01*
X160811000Y-119162500D01*
X160811000Y-117987500D01*
X160825311Y-117915556D01*
X160866064Y-117854564D01*
X160927056Y-117813811D01*
X160999000Y-117799500D01*
X161299000Y-117799500D01*
X161370944Y-117813811D01*
G37*
G36*
X163270944Y-117813811D02*
G01*
X163331936Y-117854564D01*
X163372689Y-117915556D01*
X163387000Y-117987500D01*
X163387000Y-119162500D01*
X163372689Y-119234444D01*
X163331936Y-119295436D01*
X163270944Y-119336189D01*
X163199000Y-119350500D01*
X162899000Y-119350500D01*
X162827056Y-119336189D01*
X162766064Y-119295436D01*
X162725311Y-119234444D01*
X162711000Y-119162500D01*
X162711000Y-117987500D01*
X162725311Y-117915556D01*
X162766064Y-117854564D01*
X162827056Y-117813811D01*
X162899000Y-117799500D01*
X163199000Y-117799500D01*
X163270944Y-117813811D01*
G37*
G36*
X66482450Y-112497588D02*
G01*
X66798919Y-112560537D01*
X67107694Y-112654203D01*
X67405801Y-112777683D01*
X67690370Y-112929788D01*
X67958659Y-113109054D01*
X68208086Y-113313753D01*
X68436247Y-113541914D01*
X68640946Y-113791341D01*
X68820212Y-114059630D01*
X68972317Y-114344199D01*
X69095797Y-114642306D01*
X69189463Y-114951081D01*
X69252412Y-115267550D01*
X69284039Y-115588665D01*
X69284039Y-115911335D01*
X69252412Y-116232450D01*
X69189463Y-116548919D01*
X69095797Y-116857694D01*
X68972317Y-117155801D01*
X68820212Y-117440370D01*
X68640946Y-117708659D01*
X68436247Y-117958086D01*
X68208086Y-118186247D01*
X67958659Y-118390946D01*
X67690370Y-118570212D01*
X67405801Y-118722317D01*
X67107694Y-118845797D01*
X66798919Y-118939463D01*
X66482450Y-119002412D01*
X66161335Y-119034039D01*
X65838665Y-119034039D01*
X65517550Y-119002412D01*
X65201081Y-118939463D01*
X64892306Y-118845797D01*
X64594199Y-118722317D01*
X64309630Y-118570212D01*
X64041341Y-118390946D01*
X63791914Y-118186247D01*
X63563753Y-117958086D01*
X63359054Y-117708659D01*
X63179788Y-117440370D01*
X63027683Y-117155801D01*
X62904203Y-116857694D01*
X62810537Y-116548919D01*
X62747588Y-116232450D01*
X62715961Y-115911335D01*
X62715961Y-115588665D01*
X62747588Y-115267550D01*
X62810537Y-114951081D01*
X62904203Y-114642306D01*
X63027683Y-114344199D01*
X63179788Y-114059630D01*
X63359054Y-113791341D01*
X63563753Y-113541914D01*
X63791914Y-113313753D01*
X64041341Y-113109054D01*
X64309630Y-112929788D01*
X64594199Y-112777683D01*
X64892306Y-112654203D01*
X65201081Y-112560537D01*
X65517550Y-112497588D01*
X65838665Y-112465961D01*
X66161335Y-112465961D01*
X66482450Y-112497588D01*
G37*
G36*
X223532150Y-112497588D02*
G01*
X223848619Y-112560537D01*
X224157394Y-112654203D01*
X224455501Y-112777683D01*
X224740070Y-112929788D01*
X225008359Y-113109054D01*
X225257786Y-113313753D01*
X225485947Y-113541914D01*
X225690646Y-113791341D01*
X225869912Y-114059630D01*
X226022017Y-114344199D01*
X226145497Y-114642306D01*
X226239163Y-114951081D01*
X226302112Y-115267550D01*
X226333739Y-115588665D01*
X226333739Y-115911335D01*
X226302112Y-116232450D01*
X226239163Y-116548919D01*
X226145497Y-116857694D01*
X226022017Y-117155801D01*
X225869912Y-117440370D01*
X225690646Y-117708659D01*
X225485947Y-117958086D01*
X225257786Y-118186247D01*
X225008359Y-118390946D01*
X224740070Y-118570212D01*
X224455501Y-118722317D01*
X224157394Y-118845797D01*
X223848619Y-118939463D01*
X223532150Y-119002412D01*
X223211035Y-119034039D01*
X222888365Y-119034039D01*
X222567250Y-119002412D01*
X222250781Y-118939463D01*
X221942006Y-118845797D01*
X221643899Y-118722317D01*
X221359330Y-118570212D01*
X221091041Y-118390946D01*
X220841614Y-118186247D01*
X220613453Y-117958086D01*
X220408754Y-117708659D01*
X220229488Y-117440370D01*
X220077383Y-117155801D01*
X219953903Y-116857694D01*
X219860237Y-116548919D01*
X219797288Y-116232450D01*
X219765661Y-115911335D01*
X219765661Y-115588665D01*
X219797288Y-115267550D01*
X219860237Y-114951081D01*
X219953903Y-114642306D01*
X220077383Y-114344199D01*
X220229488Y-114059630D01*
X220408754Y-113791341D01*
X220613453Y-113541914D01*
X220841614Y-113313753D01*
X221091041Y-113109054D01*
X221359330Y-112929788D01*
X221643899Y-112777683D01*
X221942006Y-112654203D01*
X222250781Y-112560537D01*
X222567250Y-112497588D01*
X222888365Y-112465961D01*
X223211035Y-112465961D01*
X223532150Y-112497588D01*
G37*
G36*
X71290992Y-116916998D02*
G01*
X71300942Y-116916998D01*
X71339824Y-116924732D01*
X71441480Y-116940833D01*
X71474178Y-116951457D01*
X71500515Y-116956696D01*
X71537677Y-116972089D01*
X71596369Y-116991159D01*
X71651355Y-117019175D01*
X71688510Y-117034566D01*
X71710832Y-117049481D01*
X71741470Y-117065092D01*
X71824744Y-117125594D01*
X71857700Y-117147615D01*
X71864734Y-117154649D01*
X71873226Y-117160819D01*
X71988380Y-117275973D01*
X71994549Y-117284464D01*
X72001585Y-117291500D01*
X72023608Y-117324460D01*
X72084107Y-117407729D01*
X72099716Y-117438364D01*
X72114634Y-117460690D01*
X72130026Y-117497850D01*
X72158040Y-117552830D01*
X72177107Y-117611515D01*
X72192504Y-117648685D01*
X72197743Y-117675026D01*
X72208366Y-117707719D01*
X72224466Y-117809367D01*
X72232202Y-117848258D01*
X72232202Y-117858208D01*
X72233844Y-117868575D01*
X72233844Y-118031424D01*
X72232202Y-118041790D01*
X72232202Y-118051742D01*
X72224465Y-118090636D01*
X72208366Y-118192280D01*
X72197744Y-118224970D01*
X72192504Y-118251315D01*
X72177106Y-118288488D01*
X72158040Y-118347169D01*
X72130028Y-118402144D01*
X72114634Y-118439310D01*
X72099714Y-118461638D01*
X72084107Y-118492270D01*
X72023616Y-118575527D01*
X72001585Y-118608500D01*
X71994546Y-118615538D01*
X71988380Y-118624026D01*
X71873226Y-118739180D01*
X71864738Y-118745346D01*
X71857700Y-118752385D01*
X71824727Y-118774416D01*
X71741470Y-118834907D01*
X71710838Y-118850514D01*
X71688510Y-118865434D01*
X71651344Y-118880828D01*
X71596369Y-118908840D01*
X71537688Y-118927906D01*
X71500515Y-118943304D01*
X71474170Y-118948544D01*
X71441480Y-118959166D01*
X71339833Y-118975265D01*
X71300942Y-118983002D01*
X71290992Y-118983002D01*
X71280625Y-118984644D01*
X71117775Y-118984644D01*
X71107408Y-118983002D01*
X71097458Y-118983002D01*
X71058567Y-118975266D01*
X70956919Y-118959166D01*
X70924226Y-118948543D01*
X70897885Y-118943304D01*
X70860715Y-118927907D01*
X70802030Y-118908840D01*
X70747050Y-118880826D01*
X70709890Y-118865434D01*
X70687564Y-118850516D01*
X70656929Y-118834907D01*
X70573660Y-118774408D01*
X70540700Y-118752385D01*
X70533664Y-118745349D01*
X70525173Y-118739180D01*
X70410019Y-118624026D01*
X70403849Y-118615534D01*
X70396815Y-118608500D01*
X70374794Y-118575544D01*
X70314292Y-118492270D01*
X70298681Y-118461632D01*
X70283766Y-118439310D01*
X70268375Y-118402155D01*
X70240359Y-118347169D01*
X70221289Y-118288477D01*
X70205896Y-118251315D01*
X70200657Y-118224978D01*
X70190033Y-118192280D01*
X70173932Y-118090627D01*
X70166198Y-118051742D01*
X70166198Y-118041791D01*
X70164556Y-118031424D01*
X70164556Y-117868575D01*
X70166198Y-117858207D01*
X70166198Y-117848258D01*
X70173932Y-117809376D01*
X70190033Y-117707719D01*
X70200657Y-117675018D01*
X70205896Y-117648685D01*
X70221287Y-117611526D01*
X70240359Y-117552830D01*
X70268378Y-117497839D01*
X70283766Y-117460690D01*
X70298679Y-117438371D01*
X70314292Y-117407729D01*
X70374802Y-117324443D01*
X70396815Y-117291500D01*
X70403846Y-117284468D01*
X70410019Y-117275973D01*
X70525173Y-117160819D01*
X70533668Y-117154646D01*
X70540700Y-117147615D01*
X70573643Y-117125602D01*
X70656929Y-117065092D01*
X70687571Y-117049479D01*
X70709890Y-117034566D01*
X70747039Y-117019178D01*
X70802030Y-116991159D01*
X70860726Y-116972087D01*
X70897885Y-116956696D01*
X70924218Y-116951457D01*
X70956919Y-116940833D01*
X71058576Y-116924732D01*
X71097458Y-116916998D01*
X71107408Y-116916998D01*
X71117775Y-116915356D01*
X71280625Y-116915356D01*
X71290992Y-116916998D01*
G37*
G36*
X112790792Y-116916998D02*
G01*
X112800742Y-116916998D01*
X112839624Y-116924732D01*
X112941280Y-116940833D01*
X112973978Y-116951457D01*
X113000315Y-116956696D01*
X113037477Y-116972089D01*
X113096169Y-116991159D01*
X113151155Y-117019175D01*
X113188310Y-117034566D01*
X113210632Y-117049481D01*
X113241270Y-117065092D01*
X113324544Y-117125594D01*
X113357500Y-117147615D01*
X113364534Y-117154649D01*
X113373026Y-117160819D01*
X113488180Y-117275973D01*
X113494349Y-117284464D01*
X113501385Y-117291500D01*
X113523408Y-117324460D01*
X113583907Y-117407729D01*
X113599516Y-117438364D01*
X113614434Y-117460690D01*
X113629826Y-117497850D01*
X113657840Y-117552830D01*
X113676907Y-117611515D01*
X113692304Y-117648685D01*
X113697543Y-117675026D01*
X113708166Y-117707719D01*
X113724266Y-117809367D01*
X113732002Y-117848258D01*
X113732002Y-117858208D01*
X113733644Y-117868575D01*
X113733644Y-118031424D01*
X113732002Y-118041790D01*
X113732002Y-118051742D01*
X113724265Y-118090636D01*
X113708166Y-118192280D01*
X113697544Y-118224970D01*
X113692304Y-118251315D01*
X113676906Y-118288488D01*
X113657840Y-118347169D01*
X113629828Y-118402144D01*
X113614434Y-118439310D01*
X113599514Y-118461638D01*
X113583907Y-118492270D01*
X113523416Y-118575527D01*
X113501385Y-118608500D01*
X113494346Y-118615538D01*
X113488180Y-118624026D01*
X113373026Y-118739180D01*
X113364538Y-118745346D01*
X113357500Y-118752385D01*
X113324527Y-118774416D01*
X113241270Y-118834907D01*
X113210638Y-118850514D01*
X113188310Y-118865434D01*
X113151144Y-118880828D01*
X113096169Y-118908840D01*
X113037488Y-118927906D01*
X113000315Y-118943304D01*
X112973970Y-118948544D01*
X112941280Y-118959166D01*
X112839633Y-118975265D01*
X112800742Y-118983002D01*
X112790792Y-118983002D01*
X112780425Y-118984644D01*
X112617575Y-118984644D01*
X112607208Y-118983002D01*
X112597258Y-118983002D01*
X112558367Y-118975266D01*
X112456719Y-118959166D01*
X112424026Y-118948543D01*
X112397685Y-118943304D01*
X112360515Y-118927907D01*
X112301830Y-118908840D01*
X112246850Y-118880826D01*
X112209690Y-118865434D01*
X112187364Y-118850516D01*
X112156729Y-118834907D01*
X112073460Y-118774408D01*
X112040500Y-118752385D01*
X112033464Y-118745349D01*
X112024973Y-118739180D01*
X111909819Y-118624026D01*
X111903649Y-118615534D01*
X111896615Y-118608500D01*
X111874594Y-118575544D01*
X111814092Y-118492270D01*
X111798481Y-118461632D01*
X111783566Y-118439310D01*
X111768175Y-118402155D01*
X111740159Y-118347169D01*
X111721089Y-118288477D01*
X111705696Y-118251315D01*
X111700457Y-118224978D01*
X111689833Y-118192280D01*
X111673732Y-118090627D01*
X111665998Y-118051742D01*
X111665998Y-118041791D01*
X111664356Y-118031424D01*
X111664356Y-117868575D01*
X111665998Y-117858207D01*
X111665998Y-117848258D01*
X111673732Y-117809376D01*
X111689833Y-117707719D01*
X111700457Y-117675018D01*
X111705696Y-117648685D01*
X111721087Y-117611526D01*
X111740159Y-117552830D01*
X111768178Y-117497839D01*
X111783566Y-117460690D01*
X111798479Y-117438371D01*
X111814092Y-117407729D01*
X111874602Y-117324443D01*
X111896615Y-117291500D01*
X111903646Y-117284468D01*
X111909819Y-117275973D01*
X112024973Y-117160819D01*
X112033468Y-117154646D01*
X112040500Y-117147615D01*
X112073443Y-117125602D01*
X112156729Y-117065092D01*
X112187371Y-117049479D01*
X112209690Y-117034566D01*
X112246839Y-117019178D01*
X112301830Y-116991159D01*
X112360526Y-116972087D01*
X112397685Y-116956696D01*
X112424018Y-116951457D01*
X112456719Y-116940833D01*
X112558376Y-116924732D01*
X112597258Y-116916998D01*
X112607208Y-116916998D01*
X112617575Y-116915356D01*
X112780425Y-116915356D01*
X112790792Y-116916998D01*
G37*
G36*
X176340992Y-116916998D02*
G01*
X176350942Y-116916998D01*
X176389824Y-116924732D01*
X176491480Y-116940833D01*
X176524178Y-116951457D01*
X176550515Y-116956696D01*
X176587677Y-116972089D01*
X176646369Y-116991159D01*
X176701355Y-117019175D01*
X176738510Y-117034566D01*
X176760832Y-117049481D01*
X176791470Y-117065092D01*
X176874744Y-117125594D01*
X176907700Y-117147615D01*
X176914734Y-117154649D01*
X176923226Y-117160819D01*
X177038380Y-117275973D01*
X177044549Y-117284464D01*
X177051585Y-117291500D01*
X177073608Y-117324460D01*
X177134107Y-117407729D01*
X177149716Y-117438364D01*
X177164634Y-117460690D01*
X177180026Y-117497850D01*
X177208040Y-117552830D01*
X177227107Y-117611515D01*
X177242504Y-117648685D01*
X177247743Y-117675026D01*
X177258366Y-117707719D01*
X177274466Y-117809367D01*
X177282202Y-117848258D01*
X177282202Y-117858208D01*
X177283844Y-117868575D01*
X177283844Y-118031424D01*
X177282202Y-118041790D01*
X177282202Y-118051742D01*
X177274465Y-118090636D01*
X177258366Y-118192280D01*
X177247744Y-118224970D01*
X177242504Y-118251315D01*
X177227106Y-118288488D01*
X177208040Y-118347169D01*
X177180028Y-118402144D01*
X177164634Y-118439310D01*
X177149714Y-118461638D01*
X177134107Y-118492270D01*
X177073616Y-118575527D01*
X177051585Y-118608500D01*
X177044546Y-118615538D01*
X177038380Y-118624026D01*
X176923226Y-118739180D01*
X176914738Y-118745346D01*
X176907700Y-118752385D01*
X176874727Y-118774416D01*
X176791470Y-118834907D01*
X176760838Y-118850514D01*
X176738510Y-118865434D01*
X176701344Y-118880828D01*
X176646369Y-118908840D01*
X176587688Y-118927906D01*
X176550515Y-118943304D01*
X176524170Y-118948544D01*
X176491480Y-118959166D01*
X176389833Y-118975265D01*
X176350942Y-118983002D01*
X176340992Y-118983002D01*
X176330625Y-118984644D01*
X176167775Y-118984644D01*
X176157408Y-118983002D01*
X176147458Y-118983002D01*
X176108567Y-118975266D01*
X176006919Y-118959166D01*
X175974226Y-118948543D01*
X175947885Y-118943304D01*
X175910715Y-118927907D01*
X175852030Y-118908840D01*
X175797050Y-118880826D01*
X175759890Y-118865434D01*
X175737564Y-118850516D01*
X175706929Y-118834907D01*
X175623660Y-118774408D01*
X175590700Y-118752385D01*
X175583664Y-118745349D01*
X175575173Y-118739180D01*
X175460019Y-118624026D01*
X175453849Y-118615534D01*
X175446815Y-118608500D01*
X175424794Y-118575544D01*
X175364292Y-118492270D01*
X175348681Y-118461632D01*
X175333766Y-118439310D01*
X175318375Y-118402155D01*
X175290359Y-118347169D01*
X175271289Y-118288477D01*
X175255896Y-118251315D01*
X175250657Y-118224978D01*
X175240033Y-118192280D01*
X175223932Y-118090627D01*
X175216198Y-118051742D01*
X175216198Y-118041791D01*
X175214556Y-118031424D01*
X175214556Y-117868575D01*
X175216198Y-117858207D01*
X175216198Y-117848258D01*
X175223932Y-117809376D01*
X175240033Y-117707719D01*
X175250657Y-117675018D01*
X175255896Y-117648685D01*
X175271287Y-117611526D01*
X175290359Y-117552830D01*
X175318378Y-117497839D01*
X175333766Y-117460690D01*
X175348679Y-117438371D01*
X175364292Y-117407729D01*
X175424802Y-117324443D01*
X175446815Y-117291500D01*
X175453846Y-117284468D01*
X175460019Y-117275973D01*
X175575173Y-117160819D01*
X175583668Y-117154646D01*
X175590700Y-117147615D01*
X175623643Y-117125602D01*
X175706929Y-117065092D01*
X175737571Y-117049479D01*
X175759890Y-117034566D01*
X175797039Y-117019178D01*
X175852030Y-116991159D01*
X175910726Y-116972087D01*
X175947885Y-116956696D01*
X175974218Y-116951457D01*
X176006919Y-116940833D01*
X176108576Y-116924732D01*
X176147458Y-116916998D01*
X176157408Y-116916998D01*
X176167775Y-116915356D01*
X176330625Y-116915356D01*
X176340992Y-116916998D01*
G37*
G36*
X217840792Y-116916998D02*
G01*
X217850742Y-116916998D01*
X217889624Y-116924732D01*
X217991280Y-116940833D01*
X218023978Y-116951457D01*
X218050315Y-116956696D01*
X218087477Y-116972089D01*
X218146169Y-116991159D01*
X218201155Y-117019175D01*
X218238310Y-117034566D01*
X218260632Y-117049481D01*
X218291270Y-117065092D01*
X218374544Y-117125594D01*
X218407500Y-117147615D01*
X218414534Y-117154649D01*
X218423026Y-117160819D01*
X218538180Y-117275973D01*
X218544349Y-117284464D01*
X218551385Y-117291500D01*
X218573408Y-117324460D01*
X218633907Y-117407729D01*
X218649516Y-117438364D01*
X218664434Y-117460690D01*
X218679826Y-117497850D01*
X218707840Y-117552830D01*
X218726907Y-117611515D01*
X218742304Y-117648685D01*
X218747543Y-117675026D01*
X218758166Y-117707719D01*
X218774266Y-117809367D01*
X218782002Y-117848258D01*
X218782002Y-117858208D01*
X218783644Y-117868575D01*
X218783644Y-118031424D01*
X218782002Y-118041790D01*
X218782002Y-118051742D01*
X218774265Y-118090636D01*
X218758166Y-118192280D01*
X218747544Y-118224970D01*
X218742304Y-118251315D01*
X218726906Y-118288488D01*
X218707840Y-118347169D01*
X218679828Y-118402144D01*
X218664434Y-118439310D01*
X218649514Y-118461638D01*
X218633907Y-118492270D01*
X218573416Y-118575527D01*
X218551385Y-118608500D01*
X218544346Y-118615538D01*
X218538180Y-118624026D01*
X218423026Y-118739180D01*
X218414538Y-118745346D01*
X218407500Y-118752385D01*
X218374527Y-118774416D01*
X218291270Y-118834907D01*
X218260638Y-118850514D01*
X218238310Y-118865434D01*
X218201144Y-118880828D01*
X218146169Y-118908840D01*
X218087488Y-118927906D01*
X218050315Y-118943304D01*
X218023970Y-118948544D01*
X217991280Y-118959166D01*
X217889633Y-118975265D01*
X217850742Y-118983002D01*
X217840792Y-118983002D01*
X217830425Y-118984644D01*
X217667575Y-118984644D01*
X217657208Y-118983002D01*
X217647258Y-118983002D01*
X217608367Y-118975266D01*
X217506719Y-118959166D01*
X217474026Y-118948543D01*
X217447685Y-118943304D01*
X217410515Y-118927907D01*
X217351830Y-118908840D01*
X217296850Y-118880826D01*
X217259690Y-118865434D01*
X217237364Y-118850516D01*
X217206729Y-118834907D01*
X217123460Y-118774408D01*
X217090500Y-118752385D01*
X217083464Y-118745349D01*
X217074973Y-118739180D01*
X216959819Y-118624026D01*
X216953649Y-118615534D01*
X216946615Y-118608500D01*
X216924594Y-118575544D01*
X216864092Y-118492270D01*
X216848481Y-118461632D01*
X216833566Y-118439310D01*
X216818175Y-118402155D01*
X216790159Y-118347169D01*
X216771089Y-118288477D01*
X216755696Y-118251315D01*
X216750457Y-118224978D01*
X216739833Y-118192280D01*
X216723732Y-118090627D01*
X216715998Y-118051742D01*
X216715998Y-118041791D01*
X216714356Y-118031424D01*
X216714356Y-117868575D01*
X216715998Y-117858207D01*
X216715998Y-117848258D01*
X216723732Y-117809376D01*
X216739833Y-117707719D01*
X216750457Y-117675018D01*
X216755696Y-117648685D01*
X216771087Y-117611526D01*
X216790159Y-117552830D01*
X216818178Y-117497839D01*
X216833566Y-117460690D01*
X216848479Y-117438371D01*
X216864092Y-117407729D01*
X216924602Y-117324443D01*
X216946615Y-117291500D01*
X216953646Y-117284468D01*
X216959819Y-117275973D01*
X217074973Y-117160819D01*
X217083468Y-117154646D01*
X217090500Y-117147615D01*
X217123443Y-117125602D01*
X217206729Y-117065092D01*
X217237371Y-117049479D01*
X217259690Y-117034566D01*
X217296839Y-117019178D01*
X217351830Y-116991159D01*
X217410526Y-116972087D01*
X217447685Y-116956696D01*
X217474018Y-116951457D01*
X217506719Y-116940833D01*
X217608376Y-116924732D01*
X217647258Y-116916998D01*
X217657208Y-116916998D01*
X217667575Y-116915356D01*
X217830425Y-116915356D01*
X217840792Y-116916998D01*
G37*
G36*
X167320944Y-117388811D02*
G01*
X167381936Y-117429564D01*
X167422689Y-117490556D01*
X167437000Y-117562500D01*
X167437000Y-118587500D01*
X167422689Y-118659444D01*
X167381936Y-118720436D01*
X167320944Y-118761189D01*
X167249000Y-118775500D01*
X166949000Y-118775500D01*
X166877056Y-118761189D01*
X166816064Y-118720436D01*
X166775311Y-118659444D01*
X166761000Y-118587500D01*
X166761000Y-117562500D01*
X166775311Y-117490556D01*
X166816064Y-117429564D01*
X166877056Y-117388811D01*
X166949000Y-117374500D01*
X167249000Y-117374500D01*
X167320944Y-117388811D01*
G37*
G36*
X169220944Y-117388811D02*
G01*
X169281936Y-117429564D01*
X169322689Y-117490556D01*
X169337000Y-117562500D01*
X169337000Y-118587500D01*
X169322689Y-118659444D01*
X169281936Y-118720436D01*
X169220944Y-118761189D01*
X169149000Y-118775500D01*
X168849000Y-118775500D01*
X168777056Y-118761189D01*
X168716064Y-118720436D01*
X168675311Y-118659444D01*
X168661000Y-118587500D01*
X168661000Y-117562500D01*
X168675311Y-117490556D01*
X168716064Y-117429564D01*
X168777056Y-117388811D01*
X168849000Y-117374500D01*
X169149000Y-117374500D01*
X169220944Y-117388811D01*
G37*
G36*
X76325084Y-117452953D02*
G01*
X76446714Y-117523176D01*
X76546024Y-117622486D01*
X76616247Y-117744116D01*
X76652597Y-117879777D01*
X76652597Y-118020223D01*
X76616247Y-118155884D01*
X76546024Y-118277514D01*
X76446714Y-118376824D01*
X76325084Y-118447047D01*
X76189423Y-118483397D01*
X76048977Y-118483397D01*
X75913316Y-118447047D01*
X75791686Y-118376824D01*
X75692376Y-118277514D01*
X75622153Y-118155884D01*
X75585803Y-118020223D01*
X75585803Y-117879777D01*
X75622153Y-117744116D01*
X75692376Y-117622486D01*
X75791686Y-117523176D01*
X75913316Y-117452953D01*
X76048977Y-117416603D01*
X76189423Y-117416603D01*
X76325084Y-117452953D01*
G37*
G36*
X77595084Y-117452953D02*
G01*
X77716714Y-117523176D01*
X77816024Y-117622486D01*
X77886247Y-117744116D01*
X77922597Y-117879777D01*
X77922597Y-118020223D01*
X77886247Y-118155884D01*
X77816024Y-118277514D01*
X77716714Y-118376824D01*
X77595084Y-118447047D01*
X77459423Y-118483397D01*
X77318977Y-118483397D01*
X77183316Y-118447047D01*
X77061686Y-118376824D01*
X76962376Y-118277514D01*
X76892153Y-118155884D01*
X76855803Y-118020223D01*
X76855803Y-117879777D01*
X76892153Y-117744116D01*
X76962376Y-117622486D01*
X77061686Y-117523176D01*
X77183316Y-117452953D01*
X77318977Y-117416603D01*
X77459423Y-117416603D01*
X77595084Y-117452953D01*
G37*
G36*
X78865084Y-117452953D02*
G01*
X78986714Y-117523176D01*
X79086024Y-117622486D01*
X79156247Y-117744116D01*
X79192597Y-117879777D01*
X79192597Y-118020223D01*
X79156247Y-118155884D01*
X79086024Y-118277514D01*
X78986714Y-118376824D01*
X78865084Y-118447047D01*
X78729423Y-118483397D01*
X78588977Y-118483397D01*
X78453316Y-118447047D01*
X78331686Y-118376824D01*
X78232376Y-118277514D01*
X78162153Y-118155884D01*
X78125803Y-118020223D01*
X78125803Y-117879777D01*
X78162153Y-117744116D01*
X78232376Y-117622486D01*
X78331686Y-117523176D01*
X78453316Y-117452953D01*
X78588977Y-117416603D01*
X78729423Y-117416603D01*
X78865084Y-117452953D01*
G37*
G36*
X80135084Y-117452953D02*
G01*
X80256714Y-117523176D01*
X80356024Y-117622486D01*
X80426247Y-117744116D01*
X80462597Y-117879777D01*
X80462597Y-118020223D01*
X80426247Y-118155884D01*
X80356024Y-118277514D01*
X80256714Y-118376824D01*
X80135084Y-118447047D01*
X79999423Y-118483397D01*
X79858977Y-118483397D01*
X79723316Y-118447047D01*
X79601686Y-118376824D01*
X79502376Y-118277514D01*
X79432153Y-118155884D01*
X79395803Y-118020223D01*
X79395803Y-117879777D01*
X79432153Y-117744116D01*
X79502376Y-117622486D01*
X79601686Y-117523176D01*
X79723316Y-117452953D01*
X79858977Y-117416603D01*
X79999423Y-117416603D01*
X80135084Y-117452953D01*
G37*
G36*
X81405084Y-117452953D02*
G01*
X81526714Y-117523176D01*
X81626024Y-117622486D01*
X81696247Y-117744116D01*
X81732597Y-117879777D01*
X81732597Y-118020223D01*
X81696247Y-118155884D01*
X81626024Y-118277514D01*
X81526714Y-118376824D01*
X81405084Y-118447047D01*
X81269423Y-118483397D01*
X81128977Y-118483397D01*
X80993316Y-118447047D01*
X80871686Y-118376824D01*
X80772376Y-118277514D01*
X80702153Y-118155884D01*
X80665803Y-118020223D01*
X80665803Y-117879777D01*
X80702153Y-117744116D01*
X80772376Y-117622486D01*
X80871686Y-117523176D01*
X80993316Y-117452953D01*
X81128977Y-117416603D01*
X81269423Y-117416603D01*
X81405084Y-117452953D01*
G37*
G36*
X82675084Y-117452953D02*
G01*
X82796714Y-117523176D01*
X82896024Y-117622486D01*
X82966247Y-117744116D01*
X83002597Y-117879777D01*
X83002597Y-118020223D01*
X82966247Y-118155884D01*
X82896024Y-118277514D01*
X82796714Y-118376824D01*
X82675084Y-118447047D01*
X82539423Y-118483397D01*
X82398977Y-118483397D01*
X82263316Y-118447047D01*
X82141686Y-118376824D01*
X82042376Y-118277514D01*
X81972153Y-118155884D01*
X81935803Y-118020223D01*
X81935803Y-117879777D01*
X81972153Y-117744116D01*
X82042376Y-117622486D01*
X82141686Y-117523176D01*
X82263316Y-117452953D01*
X82398977Y-117416603D01*
X82539423Y-117416603D01*
X82675084Y-117452953D01*
G37*
G36*
X83945084Y-117452953D02*
G01*
X84066714Y-117523176D01*
X84166024Y-117622486D01*
X84236247Y-117744116D01*
X84272597Y-117879777D01*
X84272597Y-118020223D01*
X84236247Y-118155884D01*
X84166024Y-118277514D01*
X84066714Y-118376824D01*
X83945084Y-118447047D01*
X83809423Y-118483397D01*
X83668977Y-118483397D01*
X83533316Y-118447047D01*
X83411686Y-118376824D01*
X83312376Y-118277514D01*
X83242153Y-118155884D01*
X83205803Y-118020223D01*
X83205803Y-117879777D01*
X83242153Y-117744116D01*
X83312376Y-117622486D01*
X83411686Y-117523176D01*
X83533316Y-117452953D01*
X83668977Y-117416603D01*
X83809423Y-117416603D01*
X83945084Y-117452953D01*
G37*
G36*
X85215084Y-117452953D02*
G01*
X85336714Y-117523176D01*
X85436024Y-117622486D01*
X85506247Y-117744116D01*
X85542597Y-117879777D01*
X85542597Y-118020223D01*
X85506247Y-118155884D01*
X85436024Y-118277514D01*
X85336714Y-118376824D01*
X85215084Y-118447047D01*
X85079423Y-118483397D01*
X84938977Y-118483397D01*
X84803316Y-118447047D01*
X84681686Y-118376824D01*
X84582376Y-118277514D01*
X84512153Y-118155884D01*
X84475803Y-118020223D01*
X84475803Y-117879777D01*
X84512153Y-117744116D01*
X84582376Y-117622486D01*
X84681686Y-117523176D01*
X84803316Y-117452953D01*
X84938977Y-117416603D01*
X85079423Y-117416603D01*
X85215084Y-117452953D01*
G37*
G36*
X86485084Y-117452953D02*
G01*
X86606714Y-117523176D01*
X86706024Y-117622486D01*
X86776247Y-117744116D01*
X86812597Y-117879777D01*
X86812597Y-118020223D01*
X86776247Y-118155884D01*
X86706024Y-118277514D01*
X86606714Y-118376824D01*
X86485084Y-118447047D01*
X86349423Y-118483397D01*
X86208977Y-118483397D01*
X86073316Y-118447047D01*
X85951686Y-118376824D01*
X85852376Y-118277514D01*
X85782153Y-118155884D01*
X85745803Y-118020223D01*
X85745803Y-117879777D01*
X85782153Y-117744116D01*
X85852376Y-117622486D01*
X85951686Y-117523176D01*
X86073316Y-117452953D01*
X86208977Y-117416603D01*
X86349423Y-117416603D01*
X86485084Y-117452953D01*
G37*
G36*
X87755084Y-117452953D02*
G01*
X87876714Y-117523176D01*
X87976024Y-117622486D01*
X88046247Y-117744116D01*
X88082597Y-117879777D01*
X88082597Y-118020223D01*
X88046247Y-118155884D01*
X87976024Y-118277514D01*
X87876714Y-118376824D01*
X87755084Y-118447047D01*
X87619423Y-118483397D01*
X87478977Y-118483397D01*
X87343316Y-118447047D01*
X87221686Y-118376824D01*
X87122376Y-118277514D01*
X87052153Y-118155884D01*
X87015803Y-118020223D01*
X87015803Y-117879777D01*
X87052153Y-117744116D01*
X87122376Y-117622486D01*
X87221686Y-117523176D01*
X87343316Y-117452953D01*
X87478977Y-117416603D01*
X87619423Y-117416603D01*
X87755084Y-117452953D01*
G37*
G36*
X89025084Y-117452953D02*
G01*
X89146714Y-117523176D01*
X89246024Y-117622486D01*
X89316247Y-117744116D01*
X89352597Y-117879777D01*
X89352597Y-118020223D01*
X89316247Y-118155884D01*
X89246024Y-118277514D01*
X89146714Y-118376824D01*
X89025084Y-118447047D01*
X88889423Y-118483397D01*
X88748977Y-118483397D01*
X88613316Y-118447047D01*
X88491686Y-118376824D01*
X88392376Y-118277514D01*
X88322153Y-118155884D01*
X88285803Y-118020223D01*
X88285803Y-117879777D01*
X88322153Y-117744116D01*
X88392376Y-117622486D01*
X88491686Y-117523176D01*
X88613316Y-117452953D01*
X88748977Y-117416603D01*
X88889423Y-117416603D01*
X89025084Y-117452953D01*
G37*
G36*
X90295084Y-117452953D02*
G01*
X90416714Y-117523176D01*
X90516024Y-117622486D01*
X90586247Y-117744116D01*
X90622597Y-117879777D01*
X90622597Y-118020223D01*
X90586247Y-118155884D01*
X90516024Y-118277514D01*
X90416714Y-118376824D01*
X90295084Y-118447047D01*
X90159423Y-118483397D01*
X90018977Y-118483397D01*
X89883316Y-118447047D01*
X89761686Y-118376824D01*
X89662376Y-118277514D01*
X89592153Y-118155884D01*
X89555803Y-118020223D01*
X89555803Y-117879777D01*
X89592153Y-117744116D01*
X89662376Y-117622486D01*
X89761686Y-117523176D01*
X89883316Y-117452953D01*
X90018977Y-117416603D01*
X90159423Y-117416603D01*
X90295084Y-117452953D01*
G37*
G36*
X91565084Y-117452953D02*
G01*
X91686714Y-117523176D01*
X91786024Y-117622486D01*
X91856247Y-117744116D01*
X91892597Y-117879777D01*
X91892597Y-118020223D01*
X91856247Y-118155884D01*
X91786024Y-118277514D01*
X91686714Y-118376824D01*
X91565084Y-118447047D01*
X91429423Y-118483397D01*
X91288977Y-118483397D01*
X91153316Y-118447047D01*
X91031686Y-118376824D01*
X90932376Y-118277514D01*
X90862153Y-118155884D01*
X90825803Y-118020223D01*
X90825803Y-117879777D01*
X90862153Y-117744116D01*
X90932376Y-117622486D01*
X91031686Y-117523176D01*
X91153316Y-117452953D01*
X91288977Y-117416603D01*
X91429423Y-117416603D01*
X91565084Y-117452953D01*
G37*
G36*
X92835084Y-117452953D02*
G01*
X92956714Y-117523176D01*
X93056024Y-117622486D01*
X93126247Y-117744116D01*
X93162597Y-117879777D01*
X93162597Y-118020223D01*
X93126247Y-118155884D01*
X93056024Y-118277514D01*
X92956714Y-118376824D01*
X92835084Y-118447047D01*
X92699423Y-118483397D01*
X92558977Y-118483397D01*
X92423316Y-118447047D01*
X92301686Y-118376824D01*
X92202376Y-118277514D01*
X92132153Y-118155884D01*
X92095803Y-118020223D01*
X92095803Y-117879777D01*
X92132153Y-117744116D01*
X92202376Y-117622486D01*
X92301686Y-117523176D01*
X92423316Y-117452953D01*
X92558977Y-117416603D01*
X92699423Y-117416603D01*
X92835084Y-117452953D01*
G37*
G36*
X94105084Y-117452953D02*
G01*
X94226714Y-117523176D01*
X94326024Y-117622486D01*
X94396247Y-117744116D01*
X94432597Y-117879777D01*
X94432597Y-118020223D01*
X94396247Y-118155884D01*
X94326024Y-118277514D01*
X94226714Y-118376824D01*
X94105084Y-118447047D01*
X93969423Y-118483397D01*
X93828977Y-118483397D01*
X93693316Y-118447047D01*
X93571686Y-118376824D01*
X93472376Y-118277514D01*
X93402153Y-118155884D01*
X93365803Y-118020223D01*
X93365803Y-117879777D01*
X93402153Y-117744116D01*
X93472376Y-117622486D01*
X93571686Y-117523176D01*
X93693316Y-117452953D01*
X93828977Y-117416603D01*
X93969423Y-117416603D01*
X94105084Y-117452953D01*
G37*
G36*
X100364884Y-117452953D02*
G01*
X100486514Y-117523176D01*
X100585824Y-117622486D01*
X100656047Y-117744116D01*
X100692397Y-117879777D01*
X100692397Y-118020223D01*
X100656047Y-118155884D01*
X100585824Y-118277514D01*
X100486514Y-118376824D01*
X100364884Y-118447047D01*
X100229223Y-118483397D01*
X100088777Y-118483397D01*
X99953116Y-118447047D01*
X99831486Y-118376824D01*
X99732176Y-118277514D01*
X99661953Y-118155884D01*
X99625603Y-118020223D01*
X99625603Y-117879777D01*
X99661953Y-117744116D01*
X99732176Y-117622486D01*
X99831486Y-117523176D01*
X99953116Y-117452953D01*
X100088777Y-117416603D01*
X100229223Y-117416603D01*
X100364884Y-117452953D01*
G37*
G36*
X101634884Y-117452953D02*
G01*
X101756514Y-117523176D01*
X101855824Y-117622486D01*
X101926047Y-117744116D01*
X101962397Y-117879777D01*
X101962397Y-118020223D01*
X101926047Y-118155884D01*
X101855824Y-118277514D01*
X101756514Y-118376824D01*
X101634884Y-118447047D01*
X101499223Y-118483397D01*
X101358777Y-118483397D01*
X101223116Y-118447047D01*
X101101486Y-118376824D01*
X101002176Y-118277514D01*
X100931953Y-118155884D01*
X100895603Y-118020223D01*
X100895603Y-117879777D01*
X100931953Y-117744116D01*
X101002176Y-117622486D01*
X101101486Y-117523176D01*
X101223116Y-117452953D01*
X101358777Y-117416603D01*
X101499223Y-117416603D01*
X101634884Y-117452953D01*
G37*
G36*
X102904884Y-117452953D02*
G01*
X103026514Y-117523176D01*
X103125824Y-117622486D01*
X103196047Y-117744116D01*
X103232397Y-117879777D01*
X103232397Y-118020223D01*
X103196047Y-118155884D01*
X103125824Y-118277514D01*
X103026514Y-118376824D01*
X102904884Y-118447047D01*
X102769223Y-118483397D01*
X102628777Y-118483397D01*
X102493116Y-118447047D01*
X102371486Y-118376824D01*
X102272176Y-118277514D01*
X102201953Y-118155884D01*
X102165603Y-118020223D01*
X102165603Y-117879777D01*
X102201953Y-117744116D01*
X102272176Y-117622486D01*
X102371486Y-117523176D01*
X102493116Y-117452953D01*
X102628777Y-117416603D01*
X102769223Y-117416603D01*
X102904884Y-117452953D01*
G37*
G36*
X104174884Y-117452953D02*
G01*
X104296514Y-117523176D01*
X104395824Y-117622486D01*
X104466047Y-117744116D01*
X104502397Y-117879777D01*
X104502397Y-118020223D01*
X104466047Y-118155884D01*
X104395824Y-118277514D01*
X104296514Y-118376824D01*
X104174884Y-118447047D01*
X104039223Y-118483397D01*
X103898777Y-118483397D01*
X103763116Y-118447047D01*
X103641486Y-118376824D01*
X103542176Y-118277514D01*
X103471953Y-118155884D01*
X103435603Y-118020223D01*
X103435603Y-117879777D01*
X103471953Y-117744116D01*
X103542176Y-117622486D01*
X103641486Y-117523176D01*
X103763116Y-117452953D01*
X103898777Y-117416603D01*
X104039223Y-117416603D01*
X104174884Y-117452953D01*
G37*
G36*
X105444884Y-117452953D02*
G01*
X105566514Y-117523176D01*
X105665824Y-117622486D01*
X105736047Y-117744116D01*
X105772397Y-117879777D01*
X105772397Y-118020223D01*
X105736047Y-118155884D01*
X105665824Y-118277514D01*
X105566514Y-118376824D01*
X105444884Y-118447047D01*
X105309223Y-118483397D01*
X105168777Y-118483397D01*
X105033116Y-118447047D01*
X104911486Y-118376824D01*
X104812176Y-118277514D01*
X104741953Y-118155884D01*
X104705603Y-118020223D01*
X104705603Y-117879777D01*
X104741953Y-117744116D01*
X104812176Y-117622486D01*
X104911486Y-117523176D01*
X105033116Y-117452953D01*
X105168777Y-117416603D01*
X105309223Y-117416603D01*
X105444884Y-117452953D01*
G37*
G36*
X106714884Y-117452953D02*
G01*
X106836514Y-117523176D01*
X106935824Y-117622486D01*
X107006047Y-117744116D01*
X107042397Y-117879777D01*
X107042397Y-118020223D01*
X107006047Y-118155884D01*
X106935824Y-118277514D01*
X106836514Y-118376824D01*
X106714884Y-118447047D01*
X106579223Y-118483397D01*
X106438777Y-118483397D01*
X106303116Y-118447047D01*
X106181486Y-118376824D01*
X106082176Y-118277514D01*
X106011953Y-118155884D01*
X105975603Y-118020223D01*
X105975603Y-117879777D01*
X106011953Y-117744116D01*
X106082176Y-117622486D01*
X106181486Y-117523176D01*
X106303116Y-117452953D01*
X106438777Y-117416603D01*
X106579223Y-117416603D01*
X106714884Y-117452953D01*
G37*
G36*
X107984884Y-117452953D02*
G01*
X108106514Y-117523176D01*
X108205824Y-117622486D01*
X108276047Y-117744116D01*
X108312397Y-117879777D01*
X108312397Y-118020223D01*
X108276047Y-118155884D01*
X108205824Y-118277514D01*
X108106514Y-118376824D01*
X107984884Y-118447047D01*
X107849223Y-118483397D01*
X107708777Y-118483397D01*
X107573116Y-118447047D01*
X107451486Y-118376824D01*
X107352176Y-118277514D01*
X107281953Y-118155884D01*
X107245603Y-118020223D01*
X107245603Y-117879777D01*
X107281953Y-117744116D01*
X107352176Y-117622486D01*
X107451486Y-117523176D01*
X107573116Y-117452953D01*
X107708777Y-117416603D01*
X107849223Y-117416603D01*
X107984884Y-117452953D01*
G37*
G36*
X181375084Y-117452953D02*
G01*
X181496714Y-117523176D01*
X181596024Y-117622486D01*
X181666247Y-117744116D01*
X181702597Y-117879777D01*
X181702597Y-118020223D01*
X181666247Y-118155884D01*
X181596024Y-118277514D01*
X181496714Y-118376824D01*
X181375084Y-118447047D01*
X181239423Y-118483397D01*
X181098977Y-118483397D01*
X180963316Y-118447047D01*
X180841686Y-118376824D01*
X180742376Y-118277514D01*
X180672153Y-118155884D01*
X180635803Y-118020223D01*
X180635803Y-117879777D01*
X180672153Y-117744116D01*
X180742376Y-117622486D01*
X180841686Y-117523176D01*
X180963316Y-117452953D01*
X181098977Y-117416603D01*
X181239423Y-117416603D01*
X181375084Y-117452953D01*
G37*
G36*
X182645084Y-117452953D02*
G01*
X182766714Y-117523176D01*
X182866024Y-117622486D01*
X182936247Y-117744116D01*
X182972597Y-117879777D01*
X182972597Y-118020223D01*
X182936247Y-118155884D01*
X182866024Y-118277514D01*
X182766714Y-118376824D01*
X182645084Y-118447047D01*
X182509423Y-118483397D01*
X182368977Y-118483397D01*
X182233316Y-118447047D01*
X182111686Y-118376824D01*
X182012376Y-118277514D01*
X181942153Y-118155884D01*
X181905803Y-118020223D01*
X181905803Y-117879777D01*
X181942153Y-117744116D01*
X182012376Y-117622486D01*
X182111686Y-117523176D01*
X182233316Y-117452953D01*
X182368977Y-117416603D01*
X182509423Y-117416603D01*
X182645084Y-117452953D01*
G37*
G36*
X183915084Y-117452953D02*
G01*
X184036714Y-117523176D01*
X184136024Y-117622486D01*
X184206247Y-117744116D01*
X184242597Y-117879777D01*
X184242597Y-118020223D01*
X184206247Y-118155884D01*
X184136024Y-118277514D01*
X184036714Y-118376824D01*
X183915084Y-118447047D01*
X183779423Y-118483397D01*
X183638977Y-118483397D01*
X183503316Y-118447047D01*
X183381686Y-118376824D01*
X183282376Y-118277514D01*
X183212153Y-118155884D01*
X183175803Y-118020223D01*
X183175803Y-117879777D01*
X183212153Y-117744116D01*
X183282376Y-117622486D01*
X183381686Y-117523176D01*
X183503316Y-117452953D01*
X183638977Y-117416603D01*
X183779423Y-117416603D01*
X183915084Y-117452953D01*
G37*
G36*
X185185084Y-117452953D02*
G01*
X185306714Y-117523176D01*
X185406024Y-117622486D01*
X185476247Y-117744116D01*
X185512597Y-117879777D01*
X185512597Y-118020223D01*
X185476247Y-118155884D01*
X185406024Y-118277514D01*
X185306714Y-118376824D01*
X185185084Y-118447047D01*
X185049423Y-118483397D01*
X184908977Y-118483397D01*
X184773316Y-118447047D01*
X184651686Y-118376824D01*
X184552376Y-118277514D01*
X184482153Y-118155884D01*
X184445803Y-118020223D01*
X184445803Y-117879777D01*
X184482153Y-117744116D01*
X184552376Y-117622486D01*
X184651686Y-117523176D01*
X184773316Y-117452953D01*
X184908977Y-117416603D01*
X185049423Y-117416603D01*
X185185084Y-117452953D01*
G37*
G36*
X186455084Y-117452953D02*
G01*
X186576714Y-117523176D01*
X186676024Y-117622486D01*
X186746247Y-117744116D01*
X186782597Y-117879777D01*
X186782597Y-118020223D01*
X186746247Y-118155884D01*
X186676024Y-118277514D01*
X186576714Y-118376824D01*
X186455084Y-118447047D01*
X186319423Y-118483397D01*
X186178977Y-118483397D01*
X186043316Y-118447047D01*
X185921686Y-118376824D01*
X185822376Y-118277514D01*
X185752153Y-118155884D01*
X185715803Y-118020223D01*
X185715803Y-117879777D01*
X185752153Y-117744116D01*
X185822376Y-117622486D01*
X185921686Y-117523176D01*
X186043316Y-117452953D01*
X186178977Y-117416603D01*
X186319423Y-117416603D01*
X186455084Y-117452953D01*
G37*
G36*
X187725084Y-117452953D02*
G01*
X187846714Y-117523176D01*
X187946024Y-117622486D01*
X188016247Y-117744116D01*
X188052597Y-117879777D01*
X188052597Y-118020223D01*
X188016247Y-118155884D01*
X187946024Y-118277514D01*
X187846714Y-118376824D01*
X187725084Y-118447047D01*
X187589423Y-118483397D01*
X187448977Y-118483397D01*
X187313316Y-118447047D01*
X187191686Y-118376824D01*
X187092376Y-118277514D01*
X187022153Y-118155884D01*
X186985803Y-118020223D01*
X186985803Y-117879777D01*
X187022153Y-117744116D01*
X187092376Y-117622486D01*
X187191686Y-117523176D01*
X187313316Y-117452953D01*
X187448977Y-117416603D01*
X187589423Y-117416603D01*
X187725084Y-117452953D01*
G37*
G36*
X188995084Y-117452953D02*
G01*
X189116714Y-117523176D01*
X189216024Y-117622486D01*
X189286247Y-117744116D01*
X189322597Y-117879777D01*
X189322597Y-118020223D01*
X189286247Y-118155884D01*
X189216024Y-118277514D01*
X189116714Y-118376824D01*
X188995084Y-118447047D01*
X188859423Y-118483397D01*
X188718977Y-118483397D01*
X188583316Y-118447047D01*
X188461686Y-118376824D01*
X188362376Y-118277514D01*
X188292153Y-118155884D01*
X188255803Y-118020223D01*
X188255803Y-117879777D01*
X188292153Y-117744116D01*
X188362376Y-117622486D01*
X188461686Y-117523176D01*
X188583316Y-117452953D01*
X188718977Y-117416603D01*
X188859423Y-117416603D01*
X188995084Y-117452953D01*
G37*
G36*
X190265084Y-117452953D02*
G01*
X190386714Y-117523176D01*
X190486024Y-117622486D01*
X190556247Y-117744116D01*
X190592597Y-117879777D01*
X190592597Y-118020223D01*
X190556247Y-118155884D01*
X190486024Y-118277514D01*
X190386714Y-118376824D01*
X190265084Y-118447047D01*
X190129423Y-118483397D01*
X189988977Y-118483397D01*
X189853316Y-118447047D01*
X189731686Y-118376824D01*
X189632376Y-118277514D01*
X189562153Y-118155884D01*
X189525803Y-118020223D01*
X189525803Y-117879777D01*
X189562153Y-117744116D01*
X189632376Y-117622486D01*
X189731686Y-117523176D01*
X189853316Y-117452953D01*
X189988977Y-117416603D01*
X190129423Y-117416603D01*
X190265084Y-117452953D01*
G37*
G36*
X191535084Y-117452953D02*
G01*
X191656714Y-117523176D01*
X191756024Y-117622486D01*
X191826247Y-117744116D01*
X191862597Y-117879777D01*
X191862597Y-118020223D01*
X191826247Y-118155884D01*
X191756024Y-118277514D01*
X191656714Y-118376824D01*
X191535084Y-118447047D01*
X191399423Y-118483397D01*
X191258977Y-118483397D01*
X191123316Y-118447047D01*
X191001686Y-118376824D01*
X190902376Y-118277514D01*
X190832153Y-118155884D01*
X190795803Y-118020223D01*
X190795803Y-117879777D01*
X190832153Y-117744116D01*
X190902376Y-117622486D01*
X191001686Y-117523176D01*
X191123316Y-117452953D01*
X191258977Y-117416603D01*
X191399423Y-117416603D01*
X191535084Y-117452953D01*
G37*
G36*
X192805084Y-117452953D02*
G01*
X192926714Y-117523176D01*
X193026024Y-117622486D01*
X193096247Y-117744116D01*
X193132597Y-117879777D01*
X193132597Y-118020223D01*
X193096247Y-118155884D01*
X193026024Y-118277514D01*
X192926714Y-118376824D01*
X192805084Y-118447047D01*
X192669423Y-118483397D01*
X192528977Y-118483397D01*
X192393316Y-118447047D01*
X192271686Y-118376824D01*
X192172376Y-118277514D01*
X192102153Y-118155884D01*
X192065803Y-118020223D01*
X192065803Y-117879777D01*
X192102153Y-117744116D01*
X192172376Y-117622486D01*
X192271686Y-117523176D01*
X192393316Y-117452953D01*
X192528977Y-117416603D01*
X192669423Y-117416603D01*
X192805084Y-117452953D01*
G37*
G36*
X194075084Y-117452953D02*
G01*
X194196714Y-117523176D01*
X194296024Y-117622486D01*
X194366247Y-117744116D01*
X194402597Y-117879777D01*
X194402597Y-118020223D01*
X194366247Y-118155884D01*
X194296024Y-118277514D01*
X194196714Y-118376824D01*
X194075084Y-118447047D01*
X193939423Y-118483397D01*
X193798977Y-118483397D01*
X193663316Y-118447047D01*
X193541686Y-118376824D01*
X193442376Y-118277514D01*
X193372153Y-118155884D01*
X193335803Y-118020223D01*
X193335803Y-117879777D01*
X193372153Y-117744116D01*
X193442376Y-117622486D01*
X193541686Y-117523176D01*
X193663316Y-117452953D01*
X193798977Y-117416603D01*
X193939423Y-117416603D01*
X194075084Y-117452953D01*
G37*
G36*
X195345084Y-117452953D02*
G01*
X195466714Y-117523176D01*
X195566024Y-117622486D01*
X195636247Y-117744116D01*
X195672597Y-117879777D01*
X195672597Y-118020223D01*
X195636247Y-118155884D01*
X195566024Y-118277514D01*
X195466714Y-118376824D01*
X195345084Y-118447047D01*
X195209423Y-118483397D01*
X195068977Y-118483397D01*
X194933316Y-118447047D01*
X194811686Y-118376824D01*
X194712376Y-118277514D01*
X194642153Y-118155884D01*
X194605803Y-118020223D01*
X194605803Y-117879777D01*
X194642153Y-117744116D01*
X194712376Y-117622486D01*
X194811686Y-117523176D01*
X194933316Y-117452953D01*
X195068977Y-117416603D01*
X195209423Y-117416603D01*
X195345084Y-117452953D01*
G37*
G36*
X196615084Y-117452953D02*
G01*
X196736714Y-117523176D01*
X196836024Y-117622486D01*
X196906247Y-117744116D01*
X196942597Y-117879777D01*
X196942597Y-118020223D01*
X196906247Y-118155884D01*
X196836024Y-118277514D01*
X196736714Y-118376824D01*
X196615084Y-118447047D01*
X196479423Y-118483397D01*
X196338977Y-118483397D01*
X196203316Y-118447047D01*
X196081686Y-118376824D01*
X195982376Y-118277514D01*
X195912153Y-118155884D01*
X195875803Y-118020223D01*
X195875803Y-117879777D01*
X195912153Y-117744116D01*
X195982376Y-117622486D01*
X196081686Y-117523176D01*
X196203316Y-117452953D01*
X196338977Y-117416603D01*
X196479423Y-117416603D01*
X196615084Y-117452953D01*
G37*
G36*
X197885084Y-117452953D02*
G01*
X198006714Y-117523176D01*
X198106024Y-117622486D01*
X198176247Y-117744116D01*
X198212597Y-117879777D01*
X198212597Y-118020223D01*
X198176247Y-118155884D01*
X198106024Y-118277514D01*
X198006714Y-118376824D01*
X197885084Y-118447047D01*
X197749423Y-118483397D01*
X197608977Y-118483397D01*
X197473316Y-118447047D01*
X197351686Y-118376824D01*
X197252376Y-118277514D01*
X197182153Y-118155884D01*
X197145803Y-118020223D01*
X197145803Y-117879777D01*
X197182153Y-117744116D01*
X197252376Y-117622486D01*
X197351686Y-117523176D01*
X197473316Y-117452953D01*
X197608977Y-117416603D01*
X197749423Y-117416603D01*
X197885084Y-117452953D01*
G37*
G36*
X199155084Y-117452953D02*
G01*
X199276714Y-117523176D01*
X199376024Y-117622486D01*
X199446247Y-117744116D01*
X199482597Y-117879777D01*
X199482597Y-118020223D01*
X199446247Y-118155884D01*
X199376024Y-118277514D01*
X199276714Y-118376824D01*
X199155084Y-118447047D01*
X199019423Y-118483397D01*
X198878977Y-118483397D01*
X198743316Y-118447047D01*
X198621686Y-118376824D01*
X198522376Y-118277514D01*
X198452153Y-118155884D01*
X198415803Y-118020223D01*
X198415803Y-117879777D01*
X198452153Y-117744116D01*
X198522376Y-117622486D01*
X198621686Y-117523176D01*
X198743316Y-117452953D01*
X198878977Y-117416603D01*
X199019423Y-117416603D01*
X199155084Y-117452953D01*
G37*
G36*
X205414884Y-117452953D02*
G01*
X205536514Y-117523176D01*
X205635824Y-117622486D01*
X205706047Y-117744116D01*
X205742397Y-117879777D01*
X205742397Y-118020223D01*
X205706047Y-118155884D01*
X205635824Y-118277514D01*
X205536514Y-118376824D01*
X205414884Y-118447047D01*
X205279223Y-118483397D01*
X205138777Y-118483397D01*
X205003116Y-118447047D01*
X204881486Y-118376824D01*
X204782176Y-118277514D01*
X204711953Y-118155884D01*
X204675603Y-118020223D01*
X204675603Y-117879777D01*
X204711953Y-117744116D01*
X204782176Y-117622486D01*
X204881486Y-117523176D01*
X205003116Y-117452953D01*
X205138777Y-117416603D01*
X205279223Y-117416603D01*
X205414884Y-117452953D01*
G37*
G36*
X206684884Y-117452953D02*
G01*
X206806514Y-117523176D01*
X206905824Y-117622486D01*
X206976047Y-117744116D01*
X207012397Y-117879777D01*
X207012397Y-118020223D01*
X206976047Y-118155884D01*
X206905824Y-118277514D01*
X206806514Y-118376824D01*
X206684884Y-118447047D01*
X206549223Y-118483397D01*
X206408777Y-118483397D01*
X206273116Y-118447047D01*
X206151486Y-118376824D01*
X206052176Y-118277514D01*
X205981953Y-118155884D01*
X205945603Y-118020223D01*
X205945603Y-117879777D01*
X205981953Y-117744116D01*
X206052176Y-117622486D01*
X206151486Y-117523176D01*
X206273116Y-117452953D01*
X206408777Y-117416603D01*
X206549223Y-117416603D01*
X206684884Y-117452953D01*
G37*
G36*
X207954884Y-117452953D02*
G01*
X208076514Y-117523176D01*
X208175824Y-117622486D01*
X208246047Y-117744116D01*
X208282397Y-117879777D01*
X208282397Y-118020223D01*
X208246047Y-118155884D01*
X208175824Y-118277514D01*
X208076514Y-118376824D01*
X207954884Y-118447047D01*
X207819223Y-118483397D01*
X207678777Y-118483397D01*
X207543116Y-118447047D01*
X207421486Y-118376824D01*
X207322176Y-118277514D01*
X207251953Y-118155884D01*
X207215603Y-118020223D01*
X207215603Y-117879777D01*
X207251953Y-117744116D01*
X207322176Y-117622486D01*
X207421486Y-117523176D01*
X207543116Y-117452953D01*
X207678777Y-117416603D01*
X207819223Y-117416603D01*
X207954884Y-117452953D01*
G37*
G36*
X209224884Y-117452953D02*
G01*
X209346514Y-117523176D01*
X209445824Y-117622486D01*
X209516047Y-117744116D01*
X209552397Y-117879777D01*
X209552397Y-118020223D01*
X209516047Y-118155884D01*
X209445824Y-118277514D01*
X209346514Y-118376824D01*
X209224884Y-118447047D01*
X209089223Y-118483397D01*
X208948777Y-118483397D01*
X208813116Y-118447047D01*
X208691486Y-118376824D01*
X208592176Y-118277514D01*
X208521953Y-118155884D01*
X208485603Y-118020223D01*
X208485603Y-117879777D01*
X208521953Y-117744116D01*
X208592176Y-117622486D01*
X208691486Y-117523176D01*
X208813116Y-117452953D01*
X208948777Y-117416603D01*
X209089223Y-117416603D01*
X209224884Y-117452953D01*
G37*
G36*
X210494884Y-117452953D02*
G01*
X210616514Y-117523176D01*
X210715824Y-117622486D01*
X210786047Y-117744116D01*
X210822397Y-117879777D01*
X210822397Y-118020223D01*
X210786047Y-118155884D01*
X210715824Y-118277514D01*
X210616514Y-118376824D01*
X210494884Y-118447047D01*
X210359223Y-118483397D01*
X210218777Y-118483397D01*
X210083116Y-118447047D01*
X209961486Y-118376824D01*
X209862176Y-118277514D01*
X209791953Y-118155884D01*
X209755603Y-118020223D01*
X209755603Y-117879777D01*
X209791953Y-117744116D01*
X209862176Y-117622486D01*
X209961486Y-117523176D01*
X210083116Y-117452953D01*
X210218777Y-117416603D01*
X210359223Y-117416603D01*
X210494884Y-117452953D01*
G37*
G36*
X211764884Y-117452953D02*
G01*
X211886514Y-117523176D01*
X211985824Y-117622486D01*
X212056047Y-117744116D01*
X212092397Y-117879777D01*
X212092397Y-118020223D01*
X212056047Y-118155884D01*
X211985824Y-118277514D01*
X211886514Y-118376824D01*
X211764884Y-118447047D01*
X211629223Y-118483397D01*
X211488777Y-118483397D01*
X211353116Y-118447047D01*
X211231486Y-118376824D01*
X211132176Y-118277514D01*
X211061953Y-118155884D01*
X211025603Y-118020223D01*
X211025603Y-117879777D01*
X211061953Y-117744116D01*
X211132176Y-117622486D01*
X211231486Y-117523176D01*
X211353116Y-117452953D01*
X211488777Y-117416603D01*
X211629223Y-117416603D01*
X211764884Y-117452953D01*
G37*
G36*
X213034884Y-117452953D02*
G01*
X213156514Y-117523176D01*
X213255824Y-117622486D01*
X213326047Y-117744116D01*
X213362397Y-117879777D01*
X213362397Y-118020223D01*
X213326047Y-118155884D01*
X213255824Y-118277514D01*
X213156514Y-118376824D01*
X213034884Y-118447047D01*
X212899223Y-118483397D01*
X212758777Y-118483397D01*
X212623116Y-118447047D01*
X212501486Y-118376824D01*
X212402176Y-118277514D01*
X212331953Y-118155884D01*
X212295603Y-118020223D01*
X212295603Y-117879777D01*
X212331953Y-117744116D01*
X212402176Y-117622486D01*
X212501486Y-117523176D01*
X212623116Y-117452953D01*
X212758777Y-117416603D01*
X212899223Y-117416603D01*
X213034884Y-117452953D01*
G37*
G36*
X159359884Y-117202953D02*
G01*
X159481514Y-117273176D01*
X159580824Y-117372486D01*
X159651047Y-117494116D01*
X159687397Y-117629777D01*
X159687397Y-117770223D01*
X159651047Y-117905884D01*
X159580824Y-118027514D01*
X159481514Y-118126824D01*
X159359884Y-118197047D01*
X159224223Y-118233397D01*
X159083777Y-118233397D01*
X158948116Y-118197047D01*
X158826486Y-118126824D01*
X158727176Y-118027514D01*
X158656953Y-117905884D01*
X158620603Y-117770223D01*
X158620603Y-117629777D01*
X158656953Y-117494116D01*
X158727176Y-117372486D01*
X158826486Y-117273176D01*
X158948116Y-117202953D01*
X159083777Y-117166603D01*
X159224223Y-117166603D01*
X159359884Y-117202953D01*
G37*
G36*
X171359884Y-117202953D02*
G01*
X171481514Y-117273176D01*
X171580824Y-117372486D01*
X171651047Y-117494116D01*
X171687397Y-117629777D01*
X171687397Y-117770223D01*
X171651047Y-117905884D01*
X171580824Y-118027514D01*
X171481514Y-118126824D01*
X171359884Y-118197047D01*
X171224223Y-118233397D01*
X171083777Y-118233397D01*
X170948116Y-118197047D01*
X170826486Y-118126824D01*
X170727176Y-118027514D01*
X170656953Y-117905884D01*
X170620603Y-117770223D01*
X170620603Y-117629777D01*
X170656953Y-117494116D01*
X170727176Y-117372486D01*
X170826486Y-117273176D01*
X170948116Y-117202953D01*
X171083777Y-117166603D01*
X171224223Y-117166603D01*
X171359884Y-117202953D01*
G37*
G36*
X165468000Y-116176372D02*
G01*
X165642578Y-116211098D01*
X165807028Y-116279215D01*
X165955029Y-116378107D01*
X166080893Y-116503971D01*
X166179785Y-116651972D01*
X166247902Y-116816422D01*
X166282628Y-116991000D01*
X166282628Y-117169000D01*
X166247902Y-117343578D01*
X166179785Y-117508028D01*
X166080893Y-117656029D01*
X165955029Y-117781893D01*
X165807028Y-117880785D01*
X165642578Y-117948902D01*
X165468000Y-117983628D01*
X165379000Y-117988000D01*
X165377749Y-117988000D01*
X164930251Y-117988000D01*
X164929000Y-117988000D01*
X164840000Y-117983628D01*
X164665422Y-117948902D01*
X164500972Y-117880785D01*
X164352971Y-117781893D01*
X164227107Y-117656029D01*
X164128215Y-117508028D01*
X164060098Y-117343578D01*
X164025372Y-117169000D01*
X164025372Y-116991000D01*
X164060098Y-116816422D01*
X164128215Y-116651972D01*
X164227107Y-116503971D01*
X164352971Y-116378107D01*
X164500972Y-116279215D01*
X164665422Y-116211098D01*
X164840000Y-116176372D01*
X164929000Y-116172000D01*
X165379000Y-116172000D01*
X165468000Y-116176372D01*
G37*
G36*
X162320944Y-115938811D02*
G01*
X162381936Y-115979564D01*
X162422689Y-116040556D01*
X162437000Y-116112500D01*
X162437000Y-117287500D01*
X162422689Y-117359444D01*
X162381936Y-117420436D01*
X162320944Y-117461189D01*
X162249000Y-117475500D01*
X161949000Y-117475500D01*
X161877056Y-117461189D01*
X161816064Y-117420436D01*
X161775311Y-117359444D01*
X161761000Y-117287500D01*
X161761000Y-116112500D01*
X161775311Y-116040556D01*
X161816064Y-115979564D01*
X161877056Y-115938811D01*
X161949000Y-115924500D01*
X162249000Y-115924500D01*
X162320944Y-115938811D01*
G37*
G36*
X159359884Y-115932953D02*
G01*
X159481514Y-116003176D01*
X159580824Y-116102486D01*
X159651047Y-116224116D01*
X159687397Y-116359777D01*
X159687397Y-116500223D01*
X159651047Y-116635884D01*
X159580824Y-116757514D01*
X159481514Y-116856824D01*
X159359884Y-116927047D01*
X159224223Y-116963397D01*
X159083777Y-116963397D01*
X158948116Y-116927047D01*
X158826486Y-116856824D01*
X158727176Y-116757514D01*
X158656953Y-116635884D01*
X158620603Y-116500223D01*
X158620603Y-116359777D01*
X158656953Y-116224116D01*
X158727176Y-116102486D01*
X158826486Y-116003176D01*
X158948116Y-115932953D01*
X159083777Y-115896603D01*
X159224223Y-115896603D01*
X159359884Y-115932953D01*
G37*
G36*
X171359884Y-115932953D02*
G01*
X171481514Y-116003176D01*
X171580824Y-116102486D01*
X171651047Y-116224116D01*
X171687397Y-116359777D01*
X171687397Y-116500223D01*
X171651047Y-116635884D01*
X171580824Y-116757514D01*
X171481514Y-116856824D01*
X171359884Y-116927047D01*
X171224223Y-116963397D01*
X171083777Y-116963397D01*
X170948116Y-116927047D01*
X170826486Y-116856824D01*
X170727176Y-116757514D01*
X170656953Y-116635884D01*
X170620603Y-116500223D01*
X170620603Y-116359777D01*
X170656953Y-116224116D01*
X170727176Y-116102486D01*
X170826486Y-116003176D01*
X170948116Y-115932953D01*
X171083777Y-115896603D01*
X171224223Y-115896603D01*
X171359884Y-115932953D01*
G37*
G36*
X167320944Y-115113811D02*
G01*
X167381936Y-115154564D01*
X167422689Y-115215556D01*
X167437000Y-115287500D01*
X167437000Y-116312500D01*
X167422689Y-116384444D01*
X167381936Y-116445436D01*
X167320944Y-116486189D01*
X167249000Y-116500500D01*
X166949000Y-116500500D01*
X166877056Y-116486189D01*
X166816064Y-116445436D01*
X166775311Y-116384444D01*
X166761000Y-116312500D01*
X166761000Y-115287500D01*
X166775311Y-115215556D01*
X166816064Y-115154564D01*
X166877056Y-115113811D01*
X166949000Y-115099500D01*
X167249000Y-115099500D01*
X167320944Y-115113811D01*
G37*
G36*
X168270944Y-115113811D02*
G01*
X168331936Y-115154564D01*
X168372689Y-115215556D01*
X168387000Y-115287500D01*
X168387000Y-116312500D01*
X168372689Y-116384444D01*
X168331936Y-116445436D01*
X168270944Y-116486189D01*
X168199000Y-116500500D01*
X167899000Y-116500500D01*
X167827056Y-116486189D01*
X167766064Y-116445436D01*
X167725311Y-116384444D01*
X167711000Y-116312500D01*
X167711000Y-115287500D01*
X167725311Y-115215556D01*
X167766064Y-115154564D01*
X167827056Y-115113811D01*
X167899000Y-115099500D01*
X168199000Y-115099500D01*
X168270944Y-115113811D01*
G37*
G36*
X169220944Y-115113811D02*
G01*
X169281936Y-115154564D01*
X169322689Y-115215556D01*
X169337000Y-115287500D01*
X169337000Y-116312500D01*
X169322689Y-116384444D01*
X169281936Y-116445436D01*
X169220944Y-116486189D01*
X169149000Y-116500500D01*
X168849000Y-116500500D01*
X168777056Y-116486189D01*
X168716064Y-116445436D01*
X168675311Y-116384444D01*
X168661000Y-116312500D01*
X168661000Y-115287500D01*
X168675311Y-115215556D01*
X168716064Y-115154564D01*
X168777056Y-115113811D01*
X168849000Y-115099500D01*
X169149000Y-115099500D01*
X169220944Y-115113811D01*
G37*
G36*
X172550204Y-115555169D02*
G01*
X172606329Y-115592671D01*
X172643831Y-115648796D01*
X172657000Y-115715000D01*
X172657000Y-116085000D01*
X172643831Y-116151204D01*
X172606329Y-116207329D01*
X172550204Y-116244831D01*
X172484000Y-116258000D01*
X172214000Y-116258000D01*
X172147796Y-116244831D01*
X172091671Y-116207329D01*
X172054169Y-116151204D01*
X172041000Y-116085000D01*
X172041000Y-115715000D01*
X172054169Y-115648796D01*
X172091671Y-115592671D01*
X172147796Y-115555169D01*
X172214000Y-115542000D01*
X172484000Y-115542000D01*
X172550204Y-115555169D01*
G37*
G36*
X173570204Y-115555169D02*
G01*
X173626329Y-115592671D01*
X173663831Y-115648796D01*
X173677000Y-115715000D01*
X173677000Y-116085000D01*
X173663831Y-116151204D01*
X173626329Y-116207329D01*
X173570204Y-116244831D01*
X173504000Y-116258000D01*
X173234000Y-116258000D01*
X173167796Y-116244831D01*
X173111671Y-116207329D01*
X173074169Y-116151204D01*
X173061000Y-116085000D01*
X173061000Y-115715000D01*
X173074169Y-115648796D01*
X173111671Y-115592671D01*
X173167796Y-115555169D01*
X173234000Y-115542000D01*
X173504000Y-115542000D01*
X173570204Y-115555169D01*
G37*
G36*
X159359884Y-114662953D02*
G01*
X159481514Y-114733176D01*
X159580824Y-114832486D01*
X159651047Y-114954116D01*
X159687397Y-115089777D01*
X159687397Y-115230223D01*
X159651047Y-115365884D01*
X159580824Y-115487514D01*
X159481514Y-115586824D01*
X159359884Y-115657047D01*
X159224223Y-115693397D01*
X159083777Y-115693397D01*
X158948116Y-115657047D01*
X158826486Y-115586824D01*
X158727176Y-115487514D01*
X158656953Y-115365884D01*
X158620603Y-115230223D01*
X158620603Y-115089777D01*
X158656953Y-114954116D01*
X158727176Y-114832486D01*
X158826486Y-114733176D01*
X158948116Y-114662953D01*
X159083777Y-114626603D01*
X159224223Y-114626603D01*
X159359884Y-114662953D01*
G37*
G36*
X171359884Y-114662953D02*
G01*
X171481514Y-114733176D01*
X171580824Y-114832486D01*
X171651047Y-114954116D01*
X171687397Y-115089777D01*
X171687397Y-115230223D01*
X171651047Y-115365884D01*
X171580824Y-115487514D01*
X171481514Y-115586824D01*
X171359884Y-115657047D01*
X171224223Y-115693397D01*
X171083777Y-115693397D01*
X170948116Y-115657047D01*
X170826486Y-115586824D01*
X170727176Y-115487514D01*
X170656953Y-115365884D01*
X170620603Y-115230223D01*
X170620603Y-115089777D01*
X170656953Y-114954116D01*
X170727176Y-114832486D01*
X170826486Y-114733176D01*
X170948116Y-114662953D01*
X171083777Y-114626603D01*
X171224223Y-114626603D01*
X171359884Y-114662953D01*
G37*
G36*
X162270944Y-113938811D02*
G01*
X162331936Y-113979564D01*
X162372689Y-114040556D01*
X162387000Y-114112500D01*
X162387000Y-115287500D01*
X162372689Y-115359444D01*
X162331936Y-115420436D01*
X162270944Y-115461189D01*
X162199000Y-115475500D01*
X161899000Y-115475500D01*
X161827056Y-115461189D01*
X161766064Y-115420436D01*
X161725311Y-115359444D01*
X161711000Y-115287500D01*
X161711000Y-114112500D01*
X161725311Y-114040556D01*
X161766064Y-113979564D01*
X161827056Y-113938811D01*
X161899000Y-113924500D01*
X162199000Y-113924500D01*
X162270944Y-113938811D01*
G37*
G36*
X165468000Y-113636372D02*
G01*
X165642578Y-113671098D01*
X165807028Y-113739215D01*
X165955029Y-113838107D01*
X166080893Y-113963971D01*
X166179785Y-114111972D01*
X166247902Y-114276422D01*
X166282628Y-114451000D01*
X166282628Y-114629000D01*
X166247902Y-114803578D01*
X166179785Y-114968028D01*
X166080893Y-115116029D01*
X165955029Y-115241893D01*
X165807028Y-115340785D01*
X165642578Y-115408902D01*
X165468000Y-115443628D01*
X165379000Y-115448000D01*
X165377749Y-115448000D01*
X164930251Y-115448000D01*
X164929000Y-115448000D01*
X164840000Y-115443628D01*
X164665422Y-115408902D01*
X164500972Y-115340785D01*
X164352971Y-115241893D01*
X164227107Y-115116029D01*
X164128215Y-114968028D01*
X164060098Y-114803578D01*
X164025372Y-114629000D01*
X164025372Y-114451000D01*
X164060098Y-114276422D01*
X164128215Y-114111972D01*
X164227107Y-113963971D01*
X164352971Y-113838107D01*
X164500972Y-113739215D01*
X164665422Y-113671098D01*
X164840000Y-113636372D01*
X164929000Y-113632000D01*
X165379000Y-113632000D01*
X165468000Y-113636372D01*
G37*
G36*
X167493009Y-113588294D02*
G01*
X167556569Y-113596662D01*
X167572557Y-113604117D01*
X167591929Y-113607971D01*
X167617589Y-113625116D01*
X167644070Y-113637465D01*
X167660179Y-113653574D01*
X167681308Y-113667692D01*
X167695425Y-113688820D01*
X167711534Y-113704929D01*
X167723881Y-113731408D01*
X167741029Y-113757071D01*
X167744882Y-113776442D01*
X167752336Y-113792427D01*
X167760699Y-113855961D01*
X167762000Y-113862500D01*
X167762000Y-114337500D01*
X167760702Y-114344023D01*
X167752337Y-114407569D01*
X167744882Y-114423554D01*
X167741029Y-114442929D01*
X167723879Y-114468594D01*
X167711534Y-114495070D01*
X167695427Y-114511176D01*
X167681308Y-114532308D01*
X167660176Y-114546427D01*
X167644070Y-114562534D01*
X167617593Y-114574880D01*
X167591929Y-114592029D01*
X167572555Y-114595882D01*
X167556572Y-114603336D01*
X167493040Y-114611699D01*
X167486500Y-114613000D01*
X166886500Y-114613000D01*
X166879978Y-114611702D01*
X166816430Y-114603337D01*
X166800444Y-114595882D01*
X166781071Y-114592029D01*
X166755407Y-114574881D01*
X166728929Y-114562534D01*
X166712820Y-114546425D01*
X166691692Y-114532308D01*
X166677574Y-114511179D01*
X166661465Y-114495070D01*
X166649116Y-114468588D01*
X166631971Y-114442929D01*
X166628118Y-114423559D01*
X166620663Y-114407572D01*
X166612297Y-114344025D01*
X166611000Y-114337500D01*
X166611000Y-113862500D01*
X166612294Y-113855992D01*
X166620662Y-113792430D01*
X166628118Y-113776440D01*
X166631971Y-113757071D01*
X166649115Y-113731412D01*
X166661465Y-113704929D01*
X166677576Y-113688817D01*
X166691692Y-113667692D01*
X166712817Y-113653576D01*
X166728929Y-113637465D01*
X166755413Y-113625114D01*
X166781071Y-113607971D01*
X166800439Y-113604118D01*
X166816427Y-113596663D01*
X166879976Y-113588297D01*
X166886500Y-113587000D01*
X167486500Y-113587000D01*
X167493009Y-113588294D01*
G37*
G36*
X169218009Y-113588294D02*
G01*
X169281569Y-113596662D01*
X169297557Y-113604117D01*
X169316929Y-113607971D01*
X169342589Y-113625116D01*
X169369070Y-113637465D01*
X169385179Y-113653574D01*
X169406308Y-113667692D01*
X169420425Y-113688820D01*
X169436534Y-113704929D01*
X169448881Y-113731408D01*
X169466029Y-113757071D01*
X169469882Y-113776442D01*
X169477336Y-113792427D01*
X169485699Y-113855961D01*
X169487000Y-113862500D01*
X169487000Y-114337500D01*
X169485702Y-114344023D01*
X169477337Y-114407569D01*
X169469882Y-114423554D01*
X169466029Y-114442929D01*
X169448879Y-114468594D01*
X169436534Y-114495070D01*
X169420427Y-114511176D01*
X169406308Y-114532308D01*
X169385176Y-114546427D01*
X169369070Y-114562534D01*
X169342593Y-114574880D01*
X169316929Y-114592029D01*
X169297555Y-114595882D01*
X169281572Y-114603336D01*
X169218040Y-114611699D01*
X169211500Y-114613000D01*
X168611500Y-114613000D01*
X168604978Y-114611702D01*
X168541430Y-114603337D01*
X168525444Y-114595882D01*
X168506071Y-114592029D01*
X168480407Y-114574881D01*
X168453929Y-114562534D01*
X168437820Y-114546425D01*
X168416692Y-114532308D01*
X168402574Y-114511179D01*
X168386465Y-114495070D01*
X168374116Y-114468588D01*
X168356971Y-114442929D01*
X168353118Y-114423559D01*
X168345663Y-114407572D01*
X168337297Y-114344025D01*
X168336000Y-114337500D01*
X168336000Y-113862500D01*
X168337294Y-113855992D01*
X168345662Y-113792430D01*
X168353118Y-113776440D01*
X168356971Y-113757071D01*
X168374115Y-113731412D01*
X168386465Y-113704929D01*
X168402576Y-113688817D01*
X168416692Y-113667692D01*
X168437817Y-113653576D01*
X168453929Y-113637465D01*
X168480413Y-113625114D01*
X168506071Y-113607971D01*
X168525439Y-113604118D01*
X168541427Y-113596663D01*
X168604976Y-113588297D01*
X168611500Y-113587000D01*
X169211500Y-113587000D01*
X169218009Y-113588294D01*
G37*
G36*
X171359884Y-113392953D02*
G01*
X171481514Y-113463176D01*
X171580824Y-113562486D01*
X171651047Y-113684116D01*
X171687397Y-113819777D01*
X171687397Y-113960223D01*
X171651047Y-114095884D01*
X171580824Y-114217514D01*
X171481514Y-114316824D01*
X171359884Y-114387047D01*
X171224223Y-114423397D01*
X171083777Y-114423397D01*
X170948116Y-114387047D01*
X170826486Y-114316824D01*
X170727176Y-114217514D01*
X170656953Y-114095884D01*
X170620603Y-113960223D01*
X170620603Y-113819777D01*
X170656953Y-113684116D01*
X170727176Y-113562486D01*
X170826486Y-113463176D01*
X170948116Y-113392953D01*
X171083777Y-113356603D01*
X171224223Y-113356603D01*
X171359884Y-113392953D01*
G37*
G36*
X161320944Y-112063811D02*
G01*
X161381936Y-112104564D01*
X161422689Y-112165556D01*
X161437000Y-112237500D01*
X161437000Y-113412500D01*
X161422689Y-113484444D01*
X161381936Y-113545436D01*
X161320944Y-113586189D01*
X161249000Y-113600500D01*
X160949000Y-113600500D01*
X160877056Y-113586189D01*
X160816064Y-113545436D01*
X160775311Y-113484444D01*
X160761000Y-113412500D01*
X160761000Y-112237500D01*
X160775311Y-112165556D01*
X160816064Y-112104564D01*
X160877056Y-112063811D01*
X160949000Y-112049500D01*
X161249000Y-112049500D01*
X161320944Y-112063811D01*
G37*
G36*
X163220944Y-112063811D02*
G01*
X163281936Y-112104564D01*
X163322689Y-112165556D01*
X163337000Y-112237500D01*
X163337000Y-113412500D01*
X163322689Y-113484444D01*
X163281936Y-113545436D01*
X163220944Y-113586189D01*
X163149000Y-113600500D01*
X162849000Y-113600500D01*
X162777056Y-113586189D01*
X162716064Y-113545436D01*
X162675311Y-113484444D01*
X162661000Y-113412500D01*
X162661000Y-112237500D01*
X162675311Y-112165556D01*
X162716064Y-112104564D01*
X162777056Y-112063811D01*
X162849000Y-112049500D01*
X163149000Y-112049500D01*
X163220944Y-112063811D01*
G37*
G36*
X171359884Y-112122953D02*
G01*
X171481514Y-112193176D01*
X171580824Y-112292486D01*
X171651047Y-112414116D01*
X171687397Y-112549777D01*
X171687397Y-112690223D01*
X171651047Y-112825884D01*
X171580824Y-112947514D01*
X171481514Y-113046824D01*
X171359884Y-113117047D01*
X171224223Y-113153397D01*
X171083777Y-113153397D01*
X170948116Y-113117047D01*
X170826486Y-113046824D01*
X170727176Y-112947514D01*
X170656953Y-112825884D01*
X170620603Y-112690223D01*
X170620603Y-112549777D01*
X170656953Y-112414116D01*
X170727176Y-112292486D01*
X170826486Y-112193176D01*
X170948116Y-112122953D01*
X171083777Y-112086603D01*
X171224223Y-112086603D01*
X171359884Y-112122953D01*
G37*
G36*
X167468009Y-112050794D02*
G01*
X167531569Y-112059162D01*
X167547557Y-112066617D01*
X167566929Y-112070471D01*
X167592589Y-112087616D01*
X167619070Y-112099965D01*
X167635179Y-112116074D01*
X167656308Y-112130192D01*
X167670425Y-112151320D01*
X167686534Y-112167429D01*
X167698881Y-112193908D01*
X167716029Y-112219571D01*
X167719882Y-112238942D01*
X167727336Y-112254927D01*
X167735699Y-112318461D01*
X167737000Y-112325000D01*
X167737000Y-112800000D01*
X167735702Y-112806523D01*
X167727337Y-112870069D01*
X167719882Y-112886054D01*
X167716029Y-112905429D01*
X167698879Y-112931094D01*
X167686534Y-112957570D01*
X167670427Y-112973676D01*
X167656308Y-112994808D01*
X167635176Y-113008927D01*
X167619070Y-113025034D01*
X167592593Y-113037380D01*
X167566929Y-113054529D01*
X167547555Y-113058382D01*
X167531572Y-113065836D01*
X167468040Y-113074199D01*
X167461500Y-113075500D01*
X166861500Y-113075500D01*
X166854978Y-113074202D01*
X166791430Y-113065837D01*
X166775444Y-113058382D01*
X166756071Y-113054529D01*
X166730407Y-113037381D01*
X166703929Y-113025034D01*
X166687820Y-113008925D01*
X166666692Y-112994808D01*
X166652574Y-112973679D01*
X166636465Y-112957570D01*
X166624116Y-112931088D01*
X166606971Y-112905429D01*
X166603118Y-112886059D01*
X166595663Y-112870072D01*
X166587297Y-112806525D01*
X166586000Y-112800000D01*
X166586000Y-112325000D01*
X166587294Y-112318492D01*
X166595662Y-112254930D01*
X166603118Y-112238940D01*
X166606971Y-112219571D01*
X166624115Y-112193912D01*
X166636465Y-112167429D01*
X166652576Y-112151317D01*
X166666692Y-112130192D01*
X166687817Y-112116076D01*
X166703929Y-112099965D01*
X166730413Y-112087614D01*
X166756071Y-112070471D01*
X166775439Y-112066618D01*
X166791427Y-112059163D01*
X166854976Y-112050797D01*
X166861500Y-112049500D01*
X167461500Y-112049500D01*
X167468009Y-112050794D01*
G37*
G36*
X169193009Y-112050794D02*
G01*
X169256569Y-112059162D01*
X169272557Y-112066617D01*
X169291929Y-112070471D01*
X169317589Y-112087616D01*
X169344070Y-112099965D01*
X169360179Y-112116074D01*
X169381308Y-112130192D01*
X169395425Y-112151320D01*
X169411534Y-112167429D01*
X169423881Y-112193908D01*
X169441029Y-112219571D01*
X169444882Y-112238942D01*
X169452336Y-112254927D01*
X169460699Y-112318461D01*
X169462000Y-112325000D01*
X169462000Y-112800000D01*
X169460702Y-112806523D01*
X169452337Y-112870069D01*
X169444882Y-112886054D01*
X169441029Y-112905429D01*
X169423879Y-112931094D01*
X169411534Y-112957570D01*
X169395427Y-112973676D01*
X169381308Y-112994808D01*
X169360176Y-113008927D01*
X169344070Y-113025034D01*
X169317593Y-113037380D01*
X169291929Y-113054529D01*
X169272555Y-113058382D01*
X169256572Y-113065836D01*
X169193040Y-113074199D01*
X169186500Y-113075500D01*
X168586500Y-113075500D01*
X168579978Y-113074202D01*
X168516430Y-113065837D01*
X168500444Y-113058382D01*
X168481071Y-113054529D01*
X168455407Y-113037381D01*
X168428929Y-113025034D01*
X168412820Y-113008925D01*
X168391692Y-112994808D01*
X168377574Y-112973679D01*
X168361465Y-112957570D01*
X168349116Y-112931088D01*
X168331971Y-112905429D01*
X168328118Y-112886059D01*
X168320663Y-112870072D01*
X168312297Y-112806525D01*
X168311000Y-112800000D01*
X168311000Y-112325000D01*
X168312294Y-112318492D01*
X168320662Y-112254930D01*
X168328118Y-112238940D01*
X168331971Y-112219571D01*
X168349115Y-112193912D01*
X168361465Y-112167429D01*
X168377576Y-112151317D01*
X168391692Y-112130192D01*
X168412817Y-112116076D01*
X168428929Y-112099965D01*
X168455413Y-112087614D01*
X168481071Y-112070471D01*
X168500439Y-112066618D01*
X168516427Y-112059163D01*
X168579976Y-112050797D01*
X168586500Y-112049500D01*
X169186500Y-112049500D01*
X169193009Y-112050794D01*
G37*
G36*
X159245792Y-110946898D02*
G01*
X159255742Y-110946898D01*
X159294624Y-110954632D01*
X159396280Y-110970733D01*
X159428978Y-110981357D01*
X159455315Y-110986596D01*
X159492477Y-111001989D01*
X159551169Y-111021059D01*
X159606155Y-111049075D01*
X159643310Y-111064466D01*
X159665632Y-111079381D01*
X159696270Y-111094992D01*
X159779544Y-111155494D01*
X159812500Y-111177515D01*
X159819534Y-111184549D01*
X159828026Y-111190719D01*
X159943180Y-111305873D01*
X159949349Y-111314364D01*
X159956385Y-111321400D01*
X159978408Y-111354360D01*
X160038907Y-111437629D01*
X160054516Y-111468264D01*
X160069434Y-111490590D01*
X160084826Y-111527750D01*
X160112840Y-111582730D01*
X160131907Y-111641415D01*
X160147304Y-111678585D01*
X160152543Y-111704926D01*
X160163166Y-111737619D01*
X160179266Y-111839267D01*
X160187002Y-111878158D01*
X160187002Y-111888108D01*
X160188644Y-111898475D01*
X160188644Y-112061324D01*
X160187002Y-112071690D01*
X160187002Y-112081642D01*
X160179265Y-112120536D01*
X160163166Y-112222180D01*
X160152544Y-112254870D01*
X160147304Y-112281215D01*
X160131906Y-112318388D01*
X160112840Y-112377069D01*
X160084828Y-112432044D01*
X160069434Y-112469210D01*
X160054514Y-112491538D01*
X160038907Y-112522170D01*
X159978416Y-112605427D01*
X159956385Y-112638400D01*
X159949346Y-112645438D01*
X159943180Y-112653926D01*
X159828026Y-112769080D01*
X159819538Y-112775246D01*
X159812500Y-112782285D01*
X159779527Y-112804316D01*
X159696270Y-112864807D01*
X159665638Y-112880414D01*
X159643310Y-112895334D01*
X159606144Y-112910728D01*
X159551169Y-112938740D01*
X159492488Y-112957806D01*
X159455315Y-112973204D01*
X159428970Y-112978444D01*
X159396280Y-112989066D01*
X159294633Y-113005165D01*
X159255742Y-113012902D01*
X159245792Y-113012902D01*
X159235425Y-113014544D01*
X159072575Y-113014544D01*
X159062208Y-113012902D01*
X159052258Y-113012902D01*
X159013367Y-113005166D01*
X158911719Y-112989066D01*
X158879026Y-112978443D01*
X158852685Y-112973204D01*
X158815515Y-112957807D01*
X158756830Y-112938740D01*
X158701850Y-112910726D01*
X158664690Y-112895334D01*
X158642364Y-112880416D01*
X158611729Y-112864807D01*
X158528460Y-112804308D01*
X158495500Y-112782285D01*
X158488464Y-112775249D01*
X158479973Y-112769080D01*
X158364819Y-112653926D01*
X158358649Y-112645434D01*
X158351615Y-112638400D01*
X158329594Y-112605444D01*
X158269092Y-112522170D01*
X158253481Y-112491532D01*
X158238566Y-112469210D01*
X158223175Y-112432055D01*
X158195159Y-112377069D01*
X158176089Y-112318377D01*
X158160696Y-112281215D01*
X158155457Y-112254878D01*
X158144833Y-112222180D01*
X158128732Y-112120527D01*
X158120998Y-112081642D01*
X158120998Y-112071691D01*
X158119356Y-112061324D01*
X158119356Y-111898475D01*
X158120998Y-111888107D01*
X158120998Y-111878158D01*
X158128732Y-111839276D01*
X158144833Y-111737619D01*
X158155457Y-111704918D01*
X158160696Y-111678585D01*
X158176087Y-111641426D01*
X158195159Y-111582730D01*
X158223178Y-111527739D01*
X158238566Y-111490590D01*
X158253479Y-111468271D01*
X158269092Y-111437629D01*
X158329602Y-111354343D01*
X158351615Y-111321400D01*
X158358646Y-111314368D01*
X158364819Y-111305873D01*
X158479973Y-111190719D01*
X158488468Y-111184546D01*
X158495500Y-111177515D01*
X158528443Y-111155502D01*
X158611729Y-111094992D01*
X158642371Y-111079379D01*
X158664690Y-111064466D01*
X158701839Y-111049078D01*
X158756830Y-111021059D01*
X158815526Y-111001987D01*
X158852685Y-110986596D01*
X158879018Y-110981357D01*
X158911719Y-110970733D01*
X159013376Y-110954632D01*
X159052258Y-110946898D01*
X159062208Y-110946898D01*
X159072575Y-110945256D01*
X159235425Y-110945256D01*
X159245792Y-110946898D01*
G37*
G36*
X166064938Y-111099650D02*
G01*
X166069675Y-111101741D01*
X166072305Y-111102088D01*
X166105212Y-111117433D01*
X166161759Y-111142401D01*
X166236599Y-111217241D01*
X166261571Y-111273798D01*
X166276910Y-111306691D01*
X166277256Y-111309319D01*
X166279350Y-111314062D01*
X166287000Y-111380000D01*
X166287000Y-112620000D01*
X166279350Y-112685938D01*
X166277256Y-112690678D01*
X166276911Y-112693305D01*
X166261584Y-112726172D01*
X166236599Y-112782759D01*
X166161759Y-112857599D01*
X166105182Y-112882580D01*
X166072308Y-112897910D01*
X166069680Y-112898255D01*
X166064938Y-112900350D01*
X165999000Y-112908000D01*
X164309000Y-112908000D01*
X164243062Y-112900350D01*
X164238321Y-112898256D01*
X164235694Y-112897911D01*
X164202809Y-112882576D01*
X164146241Y-112857599D01*
X164071401Y-112782759D01*
X164046437Y-112726222D01*
X164031089Y-112693308D01*
X164030742Y-112690677D01*
X164028650Y-112685938D01*
X164021000Y-112620000D01*
X164021000Y-111380000D01*
X164028650Y-111314062D01*
X164030741Y-111309324D01*
X164031088Y-111306694D01*
X164046441Y-111273768D01*
X164071401Y-111217241D01*
X164146241Y-111142401D01*
X164202758Y-111117445D01*
X164235691Y-111102089D01*
X164238322Y-111101742D01*
X164243062Y-111099650D01*
X164309000Y-111092000D01*
X165999000Y-111092000D01*
X166064938Y-111099650D01*
G37*
G36*
X171359884Y-110852953D02*
G01*
X171481514Y-110923176D01*
X171580824Y-111022486D01*
X171651047Y-111144116D01*
X171687397Y-111279777D01*
X171687397Y-111420223D01*
X171651047Y-111555884D01*
X171580824Y-111677514D01*
X171481514Y-111776824D01*
X171359884Y-111847047D01*
X171224223Y-111883397D01*
X171083777Y-111883397D01*
X170948116Y-111847047D01*
X170826486Y-111776824D01*
X170727176Y-111677514D01*
X170656953Y-111555884D01*
X170620603Y-111420223D01*
X170620603Y-111279777D01*
X170656953Y-111144116D01*
X170727176Y-111022486D01*
X170826486Y-110923176D01*
X170948116Y-110852953D01*
X171083777Y-110816603D01*
X171224223Y-110816603D01*
X171359884Y-110852953D01*
G37*
G36*
X171359884Y-109582953D02*
G01*
X171481514Y-109653176D01*
X171580824Y-109752486D01*
X171651047Y-109874116D01*
X171687397Y-110009777D01*
X171687397Y-110150223D01*
X171651047Y-110285884D01*
X171580824Y-110407514D01*
X171481514Y-110506824D01*
X171359884Y-110577047D01*
X171224223Y-110613397D01*
X171083777Y-110613397D01*
X170948116Y-110577047D01*
X170826486Y-110506824D01*
X170727176Y-110407514D01*
X170656953Y-110285884D01*
X170620603Y-110150223D01*
X170620603Y-110009777D01*
X170656953Y-109874116D01*
X170727176Y-109752486D01*
X170826486Y-109653176D01*
X170948116Y-109582953D01*
X171083777Y-109546603D01*
X171224223Y-109546603D01*
X171359884Y-109582953D01*
G37*
G36*
X164858444Y-108976311D02*
G01*
X164919436Y-109017064D01*
X164960189Y-109078056D01*
X164974500Y-109150000D01*
X164974500Y-109450000D01*
X164960189Y-109521944D01*
X164919436Y-109582936D01*
X164858444Y-109623689D01*
X164786500Y-109638000D01*
X163611500Y-109638000D01*
X163539556Y-109623689D01*
X163478564Y-109582936D01*
X163437811Y-109521944D01*
X163423500Y-109450000D01*
X163423500Y-109150000D01*
X163437811Y-109078056D01*
X163478564Y-109017064D01*
X163539556Y-108976311D01*
X163611500Y-108962000D01*
X164786500Y-108962000D01*
X164858444Y-108976311D01*
G37*
G36*
X171359884Y-108312953D02*
G01*
X171481514Y-108383176D01*
X171580824Y-108482486D01*
X171651047Y-108604116D01*
X171687397Y-108739777D01*
X171687397Y-108880223D01*
X171651047Y-109015884D01*
X171580824Y-109137514D01*
X171481514Y-109236824D01*
X171359884Y-109307047D01*
X171224223Y-109343397D01*
X171083777Y-109343397D01*
X170948116Y-109307047D01*
X170826486Y-109236824D01*
X170727176Y-109137514D01*
X170656953Y-109015884D01*
X170620603Y-108880223D01*
X170620603Y-108739777D01*
X170656953Y-108604116D01*
X170727176Y-108482486D01*
X170826486Y-108383176D01*
X170948116Y-108312953D01*
X171083777Y-108276603D01*
X171224223Y-108276603D01*
X171359884Y-108312953D01*
G37*
G36*
X159359884Y-108302953D02*
G01*
X159481514Y-108373176D01*
X159580824Y-108472486D01*
X159651047Y-108594116D01*
X159687397Y-108729777D01*
X159687397Y-108870223D01*
X159651047Y-109005884D01*
X159580824Y-109127514D01*
X159481514Y-109226824D01*
X159359884Y-109297047D01*
X159224223Y-109333397D01*
X159083777Y-109333397D01*
X158948116Y-109297047D01*
X158826486Y-109226824D01*
X158727176Y-109127514D01*
X158656953Y-109005884D01*
X158620603Y-108870223D01*
X158620603Y-108729777D01*
X158656953Y-108594116D01*
X158727176Y-108472486D01*
X158826486Y-108373176D01*
X158948116Y-108302953D01*
X159083777Y-108266603D01*
X159224223Y-108266603D01*
X159359884Y-108302953D01*
G37*
G36*
X166733444Y-108026311D02*
G01*
X166794436Y-108067064D01*
X166835189Y-108128056D01*
X166849500Y-108200000D01*
X166849500Y-108500000D01*
X166835189Y-108571944D01*
X166794436Y-108632936D01*
X166733444Y-108673689D01*
X166661500Y-108688000D01*
X165486500Y-108688000D01*
X165414556Y-108673689D01*
X165353564Y-108632936D01*
X165312811Y-108571944D01*
X165298500Y-108500000D01*
X165298500Y-108200000D01*
X165312811Y-108128056D01*
X165353564Y-108067064D01*
X165414556Y-108026311D01*
X165486500Y-108012000D01*
X166661500Y-108012000D01*
X166733444Y-108026311D01*
G37*
G36*
X171359884Y-107042953D02*
G01*
X171481514Y-107113176D01*
X171580824Y-107212486D01*
X171651047Y-107334116D01*
X171687397Y-107469777D01*
X171687397Y-107610223D01*
X171651047Y-107745884D01*
X171580824Y-107867514D01*
X171481514Y-107966824D01*
X171359884Y-108037047D01*
X171224223Y-108073397D01*
X171083777Y-108073397D01*
X170948116Y-108037047D01*
X170826486Y-107966824D01*
X170727176Y-107867514D01*
X170656953Y-107745884D01*
X170620603Y-107610223D01*
X170620603Y-107469777D01*
X170656953Y-107334116D01*
X170727176Y-107212486D01*
X170826486Y-107113176D01*
X170948116Y-107042953D01*
X171083777Y-107006603D01*
X171224223Y-107006603D01*
X171359884Y-107042953D01*
G37*
G36*
X159359884Y-107032953D02*
G01*
X159481514Y-107103176D01*
X159580824Y-107202486D01*
X159651047Y-107324116D01*
X159687397Y-107459777D01*
X159687397Y-107600223D01*
X159651047Y-107735884D01*
X159580824Y-107857514D01*
X159481514Y-107956824D01*
X159359884Y-108027047D01*
X159224223Y-108063397D01*
X159083777Y-108063397D01*
X158948116Y-108027047D01*
X158826486Y-107956824D01*
X158727176Y-107857514D01*
X158656953Y-107735884D01*
X158620603Y-107600223D01*
X158620603Y-107459777D01*
X158656953Y-107324116D01*
X158727176Y-107202486D01*
X158826486Y-107103176D01*
X158948116Y-107032953D01*
X159083777Y-106996603D01*
X159224223Y-106996603D01*
X159359884Y-107032953D01*
G37*
G36*
X164858444Y-107076311D02*
G01*
X164919436Y-107117064D01*
X164960189Y-107178056D01*
X164974500Y-107250000D01*
X164974500Y-107550000D01*
X164960189Y-107621944D01*
X164919436Y-107682936D01*
X164858444Y-107723689D01*
X164786500Y-107738000D01*
X163611500Y-107738000D01*
X163539556Y-107723689D01*
X163478564Y-107682936D01*
X163437811Y-107621944D01*
X163423500Y-107550000D01*
X163423500Y-107250000D01*
X163437811Y-107178056D01*
X163478564Y-107117064D01*
X163539556Y-107076311D01*
X163611500Y-107062000D01*
X164786500Y-107062000D01*
X164858444Y-107076311D01*
G37*
G36*
X171359884Y-105772953D02*
G01*
X171481514Y-105843176D01*
X171580824Y-105942486D01*
X171651047Y-106064116D01*
X171687397Y-106199777D01*
X171687397Y-106340223D01*
X171651047Y-106475884D01*
X171580824Y-106597514D01*
X171481514Y-106696824D01*
X171359884Y-106767047D01*
X171224223Y-106803397D01*
X171083777Y-106803397D01*
X170948116Y-106767047D01*
X170826486Y-106696824D01*
X170727176Y-106597514D01*
X170656953Y-106475884D01*
X170620603Y-106340223D01*
X170620603Y-106199777D01*
X170656953Y-106064116D01*
X170727176Y-105942486D01*
X170826486Y-105843176D01*
X170948116Y-105772953D01*
X171083777Y-105736603D01*
X171224223Y-105736603D01*
X171359884Y-105772953D01*
G37*
G36*
X159359884Y-105762953D02*
G01*
X159481514Y-105833176D01*
X159580824Y-105932486D01*
X159651047Y-106054116D01*
X159687397Y-106189777D01*
X159687397Y-106330223D01*
X159651047Y-106465884D01*
X159580824Y-106587514D01*
X159481514Y-106686824D01*
X159359884Y-106757047D01*
X159224223Y-106793397D01*
X159083777Y-106793397D01*
X158948116Y-106757047D01*
X158826486Y-106686824D01*
X158727176Y-106587514D01*
X158656953Y-106465884D01*
X158620603Y-106330223D01*
X158620603Y-106189777D01*
X158656953Y-106054116D01*
X158727176Y-105932486D01*
X158826486Y-105833176D01*
X158948116Y-105762953D01*
X159083777Y-105726603D01*
X159224223Y-105726603D01*
X159359884Y-105762953D01*
G37*
G36*
X164858444Y-105576311D02*
G01*
X164919436Y-105617064D01*
X164960189Y-105678056D01*
X164974500Y-105750000D01*
X164974500Y-106050000D01*
X164960189Y-106121944D01*
X164919436Y-106182936D01*
X164858444Y-106223689D01*
X164786500Y-106238000D01*
X163611500Y-106238000D01*
X163539556Y-106223689D01*
X163478564Y-106182936D01*
X163437811Y-106121944D01*
X163423500Y-106050000D01*
X163423500Y-105750000D01*
X163437811Y-105678056D01*
X163478564Y-105617064D01*
X163539556Y-105576311D01*
X163611500Y-105562000D01*
X164786500Y-105562000D01*
X164858444Y-105576311D01*
G37*
G36*
X171359884Y-104502953D02*
G01*
X171481514Y-104573176D01*
X171580824Y-104672486D01*
X171651047Y-104794116D01*
X171687397Y-104929777D01*
X171687397Y-105070223D01*
X171651047Y-105205884D01*
X171580824Y-105327514D01*
X171481514Y-105426824D01*
X171359884Y-105497047D01*
X171224223Y-105533397D01*
X171083777Y-105533397D01*
X170948116Y-105497047D01*
X170826486Y-105426824D01*
X170727176Y-105327514D01*
X170656953Y-105205884D01*
X170620603Y-105070223D01*
X170620603Y-104929777D01*
X170656953Y-104794116D01*
X170727176Y-104672486D01*
X170826486Y-104573176D01*
X170948116Y-104502953D01*
X171083777Y-104466603D01*
X171224223Y-104466603D01*
X171359884Y-104502953D01*
G37*
G36*
X159359884Y-104492953D02*
G01*
X159481514Y-104563176D01*
X159580824Y-104662486D01*
X159651047Y-104784116D01*
X159687397Y-104919777D01*
X159687397Y-105060223D01*
X159651047Y-105195884D01*
X159580824Y-105317514D01*
X159481514Y-105416824D01*
X159359884Y-105487047D01*
X159224223Y-105523397D01*
X159083777Y-105523397D01*
X158948116Y-105487047D01*
X158826486Y-105416824D01*
X158727176Y-105317514D01*
X158656953Y-105195884D01*
X158620603Y-105060223D01*
X158620603Y-104919777D01*
X158656953Y-104784116D01*
X158727176Y-104662486D01*
X158826486Y-104563176D01*
X158948116Y-104492953D01*
X159083777Y-104456603D01*
X159224223Y-104456603D01*
X159359884Y-104492953D01*
G37*
G36*
X166733444Y-104626311D02*
G01*
X166794436Y-104667064D01*
X166835189Y-104728056D01*
X166849500Y-104800000D01*
X166849500Y-105100000D01*
X166835189Y-105171944D01*
X166794436Y-105232936D01*
X166733444Y-105273689D01*
X166661500Y-105288000D01*
X165486500Y-105288000D01*
X165414556Y-105273689D01*
X165353564Y-105232936D01*
X165312811Y-105171944D01*
X165298500Y-105100000D01*
X165298500Y-104800000D01*
X165312811Y-104728056D01*
X165353564Y-104667064D01*
X165414556Y-104626311D01*
X165486500Y-104612000D01*
X166661500Y-104612000D01*
X166733444Y-104626311D01*
G37*
G36*
X164858444Y-103676311D02*
G01*
X164919436Y-103717064D01*
X164960189Y-103778056D01*
X164974500Y-103850000D01*
X164974500Y-104150000D01*
X164960189Y-104221944D01*
X164919436Y-104282936D01*
X164858444Y-104323689D01*
X164786500Y-104338000D01*
X163611500Y-104338000D01*
X163539556Y-104323689D01*
X163478564Y-104282936D01*
X163437811Y-104221944D01*
X163423500Y-104150000D01*
X163423500Y-103850000D01*
X163437811Y-103778056D01*
X163478564Y-103717064D01*
X163539556Y-103676311D01*
X163611500Y-103662000D01*
X164786500Y-103662000D01*
X164858444Y-103676311D01*
G37*
G36*
X159359884Y-103222953D02*
G01*
X159481514Y-103293176D01*
X159580824Y-103392486D01*
X159651047Y-103514116D01*
X159687397Y-103649777D01*
X159687397Y-103790223D01*
X159651047Y-103925884D01*
X159580824Y-104047514D01*
X159481514Y-104146824D01*
X159359884Y-104217047D01*
X159224223Y-104253397D01*
X159083777Y-104253397D01*
X158948116Y-104217047D01*
X158826486Y-104146824D01*
X158727176Y-104047514D01*
X158656953Y-103925884D01*
X158620603Y-103790223D01*
X158620603Y-103649777D01*
X158656953Y-103514116D01*
X158727176Y-103392486D01*
X158826486Y-103293176D01*
X158948116Y-103222953D01*
X159083777Y-103186603D01*
X159224223Y-103186603D01*
X159359884Y-103222953D01*
G37*
G36*
X159359884Y-101952953D02*
G01*
X159481514Y-102023176D01*
X159580824Y-102122486D01*
X159651047Y-102244116D01*
X159687397Y-102379777D01*
X159687397Y-102520223D01*
X159651047Y-102655884D01*
X159580824Y-102777514D01*
X159481514Y-102876824D01*
X159359884Y-102947047D01*
X159224223Y-102983397D01*
X159083777Y-102983397D01*
X158948116Y-102947047D01*
X158826486Y-102876824D01*
X158727176Y-102777514D01*
X158656953Y-102655884D01*
X158620603Y-102520223D01*
X158620603Y-102379777D01*
X158656953Y-102244116D01*
X158727176Y-102122486D01*
X158826486Y-102023176D01*
X158948116Y-101952953D01*
X159083777Y-101916603D01*
X159224223Y-101916603D01*
X159359884Y-101952953D01*
G37*
G36*
X171245792Y-100787098D02*
G01*
X171255742Y-100787098D01*
X171294624Y-100794832D01*
X171396280Y-100810933D01*
X171428978Y-100821557D01*
X171455315Y-100826796D01*
X171492477Y-100842189D01*
X171551169Y-100861259D01*
X171606155Y-100889275D01*
X171643310Y-100904666D01*
X171665632Y-100919581D01*
X171696270Y-100935192D01*
X171779544Y-100995694D01*
X171812500Y-101017715D01*
X171819534Y-101024749D01*
X171828026Y-101030919D01*
X171943180Y-101146073D01*
X171949349Y-101154564D01*
X171956385Y-101161600D01*
X171978408Y-101194560D01*
X172038907Y-101277829D01*
X172054516Y-101308464D01*
X172069434Y-101330790D01*
X172084826Y-101367950D01*
X172112840Y-101422930D01*
X172131907Y-101481615D01*
X172147304Y-101518785D01*
X172152543Y-101545126D01*
X172163166Y-101577819D01*
X172179266Y-101679467D01*
X172187002Y-101718358D01*
X172187002Y-101728308D01*
X172188644Y-101738675D01*
X172188644Y-101901524D01*
X172187002Y-101911890D01*
X172187002Y-101921842D01*
X172179265Y-101960736D01*
X172163166Y-102062380D01*
X172152544Y-102095070D01*
X172147304Y-102121415D01*
X172131906Y-102158588D01*
X172112840Y-102217269D01*
X172084828Y-102272244D01*
X172069434Y-102309410D01*
X172054514Y-102331738D01*
X172038907Y-102362370D01*
X171978416Y-102445627D01*
X171956385Y-102478600D01*
X171949346Y-102485638D01*
X171943180Y-102494126D01*
X171828026Y-102609280D01*
X171819538Y-102615446D01*
X171812500Y-102622485D01*
X171779527Y-102644516D01*
X171696270Y-102705007D01*
X171665638Y-102720614D01*
X171643310Y-102735534D01*
X171606144Y-102750928D01*
X171551169Y-102778940D01*
X171492488Y-102798006D01*
X171455315Y-102813404D01*
X171428970Y-102818644D01*
X171396280Y-102829266D01*
X171294633Y-102845365D01*
X171255742Y-102853102D01*
X171245792Y-102853102D01*
X171235425Y-102854744D01*
X171072575Y-102854744D01*
X171062208Y-102853102D01*
X171052258Y-102853102D01*
X171013367Y-102845366D01*
X170911719Y-102829266D01*
X170879026Y-102818643D01*
X170852685Y-102813404D01*
X170815515Y-102798007D01*
X170756830Y-102778940D01*
X170701850Y-102750926D01*
X170664690Y-102735534D01*
X170642364Y-102720616D01*
X170611729Y-102705007D01*
X170528460Y-102644508D01*
X170495500Y-102622485D01*
X170488464Y-102615449D01*
X170479973Y-102609280D01*
X170364819Y-102494126D01*
X170358649Y-102485634D01*
X170351615Y-102478600D01*
X170329594Y-102445644D01*
X170269092Y-102362370D01*
X170253481Y-102331732D01*
X170238566Y-102309410D01*
X170223175Y-102272255D01*
X170195159Y-102217269D01*
X170176089Y-102158577D01*
X170160696Y-102121415D01*
X170155457Y-102095078D01*
X170144833Y-102062380D01*
X170128732Y-101960727D01*
X170120998Y-101921842D01*
X170120998Y-101911891D01*
X170119356Y-101901524D01*
X170119356Y-101738675D01*
X170120998Y-101728307D01*
X170120998Y-101718358D01*
X170128732Y-101679476D01*
X170144833Y-101577819D01*
X170155457Y-101545118D01*
X170160696Y-101518785D01*
X170176087Y-101481626D01*
X170195159Y-101422930D01*
X170223178Y-101367939D01*
X170238566Y-101330790D01*
X170253479Y-101308471D01*
X170269092Y-101277829D01*
X170329602Y-101194543D01*
X170351615Y-101161600D01*
X170358646Y-101154568D01*
X170364819Y-101146073D01*
X170479973Y-101030919D01*
X170488468Y-101024746D01*
X170495500Y-101017715D01*
X170528443Y-100995702D01*
X170611729Y-100935192D01*
X170642371Y-100919579D01*
X170664690Y-100904666D01*
X170701839Y-100889278D01*
X170756830Y-100861259D01*
X170815526Y-100842187D01*
X170852685Y-100826796D01*
X170879018Y-100821557D01*
X170911719Y-100810933D01*
X171013376Y-100794832D01*
X171052258Y-100787098D01*
X171062208Y-100787098D01*
X171072575Y-100785456D01*
X171235425Y-100785456D01*
X171245792Y-100787098D01*
G37*
G36*
X166064938Y-100899650D02*
G01*
X166069675Y-100901741D01*
X166072305Y-100902088D01*
X166105212Y-100917433D01*
X166161759Y-100942401D01*
X166236599Y-101017241D01*
X166261571Y-101073798D01*
X166276910Y-101106691D01*
X166277256Y-101109319D01*
X166279350Y-101114062D01*
X166287000Y-101180000D01*
X166287000Y-102420000D01*
X166279350Y-102485938D01*
X166277256Y-102490678D01*
X166276911Y-102493305D01*
X166261584Y-102526172D01*
X166236599Y-102582759D01*
X166161759Y-102657599D01*
X166105182Y-102682580D01*
X166072308Y-102697910D01*
X166069680Y-102698255D01*
X166064938Y-102700350D01*
X165999000Y-102708000D01*
X164309000Y-102708000D01*
X164243062Y-102700350D01*
X164238321Y-102698256D01*
X164235694Y-102697911D01*
X164202809Y-102682576D01*
X164146241Y-102657599D01*
X164071401Y-102582759D01*
X164046437Y-102526222D01*
X164031089Y-102493308D01*
X164030742Y-102490677D01*
X164028650Y-102485938D01*
X164021000Y-102420000D01*
X164021000Y-101180000D01*
X164028650Y-101114062D01*
X164030741Y-101109324D01*
X164031088Y-101106694D01*
X164046441Y-101073768D01*
X164071401Y-101017241D01*
X164146241Y-100942401D01*
X164202758Y-100917445D01*
X164235691Y-100902089D01*
X164238322Y-100901742D01*
X164243062Y-100899650D01*
X164309000Y-100892000D01*
X165999000Y-100892000D01*
X166064938Y-100899650D01*
G37*
G36*
X159359884Y-100682953D02*
G01*
X159481514Y-100753176D01*
X159580824Y-100852486D01*
X159651047Y-100974116D01*
X159687397Y-101109777D01*
X159687397Y-101250223D01*
X159651047Y-101385884D01*
X159580824Y-101507514D01*
X159481514Y-101606824D01*
X159359884Y-101677047D01*
X159224223Y-101713397D01*
X159083777Y-101713397D01*
X158948116Y-101677047D01*
X158826486Y-101606824D01*
X158727176Y-101507514D01*
X158656953Y-101385884D01*
X158620603Y-101250223D01*
X158620603Y-101109777D01*
X158656953Y-100974116D01*
X158727176Y-100852486D01*
X158826486Y-100753176D01*
X158948116Y-100682953D01*
X159083777Y-100646603D01*
X159224223Y-100646603D01*
X159359884Y-100682953D01*
G37*
G36*
X159359884Y-99412953D02*
G01*
X159481514Y-99483176D01*
X159580824Y-99582486D01*
X159651047Y-99704116D01*
X159687397Y-99839777D01*
X159687397Y-99980223D01*
X159651047Y-100115884D01*
X159580824Y-100237514D01*
X159481514Y-100336824D01*
X159359884Y-100407047D01*
X159224223Y-100443397D01*
X159083777Y-100443397D01*
X158948116Y-100407047D01*
X158826486Y-100336824D01*
X158727176Y-100237514D01*
X158656953Y-100115884D01*
X158620603Y-99980223D01*
X158620603Y-99839777D01*
X158656953Y-99704116D01*
X158727176Y-99582486D01*
X158826486Y-99483176D01*
X158948116Y-99412953D01*
X159083777Y-99376603D01*
X159224223Y-99376603D01*
X159359884Y-99412953D01*
G37*
G36*
X165468000Y-98356372D02*
G01*
X165642578Y-98391098D01*
X165807028Y-98459215D01*
X165955029Y-98558107D01*
X166080893Y-98683971D01*
X166179785Y-98831972D01*
X166247902Y-98996422D01*
X166282628Y-99171000D01*
X166282628Y-99349000D01*
X166247902Y-99523578D01*
X166179785Y-99688028D01*
X166080893Y-99836029D01*
X165955029Y-99961893D01*
X165807028Y-100060785D01*
X165642578Y-100128902D01*
X165468000Y-100163628D01*
X165379000Y-100168000D01*
X165377749Y-100168000D01*
X164930251Y-100168000D01*
X164929000Y-100168000D01*
X164840000Y-100163628D01*
X164665422Y-100128902D01*
X164500972Y-100060785D01*
X164352971Y-99961893D01*
X164227107Y-99836029D01*
X164128215Y-99688028D01*
X164060098Y-99523578D01*
X164025372Y-99349000D01*
X164025372Y-99171000D01*
X164060098Y-98996422D01*
X164128215Y-98831972D01*
X164227107Y-98683971D01*
X164352971Y-98558107D01*
X164500972Y-98459215D01*
X164665422Y-98391098D01*
X164840000Y-98356372D01*
X164929000Y-98352000D01*
X165379000Y-98352000D01*
X165468000Y-98356372D01*
G37*
G36*
X159359884Y-98142953D02*
G01*
X159481514Y-98213176D01*
X159580824Y-98312486D01*
X159651047Y-98434116D01*
X159687397Y-98569777D01*
X159687397Y-98710223D01*
X159651047Y-98845884D01*
X159580824Y-98967514D01*
X159481514Y-99066824D01*
X159359884Y-99137047D01*
X159224223Y-99173397D01*
X159083777Y-99173397D01*
X158948116Y-99137047D01*
X158826486Y-99066824D01*
X158727176Y-98967514D01*
X158656953Y-98845884D01*
X158620603Y-98710223D01*
X158620603Y-98569777D01*
X158656953Y-98434116D01*
X158727176Y-98312486D01*
X158826486Y-98213176D01*
X158948116Y-98142953D01*
X159083777Y-98106603D01*
X159224223Y-98106603D01*
X159359884Y-98142953D01*
G37*
G36*
X171359884Y-98142953D02*
G01*
X171481514Y-98213176D01*
X171580824Y-98312486D01*
X171651047Y-98434116D01*
X171687397Y-98569777D01*
X171687397Y-98710223D01*
X171651047Y-98845884D01*
X171580824Y-98967514D01*
X171481514Y-99066824D01*
X171359884Y-99137047D01*
X171224223Y-99173397D01*
X171083777Y-99173397D01*
X170948116Y-99137047D01*
X170826486Y-99066824D01*
X170727176Y-98967514D01*
X170656953Y-98845884D01*
X170620603Y-98710223D01*
X170620603Y-98569777D01*
X170656953Y-98434116D01*
X170727176Y-98312486D01*
X170826486Y-98213176D01*
X170948116Y-98142953D01*
X171083777Y-98106603D01*
X171224223Y-98106603D01*
X171359884Y-98142953D01*
G37*
G36*
X159359884Y-96872953D02*
G01*
X159481514Y-96943176D01*
X159580824Y-97042486D01*
X159651047Y-97164116D01*
X159687397Y-97299777D01*
X159687397Y-97440223D01*
X159651047Y-97575884D01*
X159580824Y-97697514D01*
X159481514Y-97796824D01*
X159359884Y-97867047D01*
X159224223Y-97903397D01*
X159083777Y-97903397D01*
X158948116Y-97867047D01*
X158826486Y-97796824D01*
X158727176Y-97697514D01*
X158656953Y-97575884D01*
X158620603Y-97440223D01*
X158620603Y-97299777D01*
X158656953Y-97164116D01*
X158727176Y-97042486D01*
X158826486Y-96943176D01*
X158948116Y-96872953D01*
X159083777Y-96836603D01*
X159224223Y-96836603D01*
X159359884Y-96872953D01*
G37*
G36*
X171359884Y-96872953D02*
G01*
X171481514Y-96943176D01*
X171580824Y-97042486D01*
X171651047Y-97164116D01*
X171687397Y-97299777D01*
X171687397Y-97440223D01*
X171651047Y-97575884D01*
X171580824Y-97697514D01*
X171481514Y-97796824D01*
X171359884Y-97867047D01*
X171224223Y-97903397D01*
X171083777Y-97903397D01*
X170948116Y-97867047D01*
X170826486Y-97796824D01*
X170727176Y-97697514D01*
X170656953Y-97575884D01*
X170620603Y-97440223D01*
X170620603Y-97299777D01*
X170656953Y-97164116D01*
X170727176Y-97042486D01*
X170826486Y-96943176D01*
X170948116Y-96872953D01*
X171083777Y-96836603D01*
X171224223Y-96836603D01*
X171359884Y-96872953D01*
G37*
G36*
X158200204Y-97200169D02*
G01*
X158256329Y-97237671D01*
X158293831Y-97293796D01*
X158307000Y-97360000D01*
X158307000Y-97630000D01*
X158293831Y-97696204D01*
X158256329Y-97752329D01*
X158200204Y-97789831D01*
X158134000Y-97803000D01*
X157764000Y-97803000D01*
X157697796Y-97789831D01*
X157641671Y-97752329D01*
X157604169Y-97696204D01*
X157591000Y-97630000D01*
X157591000Y-97360000D01*
X157604169Y-97293796D01*
X157641671Y-97237671D01*
X157697796Y-97200169D01*
X157764000Y-97187000D01*
X158134000Y-97187000D01*
X158200204Y-97200169D01*
G37*
G36*
X165468000Y-95816372D02*
G01*
X165642578Y-95851098D01*
X165807028Y-95919215D01*
X165955029Y-96018107D01*
X166080893Y-96143971D01*
X166179785Y-96291972D01*
X166247902Y-96456422D01*
X166282628Y-96631000D01*
X166282628Y-96809000D01*
X166247902Y-96983578D01*
X166179785Y-97148028D01*
X166080893Y-97296029D01*
X165955029Y-97421893D01*
X165807028Y-97520785D01*
X165642578Y-97588902D01*
X165468000Y-97623628D01*
X165379000Y-97628000D01*
X165377749Y-97628000D01*
X164930251Y-97628000D01*
X164929000Y-97628000D01*
X164840000Y-97623628D01*
X164665422Y-97588902D01*
X164500972Y-97520785D01*
X164352971Y-97421893D01*
X164227107Y-97296029D01*
X164128215Y-97148028D01*
X164060098Y-96983578D01*
X164025372Y-96809000D01*
X164025372Y-96631000D01*
X164060098Y-96456422D01*
X164128215Y-96291972D01*
X164227107Y-96143971D01*
X164352971Y-96018107D01*
X164500972Y-95919215D01*
X164665422Y-95851098D01*
X164840000Y-95816372D01*
X164929000Y-95812000D01*
X165379000Y-95812000D01*
X165468000Y-95816372D01*
G37*
G36*
X158200204Y-96180169D02*
G01*
X158256329Y-96217671D01*
X158293831Y-96273796D01*
X158307000Y-96340000D01*
X158307000Y-96610000D01*
X158293831Y-96676204D01*
X158256329Y-96732329D01*
X158200204Y-96769831D01*
X158134000Y-96783000D01*
X157764000Y-96783000D01*
X157697796Y-96769831D01*
X157641671Y-96732329D01*
X157604169Y-96676204D01*
X157591000Y-96610000D01*
X157591000Y-96340000D01*
X157604169Y-96273796D01*
X157641671Y-96217671D01*
X157697796Y-96180169D01*
X157764000Y-96167000D01*
X158134000Y-96167000D01*
X158200204Y-96180169D01*
G37*
G36*
X159359884Y-95602953D02*
G01*
X159481514Y-95673176D01*
X159580824Y-95772486D01*
X159651047Y-95894116D01*
X159687397Y-96029777D01*
X159687397Y-96170223D01*
X159651047Y-96305884D01*
X159580824Y-96427514D01*
X159481514Y-96526824D01*
X159359884Y-96597047D01*
X159224223Y-96633397D01*
X159083777Y-96633397D01*
X158948116Y-96597047D01*
X158826486Y-96526824D01*
X158727176Y-96427514D01*
X158656953Y-96305884D01*
X158620603Y-96170223D01*
X158620603Y-96029777D01*
X158656953Y-95894116D01*
X158727176Y-95772486D01*
X158826486Y-95673176D01*
X158948116Y-95602953D01*
X159083777Y-95566603D01*
X159224223Y-95566603D01*
X159359884Y-95602953D01*
G37*
G36*
X171359884Y-95602953D02*
G01*
X171481514Y-95673176D01*
X171580824Y-95772486D01*
X171651047Y-95894116D01*
X171687397Y-96029777D01*
X171687397Y-96170223D01*
X171651047Y-96305884D01*
X171580824Y-96427514D01*
X171481514Y-96526824D01*
X171359884Y-96597047D01*
X171224223Y-96633397D01*
X171083777Y-96633397D01*
X170948116Y-96597047D01*
X170826486Y-96526824D01*
X170727176Y-96427514D01*
X170656953Y-96305884D01*
X170620603Y-96170223D01*
X170620603Y-96029777D01*
X170656953Y-95894116D01*
X170727176Y-95772486D01*
X170826486Y-95673176D01*
X170948116Y-95602953D01*
X171083777Y-95566603D01*
X171224223Y-95566603D01*
X171359884Y-95602953D01*
G37*
G36*
X159359884Y-94332953D02*
G01*
X159481514Y-94403176D01*
X159580824Y-94502486D01*
X159651047Y-94624116D01*
X159687397Y-94759777D01*
X159687397Y-94900223D01*
X159651047Y-95035884D01*
X159580824Y-95157514D01*
X159481514Y-95256824D01*
X159359884Y-95327047D01*
X159224223Y-95363397D01*
X159083777Y-95363397D01*
X158948116Y-95327047D01*
X158826486Y-95256824D01*
X158727176Y-95157514D01*
X158656953Y-95035884D01*
X158620603Y-94900223D01*
X158620603Y-94759777D01*
X158656953Y-94624116D01*
X158727176Y-94502486D01*
X158826486Y-94403176D01*
X158948116Y-94332953D01*
X159083777Y-94296603D01*
X159224223Y-94296603D01*
X159359884Y-94332953D01*
G37*
G36*
X171359884Y-94332953D02*
G01*
X171481514Y-94403176D01*
X171580824Y-94502486D01*
X171651047Y-94624116D01*
X171687397Y-94759777D01*
X171687397Y-94900223D01*
X171651047Y-95035884D01*
X171580824Y-95157514D01*
X171481514Y-95256824D01*
X171359884Y-95327047D01*
X171224223Y-95363397D01*
X171083777Y-95363397D01*
X170948116Y-95327047D01*
X170826486Y-95256824D01*
X170727176Y-95157514D01*
X170656953Y-95035884D01*
X170620603Y-94900223D01*
X170620603Y-94759777D01*
X170656953Y-94624116D01*
X170727176Y-94502486D01*
X170826486Y-94403176D01*
X170948116Y-94332953D01*
X171083777Y-94296603D01*
X171224223Y-94296603D01*
X171359884Y-94332953D01*
G37*
G36*
X165468000Y-93276372D02*
G01*
X165642578Y-93311098D01*
X165807028Y-93379215D01*
X165955029Y-93478107D01*
X166080893Y-93603971D01*
X166179785Y-93751972D01*
X166247902Y-93916422D01*
X166282628Y-94091000D01*
X166282628Y-94269000D01*
X166247902Y-94443578D01*
X166179785Y-94608028D01*
X166080893Y-94756029D01*
X165955029Y-94881893D01*
X165807028Y-94980785D01*
X165642578Y-95048902D01*
X165468000Y-95083628D01*
X165379000Y-95088000D01*
X165377749Y-95088000D01*
X164930251Y-95088000D01*
X164929000Y-95088000D01*
X164840000Y-95083628D01*
X164665422Y-95048902D01*
X164500972Y-94980785D01*
X164352971Y-94881893D01*
X164227107Y-94756029D01*
X164128215Y-94608028D01*
X164060098Y-94443578D01*
X164025372Y-94269000D01*
X164025372Y-94091000D01*
X164060098Y-93916422D01*
X164128215Y-93751972D01*
X164227107Y-93603971D01*
X164352971Y-93478107D01*
X164500972Y-93379215D01*
X164665422Y-93311098D01*
X164840000Y-93276372D01*
X164929000Y-93272000D01*
X165379000Y-93272000D01*
X165468000Y-93276372D01*
G37*
G36*
X159359884Y-93062953D02*
G01*
X159481514Y-93133176D01*
X159580824Y-93232486D01*
X159651047Y-93354116D01*
X159687397Y-93489777D01*
X159687397Y-93630223D01*
X159651047Y-93765884D01*
X159580824Y-93887514D01*
X159481514Y-93986824D01*
X159359884Y-94057047D01*
X159224223Y-94093397D01*
X159083777Y-94093397D01*
X158948116Y-94057047D01*
X158826486Y-93986824D01*
X158727176Y-93887514D01*
X158656953Y-93765884D01*
X158620603Y-93630223D01*
X158620603Y-93489777D01*
X158656953Y-93354116D01*
X158727176Y-93232486D01*
X158826486Y-93133176D01*
X158948116Y-93062953D01*
X159083777Y-93026603D01*
X159224223Y-93026603D01*
X159359884Y-93062953D01*
G37*
G36*
X171359884Y-93062953D02*
G01*
X171481514Y-93133176D01*
X171580824Y-93232486D01*
X171651047Y-93354116D01*
X171687397Y-93489777D01*
X171687397Y-93630223D01*
X171651047Y-93765884D01*
X171580824Y-93887514D01*
X171481514Y-93986824D01*
X171359884Y-94057047D01*
X171224223Y-94093397D01*
X171083777Y-94093397D01*
X170948116Y-94057047D01*
X170826486Y-93986824D01*
X170727176Y-93887514D01*
X170656953Y-93765884D01*
X170620603Y-93630223D01*
X170620603Y-93489777D01*
X170656953Y-93354116D01*
X170727176Y-93232486D01*
X170826486Y-93133176D01*
X170948116Y-93062953D01*
X171083777Y-93026603D01*
X171224223Y-93026603D01*
X171359884Y-93062953D01*
G37*
G36*
X159359884Y-91792953D02*
G01*
X159481514Y-91863176D01*
X159580824Y-91962486D01*
X159651047Y-92084116D01*
X159687397Y-92219777D01*
X159687397Y-92360223D01*
X159651047Y-92495884D01*
X159580824Y-92617514D01*
X159481514Y-92716824D01*
X159359884Y-92787047D01*
X159224223Y-92823397D01*
X159083777Y-92823397D01*
X158948116Y-92787047D01*
X158826486Y-92716824D01*
X158727176Y-92617514D01*
X158656953Y-92495884D01*
X158620603Y-92360223D01*
X158620603Y-92219777D01*
X158656953Y-92084116D01*
X158727176Y-91962486D01*
X158826486Y-91863176D01*
X158948116Y-91792953D01*
X159083777Y-91756603D01*
X159224223Y-91756603D01*
X159359884Y-91792953D01*
G37*
G36*
X171359884Y-91792953D02*
G01*
X171481514Y-91863176D01*
X171580824Y-91962486D01*
X171651047Y-92084116D01*
X171687397Y-92219777D01*
X171687397Y-92360223D01*
X171651047Y-92495884D01*
X171580824Y-92617514D01*
X171481514Y-92716824D01*
X171359884Y-92787047D01*
X171224223Y-92823397D01*
X171083777Y-92823397D01*
X170948116Y-92787047D01*
X170826486Y-92716824D01*
X170727176Y-92617514D01*
X170656953Y-92495884D01*
X170620603Y-92360223D01*
X170620603Y-92219777D01*
X170656953Y-92084116D01*
X170727176Y-91962486D01*
X170826486Y-91863176D01*
X170948116Y-91792953D01*
X171083777Y-91756603D01*
X171224223Y-91756603D01*
X171359884Y-91792953D01*
G37*
G36*
X165642250Y-85647688D02*
G01*
X165958719Y-85710637D01*
X166267494Y-85804303D01*
X166565601Y-85927783D01*
X166850170Y-86079888D01*
X167118459Y-86259154D01*
X167367886Y-86463853D01*
X167596047Y-86692014D01*
X167800746Y-86941441D01*
X167980012Y-87209730D01*
X168132117Y-87494299D01*
X168255597Y-87792406D01*
X168349263Y-88101181D01*
X168412212Y-88417650D01*
X168443839Y-88738765D01*
X168443839Y-89061435D01*
X168412212Y-89382550D01*
X168349263Y-89699019D01*
X168255597Y-90007794D01*
X168132117Y-90305901D01*
X167980012Y-90590470D01*
X167800746Y-90858759D01*
X167596047Y-91108186D01*
X167367886Y-91336347D01*
X167118459Y-91541046D01*
X166850170Y-91720312D01*
X166565601Y-91872417D01*
X166267494Y-91995897D01*
X165958719Y-92089563D01*
X165642250Y-92152512D01*
X165321135Y-92184139D01*
X164998465Y-92184139D01*
X164677350Y-92152512D01*
X164360881Y-92089563D01*
X164052106Y-91995897D01*
X163753999Y-91872417D01*
X163469430Y-91720312D01*
X163201141Y-91541046D01*
X162951714Y-91336347D01*
X162723553Y-91108186D01*
X162518854Y-90858759D01*
X162339588Y-90590470D01*
X162187483Y-90305901D01*
X162064003Y-90007794D01*
X161970337Y-89699019D01*
X161907388Y-89382550D01*
X161875761Y-89061435D01*
X161875761Y-88738765D01*
X161907388Y-88417650D01*
X161970337Y-88101181D01*
X162064003Y-87792406D01*
X162187483Y-87494299D01*
X162339588Y-87209730D01*
X162518854Y-86941441D01*
X162723553Y-86692014D01*
X162951714Y-86463853D01*
X163201141Y-86259154D01*
X163469430Y-86079888D01*
X163753999Y-85927783D01*
X164052106Y-85804303D01*
X164360881Y-85710637D01*
X164677350Y-85647688D01*
X164998465Y-85616061D01*
X165321135Y-85616061D01*
X165642250Y-85647688D01*
G37*
G36*
X159359884Y-90522953D02*
G01*
X159481514Y-90593176D01*
X159580824Y-90692486D01*
X159651047Y-90814116D01*
X159687397Y-90949777D01*
X159687397Y-91090223D01*
X159651047Y-91225884D01*
X159580824Y-91347514D01*
X159481514Y-91446824D01*
X159359884Y-91517047D01*
X159224223Y-91553397D01*
X159083777Y-91553397D01*
X158948116Y-91517047D01*
X158826486Y-91446824D01*
X158727176Y-91347514D01*
X158656953Y-91225884D01*
X158620603Y-91090223D01*
X158620603Y-90949777D01*
X158656953Y-90814116D01*
X158727176Y-90692486D01*
X158826486Y-90593176D01*
X158948116Y-90522953D01*
X159083777Y-90486603D01*
X159224223Y-90486603D01*
X159359884Y-90522953D01*
G37*
G36*
X171359884Y-90522953D02*
G01*
X171481514Y-90593176D01*
X171580824Y-90692486D01*
X171651047Y-90814116D01*
X171687397Y-90949777D01*
X171687397Y-91090223D01*
X171651047Y-91225884D01*
X171580824Y-91347514D01*
X171481514Y-91446824D01*
X171359884Y-91517047D01*
X171224223Y-91553397D01*
X171083777Y-91553397D01*
X170948116Y-91517047D01*
X170826486Y-91446824D01*
X170727176Y-91347514D01*
X170656953Y-91225884D01*
X170620603Y-91090223D01*
X170620603Y-90949777D01*
X170656953Y-90814116D01*
X170727176Y-90692486D01*
X170826486Y-90593176D01*
X170948116Y-90522953D01*
X171083777Y-90486603D01*
X171224223Y-90486603D01*
X171359884Y-90522953D01*
G37*
G36*
X159419661Y-86643543D02*
G01*
X159589494Y-86698725D01*
X159748603Y-86779795D01*
X159893072Y-86884758D01*
X160019342Y-87011028D01*
X160124305Y-87155497D01*
X160205375Y-87314606D01*
X160260557Y-87484439D01*
X160288492Y-87660814D01*
X160288492Y-87839386D01*
X160260557Y-88015761D01*
X160205375Y-88185594D01*
X160124305Y-88344703D01*
X160019342Y-88489172D01*
X159893072Y-88615442D01*
X159748603Y-88720405D01*
X159589494Y-88801475D01*
X159419661Y-88856657D01*
X159243286Y-88884592D01*
X159064714Y-88884592D01*
X158888339Y-88856657D01*
X158718506Y-88801475D01*
X158559397Y-88720405D01*
X158414928Y-88615442D01*
X158288658Y-88489172D01*
X158183695Y-88344703D01*
X158102625Y-88185594D01*
X158047443Y-88015761D01*
X158019508Y-87839386D01*
X158019508Y-87660814D01*
X158047443Y-87484439D01*
X158102625Y-87314606D01*
X158183695Y-87155497D01*
X158288658Y-87011028D01*
X158414928Y-86884758D01*
X158559397Y-86779795D01*
X158718506Y-86698725D01*
X158888339Y-86643543D01*
X159064714Y-86615608D01*
X159243286Y-86615608D01*
X159419661Y-86643543D01*
G37*
G36*
X171411773Y-86900337D02*
G01*
X171572600Y-86966954D01*
X171717341Y-87063667D01*
X171840433Y-87186759D01*
X171937146Y-87331500D01*
X172003763Y-87492327D01*
X172037724Y-87663061D01*
X172037724Y-87837139D01*
X172003763Y-88007873D01*
X171937146Y-88168700D01*
X171840433Y-88313441D01*
X171717341Y-88436533D01*
X171572600Y-88533246D01*
X171411773Y-88599863D01*
X171241039Y-88633824D01*
X171066961Y-88633824D01*
X170896227Y-88599863D01*
X170735400Y-88533246D01*
X170590659Y-88436533D01*
X170467567Y-88313441D01*
X170370854Y-88168700D01*
X170304237Y-88007873D01*
X170270276Y-87837139D01*
X170270276Y-87663061D01*
X170304237Y-87492327D01*
X170370854Y-87331500D01*
X170467567Y-87186759D01*
X170590659Y-87063667D01*
X170735400Y-86966954D01*
X170896227Y-86900337D01*
X171066961Y-86866376D01*
X171241039Y-86866376D01*
X171411773Y-86900337D01*
G37*
M02*
