%TF.GenerationSoftware,KiCad,Pcbnew,9.0.0*%
%TF.CreationDate,2025-06-18T14:15:24-07:00*%
%TF.ProjectId,1U Backplane,31552042-6163-46b7-906c-616e652e6b69,rev?*%
%TF.SameCoordinates,Original*%
%TF.FileFunction,Copper,L2,Inr*%
%TF.FilePolarity,Positive*%
%FSLAX46Y46*%
G04 Gerber Fmt 4.6, Leading zero omitted, Abs format (unit mm)*
G04 Created by KiCad (PCBNEW 9.0.0) date 2025-06-18 14:15:24*
%MOMM*%
%LPD*%
G01*
G04 APERTURE LIST*
G04 Aperture macros list*
%AMRoundRect*
0 Rectangle with rounded corners*
0 $1 Rounding radius*
0 $2 $3 $4 $5 $6 $7 $8 $9 X,Y pos of 4 corners*
0 Add a 4 corners polygon primitive as box body*
4,1,4,$2,$3,$4,$5,$6,$7,$8,$9,$2,$3,0*
0 Add four circle primitives for the rounded corners*
1,1,$1+$1,$2,$3*
1,1,$1+$1,$4,$5*
1,1,$1+$1,$6,$7*
1,1,$1+$1,$8,$9*
0 Add four rect primitives between the rounded corners*
20,1,$1+$1,$2,$3,$4,$5,0*
20,1,$1+$1,$4,$5,$6,$7,0*
20,1,$1+$1,$6,$7,$8,$9,0*
20,1,$1+$1,$8,$9,$2,$3,0*%
G04 Aperture macros list end*
%TA.AperFunction,ComponentPad*%
%ADD10C,6.500000*%
%TD*%
%TA.AperFunction,ComponentPad*%
%ADD11O,1.000000X1.000000*%
%TD*%
%TA.AperFunction,ComponentPad*%
%ADD12O,2.000000X2.000000*%
%TD*%
%TA.AperFunction,ComponentPad*%
%ADD13RoundRect,0.250000X-0.845000X0.620000X-0.845000X-0.620000X0.845000X-0.620000X0.845000X0.620000X0*%
%TD*%
%TA.AperFunction,ComponentPad*%
%ADD14O,2.190000X1.740000*%
%TD*%
%TA.AperFunction,ComponentPad*%
%ADD15RoundRect,0.250000X0.845000X-0.620000X0.845000X0.620000X-0.845000X0.620000X-0.845000X-0.620000X0*%
%TD*%
%TA.AperFunction,ViaPad*%
%ADD16C,0.685800*%
%TD*%
%TA.AperFunction,ViaPad*%
%ADD17C,0.450000*%
%TD*%
G04 APERTURE END LIST*
D10*
%TO.N,N/C*%
%TO.C,Pad_gge6706*%
X66000000Y-115750000D03*
%TD*%
D11*
%TO.N,/Right Drive/GNDS*%
%TO.C,J5*%
X159154000Y-122780000D03*
%TO.N,/Right Drive/TX+*%
X159154000Y-121510000D03*
%TO.N,/Right Drive/TX-*%
X159154000Y-120240000D03*
%TO.N,/Right Drive/GNDS*%
X159154000Y-118970000D03*
%TO.N,/Right Drive/RX-*%
X159154000Y-117700000D03*
%TO.N,/Right Drive/RX+*%
X159154000Y-116430000D03*
%TO.N,/Right Drive/GNDS*%
X159154000Y-115160000D03*
%TO.N,/Right Drive/+3.3V*%
X159154000Y-108800000D03*
X159154000Y-107530000D03*
%TO.N,/Right Drive/+3.3V_PWRDIS*%
X159154000Y-106260000D03*
%TO.N,/Right Drive/GNDPWR*%
X159154000Y-104990000D03*
X159154000Y-103720000D03*
X159154000Y-102450000D03*
%TO.N,/Right Drive/+5V*%
X159154000Y-101180000D03*
X159154000Y-99910000D03*
X159154000Y-98640000D03*
%TO.N,/Right Drive/GNDPWR*%
X159154000Y-97370000D03*
%TO.N,/Right Drive/RESERVED_HOST*%
X159154000Y-96100000D03*
%TO.N,/Right Drive/GNDPWR*%
X159154000Y-94830000D03*
%TO.N,/Right Drive/+12V*%
X159154000Y-93560000D03*
X159154000Y-92290000D03*
X159154000Y-91020000D03*
D12*
%TO.N,unconnected-(J5-Pad23)*%
X159154000Y-111979900D03*
%TD*%
D13*
%TO.N,/Left Drive/GNDPWR*%
%TO.C,J3*%
X165154000Y-112000000D03*
D14*
%TO.N,/Left Drive/+12V*%
X165154000Y-114540000D03*
%TO.N,unconnected-(J3-Pin_3-Pad3)*%
X165154000Y-117080000D03*
%TO.N,/PWM*%
X165154000Y-119620000D03*
%TD*%
D15*
%TO.N,/Right Drive/GNDPWR*%
%TO.C,J6*%
X165154000Y-101800000D03*
D14*
%TO.N,/Right Drive/+12V*%
X165154000Y-99260000D03*
%TO.N,unconnected-(J6-Pin_3-Pad3)*%
X165154000Y-96720000D03*
%TO.N,/PWM*%
X165154000Y-94180000D03*
%TD*%
D10*
%TO.N,N/C*%
%TO.C,Pad_gge8659*%
X165159800Y-124900000D03*
%TD*%
%TO.N,N/C*%
%TO.C,Pad_gge8716*%
X165159800Y-88900100D03*
%TD*%
%TO.N,N/C*%
%TO.C,Pad_gge8677*%
X223049700Y-115750000D03*
%TD*%
D11*
%TO.N,/Left Drive/GNDS*%
%TO.C,J2*%
X171154000Y-91020000D03*
%TO.N,/Left Drive/TX+*%
X171154000Y-92290000D03*
%TO.N,/Left Drive/TX-*%
X171154000Y-93560000D03*
%TO.N,/Left Drive/GNDS*%
X171154000Y-94830000D03*
%TO.N,/Left Drive/RX-*%
X171154000Y-96100000D03*
%TO.N,/Left Drive/RX+*%
X171154000Y-97370000D03*
%TO.N,/Left Drive/GNDS*%
X171154000Y-98640000D03*
%TO.N,/Left Drive/+3.3V*%
X171154000Y-105000000D03*
X171154000Y-106270000D03*
%TO.N,/Left Drive/+3.3V_PWRDIS*%
X171154000Y-107540000D03*
%TO.N,/Left Drive/GNDPWR*%
X171154000Y-108810000D03*
X171154000Y-110080000D03*
X171154000Y-111350000D03*
%TO.N,/Left Drive/+5V*%
X171154000Y-112620000D03*
X171154000Y-113890000D03*
X171154000Y-115160000D03*
%TO.N,/Left Drive/GNDPWR*%
X171154000Y-116430000D03*
%TO.N,/Left Drive/RESERVED_HOST*%
X171154000Y-117700000D03*
%TO.N,/Left Drive/GNDPWR*%
X171154000Y-118970000D03*
%TO.N,/Left Drive/+12V*%
X171154000Y-120240000D03*
X171154000Y-121510000D03*
X171154000Y-122780000D03*
D12*
%TO.N,unconnected-(J2-Pad23)*%
X171154000Y-101820100D03*
%TD*%
D11*
%TO.N,/Right Drive/GNDS*%
%TO.C,J4*%
X107779000Y-117950000D03*
%TO.N,/Right Drive/TX+*%
X106509000Y-117950000D03*
%TO.N,/Right Drive/TX-*%
X105239000Y-117950000D03*
%TO.N,/Right Drive/GNDS*%
X103969000Y-117950000D03*
%TO.N,/Right Drive/RX-*%
X102699000Y-117950000D03*
%TO.N,/Right Drive/RX+*%
X101429000Y-117950000D03*
%TO.N,/Right Drive/GNDS*%
X100159000Y-117950000D03*
%TO.N,/Right Drive/+3.3V*%
X93899200Y-117950000D03*
X92629200Y-117950000D03*
%TO.N,/Right Drive/+3.3V_PWRDIS*%
X91359200Y-117950000D03*
%TO.N,/Right Drive/GNDPWR*%
X90089200Y-117950000D03*
X88819200Y-117950000D03*
X87549200Y-117950000D03*
%TO.N,/Right Drive/+5V*%
X86279200Y-117950000D03*
X85009200Y-117950000D03*
X83739200Y-117950000D03*
%TO.N,/Right Drive/GNDPWR*%
X82469200Y-117950000D03*
%TO.N,/Right Drive/RESERVED_DRIVE*%
X81199200Y-117950000D03*
%TO.N,/Right Drive/GNDPWR*%
X79929200Y-117950000D03*
%TO.N,/Right Drive/+12V*%
X78659200Y-117950000D03*
X77389200Y-117950000D03*
X76119200Y-117950000D03*
D12*
%TO.N,unconnected-(J4-Pad23)*%
X112699000Y-117950000D03*
%TO.N,unconnected-(J4-Pad24)*%
X71199200Y-117950000D03*
%TD*%
D11*
%TO.N,/Left Drive/GNDS*%
%TO.C,J1*%
X212829000Y-117950000D03*
%TO.N,/Left Drive/TX+*%
X211559000Y-117950000D03*
%TO.N,/Left Drive/TX-*%
X210289000Y-117950000D03*
%TO.N,/Left Drive/GNDS*%
X209019000Y-117950000D03*
%TO.N,/Left Drive/RX-*%
X207749000Y-117950000D03*
%TO.N,/Left Drive/RX+*%
X206479000Y-117950000D03*
%TO.N,/Left Drive/GNDS*%
X205209000Y-117950000D03*
%TO.N,/Left Drive/+3.3V*%
X198949200Y-117950000D03*
X197679200Y-117950000D03*
%TO.N,/Left Drive/+3.3V_PWRDIS*%
X196409200Y-117950000D03*
%TO.N,/Left Drive/GNDPWR*%
X195139200Y-117950000D03*
X193869200Y-117950000D03*
X192599200Y-117950000D03*
%TO.N,/Left Drive/+5V*%
X191329200Y-117950000D03*
X190059200Y-117950000D03*
X188789200Y-117950000D03*
%TO.N,/Left Drive/GNDPWR*%
X187519200Y-117950000D03*
%TO.N,/Left Drive/RESERVED_DRIVE*%
X186249200Y-117950000D03*
%TO.N,/Left Drive/GNDPWR*%
X184979200Y-117950000D03*
%TO.N,/Left Drive/+12V*%
X183709200Y-117950000D03*
X182439200Y-117950000D03*
X181169200Y-117950000D03*
D12*
%TO.N,unconnected-(J1-Pad23)*%
X217749000Y-117950000D03*
%TO.N,unconnected-(J1-Pad24)*%
X176249200Y-117950000D03*
%TD*%
D16*
%TO.N,Net-(U1-T{slash}T)*%
X163599000Y-110600000D03*
%TO.N,Net-(D1-K-Pad2)*%
X162786197Y-110600000D03*
%TO.N,Net-(D1-K-Pad1)*%
X161999000Y-108500000D03*
D17*
%TO.N,/Left Drive/GNDS*%
X209199000Y-107100000D03*
X174199000Y-105200000D03*
X202999000Y-114200000D03*
X199999000Y-101800000D03*
X185999000Y-109000000D03*
X177099000Y-108600000D03*
X211899000Y-110000000D03*
X197999000Y-108000000D03*
X183999000Y-114200000D03*
X200999000Y-114200000D03*
X199999000Y-108000000D03*
X183999000Y-101800000D03*
X179599000Y-111200000D03*
X206399000Y-104600000D03*
X180299000Y-100500000D03*
X181999000Y-101800000D03*
X185999000Y-114200000D03*
X189999000Y-101800000D03*
X187999000Y-114200000D03*
X178799000Y-99400000D03*
X178399000Y-109900000D03*
X195999000Y-108000000D03*
X204999000Y-103300000D03*
X196999000Y-114200000D03*
X194999000Y-114200000D03*
X198099000Y-101800000D03*
X180799000Y-112700000D03*
X189999000Y-114200000D03*
X193999000Y-101800000D03*
X185999000Y-101800000D03*
X187999000Y-101800000D03*
X181999000Y-114200000D03*
X198999000Y-114200000D03*
X187999000Y-108000000D03*
D16*
X174899000Y-91000000D03*
D17*
X195999000Y-101800000D03*
X201999000Y-108000000D03*
X193999000Y-108000000D03*
X191999000Y-101800000D03*
X189999000Y-108000000D03*
X203799000Y-101800000D03*
X201999000Y-101800000D03*
X210599000Y-108600000D03*
X191999000Y-108000000D03*
X183999000Y-109000000D03*
X207699000Y-105800000D03*
X175399000Y-106600000D03*
%TO.N,/Right Drive/GNDS*%
X99999000Y-109800000D03*
X144999000Y-120000000D03*
X134999000Y-120000000D03*
X138999000Y-109800000D03*
X126999000Y-109800000D03*
X132999000Y-109800000D03*
X138999000Y-120000000D03*
X146999000Y-109800000D03*
X101999000Y-109800000D03*
X151099000Y-109800000D03*
X120999000Y-109800000D03*
X136999000Y-109800000D03*
X124999000Y-120000000D03*
X132999000Y-120000000D03*
X116999000Y-120000000D03*
X142999000Y-109800000D03*
X148999000Y-120000000D03*
X142999000Y-120000000D03*
X122999000Y-109800000D03*
X118899000Y-120000000D03*
X103999000Y-109800000D03*
X141099000Y-109800000D03*
X154999000Y-122000000D03*
X128999000Y-109800000D03*
X134999000Y-109800000D03*
X128999000Y-120000000D03*
X148999000Y-109800000D03*
X151099000Y-120000000D03*
X130999000Y-120000000D03*
X136999000Y-120000000D03*
X140999000Y-120000000D03*
X130999000Y-109800000D03*
X145099000Y-109800000D03*
X152999000Y-120000000D03*
X126999000Y-120000000D03*
X146999000Y-120000000D03*
X120999000Y-120000000D03*
X124999000Y-109800000D03*
X122999000Y-120000000D03*
D16*
%TO.N,Net-(D6-K)*%
X198924000Y-120500000D03*
%TO.N,Net-(D4-K)*%
X185824000Y-120657400D03*
%TO.N,Net-(D7-K)*%
X79899000Y-120432400D03*
%TO.N,Net-(D9-K)*%
X91599000Y-120500000D03*
%TO.N,/PWM*%
X161973394Y-110600000D03*
%TD*%
%TA.AperFunction,Conductor*%
%TO.N,/Left Drive/GNDS*%
G36*
X175857691Y-89019007D02*
G01*
X175893655Y-89068507D01*
X175898500Y-89099100D01*
X175898500Y-98539882D01*
X175929022Y-98613571D01*
X175929023Y-98613572D01*
X175929024Y-98613574D01*
X175985426Y-98669976D01*
X175985427Y-98669976D01*
X175985428Y-98669977D01*
X176059117Y-98700500D01*
X176059118Y-98700500D01*
X204162904Y-98700500D01*
X204221095Y-98719407D01*
X204232720Y-98729309D01*
X213552480Y-107999758D01*
X214969818Y-109409596D01*
X214997740Y-109464039D01*
X214999000Y-109479785D01*
X214999000Y-119901000D01*
X214980093Y-119959191D01*
X214930593Y-119995155D01*
X214900000Y-120000000D01*
X203498000Y-120000000D01*
X203439809Y-119981093D01*
X203403845Y-119931593D01*
X203399000Y-119901000D01*
X203399000Y-117750000D01*
X204535069Y-117750000D01*
X204891457Y-117750000D01*
X204859556Y-117805255D01*
X204834000Y-117900630D01*
X204834000Y-117999370D01*
X204859556Y-118094745D01*
X204891457Y-118150000D01*
X204535069Y-118150000D01*
X204535901Y-118154183D01*
X204535903Y-118154189D01*
X204588666Y-118281571D01*
X204665271Y-118396220D01*
X204762779Y-118493728D01*
X204877428Y-118570333D01*
X205004813Y-118623097D01*
X205004819Y-118623099D01*
X205009000Y-118623929D01*
X205009000Y-118267542D01*
X205064255Y-118299444D01*
X205159630Y-118325000D01*
X205258370Y-118325000D01*
X205353745Y-118299444D01*
X205409000Y-118267542D01*
X205409000Y-118623929D01*
X205413180Y-118623099D01*
X205413186Y-118623097D01*
X205540571Y-118570333D01*
X205655220Y-118493728D01*
X205752730Y-118396218D01*
X205761384Y-118383267D01*
X205809433Y-118345387D01*
X205870571Y-118342984D01*
X205921445Y-118376976D01*
X205926009Y-118383257D01*
X205934886Y-118396542D01*
X205934889Y-118396545D01*
X206032458Y-118494114D01*
X206147182Y-118570771D01*
X206147193Y-118570777D01*
X206167526Y-118579199D01*
X206274672Y-118623580D01*
X206410007Y-118650500D01*
X206410008Y-118650500D01*
X206547992Y-118650500D01*
X206547993Y-118650500D01*
X206683328Y-118623580D01*
X206810811Y-118570775D01*
X206811473Y-118570333D01*
X206812355Y-118569743D01*
X206925542Y-118494114D01*
X207023114Y-118396542D01*
X207031686Y-118383712D01*
X207079732Y-118345835D01*
X207140871Y-118343431D01*
X207191745Y-118377423D01*
X207196295Y-118383685D01*
X207204886Y-118396542D01*
X207204889Y-118396545D01*
X207204890Y-118396546D01*
X207302458Y-118494114D01*
X207417182Y-118570771D01*
X207417193Y-118570777D01*
X207437526Y-118579199D01*
X207544672Y-118623580D01*
X207680007Y-118650500D01*
X207680008Y-118650500D01*
X207817992Y-118650500D01*
X207817993Y-118650500D01*
X207953328Y-118623580D01*
X208080811Y-118570775D01*
X208081473Y-118570333D01*
X208082355Y-118569743D01*
X208195542Y-118494114D01*
X208293114Y-118396542D01*
X208301985Y-118383265D01*
X208350030Y-118345387D01*
X208411168Y-118342983D01*
X208462043Y-118376974D01*
X208466613Y-118383263D01*
X208475271Y-118396220D01*
X208572779Y-118493728D01*
X208687428Y-118570333D01*
X208814813Y-118623097D01*
X208814819Y-118623099D01*
X208819000Y-118623929D01*
X208819000Y-118267542D01*
X208874255Y-118299444D01*
X208969630Y-118325000D01*
X209068370Y-118325000D01*
X209163745Y-118299444D01*
X209219000Y-118267542D01*
X209219000Y-118623929D01*
X209223180Y-118623099D01*
X209223186Y-118623097D01*
X209350571Y-118570333D01*
X209465220Y-118493728D01*
X209562730Y-118396218D01*
X209571384Y-118383267D01*
X209619433Y-118345387D01*
X209680571Y-118342984D01*
X209731445Y-118376976D01*
X209736009Y-118383257D01*
X209744886Y-118396542D01*
X209744889Y-118396545D01*
X209842458Y-118494114D01*
X209957182Y-118570771D01*
X209957193Y-118570777D01*
X209977526Y-118579199D01*
X210084672Y-118623580D01*
X210220007Y-118650500D01*
X210220008Y-118650500D01*
X210357992Y-118650500D01*
X210357993Y-118650500D01*
X210493328Y-118623580D01*
X210620811Y-118570775D01*
X210621473Y-118570333D01*
X210622355Y-118569743D01*
X210735542Y-118494114D01*
X210833114Y-118396542D01*
X210841686Y-118383712D01*
X210889732Y-118345835D01*
X210950871Y-118343431D01*
X211001745Y-118377423D01*
X211006295Y-118383685D01*
X211014886Y-118396542D01*
X211014889Y-118396545D01*
X211014890Y-118396546D01*
X211112458Y-118494114D01*
X211227182Y-118570771D01*
X211227193Y-118570777D01*
X211247526Y-118579199D01*
X211354672Y-118623580D01*
X211490007Y-118650500D01*
X211490008Y-118650500D01*
X211627992Y-118650500D01*
X211627993Y-118650500D01*
X211763328Y-118623580D01*
X211890811Y-118570775D01*
X211891473Y-118570333D01*
X211892355Y-118569743D01*
X212005542Y-118494114D01*
X212103114Y-118396542D01*
X212111985Y-118383265D01*
X212160030Y-118345387D01*
X212221168Y-118342983D01*
X212272043Y-118376974D01*
X212276613Y-118383263D01*
X212285271Y-118396220D01*
X212382779Y-118493728D01*
X212497428Y-118570333D01*
X212624813Y-118623097D01*
X212624819Y-118623099D01*
X212629000Y-118623929D01*
X212629000Y-118267542D01*
X212684255Y-118299444D01*
X212779630Y-118325000D01*
X212878370Y-118325000D01*
X212973745Y-118299444D01*
X213029000Y-118267542D01*
X213029000Y-118623929D01*
X213033180Y-118623099D01*
X213033186Y-118623097D01*
X213160571Y-118570333D01*
X213275220Y-118493728D01*
X213372728Y-118396220D01*
X213449333Y-118281571D01*
X213502096Y-118154189D01*
X213502098Y-118154183D01*
X213502931Y-118150000D01*
X213146543Y-118150000D01*
X213178444Y-118094745D01*
X213204000Y-117999370D01*
X213204000Y-117900630D01*
X213178444Y-117805255D01*
X213146543Y-117750000D01*
X213502931Y-117750000D01*
X213502098Y-117745816D01*
X213502096Y-117745810D01*
X213449333Y-117618428D01*
X213372728Y-117503779D01*
X213275220Y-117406271D01*
X213160571Y-117329666D01*
X213033189Y-117276903D01*
X213033183Y-117276901D01*
X213029000Y-117276069D01*
X213029000Y-117632457D01*
X212973745Y-117600556D01*
X212878370Y-117575000D01*
X212779630Y-117575000D01*
X212684255Y-117600556D01*
X212629000Y-117632457D01*
X212629000Y-117276069D01*
X212624816Y-117276901D01*
X212624810Y-117276903D01*
X212497428Y-117329666D01*
X212382779Y-117406271D01*
X212285271Y-117503779D01*
X212276612Y-117516738D01*
X212228560Y-117554615D01*
X212167421Y-117557014D01*
X212116549Y-117523018D01*
X212111987Y-117516738D01*
X212103114Y-117503458D01*
X212005542Y-117405886D01*
X212005541Y-117405885D01*
X211890817Y-117329228D01*
X211890806Y-117329222D01*
X211763328Y-117276420D01*
X211627995Y-117249500D01*
X211627993Y-117249500D01*
X211490007Y-117249500D01*
X211490004Y-117249500D01*
X211354672Y-117276420D01*
X211354670Y-117276420D01*
X211227193Y-117329222D01*
X211227182Y-117329228D01*
X211112458Y-117405885D01*
X211014889Y-117503454D01*
X211014886Y-117503458D01*
X211006315Y-117516286D01*
X210958265Y-117554165D01*
X210897127Y-117556567D01*
X210846253Y-117522574D01*
X210841685Y-117516286D01*
X210833114Y-117503458D01*
X210735542Y-117405886D01*
X210735541Y-117405885D01*
X210620817Y-117329228D01*
X210620806Y-117329222D01*
X210493328Y-117276420D01*
X210357995Y-117249500D01*
X210357993Y-117249500D01*
X210220007Y-117249500D01*
X210220004Y-117249500D01*
X210084672Y-117276420D01*
X210084670Y-117276420D01*
X209957193Y-117329222D01*
X209957182Y-117329228D01*
X209842458Y-117405885D01*
X209744889Y-117503454D01*
X209744887Y-117503457D01*
X209736014Y-117516736D01*
X209687963Y-117554614D01*
X209626824Y-117557014D01*
X209575952Y-117523020D01*
X209571385Y-117516734D01*
X209562729Y-117503780D01*
X209465220Y-117406271D01*
X209350571Y-117329666D01*
X209223189Y-117276903D01*
X209223183Y-117276901D01*
X209219000Y-117276069D01*
X209219000Y-117632457D01*
X209163745Y-117600556D01*
X209068370Y-117575000D01*
X208969630Y-117575000D01*
X208874255Y-117600556D01*
X208819000Y-117632457D01*
X208819000Y-117276069D01*
X208814816Y-117276901D01*
X208814810Y-117276903D01*
X208687428Y-117329666D01*
X208572779Y-117406271D01*
X208475271Y-117503779D01*
X208466612Y-117516738D01*
X208418560Y-117554615D01*
X208357421Y-117557014D01*
X208306549Y-117523018D01*
X208301987Y-117516738D01*
X208293114Y-117503458D01*
X208195542Y-117405886D01*
X208195541Y-117405885D01*
X208080817Y-117329228D01*
X208080806Y-117329222D01*
X207953328Y-117276420D01*
X207817995Y-117249500D01*
X207817993Y-117249500D01*
X207680007Y-117249500D01*
X207680004Y-117249500D01*
X207544672Y-117276420D01*
X207544670Y-117276420D01*
X207417193Y-117329222D01*
X207417182Y-117329228D01*
X207302458Y-117405885D01*
X207204889Y-117503454D01*
X207204886Y-117503458D01*
X207196315Y-117516286D01*
X207148265Y-117554165D01*
X207087127Y-117556567D01*
X207036253Y-117522574D01*
X207031685Y-117516286D01*
X207023114Y-117503458D01*
X206925542Y-117405886D01*
X206925541Y-117405885D01*
X206810817Y-117329228D01*
X206810806Y-117329222D01*
X206683328Y-117276420D01*
X206547995Y-117249500D01*
X206547993Y-117249500D01*
X206410007Y-117249500D01*
X206410004Y-117249500D01*
X206274672Y-117276420D01*
X206274670Y-117276420D01*
X206147193Y-117329222D01*
X206147182Y-117329228D01*
X206032458Y-117405885D01*
X205934889Y-117503454D01*
X205934887Y-117503457D01*
X205926014Y-117516736D01*
X205877963Y-117554614D01*
X205816824Y-117557014D01*
X205765952Y-117523020D01*
X205761385Y-117516734D01*
X205752729Y-117503780D01*
X205655220Y-117406271D01*
X205540571Y-117329666D01*
X205413189Y-117276903D01*
X205413183Y-117276901D01*
X205409000Y-117276069D01*
X205409000Y-117632457D01*
X205353745Y-117600556D01*
X205258370Y-117575000D01*
X205159630Y-117575000D01*
X205064255Y-117600556D01*
X205009000Y-117632457D01*
X205009000Y-117276069D01*
X205004816Y-117276901D01*
X205004810Y-117276903D01*
X204877428Y-117329666D01*
X204762779Y-117406271D01*
X204665271Y-117503779D01*
X204588666Y-117618428D01*
X204535903Y-117745810D01*
X204535901Y-117745816D01*
X204535069Y-117750000D01*
X203399000Y-117750000D01*
X203399000Y-116400001D01*
X203399000Y-116400000D01*
X203398999Y-116400000D01*
X181540008Y-116400000D01*
X181481817Y-116381093D01*
X181470004Y-116371004D01*
X173127754Y-108028754D01*
X173099977Y-107974237D01*
X173098758Y-107958756D01*
X173098795Y-105424634D01*
X171174190Y-103500000D01*
X169198100Y-103500000D01*
X169139909Y-103481093D01*
X169103945Y-103431593D01*
X169099100Y-103401000D01*
X169099100Y-101725615D01*
X169953500Y-101725615D01*
X169953500Y-101914584D01*
X169983058Y-102101213D01*
X169983060Y-102101218D01*
X170041453Y-102280932D01*
X170127240Y-102449299D01*
X170238310Y-102602173D01*
X170371927Y-102735790D01*
X170524801Y-102846860D01*
X170693168Y-102932647D01*
X170872882Y-102991040D01*
X170872883Y-102991040D01*
X170872886Y-102991041D01*
X171059516Y-103020600D01*
X171059519Y-103020600D01*
X171248484Y-103020600D01*
X171435113Y-102991041D01*
X171435114Y-102991040D01*
X171435118Y-102991040D01*
X171614832Y-102932647D01*
X171783199Y-102846860D01*
X171936073Y-102735790D01*
X172069690Y-102602173D01*
X172180760Y-102449299D01*
X172266547Y-102280932D01*
X172324940Y-102101218D01*
X172354500Y-101914581D01*
X172354500Y-101725619D01*
X172354500Y-101725615D01*
X172324941Y-101538986D01*
X172324940Y-101538982D01*
X172266547Y-101359268D01*
X172180760Y-101190901D01*
X172069690Y-101038027D01*
X171936073Y-100904410D01*
X171783199Y-100793340D01*
X171783198Y-100793339D01*
X171783196Y-100793338D01*
X171614832Y-100707553D01*
X171435113Y-100649158D01*
X171248484Y-100619600D01*
X171248481Y-100619600D01*
X171059519Y-100619600D01*
X171059516Y-100619600D01*
X170872886Y-100649158D01*
X170693167Y-100707553D01*
X170524803Y-100793338D01*
X170371928Y-100904409D01*
X170238309Y-101038028D01*
X170127238Y-101190903D01*
X170041453Y-101359267D01*
X169983058Y-101538986D01*
X169953500Y-101725615D01*
X169099100Y-101725615D01*
X169099100Y-92221004D01*
X170453500Y-92221004D01*
X170453500Y-92358995D01*
X170480420Y-92494327D01*
X170480420Y-92494329D01*
X170533222Y-92621806D01*
X170533228Y-92621817D01*
X170609885Y-92736541D01*
X170609886Y-92736542D01*
X170707458Y-92834114D01*
X170720286Y-92842685D01*
X170758165Y-92890735D01*
X170760567Y-92951873D01*
X170726574Y-93002747D01*
X170720293Y-93007309D01*
X170707458Y-93015886D01*
X170707454Y-93015889D01*
X170609885Y-93113458D01*
X170533228Y-93228182D01*
X170533222Y-93228193D01*
X170480420Y-93355670D01*
X170480420Y-93355672D01*
X170453500Y-93491004D01*
X170453500Y-93628995D01*
X170480420Y-93764327D01*
X170480420Y-93764329D01*
X170533222Y-93891806D01*
X170533228Y-93891817D01*
X170609885Y-94006541D01*
X170609886Y-94006542D01*
X170707458Y-94104114D01*
X170720734Y-94112985D01*
X170758613Y-94161033D01*
X170761015Y-94222171D01*
X170727023Y-94273045D01*
X170720738Y-94277612D01*
X170707779Y-94286271D01*
X170610271Y-94383779D01*
X170533666Y-94498428D01*
X170480903Y-94625810D01*
X170480901Y-94625816D01*
X170480069Y-94630000D01*
X170836457Y-94630000D01*
X170804556Y-94685255D01*
X170779000Y-94780630D01*
X170779000Y-94879370D01*
X170804556Y-94974745D01*
X170836457Y-95030000D01*
X170480069Y-95030000D01*
X170480901Y-95034183D01*
X170480903Y-95034189D01*
X170533666Y-95161571D01*
X170610271Y-95276220D01*
X170707780Y-95373729D01*
X170720734Y-95382385D01*
X170758613Y-95430436D01*
X170761015Y-95491574D01*
X170727021Y-95542447D01*
X170720737Y-95547012D01*
X170720735Y-95547015D01*
X170707457Y-95555887D01*
X170707454Y-95555889D01*
X170609885Y-95653458D01*
X170533228Y-95768182D01*
X170533222Y-95768193D01*
X170480420Y-95895670D01*
X170480420Y-95895672D01*
X170453500Y-96031004D01*
X170453500Y-96168995D01*
X170480420Y-96304327D01*
X170480420Y-96304329D01*
X170533222Y-96431806D01*
X170533228Y-96431817D01*
X170609885Y-96546541D01*
X170609886Y-96546542D01*
X170707458Y-96644114D01*
X170720286Y-96652685D01*
X170758165Y-96700735D01*
X170760567Y-96761873D01*
X170726574Y-96812747D01*
X170720293Y-96817309D01*
X170707458Y-96825886D01*
X170707454Y-96825889D01*
X170609885Y-96923458D01*
X170533228Y-97038182D01*
X170533222Y-97038193D01*
X170480420Y-97165670D01*
X170480420Y-97165672D01*
X170453500Y-97301004D01*
X170453500Y-97438995D01*
X170480420Y-97574327D01*
X170480420Y-97574329D01*
X170533222Y-97701806D01*
X170533228Y-97701817D01*
X170609885Y-97816541D01*
X170609886Y-97816542D01*
X170707458Y-97914114D01*
X170720734Y-97922985D01*
X170758613Y-97971033D01*
X170761015Y-98032171D01*
X170727023Y-98083045D01*
X170720738Y-98087612D01*
X170707779Y-98096271D01*
X170610271Y-98193779D01*
X170533666Y-98308428D01*
X170480903Y-98435810D01*
X170480901Y-98435816D01*
X170480069Y-98440000D01*
X170836457Y-98440000D01*
X170804556Y-98495255D01*
X170779000Y-98590630D01*
X170779000Y-98689370D01*
X170804556Y-98784745D01*
X170836457Y-98840000D01*
X170480069Y-98840000D01*
X170480901Y-98844183D01*
X170480903Y-98844189D01*
X170533666Y-98971571D01*
X170610271Y-99086220D01*
X170707779Y-99183728D01*
X170822428Y-99260333D01*
X170949813Y-99313097D01*
X170949819Y-99313099D01*
X170954000Y-99313929D01*
X170954000Y-98957542D01*
X171009255Y-98989444D01*
X171104630Y-99015000D01*
X171203370Y-99015000D01*
X171298745Y-98989444D01*
X171354000Y-98957542D01*
X171354000Y-99313929D01*
X171358180Y-99313099D01*
X171358186Y-99313097D01*
X171485571Y-99260333D01*
X171600220Y-99183728D01*
X171697728Y-99086220D01*
X171774333Y-98971571D01*
X171827096Y-98844189D01*
X171827098Y-98844183D01*
X171827931Y-98840000D01*
X171471543Y-98840000D01*
X171503444Y-98784745D01*
X171529000Y-98689370D01*
X171529000Y-98590630D01*
X171503444Y-98495255D01*
X171471543Y-98440000D01*
X171827931Y-98440000D01*
X171827098Y-98435816D01*
X171827096Y-98435810D01*
X171774333Y-98308428D01*
X171697728Y-98193779D01*
X171600220Y-98096271D01*
X171587263Y-98087613D01*
X171549385Y-98039562D01*
X171546985Y-97978424D01*
X171580979Y-97927551D01*
X171587243Y-97922999D01*
X171600542Y-97914114D01*
X171698114Y-97816542D01*
X171774775Y-97701811D01*
X171827580Y-97574328D01*
X171854500Y-97438993D01*
X171854500Y-97301007D01*
X171827580Y-97165672D01*
X171774775Y-97038189D01*
X171774774Y-97038187D01*
X171774771Y-97038182D01*
X171698114Y-96923458D01*
X171600546Y-96825890D01*
X171600545Y-96825889D01*
X171600542Y-96825886D01*
X171587712Y-96817313D01*
X171549835Y-96769268D01*
X171547431Y-96708129D01*
X171581423Y-96657255D01*
X171587685Y-96652704D01*
X171600542Y-96644114D01*
X171698114Y-96546542D01*
X171774775Y-96431811D01*
X171827580Y-96304328D01*
X171854500Y-96168993D01*
X171854500Y-96031007D01*
X171827580Y-95895672D01*
X171774775Y-95768189D01*
X171774774Y-95768187D01*
X171774771Y-95768182D01*
X171698114Y-95653458D01*
X171600545Y-95555889D01*
X171600542Y-95555886D01*
X171587264Y-95547014D01*
X171549386Y-95498965D01*
X171546984Y-95437827D01*
X171580977Y-95386953D01*
X171587267Y-95382384D01*
X171600218Y-95373730D01*
X171697728Y-95276220D01*
X171774333Y-95161571D01*
X171827096Y-95034189D01*
X171827098Y-95034183D01*
X171827931Y-95030000D01*
X171471543Y-95030000D01*
X171503444Y-94974745D01*
X171529000Y-94879370D01*
X171529000Y-94780630D01*
X171503444Y-94685255D01*
X171471543Y-94630000D01*
X171827931Y-94630000D01*
X171827098Y-94625816D01*
X171827096Y-94625810D01*
X171774333Y-94498428D01*
X171697728Y-94383779D01*
X171600220Y-94286271D01*
X171587263Y-94277613D01*
X171549385Y-94229562D01*
X171546985Y-94168424D01*
X171580979Y-94117551D01*
X171587243Y-94112999D01*
X171600542Y-94104114D01*
X171698114Y-94006542D01*
X171774775Y-93891811D01*
X171827580Y-93764328D01*
X171854500Y-93628993D01*
X171854500Y-93491007D01*
X171827580Y-93355672D01*
X171774775Y-93228189D01*
X171774774Y-93228187D01*
X171774771Y-93228182D01*
X171698114Y-93113458D01*
X171600546Y-93015890D01*
X171600545Y-93015889D01*
X171600542Y-93015886D01*
X171587712Y-93007313D01*
X171549835Y-92959268D01*
X171547431Y-92898129D01*
X171581423Y-92847255D01*
X171587685Y-92842704D01*
X171600542Y-92834114D01*
X171698114Y-92736542D01*
X171774775Y-92621811D01*
X171827580Y-92494328D01*
X171854500Y-92358993D01*
X171854500Y-92221007D01*
X171827580Y-92085672D01*
X171774775Y-91958189D01*
X171774774Y-91958187D01*
X171774771Y-91958182D01*
X171698114Y-91843458D01*
X171600545Y-91745889D01*
X171600542Y-91745886D01*
X171587264Y-91737014D01*
X171549386Y-91688965D01*
X171546984Y-91627827D01*
X171580977Y-91576953D01*
X171587267Y-91572384D01*
X171600218Y-91563730D01*
X171697728Y-91466220D01*
X171774333Y-91351571D01*
X171827096Y-91224189D01*
X171827098Y-91224183D01*
X171827931Y-91220000D01*
X171471543Y-91220000D01*
X171503444Y-91164745D01*
X171529000Y-91069370D01*
X171529000Y-90970630D01*
X171503444Y-90875255D01*
X171471543Y-90820000D01*
X171827931Y-90820000D01*
X171827098Y-90815816D01*
X171827096Y-90815810D01*
X171774333Y-90688428D01*
X171697728Y-90573779D01*
X171600220Y-90476271D01*
X171485571Y-90399666D01*
X171358189Y-90346903D01*
X171358183Y-90346901D01*
X171354000Y-90346069D01*
X171354000Y-90702457D01*
X171298745Y-90670556D01*
X171203370Y-90645000D01*
X171104630Y-90645000D01*
X171009255Y-90670556D01*
X170954000Y-90702457D01*
X170954000Y-90346069D01*
X170949816Y-90346901D01*
X170949810Y-90346903D01*
X170822428Y-90399666D01*
X170707779Y-90476271D01*
X170610271Y-90573779D01*
X170533666Y-90688428D01*
X170480903Y-90815810D01*
X170480901Y-90815816D01*
X170480069Y-90820000D01*
X170836457Y-90820000D01*
X170804556Y-90875255D01*
X170779000Y-90970630D01*
X170779000Y-91069370D01*
X170804556Y-91164745D01*
X170836457Y-91220000D01*
X170480069Y-91220000D01*
X170480901Y-91224183D01*
X170480903Y-91224189D01*
X170533666Y-91351571D01*
X170610271Y-91466220D01*
X170707780Y-91563729D01*
X170720734Y-91572385D01*
X170758613Y-91620436D01*
X170761015Y-91681574D01*
X170727021Y-91732447D01*
X170720737Y-91737012D01*
X170720735Y-91737015D01*
X170707457Y-91745887D01*
X170707454Y-91745889D01*
X170609885Y-91843458D01*
X170533228Y-91958182D01*
X170533222Y-91958193D01*
X170480420Y-92085670D01*
X170480420Y-92085672D01*
X170453500Y-92221004D01*
X169099100Y-92221004D01*
X169099100Y-89099100D01*
X169118007Y-89040909D01*
X169167507Y-89004945D01*
X169198100Y-89000100D01*
X175799500Y-89000100D01*
X175857691Y-89019007D01*
G37*
%TD.AperFunction*%
%TD*%
%TA.AperFunction,Conductor*%
%TO.N,/Right Drive/GNDS*%
G36*
X155251588Y-108918907D02*
G01*
X155251829Y-108919083D01*
X156999000Y-110200000D01*
X160900000Y-110200000D01*
X160958191Y-110218907D01*
X160994155Y-110268407D01*
X160999000Y-110299000D01*
X160999000Y-124301000D01*
X160980093Y-124359191D01*
X160930593Y-124395155D01*
X160900000Y-124400000D01*
X154298500Y-124400000D01*
X154240309Y-124381093D01*
X154204345Y-124331593D01*
X154199500Y-124301000D01*
X154199500Y-120860117D01*
X154168977Y-120786428D01*
X154168976Y-120786427D01*
X154168976Y-120786426D01*
X154112574Y-120730024D01*
X154112572Y-120730023D01*
X154112571Y-120730022D01*
X154038883Y-120699500D01*
X154038882Y-120699500D01*
X97647154Y-120699500D01*
X97588963Y-120680593D01*
X97552999Y-120631093D01*
X97548154Y-120600492D01*
X97548157Y-120571817D01*
X97548368Y-117750000D01*
X99485069Y-117750000D01*
X99841457Y-117750000D01*
X99809556Y-117805255D01*
X99784000Y-117900630D01*
X99784000Y-117999370D01*
X99809556Y-118094745D01*
X99841457Y-118150000D01*
X99485069Y-118150000D01*
X99485901Y-118154183D01*
X99485903Y-118154189D01*
X99538666Y-118281571D01*
X99615271Y-118396220D01*
X99712779Y-118493728D01*
X99827428Y-118570333D01*
X99954813Y-118623097D01*
X99954819Y-118623099D01*
X99959000Y-118623929D01*
X99959000Y-118267542D01*
X100014255Y-118299444D01*
X100109630Y-118325000D01*
X100208370Y-118325000D01*
X100303745Y-118299444D01*
X100359000Y-118267542D01*
X100359000Y-118623929D01*
X100363180Y-118623099D01*
X100363186Y-118623097D01*
X100490571Y-118570333D01*
X100605220Y-118493728D01*
X100702730Y-118396218D01*
X100711384Y-118383267D01*
X100759433Y-118345387D01*
X100820571Y-118342984D01*
X100871445Y-118376976D01*
X100876009Y-118383257D01*
X100884886Y-118396542D01*
X100884889Y-118396545D01*
X100982458Y-118494114D01*
X101097182Y-118570771D01*
X101097193Y-118570777D01*
X101117519Y-118579196D01*
X101224672Y-118623580D01*
X101360007Y-118650500D01*
X101360008Y-118650500D01*
X101497992Y-118650500D01*
X101497993Y-118650500D01*
X101633328Y-118623580D01*
X101760811Y-118570775D01*
X101761473Y-118570333D01*
X101831145Y-118523779D01*
X101875542Y-118494114D01*
X101973114Y-118396542D01*
X101981686Y-118383712D01*
X102029732Y-118345835D01*
X102090871Y-118343431D01*
X102141745Y-118377423D01*
X102146295Y-118383685D01*
X102154886Y-118396542D01*
X102154889Y-118396545D01*
X102154890Y-118396546D01*
X102252458Y-118494114D01*
X102367182Y-118570771D01*
X102367193Y-118570777D01*
X102387519Y-118579196D01*
X102494672Y-118623580D01*
X102630007Y-118650500D01*
X102630008Y-118650500D01*
X102767992Y-118650500D01*
X102767993Y-118650500D01*
X102903328Y-118623580D01*
X103030811Y-118570775D01*
X103031473Y-118570333D01*
X103101145Y-118523779D01*
X103145542Y-118494114D01*
X103243114Y-118396542D01*
X103251985Y-118383265D01*
X103300030Y-118345387D01*
X103361168Y-118342983D01*
X103412043Y-118376974D01*
X103416613Y-118383263D01*
X103425271Y-118396220D01*
X103522779Y-118493728D01*
X103637428Y-118570333D01*
X103764813Y-118623097D01*
X103764819Y-118623099D01*
X103769000Y-118623929D01*
X103769000Y-118267542D01*
X103824255Y-118299444D01*
X103919630Y-118325000D01*
X104018370Y-118325000D01*
X104113745Y-118299444D01*
X104169000Y-118267542D01*
X104169000Y-118623929D01*
X104173180Y-118623099D01*
X104173186Y-118623097D01*
X104300571Y-118570333D01*
X104415220Y-118493728D01*
X104512730Y-118396218D01*
X104521384Y-118383267D01*
X104569433Y-118345387D01*
X104630571Y-118342984D01*
X104681445Y-118376976D01*
X104686009Y-118383257D01*
X104694886Y-118396542D01*
X104694889Y-118396545D01*
X104792458Y-118494114D01*
X104907182Y-118570771D01*
X104907193Y-118570777D01*
X104927519Y-118579196D01*
X105034672Y-118623580D01*
X105170007Y-118650500D01*
X105170008Y-118650500D01*
X105307992Y-118650500D01*
X105307993Y-118650500D01*
X105443328Y-118623580D01*
X105570811Y-118570775D01*
X105571473Y-118570333D01*
X105641145Y-118523779D01*
X105685542Y-118494114D01*
X105783114Y-118396542D01*
X105791686Y-118383712D01*
X105839732Y-118345835D01*
X105900871Y-118343431D01*
X105951745Y-118377423D01*
X105956295Y-118383685D01*
X105964886Y-118396542D01*
X105964889Y-118396545D01*
X105964890Y-118396546D01*
X106062458Y-118494114D01*
X106177182Y-118570771D01*
X106177193Y-118570777D01*
X106197519Y-118579196D01*
X106304672Y-118623580D01*
X106440007Y-118650500D01*
X106440008Y-118650500D01*
X106577992Y-118650500D01*
X106577993Y-118650500D01*
X106713328Y-118623580D01*
X106840811Y-118570775D01*
X106841473Y-118570333D01*
X106911145Y-118523779D01*
X106955542Y-118494114D01*
X107053114Y-118396542D01*
X107061985Y-118383265D01*
X107110030Y-118345387D01*
X107171168Y-118342983D01*
X107222043Y-118376974D01*
X107226613Y-118383263D01*
X107235271Y-118396220D01*
X107332779Y-118493728D01*
X107447428Y-118570333D01*
X107574813Y-118623097D01*
X107574819Y-118623099D01*
X107579000Y-118623929D01*
X107579000Y-118267542D01*
X107634255Y-118299444D01*
X107729630Y-118325000D01*
X107828370Y-118325000D01*
X107923745Y-118299444D01*
X107979000Y-118267542D01*
X107979000Y-118623929D01*
X107983180Y-118623099D01*
X107983186Y-118623097D01*
X108110571Y-118570333D01*
X108225220Y-118493728D01*
X108322728Y-118396220D01*
X108399333Y-118281571D01*
X108452096Y-118154189D01*
X108452098Y-118154183D01*
X108452931Y-118150000D01*
X108096543Y-118150000D01*
X108128444Y-118094745D01*
X108154000Y-117999370D01*
X108154000Y-117900630D01*
X108141911Y-117855515D01*
X111498500Y-117855515D01*
X111498500Y-118044484D01*
X111528058Y-118231113D01*
X111586453Y-118410832D01*
X111667948Y-118570777D01*
X111672240Y-118579199D01*
X111783310Y-118732073D01*
X111916927Y-118865690D01*
X112069801Y-118976760D01*
X112238168Y-119062547D01*
X112417882Y-119120940D01*
X112417883Y-119120940D01*
X112417886Y-119120941D01*
X112604516Y-119150500D01*
X112604519Y-119150500D01*
X112793484Y-119150500D01*
X112980113Y-119120941D01*
X112980114Y-119120940D01*
X112980118Y-119120940D01*
X113159832Y-119062547D01*
X113328199Y-118976760D01*
X113481073Y-118865690D01*
X113614690Y-118732073D01*
X113725760Y-118579199D01*
X113811547Y-118410832D01*
X113869940Y-118231118D01*
X113882102Y-118154328D01*
X113899500Y-118044484D01*
X113899500Y-117855515D01*
X113869941Y-117668886D01*
X113857634Y-117631008D01*
X113811547Y-117489168D01*
X113725760Y-117320801D01*
X113614690Y-117167927D01*
X113481073Y-117034310D01*
X113328199Y-116923240D01*
X113328198Y-116923239D01*
X113328196Y-116923238D01*
X113159832Y-116837453D01*
X112980113Y-116779058D01*
X112793484Y-116749500D01*
X112793481Y-116749500D01*
X112604519Y-116749500D01*
X112604516Y-116749500D01*
X112417886Y-116779058D01*
X112238167Y-116837453D01*
X112069803Y-116923238D01*
X111916928Y-117034309D01*
X111783309Y-117167928D01*
X111672238Y-117320803D01*
X111586453Y-117489167D01*
X111528058Y-117668886D01*
X111498500Y-117855515D01*
X108141911Y-117855515D01*
X108128444Y-117805255D01*
X108096543Y-117750000D01*
X108452931Y-117750000D01*
X108452098Y-117745816D01*
X108452096Y-117745810D01*
X108399333Y-117618428D01*
X108322728Y-117503779D01*
X108225220Y-117406271D01*
X108110571Y-117329666D01*
X107983189Y-117276903D01*
X107983183Y-117276901D01*
X107979000Y-117276069D01*
X107979000Y-117632457D01*
X107923745Y-117600556D01*
X107828370Y-117575000D01*
X107729630Y-117575000D01*
X107634255Y-117600556D01*
X107579000Y-117632457D01*
X107579000Y-117276069D01*
X107574816Y-117276901D01*
X107574810Y-117276903D01*
X107447428Y-117329666D01*
X107332779Y-117406271D01*
X107235271Y-117503779D01*
X107226612Y-117516738D01*
X107178560Y-117554615D01*
X107117421Y-117557014D01*
X107066549Y-117523018D01*
X107061987Y-117516738D01*
X107053114Y-117503458D01*
X106955542Y-117405886D01*
X106955541Y-117405885D01*
X106840817Y-117329228D01*
X106840806Y-117329222D01*
X106713328Y-117276420D01*
X106577995Y-117249500D01*
X106577993Y-117249500D01*
X106440007Y-117249500D01*
X106440004Y-117249500D01*
X106304672Y-117276420D01*
X106304670Y-117276420D01*
X106177193Y-117329222D01*
X106177182Y-117329228D01*
X106062458Y-117405885D01*
X105964889Y-117503454D01*
X105964886Y-117503458D01*
X105956315Y-117516286D01*
X105908265Y-117554165D01*
X105847127Y-117556567D01*
X105796253Y-117522574D01*
X105791685Y-117516286D01*
X105783114Y-117503458D01*
X105685542Y-117405886D01*
X105685541Y-117405885D01*
X105570817Y-117329228D01*
X105570806Y-117329222D01*
X105443328Y-117276420D01*
X105307995Y-117249500D01*
X105307993Y-117249500D01*
X105170007Y-117249500D01*
X105170004Y-117249500D01*
X105034672Y-117276420D01*
X105034670Y-117276420D01*
X104907193Y-117329222D01*
X104907182Y-117329228D01*
X104792458Y-117405885D01*
X104694889Y-117503454D01*
X104694887Y-117503457D01*
X104686014Y-117516736D01*
X104637963Y-117554614D01*
X104576824Y-117557014D01*
X104525952Y-117523020D01*
X104521385Y-117516734D01*
X104512729Y-117503780D01*
X104415220Y-117406271D01*
X104300571Y-117329666D01*
X104173189Y-117276903D01*
X104173183Y-117276901D01*
X104169000Y-117276069D01*
X104169000Y-117632457D01*
X104113745Y-117600556D01*
X104018370Y-117575000D01*
X103919630Y-117575000D01*
X103824255Y-117600556D01*
X103769000Y-117632457D01*
X103769000Y-117276069D01*
X103764816Y-117276901D01*
X103764810Y-117276903D01*
X103637428Y-117329666D01*
X103522779Y-117406271D01*
X103425271Y-117503779D01*
X103416612Y-117516738D01*
X103368560Y-117554615D01*
X103307421Y-117557014D01*
X103256549Y-117523018D01*
X103251987Y-117516738D01*
X103243114Y-117503458D01*
X103145542Y-117405886D01*
X103145541Y-117405885D01*
X103030817Y-117329228D01*
X103030806Y-117329222D01*
X102903328Y-117276420D01*
X102767995Y-117249500D01*
X102767993Y-117249500D01*
X102630007Y-117249500D01*
X102630004Y-117249500D01*
X102494672Y-117276420D01*
X102494670Y-117276420D01*
X102367193Y-117329222D01*
X102367182Y-117329228D01*
X102252458Y-117405885D01*
X102154889Y-117503454D01*
X102154886Y-117503458D01*
X102146315Y-117516286D01*
X102098265Y-117554165D01*
X102037127Y-117556567D01*
X101986253Y-117522574D01*
X101981685Y-117516286D01*
X101973114Y-117503458D01*
X101875542Y-117405886D01*
X101875541Y-117405885D01*
X101760817Y-117329228D01*
X101760806Y-117329222D01*
X101633328Y-117276420D01*
X101497995Y-117249500D01*
X101497993Y-117249500D01*
X101360007Y-117249500D01*
X101360004Y-117249500D01*
X101224672Y-117276420D01*
X101224670Y-117276420D01*
X101097193Y-117329222D01*
X101097182Y-117329228D01*
X100982458Y-117405885D01*
X100884889Y-117503454D01*
X100884887Y-117503457D01*
X100876014Y-117516736D01*
X100827963Y-117554614D01*
X100766824Y-117557014D01*
X100715952Y-117523020D01*
X100711385Y-117516734D01*
X100702729Y-117503780D01*
X100605220Y-117406271D01*
X100490571Y-117329666D01*
X100363189Y-117276903D01*
X100363183Y-117276901D01*
X100359000Y-117276069D01*
X100359000Y-117632457D01*
X100303745Y-117600556D01*
X100208370Y-117575000D01*
X100109630Y-117575000D01*
X100014255Y-117600556D01*
X99959000Y-117632457D01*
X99959000Y-117276069D01*
X99954816Y-117276901D01*
X99954810Y-117276903D01*
X99827428Y-117329666D01*
X99712779Y-117406271D01*
X99615271Y-117503779D01*
X99538666Y-117618428D01*
X99485903Y-117745810D01*
X99485901Y-117745816D01*
X99485069Y-117750000D01*
X97548368Y-117750000D01*
X97548462Y-116498991D01*
X97548473Y-116361004D01*
X158453500Y-116361004D01*
X158453500Y-116498995D01*
X158480420Y-116634327D01*
X158480420Y-116634329D01*
X158533222Y-116761806D01*
X158533228Y-116761817D01*
X158544750Y-116779060D01*
X158609886Y-116876542D01*
X158707458Y-116974114D01*
X158720286Y-116982685D01*
X158758165Y-117030735D01*
X158760567Y-117091873D01*
X158726574Y-117142747D01*
X158720293Y-117147309D01*
X158707458Y-117155886D01*
X158707454Y-117155889D01*
X158609885Y-117253458D01*
X158533228Y-117368182D01*
X158533222Y-117368193D01*
X158480420Y-117495670D01*
X158480420Y-117495672D01*
X158453500Y-117631004D01*
X158453500Y-117631007D01*
X158453500Y-117768993D01*
X158479684Y-117900630D01*
X158480420Y-117904327D01*
X158480420Y-117904329D01*
X158533222Y-118031806D01*
X158533228Y-118031817D01*
X158575276Y-118094745D01*
X158609886Y-118146542D01*
X158707458Y-118244114D01*
X158720734Y-118252985D01*
X158758613Y-118301033D01*
X158761015Y-118362171D01*
X158727023Y-118413045D01*
X158720738Y-118417612D01*
X158707779Y-118426271D01*
X158610271Y-118523779D01*
X158533666Y-118638428D01*
X158480903Y-118765810D01*
X158480901Y-118765816D01*
X158480069Y-118770000D01*
X158836457Y-118770000D01*
X158804556Y-118825255D01*
X158779000Y-118920630D01*
X158779000Y-119019370D01*
X158804556Y-119114745D01*
X158836457Y-119170000D01*
X158480069Y-119170000D01*
X158480901Y-119174183D01*
X158480903Y-119174189D01*
X158533666Y-119301571D01*
X158610271Y-119416220D01*
X158707780Y-119513729D01*
X158720734Y-119522385D01*
X158758613Y-119570436D01*
X158761015Y-119631574D01*
X158727021Y-119682447D01*
X158720737Y-119687012D01*
X158720735Y-119687015D01*
X158707457Y-119695887D01*
X158707454Y-119695889D01*
X158609885Y-119793458D01*
X158533228Y-119908182D01*
X158533222Y-119908193D01*
X158480420Y-120035670D01*
X158480420Y-120035672D01*
X158453500Y-120171004D01*
X158453500Y-120308995D01*
X158480420Y-120444327D01*
X158480420Y-120444329D01*
X158533222Y-120571806D01*
X158533228Y-120571817D01*
X158605911Y-120680593D01*
X158609886Y-120686542D01*
X158707458Y-120784114D01*
X158720286Y-120792685D01*
X158758165Y-120840735D01*
X158760567Y-120901873D01*
X158726574Y-120952747D01*
X158720293Y-120957309D01*
X158707458Y-120965886D01*
X158707454Y-120965889D01*
X158609885Y-121063458D01*
X158533228Y-121178182D01*
X158533222Y-121178193D01*
X158480420Y-121305670D01*
X158480420Y-121305672D01*
X158453500Y-121441004D01*
X158453500Y-121578995D01*
X158480420Y-121714327D01*
X158480420Y-121714329D01*
X158533222Y-121841806D01*
X158533228Y-121841817D01*
X158609885Y-121956541D01*
X158609886Y-121956542D01*
X158707458Y-122054114D01*
X158720734Y-122062985D01*
X158758613Y-122111033D01*
X158761015Y-122172171D01*
X158727023Y-122223045D01*
X158720738Y-122227612D01*
X158707779Y-122236271D01*
X158610271Y-122333779D01*
X158533666Y-122448428D01*
X158480903Y-122575810D01*
X158480901Y-122575816D01*
X158480069Y-122580000D01*
X158836457Y-122580000D01*
X158804556Y-122635255D01*
X158779000Y-122730630D01*
X158779000Y-122829370D01*
X158804556Y-122924745D01*
X158836457Y-122980000D01*
X158480069Y-122980000D01*
X158480901Y-122984183D01*
X158480903Y-122984189D01*
X158533666Y-123111571D01*
X158610271Y-123226220D01*
X158707779Y-123323728D01*
X158822428Y-123400333D01*
X158949813Y-123453097D01*
X158949819Y-123453099D01*
X158954000Y-123453929D01*
X158954000Y-123097542D01*
X159009255Y-123129444D01*
X159104630Y-123155000D01*
X159203370Y-123155000D01*
X159298745Y-123129444D01*
X159354000Y-123097542D01*
X159354000Y-123453929D01*
X159358180Y-123453099D01*
X159358186Y-123453097D01*
X159485571Y-123400333D01*
X159600220Y-123323728D01*
X159697728Y-123226220D01*
X159774333Y-123111571D01*
X159827096Y-122984189D01*
X159827098Y-122984183D01*
X159827931Y-122980000D01*
X159471543Y-122980000D01*
X159503444Y-122924745D01*
X159529000Y-122829370D01*
X159529000Y-122730630D01*
X159503444Y-122635255D01*
X159471543Y-122580000D01*
X159827931Y-122580000D01*
X159827098Y-122575816D01*
X159827096Y-122575810D01*
X159774333Y-122448428D01*
X159697728Y-122333779D01*
X159600220Y-122236271D01*
X159587263Y-122227613D01*
X159549385Y-122179562D01*
X159546985Y-122118424D01*
X159580979Y-122067551D01*
X159587243Y-122062999D01*
X159600542Y-122054114D01*
X159698114Y-121956542D01*
X159774775Y-121841811D01*
X159827580Y-121714328D01*
X159854500Y-121578993D01*
X159854500Y-121441007D01*
X159827580Y-121305672D01*
X159774775Y-121178189D01*
X159774774Y-121178187D01*
X159774771Y-121178182D01*
X159698114Y-121063458D01*
X159600546Y-120965890D01*
X159600545Y-120965889D01*
X159600542Y-120965886D01*
X159587712Y-120957313D01*
X159549835Y-120909268D01*
X159547431Y-120848129D01*
X159581423Y-120797255D01*
X159587685Y-120792704D01*
X159600542Y-120784114D01*
X159698114Y-120686542D01*
X159774775Y-120571811D01*
X159827580Y-120444328D01*
X159854500Y-120308993D01*
X159854500Y-120171007D01*
X159827580Y-120035672D01*
X159774775Y-119908189D01*
X159774774Y-119908187D01*
X159774771Y-119908182D01*
X159698114Y-119793458D01*
X159600545Y-119695889D01*
X159600542Y-119695886D01*
X159587264Y-119687014D01*
X159549386Y-119638965D01*
X159546984Y-119577827D01*
X159580977Y-119526953D01*
X159587267Y-119522384D01*
X159600218Y-119513730D01*
X159697728Y-119416220D01*
X159774333Y-119301571D01*
X159827096Y-119174189D01*
X159827098Y-119174183D01*
X159827931Y-119170000D01*
X159471543Y-119170000D01*
X159503444Y-119114745D01*
X159529000Y-119019370D01*
X159529000Y-118920630D01*
X159503444Y-118825255D01*
X159471543Y-118770000D01*
X159827931Y-118770000D01*
X159827098Y-118765816D01*
X159827096Y-118765810D01*
X159774333Y-118638428D01*
X159697728Y-118523779D01*
X159600220Y-118426271D01*
X159587263Y-118417613D01*
X159549385Y-118369562D01*
X159546985Y-118308424D01*
X159580979Y-118257551D01*
X159587243Y-118252999D01*
X159600542Y-118244114D01*
X159698114Y-118146542D01*
X159774775Y-118031811D01*
X159827580Y-117904328D01*
X159854500Y-117768993D01*
X159854500Y-117631007D01*
X159827580Y-117495672D01*
X159774775Y-117368189D01*
X159774774Y-117368187D01*
X159774771Y-117368182D01*
X159698114Y-117253458D01*
X159600546Y-117155890D01*
X159600545Y-117155889D01*
X159600542Y-117155886D01*
X159587712Y-117147313D01*
X159549835Y-117099268D01*
X159547431Y-117038129D01*
X159581423Y-116987255D01*
X159587685Y-116982704D01*
X159600542Y-116974114D01*
X159698114Y-116876542D01*
X159774775Y-116761811D01*
X159827580Y-116634328D01*
X159854500Y-116498993D01*
X159854500Y-116361007D01*
X159827580Y-116225672D01*
X159774775Y-116098189D01*
X159774774Y-116098187D01*
X159774771Y-116098182D01*
X159698114Y-115983458D01*
X159600545Y-115885889D01*
X159600542Y-115885886D01*
X159587264Y-115877014D01*
X159549386Y-115828965D01*
X159546984Y-115767827D01*
X159580977Y-115716953D01*
X159587267Y-115712384D01*
X159600218Y-115703730D01*
X159697728Y-115606220D01*
X159774333Y-115491571D01*
X159827096Y-115364189D01*
X159827098Y-115364183D01*
X159827931Y-115360000D01*
X159471543Y-115360000D01*
X159503444Y-115304745D01*
X159529000Y-115209370D01*
X159529000Y-115110630D01*
X159503444Y-115015255D01*
X159471543Y-114960000D01*
X159827931Y-114960000D01*
X159827098Y-114955816D01*
X159827096Y-114955810D01*
X159774333Y-114828428D01*
X159697728Y-114713779D01*
X159600220Y-114616271D01*
X159485571Y-114539666D01*
X159358189Y-114486903D01*
X159358183Y-114486901D01*
X159354000Y-114486069D01*
X159354000Y-114842457D01*
X159298745Y-114810556D01*
X159203370Y-114785000D01*
X159104630Y-114785000D01*
X159009255Y-114810556D01*
X158954000Y-114842457D01*
X158954000Y-114486069D01*
X158949816Y-114486901D01*
X158949810Y-114486903D01*
X158822428Y-114539666D01*
X158707779Y-114616271D01*
X158610271Y-114713779D01*
X158533666Y-114828428D01*
X158480903Y-114955810D01*
X158480901Y-114955816D01*
X158480069Y-114960000D01*
X158836457Y-114960000D01*
X158804556Y-115015255D01*
X158779000Y-115110630D01*
X158779000Y-115209370D01*
X158804556Y-115304745D01*
X158836457Y-115360000D01*
X158480069Y-115360000D01*
X158480901Y-115364183D01*
X158480903Y-115364189D01*
X158533666Y-115491571D01*
X158610271Y-115606220D01*
X158707780Y-115703729D01*
X158720734Y-115712385D01*
X158758613Y-115760436D01*
X158761015Y-115821574D01*
X158727021Y-115872447D01*
X158720737Y-115877012D01*
X158720735Y-115877015D01*
X158707457Y-115885887D01*
X158707454Y-115885889D01*
X158609885Y-115983458D01*
X158533228Y-116098182D01*
X158533222Y-116098193D01*
X158480420Y-116225670D01*
X158480420Y-116225672D01*
X158453500Y-116361004D01*
X97548473Y-116361004D01*
X97548473Y-116356136D01*
X97548576Y-114986600D01*
X97548809Y-111885415D01*
X157953500Y-111885415D01*
X157953500Y-112074384D01*
X157983058Y-112261013D01*
X157983060Y-112261018D01*
X158041453Y-112440732D01*
X158127240Y-112609099D01*
X158238310Y-112761973D01*
X158371927Y-112895590D01*
X158524801Y-113006660D01*
X158693168Y-113092447D01*
X158872882Y-113150840D01*
X158872883Y-113150840D01*
X158872886Y-113150841D01*
X159059516Y-113180400D01*
X159059519Y-113180400D01*
X159248484Y-113180400D01*
X159435113Y-113150841D01*
X159435114Y-113150840D01*
X159435118Y-113150840D01*
X159614832Y-113092447D01*
X159783199Y-113006660D01*
X159936073Y-112895590D01*
X160069690Y-112761973D01*
X160180760Y-112609099D01*
X160266547Y-112440732D01*
X160324940Y-112261018D01*
X160354500Y-112074381D01*
X160354500Y-111885419D01*
X160354500Y-111885415D01*
X160324941Y-111698786D01*
X160324940Y-111698782D01*
X160266547Y-111519068D01*
X160180760Y-111350701D01*
X160069690Y-111197827D01*
X159936073Y-111064210D01*
X159783199Y-110953140D01*
X159783198Y-110953139D01*
X159783196Y-110953138D01*
X159614832Y-110867353D01*
X159435113Y-110808958D01*
X159248484Y-110779400D01*
X159248481Y-110779400D01*
X159059519Y-110779400D01*
X159059516Y-110779400D01*
X158872886Y-110808958D01*
X158693167Y-110867353D01*
X158524803Y-110953138D01*
X158371928Y-111064209D01*
X158238309Y-111197828D01*
X158127238Y-111350703D01*
X158041453Y-111519067D01*
X157983058Y-111698786D01*
X157953500Y-111885415D01*
X97548809Y-111885415D01*
X97548809Y-111881522D01*
X97549025Y-108998993D01*
X97567937Y-108940803D01*
X97617439Y-108904843D01*
X97648025Y-108900000D01*
X155193397Y-108900000D01*
X155251588Y-108918907D01*
G37*
%TD.AperFunction*%
%TD*%
M02*
