%TF.GenerationSoftware,KiCad,Pcbnew,9.0.0*%
%TF.CreationDate,2025-06-18T14:15:24-07:00*%
%TF.ProjectId,1U Backplane,31552042-6163-46b7-906c-616e652e6b69,rev?*%
%TF.SameCoordinates,Original*%
%TF.FileFunction,Copper,L4,Bot*%
%TF.FilePolarity,Positive*%
%FSLAX46Y46*%
G04 Gerber Fmt 4.6, Leading zero omitted, Abs format (unit mm)*
G04 Created by KiCad (PCBNEW 9.0.0) date 2025-06-18 14:15:24*
%MOMM*%
%LPD*%
G01*
G04 APERTURE LIST*
G04 Aperture macros list*
%AMRoundRect*
0 Rectangle with rounded corners*
0 $1 Rounding radius*
0 $2 $3 $4 $5 $6 $7 $8 $9 X,Y pos of 4 corners*
0 Add a 4 corners polygon primitive as box body*
4,1,4,$2,$3,$4,$5,$6,$7,$8,$9,$2,$3,0*
0 Add four circle primitives for the rounded corners*
1,1,$1+$1,$2,$3*
1,1,$1+$1,$4,$5*
1,1,$1+$1,$6,$7*
1,1,$1+$1,$8,$9*
0 Add four rect primitives between the rounded corners*
20,1,$1+$1,$2,$3,$4,$5,0*
20,1,$1+$1,$4,$5,$6,$7,0*
20,1,$1+$1,$6,$7,$8,$9,0*
20,1,$1+$1,$8,$9,$2,$3,0*%
G04 Aperture macros list end*
%TA.AperFunction,ComponentPad*%
%ADD10C,6.500000*%
%TD*%
%TA.AperFunction,ComponentPad*%
%ADD11O,1.000000X1.000000*%
%TD*%
%TA.AperFunction,ComponentPad*%
%ADD12O,2.000000X2.000000*%
%TD*%
%TA.AperFunction,ComponentPad*%
%ADD13RoundRect,0.250000X-0.845000X0.620000X-0.845000X-0.620000X0.845000X-0.620000X0.845000X0.620000X0*%
%TD*%
%TA.AperFunction,ComponentPad*%
%ADD14O,2.190000X1.740000*%
%TD*%
%TA.AperFunction,ComponentPad*%
%ADD15RoundRect,0.250000X0.845000X-0.620000X0.845000X0.620000X-0.845000X0.620000X-0.845000X-0.620000X0*%
%TD*%
%TA.AperFunction,SMDPad,CuDef*%
%ADD16RoundRect,0.237500X-0.287500X-0.237500X0.287500X-0.237500X0.287500X0.237500X-0.287500X0.237500X0*%
%TD*%
%TA.AperFunction,SMDPad,CuDef*%
%ADD17RoundRect,0.237500X0.287500X0.237500X-0.287500X0.237500X-0.287500X-0.237500X0.287500X-0.237500X0*%
%TD*%
%TA.AperFunction,SMDPad,CuDef*%
%ADD18RoundRect,0.237500X-0.300000X-0.237500X0.300000X-0.237500X0.300000X0.237500X-0.300000X0.237500X0*%
%TD*%
%TA.AperFunction,SMDPad,CuDef*%
%ADD19RoundRect,0.237500X0.300000X0.237500X-0.300000X0.237500X-0.300000X-0.237500X0.300000X-0.237500X0*%
%TD*%
%TA.AperFunction,SMDPad,CuDef*%
%ADD20RoundRect,0.150000X-0.150000X0.512500X-0.150000X-0.512500X0.150000X-0.512500X0.150000X0.512500X0*%
%TD*%
%TA.AperFunction,SMDPad,CuDef*%
%ADD21RoundRect,0.150000X0.150000X-0.587500X0.150000X0.587500X-0.150000X0.587500X-0.150000X-0.587500X0*%
%TD*%
%TA.AperFunction,SMDPad,CuDef*%
%ADD22RoundRect,0.135000X0.135000X0.185000X-0.135000X0.185000X-0.135000X-0.185000X0.135000X-0.185000X0*%
%TD*%
%TA.AperFunction,SMDPad,CuDef*%
%ADD23RoundRect,0.150000X-0.587500X-0.150000X0.587500X-0.150000X0.587500X0.150000X-0.587500X0.150000X0*%
%TD*%
%TA.AperFunction,SMDPad,CuDef*%
%ADD24RoundRect,0.150000X-0.150000X0.587500X-0.150000X-0.587500X0.150000X-0.587500X0.150000X0.587500X0*%
%TD*%
%TA.AperFunction,SMDPad,CuDef*%
%ADD25RoundRect,0.135000X0.185000X-0.135000X0.185000X0.135000X-0.185000X0.135000X-0.185000X-0.135000X0*%
%TD*%
%TA.AperFunction,ViaPad*%
%ADD26C,0.685800*%
%TD*%
%TA.AperFunction,ViaPad*%
%ADD27C,0.450000*%
%TD*%
%TA.AperFunction,Conductor*%
%ADD28C,0.254000*%
%TD*%
%TA.AperFunction,Conductor*%
%ADD29C,0.203200*%
%TD*%
G04 APERTURE END LIST*
D10*
%TO.P,Pad_gge6706,1*%
%TO.N,N/C*%
X66000000Y-115750000D03*
%TD*%
D11*
%TO.P,J5,1,1*%
%TO.N,/Right Drive/GNDS*%
X159154000Y-122780000D03*
%TO.P,J5,2,2*%
%TO.N,/Right Drive/TX+*%
X159154000Y-121510000D03*
%TO.P,J5,3,3*%
%TO.N,/Right Drive/TX-*%
X159154000Y-120240000D03*
%TO.P,J5,4,4*%
%TO.N,/Right Drive/GNDS*%
X159154000Y-118970000D03*
%TO.P,J5,5,5*%
%TO.N,/Right Drive/RX-*%
X159154000Y-117700000D03*
%TO.P,J5,6,6*%
%TO.N,/Right Drive/RX+*%
X159154000Y-116430000D03*
%TO.P,J5,7,7*%
%TO.N,/Right Drive/GNDS*%
X159154000Y-115160000D03*
%TO.P,J5,8,8*%
%TO.N,/Right Drive/+3.3V*%
X159154000Y-108800000D03*
%TO.P,J5,9,9*%
X159154000Y-107530000D03*
%TO.P,J5,10,10*%
%TO.N,/Right Drive/+3.3V_PWRDIS*%
X159154000Y-106260000D03*
%TO.P,J5,11,11*%
%TO.N,/Right Drive/GNDPWR*%
X159154000Y-104990000D03*
%TO.P,J5,12,12*%
X159154000Y-103720000D03*
%TO.P,J5,13,13*%
X159154000Y-102450000D03*
%TO.P,J5,14,14*%
%TO.N,/Right Drive/+5V*%
X159154000Y-101180000D03*
%TO.P,J5,15,15*%
X159154000Y-99910000D03*
%TO.P,J5,16,16*%
X159154000Y-98640000D03*
%TO.P,J5,17,17*%
%TO.N,/Right Drive/GNDPWR*%
X159154000Y-97370000D03*
%TO.P,J5,18,18*%
%TO.N,/Right Drive/RESERVED_HOST*%
X159154000Y-96100000D03*
%TO.P,J5,19,19*%
%TO.N,/Right Drive/GNDPWR*%
X159154000Y-94830000D03*
%TO.P,J5,20,20*%
%TO.N,/Right Drive/+12V*%
X159154000Y-93560000D03*
%TO.P,J5,21,21*%
X159154000Y-92290000D03*
%TO.P,J5,22,22*%
X159154000Y-91020000D03*
D12*
%TO.P,J5,23,23*%
%TO.N,unconnected-(J5-Pad23)*%
X159154000Y-111979900D03*
%TD*%
D13*
%TO.P,J3,1,Pin_1*%
%TO.N,/Left Drive/GNDPWR*%
X165154000Y-112000000D03*
D14*
%TO.P,J3,2,Pin_2*%
%TO.N,/Left Drive/+12V*%
X165154000Y-114540000D03*
%TO.P,J3,3,Pin_3*%
%TO.N,unconnected-(J3-Pin_3-Pad3)*%
X165154000Y-117080000D03*
%TO.P,J3,4,Pin_4*%
%TO.N,/PWM*%
X165154000Y-119620000D03*
%TD*%
D15*
%TO.P,J6,1,Pin_1*%
%TO.N,/Right Drive/GNDPWR*%
X165154000Y-101800000D03*
D14*
%TO.P,J6,2,Pin_2*%
%TO.N,/Right Drive/+12V*%
X165154000Y-99260000D03*
%TO.P,J6,3,Pin_3*%
%TO.N,unconnected-(J6-Pin_3-Pad3)*%
X165154000Y-96720000D03*
%TO.P,J6,4,Pin_4*%
%TO.N,/PWM*%
X165154000Y-94180000D03*
%TD*%
D10*
%TO.P,Pad_gge8659,1*%
%TO.N,N/C*%
X165159800Y-124900000D03*
%TD*%
%TO.P,Pad_gge8716,1*%
%TO.N,N/C*%
X165159800Y-88900100D03*
%TD*%
%TO.P,Pad_gge8677,1*%
%TO.N,N/C*%
X223049700Y-115750000D03*
%TD*%
D11*
%TO.P,J2,1,1*%
%TO.N,/Left Drive/GNDS*%
X171154000Y-91020000D03*
%TO.P,J2,2,2*%
%TO.N,/Left Drive/TX+*%
X171154000Y-92290000D03*
%TO.P,J2,3,3*%
%TO.N,/Left Drive/TX-*%
X171154000Y-93560000D03*
%TO.P,J2,4,4*%
%TO.N,/Left Drive/GNDS*%
X171154000Y-94830000D03*
%TO.P,J2,5,5*%
%TO.N,/Left Drive/RX-*%
X171154000Y-96100000D03*
%TO.P,J2,6,6*%
%TO.N,/Left Drive/RX+*%
X171154000Y-97370000D03*
%TO.P,J2,7,7*%
%TO.N,/Left Drive/GNDS*%
X171154000Y-98640000D03*
%TO.P,J2,8,8*%
%TO.N,/Left Drive/+3.3V*%
X171154000Y-105000000D03*
%TO.P,J2,9,9*%
X171154000Y-106270000D03*
%TO.P,J2,10,10*%
%TO.N,/Left Drive/+3.3V_PWRDIS*%
X171154000Y-107540000D03*
%TO.P,J2,11,11*%
%TO.N,/Left Drive/GNDPWR*%
X171154000Y-108810000D03*
%TO.P,J2,12,12*%
X171154000Y-110080000D03*
%TO.P,J2,13,13*%
X171154000Y-111350000D03*
%TO.P,J2,14,14*%
%TO.N,/Left Drive/+5V*%
X171154000Y-112620000D03*
%TO.P,J2,15,15*%
X171154000Y-113890000D03*
%TO.P,J2,16,16*%
X171154000Y-115160000D03*
%TO.P,J2,17,17*%
%TO.N,/Left Drive/GNDPWR*%
X171154000Y-116430000D03*
%TO.P,J2,18,18*%
%TO.N,/Left Drive/RESERVED_HOST*%
X171154000Y-117700000D03*
%TO.P,J2,19,19*%
%TO.N,/Left Drive/GNDPWR*%
X171154000Y-118970000D03*
%TO.P,J2,20,20*%
%TO.N,/Left Drive/+12V*%
X171154000Y-120240000D03*
%TO.P,J2,21,21*%
X171154000Y-121510000D03*
%TO.P,J2,22,22*%
X171154000Y-122780000D03*
D12*
%TO.P,J2,23,23*%
%TO.N,unconnected-(J2-Pad23)*%
X171154000Y-101820100D03*
%TD*%
D16*
%TO.P,D7,1,K*%
%TO.N,Net-(D7-K)*%
X79424000Y-121700000D03*
%TO.P,D7,2,A*%
%TO.N,/Right Drive/+5V*%
X81174000Y-121700000D03*
%TD*%
D17*
%TO.P,D9,1,K*%
%TO.N,Net-(D9-K)*%
X91874000Y-121700000D03*
%TO.P,D9,2,A*%
%TO.N,/Right Drive/+5V*%
X90124000Y-121700000D03*
%TD*%
D11*
%TO.P,J4,1,1*%
%TO.N,/Right Drive/GNDS*%
X107779000Y-117950000D03*
%TO.P,J4,2,2*%
%TO.N,/Right Drive/TX+*%
X106509000Y-117950000D03*
%TO.P,J4,3,3*%
%TO.N,/Right Drive/TX-*%
X105239000Y-117950000D03*
%TO.P,J4,4,4*%
%TO.N,/Right Drive/GNDS*%
X103969000Y-117950000D03*
%TO.P,J4,5,5*%
%TO.N,/Right Drive/RX-*%
X102699000Y-117950000D03*
%TO.P,J4,6,6*%
%TO.N,/Right Drive/RX+*%
X101429000Y-117950000D03*
%TO.P,J4,7,7*%
%TO.N,/Right Drive/GNDS*%
X100159000Y-117950000D03*
%TO.P,J4,8,8*%
%TO.N,/Right Drive/+3.3V*%
X93899200Y-117950000D03*
%TO.P,J4,9,9*%
X92629200Y-117950000D03*
%TO.P,J4,10,10*%
%TO.N,/Right Drive/+3.3V_PWRDIS*%
X91359200Y-117950000D03*
%TO.P,J4,11,11*%
%TO.N,/Right Drive/GNDPWR*%
X90089200Y-117950000D03*
%TO.P,J4,12,12*%
X88819200Y-117950000D03*
%TO.P,J4,13,13*%
X87549200Y-117950000D03*
%TO.P,J4,14,14*%
%TO.N,/Right Drive/+5V*%
X86279200Y-117950000D03*
%TO.P,J4,15,15*%
X85009200Y-117950000D03*
%TO.P,J4,16,16*%
X83739200Y-117950000D03*
%TO.P,J4,17,17*%
%TO.N,/Right Drive/GNDPWR*%
X82469200Y-117950000D03*
%TO.P,J4,18,18*%
%TO.N,/Right Drive/RESERVED_DRIVE*%
X81199200Y-117950000D03*
%TO.P,J4,19,19*%
%TO.N,/Right Drive/GNDPWR*%
X79929200Y-117950000D03*
%TO.P,J4,20,20*%
%TO.N,/Right Drive/+12V*%
X78659200Y-117950000D03*
%TO.P,J4,21,21*%
X77389200Y-117950000D03*
%TO.P,J4,22,22*%
X76119200Y-117950000D03*
D12*
%TO.P,J4,23,23*%
%TO.N,unconnected-(J4-Pad23)*%
X112699000Y-117950000D03*
%TO.P,J4,24,24*%
%TO.N,unconnected-(J4-Pad24)*%
X71199200Y-117950000D03*
%TD*%
D18*
%TO.P,C2,1*%
%TO.N,Net-(U1-T{slash}T)*%
X167186500Y-114100000D03*
%TO.P,C2,2*%
%TO.N,/GNDPWR*%
X168911500Y-114100000D03*
%TD*%
D19*
%TO.P,C1,1*%
%TO.N,/+5V*%
X168886500Y-112562500D03*
%TO.P,C1,2*%
%TO.N,/GNDPWR*%
X167161500Y-112562500D03*
%TD*%
D20*
%TO.P,U1,1,T/T*%
%TO.N,Net-(U1-T{slash}T)*%
X167099000Y-115800000D03*
%TO.P,U1,2,GND*%
%TO.N,/GNDPWR*%
X168049000Y-115800000D03*
%TO.P,U1,3,CS*%
%TO.N,/+5V*%
X168999000Y-115800000D03*
%TO.P,U1,4,VS*%
X168999000Y-118075000D03*
%TO.P,U1,5,OUT*%
%TO.N,Net-(D1-A)*%
X167099000Y-118075000D03*
%TD*%
D21*
%TO.P,Q1,1,G*%
%TO.N,Net-(D1-A)*%
X163049000Y-118575000D03*
%TO.P,Q1,2,S*%
%TO.N,/GNDPWR*%
X161149000Y-118575000D03*
%TO.P,Q1,3,D*%
%TO.N,/PWM*%
X162099000Y-116700000D03*
%TD*%
D16*
%TO.P,D4,1,K*%
%TO.N,Net-(D4-K)*%
X186074000Y-121700000D03*
%TO.P,D4,2,A*%
%TO.N,/Left Drive/+5V*%
X187824000Y-121700000D03*
%TD*%
D11*
%TO.P,J1,1,1*%
%TO.N,/Left Drive/GNDS*%
X212829000Y-117950000D03*
%TO.P,J1,2,2*%
%TO.N,/Left Drive/TX+*%
X211559000Y-117950000D03*
%TO.P,J1,3,3*%
%TO.N,/Left Drive/TX-*%
X210289000Y-117950000D03*
%TO.P,J1,4,4*%
%TO.N,/Left Drive/GNDS*%
X209019000Y-117950000D03*
%TO.P,J1,5,5*%
%TO.N,/Left Drive/RX-*%
X207749000Y-117950000D03*
%TO.P,J1,6,6*%
%TO.N,/Left Drive/RX+*%
X206479000Y-117950000D03*
%TO.P,J1,7,7*%
%TO.N,/Left Drive/GNDS*%
X205209000Y-117950000D03*
%TO.P,J1,8,8*%
%TO.N,/Left Drive/+3.3V*%
X198949200Y-117950000D03*
%TO.P,J1,9,9*%
X197679200Y-117950000D03*
%TO.P,J1,10,10*%
%TO.N,/Left Drive/+3.3V_PWRDIS*%
X196409200Y-117950000D03*
%TO.P,J1,11,11*%
%TO.N,/Left Drive/GNDPWR*%
X195139200Y-117950000D03*
%TO.P,J1,12,12*%
X193869200Y-117950000D03*
%TO.P,J1,13,13*%
X192599200Y-117950000D03*
%TO.P,J1,14,14*%
%TO.N,/Left Drive/+5V*%
X191329200Y-117950000D03*
%TO.P,J1,15,15*%
X190059200Y-117950000D03*
%TO.P,J1,16,16*%
X188789200Y-117950000D03*
%TO.P,J1,17,17*%
%TO.N,/Left Drive/GNDPWR*%
X187519200Y-117950000D03*
%TO.P,J1,18,18*%
%TO.N,/Left Drive/RESERVED_DRIVE*%
X186249200Y-117950000D03*
%TO.P,J1,19,19*%
%TO.N,/Left Drive/GNDPWR*%
X184979200Y-117950000D03*
%TO.P,J1,20,20*%
%TO.N,/Left Drive/+12V*%
X183709200Y-117950000D03*
%TO.P,J1,21,21*%
X182439200Y-117950000D03*
%TO.P,J1,22,22*%
X181169200Y-117950000D03*
D12*
%TO.P,J1,23,23*%
%TO.N,unconnected-(J1-Pad23)*%
X217749000Y-117950000D03*
%TO.P,J1,24,24*%
%TO.N,unconnected-(J1-Pad24)*%
X176249200Y-117950000D03*
%TD*%
D22*
%TO.P,R3,1*%
%TO.N,/Left Drive/RESERVED_DRIVE*%
X173369000Y-115900000D03*
%TO.P,R3,2*%
%TO.N,/Left Drive/RESERVED_HOST*%
X172349000Y-115900000D03*
%TD*%
D23*
%TO.P,D2,1,A*%
%TO.N,/Right Drive/+5V*%
X164199000Y-105900000D03*
%TO.P,D2,2,A*%
%TO.N,/Left Drive/+5V*%
X164199000Y-104000000D03*
%TO.P,D2,3,K*%
%TO.N,/+5V*%
X166074000Y-104950000D03*
%TD*%
D24*
%TO.P,D1,1,K*%
%TO.N,Net-(D1-K-Pad1)*%
X161099000Y-112825000D03*
%TO.P,D1,2,K*%
%TO.N,Net-(D1-K-Pad2)*%
X162999000Y-112825000D03*
%TO.P,D1,3,A*%
%TO.N,Net-(D1-A)*%
X162049000Y-114700000D03*
%TD*%
D23*
%TO.P,D3,1,K*%
%TO.N,/Left Drive/GNDPWR*%
X164199000Y-109300000D03*
%TO.P,D3,2,K*%
%TO.N,/Right Drive/GNDPWR*%
X164199000Y-107400000D03*
%TO.P,D3,3,A*%
%TO.N,/GNDPWR*%
X166074000Y-108350000D03*
%TD*%
D17*
%TO.P,D6,1,K*%
%TO.N,Net-(D6-K)*%
X198274000Y-121700000D03*
%TO.P,D6,2,A*%
%TO.N,/Left Drive/+5V*%
X196524000Y-121700000D03*
%TD*%
D25*
%TO.P,R7,1*%
%TO.N,/Right Drive/RESERVED_DRIVE*%
X157949000Y-97495000D03*
%TO.P,R7,2*%
%TO.N,/Right Drive/RESERVED_HOST*%
X157949000Y-96475000D03*
%TD*%
D26*
%TO.N,Net-(U1-T{slash}T)*%
X163599000Y-110600000D03*
%TO.N,Net-(D1-K-Pad2)*%
X162786197Y-110600000D03*
%TO.N,Net-(D1-K-Pad1)*%
X161999000Y-108500000D03*
D27*
%TO.N,/Left Drive/GNDS*%
X209199000Y-107100000D03*
X174199000Y-105200000D03*
X202999000Y-114200000D03*
X199999000Y-101800000D03*
X185999000Y-109000000D03*
X177099000Y-108600000D03*
X211899000Y-110000000D03*
X197999000Y-108000000D03*
X183999000Y-114200000D03*
X200999000Y-114200000D03*
X199999000Y-108000000D03*
X183999000Y-101800000D03*
X179599000Y-111200000D03*
X206399000Y-104600000D03*
X180299000Y-100500000D03*
X181999000Y-101800000D03*
X185999000Y-114200000D03*
X189999000Y-101800000D03*
X187999000Y-114200000D03*
X178799000Y-99400000D03*
X178399000Y-109900000D03*
X195999000Y-108000000D03*
X204999000Y-103300000D03*
X196999000Y-114200000D03*
X194999000Y-114200000D03*
X198099000Y-101800000D03*
X180799000Y-112700000D03*
X189999000Y-114200000D03*
X193999000Y-101800000D03*
X185999000Y-101800000D03*
X187999000Y-101800000D03*
X181999000Y-114200000D03*
X198999000Y-114200000D03*
X187999000Y-108000000D03*
D26*
X174899000Y-91000000D03*
D27*
X195999000Y-101800000D03*
X201999000Y-108000000D03*
X193999000Y-108000000D03*
X191999000Y-101800000D03*
X189999000Y-108000000D03*
X203799000Y-101800000D03*
X201999000Y-101800000D03*
X210599000Y-108600000D03*
X191999000Y-108000000D03*
X183999000Y-109000000D03*
X207699000Y-105800000D03*
X175399000Y-106600000D03*
%TO.N,/Right Drive/GNDS*%
X99999000Y-109800000D03*
X144999000Y-120000000D03*
X134999000Y-120000000D03*
X138999000Y-109800000D03*
X126999000Y-109800000D03*
X132999000Y-109800000D03*
X138999000Y-120000000D03*
X146999000Y-109800000D03*
X101999000Y-109800000D03*
X151099000Y-109800000D03*
X120999000Y-109800000D03*
X136999000Y-109800000D03*
X124999000Y-120000000D03*
X132999000Y-120000000D03*
X116999000Y-120000000D03*
X142999000Y-109800000D03*
X148999000Y-120000000D03*
X142999000Y-120000000D03*
X122999000Y-109800000D03*
X118899000Y-120000000D03*
X103999000Y-109800000D03*
X141099000Y-109800000D03*
X154999000Y-122000000D03*
X128999000Y-109800000D03*
X134999000Y-109800000D03*
X128999000Y-120000000D03*
X148999000Y-109800000D03*
X151099000Y-120000000D03*
X130999000Y-120000000D03*
X136999000Y-120000000D03*
X140999000Y-120000000D03*
X130999000Y-109800000D03*
X145099000Y-109800000D03*
X152999000Y-120000000D03*
X126999000Y-120000000D03*
X146999000Y-120000000D03*
X120999000Y-120000000D03*
X124999000Y-109800000D03*
X122999000Y-120000000D03*
D26*
%TO.N,Net-(D6-K)*%
X198924000Y-120500000D03*
%TO.N,Net-(D4-K)*%
X185824000Y-120657400D03*
%TO.N,Net-(D7-K)*%
X79899000Y-120432400D03*
%TO.N,Net-(D9-K)*%
X91599000Y-120500000D03*
%TO.N,/PWM*%
X161973394Y-110600000D03*
%TD*%
D28*
%TO.N,Net-(U1-T{slash}T)*%
X165999000Y-113300000D02*
X166799000Y-114100000D01*
X166799000Y-114100000D02*
X167186500Y-114100000D01*
X163599000Y-110600000D02*
X163599000Y-113100000D01*
X167186500Y-115712500D02*
X167099000Y-115800000D01*
X163599000Y-113100000D02*
X163799000Y-113300000D01*
X167186500Y-114100000D02*
X167186500Y-115712500D01*
X163799000Y-113300000D02*
X165999000Y-113300000D01*
%TO.N,Net-(D1-K-Pad2)*%
X162786197Y-110600000D02*
X162786197Y-111187197D01*
X162999000Y-111400000D02*
X162999000Y-112825000D01*
X162786197Y-111187197D02*
X162999000Y-111400000D01*
%TO.N,Net-(D1-K-Pad1)*%
X161299000Y-111300000D02*
X161299000Y-109200000D01*
X161099000Y-111500000D02*
X161099000Y-112825000D01*
X161099000Y-111500000D02*
X161299000Y-111300000D01*
X161999000Y-108500000D02*
X161899000Y-108500000D01*
X161299000Y-109200000D02*
X161999000Y-108500000D01*
%TO.N,/Left Drive/+3.3V_PWRDIS*%
X185999200Y-107540000D02*
X171154000Y-107540000D01*
X196409200Y-117950000D02*
X185999200Y-107540000D01*
%TO.N,/+5V*%
X169799000Y-113475000D02*
X169799000Y-115000000D01*
X166074000Y-104950000D02*
X167599000Y-106475000D01*
X167599000Y-106475000D02*
X167599000Y-109400000D01*
X168886500Y-110687500D02*
X168886500Y-112562500D01*
X169799000Y-115000000D02*
X168999000Y-115800000D01*
X167599000Y-109400000D02*
X168886500Y-110687500D01*
X168999000Y-115800000D02*
X168999000Y-118075000D01*
X168886500Y-112562500D02*
X169799000Y-113475000D01*
%TO.N,/Right Drive/+3.3V_PWRDIS*%
X158539000Y-106260000D02*
X159154000Y-106260000D01*
X91359200Y-117950000D02*
X91359200Y-114039800D01*
X151299000Y-113500000D02*
X158539000Y-106260000D01*
X91899000Y-113500000D02*
X151299000Y-113500000D01*
X91359200Y-114039800D02*
X91899000Y-113500000D01*
%TO.N,/Left Drive/RESERVED_DRIVE*%
X184199200Y-115900000D02*
X173369000Y-115900000D01*
X186249200Y-117950000D02*
X184199200Y-115900000D01*
%TO.N,Net-(D6-K)*%
X198924000Y-121050000D02*
X198274000Y-121700000D01*
X198924000Y-120500000D02*
X198924000Y-121050000D01*
%TO.N,Net-(D4-K)*%
X185824000Y-120657400D02*
X185824000Y-121450000D01*
X185824000Y-121450000D02*
X186074000Y-121700000D01*
%TO.N,Net-(D7-K)*%
X79899000Y-120432400D02*
X79899000Y-121225000D01*
D29*
X79599000Y-121525000D02*
X79424000Y-121700000D01*
D28*
X79899000Y-121225000D02*
X79424000Y-121700000D01*
%TO.N,/Right Drive/RESERVED_DRIVE*%
X156904000Y-97495000D02*
X157949000Y-97495000D01*
X152599000Y-105900000D02*
X89219000Y-105900000D01*
X156199000Y-98200000D02*
X156904000Y-97495000D01*
X82799000Y-116350200D02*
X81199200Y-117950000D01*
X89219000Y-105900000D02*
X82799000Y-112320000D01*
X82799000Y-112320000D02*
X82799000Y-116350200D01*
X156199000Y-98200000D02*
X156199000Y-102300000D01*
X156199000Y-102300000D02*
X152599000Y-105900000D01*
%TO.N,/GNDPWR*%
X168049000Y-120050000D02*
X166999000Y-121100000D01*
X168049000Y-115800000D02*
X168049000Y-120050000D01*
X168049000Y-114962500D02*
X168911500Y-114100000D01*
X167161500Y-112562500D02*
X167374000Y-112562500D01*
X168049000Y-115800000D02*
X168049000Y-114962500D01*
X167374000Y-112562500D02*
X168911500Y-114100000D01*
X162599000Y-121100000D02*
X161149000Y-119650000D01*
X166999000Y-121100000D02*
X162599000Y-121100000D01*
X166074000Y-109475000D02*
X167161500Y-110562500D01*
X167161500Y-110562500D02*
X167161500Y-112562500D01*
X161149000Y-119650000D02*
X161149000Y-118575000D01*
X166074000Y-108350000D02*
X166074000Y-109475000D01*
%TO.N,/Left Drive/GNDPWR*%
X164199000Y-109300000D02*
X165154000Y-110255000D01*
X165154000Y-112000000D02*
X164199000Y-112000000D01*
X165154000Y-110255000D02*
X165154000Y-112000000D01*
%TO.N,/Right Drive/GNDPWR*%
X160389000Y-104990000D02*
X159154000Y-104990000D01*
X162799000Y-107400000D02*
X160389000Y-104990000D01*
X164199000Y-107400000D02*
X162799000Y-107400000D01*
%TO.N,Net-(D9-K)*%
X91874000Y-120575000D02*
X91874000Y-121700000D01*
X91599000Y-120500000D02*
X91799000Y-120500000D01*
X91799000Y-120500000D02*
X91874000Y-120575000D01*
%TO.N,/Left Drive/RESERVED_HOST*%
X172349000Y-115900000D02*
X172349000Y-116505000D01*
X172349000Y-116505000D02*
X171154000Y-117700000D01*
%TO.N,/Right Drive/RESERVED_HOST*%
X157949000Y-96475000D02*
X158779000Y-96475000D01*
X158779000Y-96475000D02*
X159154000Y-96100000D01*
%TO.N,Net-(D1-A)*%
X163999000Y-118300000D02*
X163148999Y-118300001D01*
X167099000Y-118075000D02*
X166874000Y-118300000D01*
X163148999Y-118300001D02*
X162849000Y-118600000D01*
X162924000Y-115725000D02*
X161899000Y-114700000D01*
X162924000Y-118525000D02*
X162924000Y-115725000D01*
X166874000Y-118300000D02*
X163999000Y-118300000D01*
X162849000Y-118600000D02*
X162924000Y-118525000D01*
%TO.N,/PWM*%
X161199000Y-114100000D02*
X161199000Y-116025000D01*
X161999000Y-110625606D02*
X161999000Y-113300000D01*
X161999000Y-113300000D02*
X161199000Y-114100000D01*
X165154000Y-119620000D02*
X162519000Y-119620000D01*
X162099000Y-119200000D02*
X162099000Y-116700000D01*
X161973394Y-110600000D02*
X161999000Y-110625606D01*
X161199000Y-116025000D02*
X161899000Y-116725000D01*
X162519000Y-119620000D02*
X162099000Y-119200000D01*
%TO.N,/Right Drive/+5V*%
X164199000Y-105900000D02*
X160599000Y-102300000D01*
X160599000Y-101700000D02*
X160499000Y-101600000D01*
X160599000Y-102300000D02*
X160599000Y-101700000D01*
%TO.N,/Left Drive/+5V*%
X164199000Y-104000000D02*
X167199000Y-104000000D01*
X169899000Y-111800000D02*
X170099000Y-112000000D01*
X170099000Y-112000000D02*
X170199000Y-112000000D01*
X167199000Y-104000000D02*
X168499000Y-105300000D01*
X169899000Y-109900000D02*
X169899000Y-111800000D01*
X168499000Y-108500000D02*
X169899000Y-109900000D01*
X168499000Y-105300000D02*
X168499000Y-108500000D01*
%TD*%
%TA.AperFunction,Conductor*%
%TO.N,/Right Drive/+3.3V*%
G36*
X158606251Y-106919194D02*
G01*
X158642760Y-106969444D01*
X158642760Y-107031556D01*
X158618243Y-107071564D01*
X158607945Y-107081861D01*
X158607943Y-107081863D01*
X158531011Y-107196999D01*
X158531010Y-107197001D01*
X158478014Y-107324945D01*
X158457416Y-107428500D01*
X158792968Y-107428500D01*
X158779000Y-107480630D01*
X158779000Y-107579370D01*
X158792968Y-107631500D01*
X158457417Y-107631500D01*
X158478014Y-107735054D01*
X158531010Y-107862998D01*
X158531011Y-107863000D01*
X158607943Y-107978136D01*
X158705861Y-108076054D01*
X158705866Y-108076058D01*
X158713917Y-108081438D01*
X158752370Y-108130217D01*
X158754807Y-108192281D01*
X158720299Y-108243925D01*
X158713917Y-108248562D01*
X158705866Y-108253941D01*
X158705861Y-108253945D01*
X158607943Y-108351863D01*
X158531011Y-108466999D01*
X158531010Y-108467001D01*
X158478014Y-108594945D01*
X158457416Y-108698500D01*
X158792968Y-108698500D01*
X158779000Y-108750630D01*
X158779000Y-108849370D01*
X158792968Y-108901500D01*
X158457417Y-108901500D01*
X158478014Y-109005054D01*
X158531010Y-109132998D01*
X158531011Y-109133000D01*
X158607943Y-109248136D01*
X158705863Y-109346056D01*
X158820999Y-109422988D01*
X158821001Y-109422989D01*
X158948945Y-109475985D01*
X159052500Y-109496583D01*
X159052500Y-109161031D01*
X159104630Y-109175000D01*
X159203370Y-109175000D01*
X159255500Y-109161031D01*
X159255500Y-109496582D01*
X159359054Y-109475985D01*
X159486998Y-109422989D01*
X159487000Y-109422988D01*
X159602136Y-109346056D01*
X159700056Y-109248136D01*
X159776988Y-109133000D01*
X159776989Y-109132998D01*
X159829985Y-109005054D01*
X159850583Y-108901500D01*
X159515032Y-108901500D01*
X159529000Y-108849370D01*
X159529000Y-108750630D01*
X159515032Y-108698500D01*
X159850583Y-108698500D01*
X159829985Y-108594945D01*
X159776989Y-108467001D01*
X159776988Y-108466999D01*
X159700056Y-108351863D01*
X159602135Y-108253942D01*
X159594085Y-108248564D01*
X159555631Y-108199787D01*
X159553191Y-108137722D01*
X159587697Y-108086077D01*
X159594085Y-108081436D01*
X159602135Y-108076057D01*
X159700056Y-107978136D01*
X159776988Y-107863000D01*
X159776989Y-107862998D01*
X159829985Y-107735054D01*
X159850583Y-107631500D01*
X159515032Y-107631500D01*
X159529000Y-107579370D01*
X159529000Y-107480630D01*
X159515032Y-107428500D01*
X159850583Y-107428500D01*
X159829985Y-107324945D01*
X159776989Y-107197001D01*
X159776988Y-107196999D01*
X159700056Y-107081863D01*
X159689757Y-107071564D01*
X159661558Y-107016222D01*
X159671275Y-106954874D01*
X159715195Y-106910954D01*
X159760821Y-106900000D01*
X160698500Y-106900000D01*
X160757572Y-106919194D01*
X160794081Y-106969444D01*
X160799000Y-107000500D01*
X160799000Y-110599500D01*
X160779806Y-110658572D01*
X160729556Y-110695081D01*
X160698500Y-110700000D01*
X158199000Y-110700000D01*
X154107184Y-120637265D01*
X154066944Y-120684580D01*
X154014254Y-120699500D01*
X93159118Y-120699500D01*
X93085425Y-120730024D01*
X93029024Y-120786425D01*
X93007678Y-120837960D01*
X92967339Y-120885191D01*
X92914828Y-120900000D01*
X92305000Y-120900000D01*
X92245928Y-120880806D01*
X92209419Y-120830556D01*
X92204500Y-120799500D01*
X92204500Y-120531492D01*
X92204500Y-120531489D01*
X92181977Y-120447432D01*
X92138466Y-120372068D01*
X92138465Y-120372067D01*
X92138235Y-120371768D01*
X92137901Y-120371091D01*
X92135172Y-120366364D01*
X92135481Y-120366185D01*
X92120890Y-120336595D01*
X92113574Y-120309289D01*
X92108164Y-120289097D01*
X92036229Y-120164502D01*
X92028436Y-120156709D01*
X92024754Y-120149483D01*
X92018194Y-120144717D01*
X92010922Y-120122337D01*
X92000237Y-120101367D01*
X91999000Y-120085645D01*
X91999000Y-119943587D01*
X116570500Y-119943587D01*
X116570500Y-120056412D01*
X116597373Y-120156709D01*
X116599701Y-120165395D01*
X116656114Y-120263105D01*
X116735895Y-120342886D01*
X116833605Y-120399299D01*
X116942587Y-120428500D01*
X116942592Y-120428500D01*
X117055408Y-120428500D01*
X117055413Y-120428500D01*
X117164395Y-120399299D01*
X117262105Y-120342886D01*
X117341886Y-120263105D01*
X117398299Y-120165395D01*
X117427500Y-120056413D01*
X117427500Y-119943587D01*
X118470500Y-119943587D01*
X118470500Y-120056412D01*
X118497373Y-120156709D01*
X118499701Y-120165395D01*
X118556114Y-120263105D01*
X118635895Y-120342886D01*
X118733605Y-120399299D01*
X118842587Y-120428500D01*
X118842592Y-120428500D01*
X118955408Y-120428500D01*
X118955413Y-120428500D01*
X119064395Y-120399299D01*
X119162105Y-120342886D01*
X119241886Y-120263105D01*
X119298299Y-120165395D01*
X119327500Y-120056413D01*
X119327500Y-119943587D01*
X120570500Y-119943587D01*
X120570500Y-120056412D01*
X120597373Y-120156709D01*
X120599701Y-120165395D01*
X120656114Y-120263105D01*
X120735895Y-120342886D01*
X120833605Y-120399299D01*
X120942587Y-120428500D01*
X120942592Y-120428500D01*
X121055408Y-120428500D01*
X121055413Y-120428500D01*
X121164395Y-120399299D01*
X121262105Y-120342886D01*
X121341886Y-120263105D01*
X121398299Y-120165395D01*
X121427500Y-120056413D01*
X121427500Y-119943587D01*
X122570500Y-119943587D01*
X122570500Y-120056412D01*
X122597373Y-120156709D01*
X122599701Y-120165395D01*
X122656114Y-120263105D01*
X122735895Y-120342886D01*
X122833605Y-120399299D01*
X122942587Y-120428500D01*
X122942592Y-120428500D01*
X123055408Y-120428500D01*
X123055413Y-120428500D01*
X123164395Y-120399299D01*
X123262105Y-120342886D01*
X123341886Y-120263105D01*
X123398299Y-120165395D01*
X123427500Y-120056413D01*
X123427500Y-119943587D01*
X124570500Y-119943587D01*
X124570500Y-120056412D01*
X124597373Y-120156709D01*
X124599701Y-120165395D01*
X124656114Y-120263105D01*
X124735895Y-120342886D01*
X124833605Y-120399299D01*
X124942587Y-120428500D01*
X124942592Y-120428500D01*
X125055408Y-120428500D01*
X125055413Y-120428500D01*
X125164395Y-120399299D01*
X125262105Y-120342886D01*
X125341886Y-120263105D01*
X125398299Y-120165395D01*
X125427500Y-120056413D01*
X125427500Y-119943587D01*
X126570500Y-119943587D01*
X126570500Y-120056412D01*
X126597373Y-120156709D01*
X126599701Y-120165395D01*
X126656114Y-120263105D01*
X126735895Y-120342886D01*
X126833605Y-120399299D01*
X126942587Y-120428500D01*
X126942592Y-120428500D01*
X127055408Y-120428500D01*
X127055413Y-120428500D01*
X127164395Y-120399299D01*
X127262105Y-120342886D01*
X127341886Y-120263105D01*
X127398299Y-120165395D01*
X127427500Y-120056413D01*
X127427500Y-119943587D01*
X128570500Y-119943587D01*
X128570500Y-120056412D01*
X128597373Y-120156709D01*
X128599701Y-120165395D01*
X128656114Y-120263105D01*
X128735895Y-120342886D01*
X128833605Y-120399299D01*
X128942587Y-120428500D01*
X128942592Y-120428500D01*
X129055408Y-120428500D01*
X129055413Y-120428500D01*
X129164395Y-120399299D01*
X129262105Y-120342886D01*
X129341886Y-120263105D01*
X129398299Y-120165395D01*
X129427500Y-120056413D01*
X129427500Y-119943587D01*
X130570500Y-119943587D01*
X130570500Y-120056412D01*
X130597373Y-120156709D01*
X130599701Y-120165395D01*
X130656114Y-120263105D01*
X130735895Y-120342886D01*
X130833605Y-120399299D01*
X130942587Y-120428500D01*
X130942592Y-120428500D01*
X131055408Y-120428500D01*
X131055413Y-120428500D01*
X131164395Y-120399299D01*
X131262105Y-120342886D01*
X131341886Y-120263105D01*
X131398299Y-120165395D01*
X131427500Y-120056413D01*
X131427500Y-119943587D01*
X132570500Y-119943587D01*
X132570500Y-120056412D01*
X132597373Y-120156709D01*
X132599701Y-120165395D01*
X132656114Y-120263105D01*
X132735895Y-120342886D01*
X132833605Y-120399299D01*
X132942587Y-120428500D01*
X132942592Y-120428500D01*
X133055408Y-120428500D01*
X133055413Y-120428500D01*
X133164395Y-120399299D01*
X133262105Y-120342886D01*
X133341886Y-120263105D01*
X133398299Y-120165395D01*
X133427500Y-120056413D01*
X133427500Y-119943587D01*
X134570500Y-119943587D01*
X134570500Y-120056412D01*
X134597373Y-120156709D01*
X134599701Y-120165395D01*
X134656114Y-120263105D01*
X134735895Y-120342886D01*
X134833605Y-120399299D01*
X134942587Y-120428500D01*
X134942592Y-120428500D01*
X135055408Y-120428500D01*
X135055413Y-120428500D01*
X135164395Y-120399299D01*
X135262105Y-120342886D01*
X135341886Y-120263105D01*
X135398299Y-120165395D01*
X135427500Y-120056413D01*
X135427500Y-119943587D01*
X136570500Y-119943587D01*
X136570500Y-120056412D01*
X136597373Y-120156709D01*
X136599701Y-120165395D01*
X136656114Y-120263105D01*
X136735895Y-120342886D01*
X136833605Y-120399299D01*
X136942587Y-120428500D01*
X136942592Y-120428500D01*
X137055408Y-120428500D01*
X137055413Y-120428500D01*
X137164395Y-120399299D01*
X137262105Y-120342886D01*
X137341886Y-120263105D01*
X137398299Y-120165395D01*
X137427500Y-120056413D01*
X137427500Y-119943587D01*
X138570500Y-119943587D01*
X138570500Y-120056412D01*
X138597373Y-120156709D01*
X138599701Y-120165395D01*
X138656114Y-120263105D01*
X138735895Y-120342886D01*
X138833605Y-120399299D01*
X138942587Y-120428500D01*
X138942592Y-120428500D01*
X139055408Y-120428500D01*
X139055413Y-120428500D01*
X139164395Y-120399299D01*
X139262105Y-120342886D01*
X139341886Y-120263105D01*
X139398299Y-120165395D01*
X139427500Y-120056413D01*
X139427500Y-119943587D01*
X140570500Y-119943587D01*
X140570500Y-120056412D01*
X140597373Y-120156709D01*
X140599701Y-120165395D01*
X140656114Y-120263105D01*
X140735895Y-120342886D01*
X140833605Y-120399299D01*
X140942587Y-120428500D01*
X140942592Y-120428500D01*
X141055408Y-120428500D01*
X141055413Y-120428500D01*
X141164395Y-120399299D01*
X141262105Y-120342886D01*
X141341886Y-120263105D01*
X141398299Y-120165395D01*
X141427500Y-120056413D01*
X141427500Y-119943587D01*
X142570500Y-119943587D01*
X142570500Y-120056412D01*
X142597373Y-120156709D01*
X142599701Y-120165395D01*
X142656114Y-120263105D01*
X142735895Y-120342886D01*
X142833605Y-120399299D01*
X142942587Y-120428500D01*
X142942592Y-120428500D01*
X143055408Y-120428500D01*
X143055413Y-120428500D01*
X143164395Y-120399299D01*
X143262105Y-120342886D01*
X143341886Y-120263105D01*
X143398299Y-120165395D01*
X143427500Y-120056413D01*
X143427500Y-119943587D01*
X144570500Y-119943587D01*
X144570500Y-120056412D01*
X144597373Y-120156709D01*
X144599701Y-120165395D01*
X144656114Y-120263105D01*
X144735895Y-120342886D01*
X144833605Y-120399299D01*
X144942587Y-120428500D01*
X144942592Y-120428500D01*
X145055408Y-120428500D01*
X145055413Y-120428500D01*
X145164395Y-120399299D01*
X145262105Y-120342886D01*
X145341886Y-120263105D01*
X145398299Y-120165395D01*
X145427500Y-120056413D01*
X145427500Y-119943587D01*
X146570500Y-119943587D01*
X146570500Y-120056412D01*
X146597373Y-120156709D01*
X146599701Y-120165395D01*
X146656114Y-120263105D01*
X146735895Y-120342886D01*
X146833605Y-120399299D01*
X146942587Y-120428500D01*
X146942592Y-120428500D01*
X147055408Y-120428500D01*
X147055413Y-120428500D01*
X147164395Y-120399299D01*
X147262105Y-120342886D01*
X147341886Y-120263105D01*
X147398299Y-120165395D01*
X147427500Y-120056413D01*
X147427500Y-119943587D01*
X148570500Y-119943587D01*
X148570500Y-120056412D01*
X148597373Y-120156709D01*
X148599701Y-120165395D01*
X148656114Y-120263105D01*
X148735895Y-120342886D01*
X148833605Y-120399299D01*
X148942587Y-120428500D01*
X148942592Y-120428500D01*
X149055408Y-120428500D01*
X149055413Y-120428500D01*
X149164395Y-120399299D01*
X149262105Y-120342886D01*
X149341886Y-120263105D01*
X149398299Y-120165395D01*
X149427500Y-120056413D01*
X149427500Y-119943587D01*
X150670500Y-119943587D01*
X150670500Y-120056412D01*
X150697373Y-120156709D01*
X150699701Y-120165395D01*
X150756114Y-120263105D01*
X150835895Y-120342886D01*
X150933605Y-120399299D01*
X151042587Y-120428500D01*
X151042592Y-120428500D01*
X151155408Y-120428500D01*
X151155413Y-120428500D01*
X151264395Y-120399299D01*
X151362105Y-120342886D01*
X151441886Y-120263105D01*
X151498299Y-120165395D01*
X151527500Y-120056413D01*
X151527500Y-119943587D01*
X152570500Y-119943587D01*
X152570500Y-120056412D01*
X152597373Y-120156709D01*
X152599701Y-120165395D01*
X152656114Y-120263105D01*
X152735895Y-120342886D01*
X152833605Y-120399299D01*
X152942587Y-120428500D01*
X152942592Y-120428500D01*
X153055408Y-120428500D01*
X153055413Y-120428500D01*
X153164395Y-120399299D01*
X153262105Y-120342886D01*
X153341886Y-120263105D01*
X153398299Y-120165395D01*
X153427500Y-120056413D01*
X153427500Y-119943587D01*
X153398299Y-119834605D01*
X153341886Y-119736895D01*
X153262105Y-119657114D01*
X153164395Y-119600701D01*
X153164392Y-119600700D01*
X153118328Y-119588357D01*
X153055413Y-119571500D01*
X152942587Y-119571500D01*
X152833607Y-119600700D01*
X152735897Y-119657112D01*
X152735892Y-119657116D01*
X152656116Y-119736892D01*
X152656112Y-119736897D01*
X152599700Y-119834607D01*
X152570500Y-119943587D01*
X151527500Y-119943587D01*
X151498299Y-119834605D01*
X151441886Y-119736895D01*
X151362105Y-119657114D01*
X151264395Y-119600701D01*
X151264392Y-119600700D01*
X151218328Y-119588357D01*
X151155413Y-119571500D01*
X151042587Y-119571500D01*
X150933607Y-119600700D01*
X150835897Y-119657112D01*
X150835892Y-119657116D01*
X150756116Y-119736892D01*
X150756112Y-119736897D01*
X150699700Y-119834607D01*
X150670500Y-119943587D01*
X149427500Y-119943587D01*
X149398299Y-119834605D01*
X149341886Y-119736895D01*
X149262105Y-119657114D01*
X149164395Y-119600701D01*
X149164392Y-119600700D01*
X149118328Y-119588357D01*
X149055413Y-119571500D01*
X148942587Y-119571500D01*
X148833607Y-119600700D01*
X148735897Y-119657112D01*
X148735892Y-119657116D01*
X148656116Y-119736892D01*
X148656112Y-119736897D01*
X148599700Y-119834607D01*
X148570500Y-119943587D01*
X147427500Y-119943587D01*
X147398299Y-119834605D01*
X147341886Y-119736895D01*
X147262105Y-119657114D01*
X147164395Y-119600701D01*
X147164392Y-119600700D01*
X147118328Y-119588357D01*
X147055413Y-119571500D01*
X146942587Y-119571500D01*
X146833607Y-119600700D01*
X146735897Y-119657112D01*
X146735892Y-119657116D01*
X146656116Y-119736892D01*
X146656112Y-119736897D01*
X146599700Y-119834607D01*
X146570500Y-119943587D01*
X145427500Y-119943587D01*
X145398299Y-119834605D01*
X145341886Y-119736895D01*
X145262105Y-119657114D01*
X145164395Y-119600701D01*
X145164392Y-119600700D01*
X145118328Y-119588357D01*
X145055413Y-119571500D01*
X144942587Y-119571500D01*
X144833607Y-119600700D01*
X144735897Y-119657112D01*
X144735892Y-119657116D01*
X144656116Y-119736892D01*
X144656112Y-119736897D01*
X144599700Y-119834607D01*
X144570500Y-119943587D01*
X143427500Y-119943587D01*
X143398299Y-119834605D01*
X143341886Y-119736895D01*
X143262105Y-119657114D01*
X143164395Y-119600701D01*
X143164392Y-119600700D01*
X143118328Y-119588357D01*
X143055413Y-119571500D01*
X142942587Y-119571500D01*
X142833607Y-119600700D01*
X142735897Y-119657112D01*
X142735892Y-119657116D01*
X142656116Y-119736892D01*
X142656112Y-119736897D01*
X142599700Y-119834607D01*
X142570500Y-119943587D01*
X141427500Y-119943587D01*
X141398299Y-119834605D01*
X141341886Y-119736895D01*
X141262105Y-119657114D01*
X141164395Y-119600701D01*
X141164392Y-119600700D01*
X141118328Y-119588357D01*
X141055413Y-119571500D01*
X140942587Y-119571500D01*
X140833607Y-119600700D01*
X140735897Y-119657112D01*
X140735892Y-119657116D01*
X140656116Y-119736892D01*
X140656112Y-119736897D01*
X140599700Y-119834607D01*
X140570500Y-119943587D01*
X139427500Y-119943587D01*
X139398299Y-119834605D01*
X139341886Y-119736895D01*
X139262105Y-119657114D01*
X139164395Y-119600701D01*
X139164392Y-119600700D01*
X139118328Y-119588357D01*
X139055413Y-119571500D01*
X138942587Y-119571500D01*
X138833607Y-119600700D01*
X138735897Y-119657112D01*
X138735892Y-119657116D01*
X138656116Y-119736892D01*
X138656112Y-119736897D01*
X138599700Y-119834607D01*
X138570500Y-119943587D01*
X137427500Y-119943587D01*
X137398299Y-119834605D01*
X137341886Y-119736895D01*
X137262105Y-119657114D01*
X137164395Y-119600701D01*
X137164392Y-119600700D01*
X137118328Y-119588357D01*
X137055413Y-119571500D01*
X136942587Y-119571500D01*
X136833607Y-119600700D01*
X136735897Y-119657112D01*
X136735892Y-119657116D01*
X136656116Y-119736892D01*
X136656112Y-119736897D01*
X136599700Y-119834607D01*
X136570500Y-119943587D01*
X135427500Y-119943587D01*
X135398299Y-119834605D01*
X135341886Y-119736895D01*
X135262105Y-119657114D01*
X135164395Y-119600701D01*
X135164392Y-119600700D01*
X135118328Y-119588357D01*
X135055413Y-119571500D01*
X134942587Y-119571500D01*
X134833607Y-119600700D01*
X134735897Y-119657112D01*
X134735892Y-119657116D01*
X134656116Y-119736892D01*
X134656112Y-119736897D01*
X134599700Y-119834607D01*
X134570500Y-119943587D01*
X133427500Y-119943587D01*
X133398299Y-119834605D01*
X133341886Y-119736895D01*
X133262105Y-119657114D01*
X133164395Y-119600701D01*
X133164392Y-119600700D01*
X133118328Y-119588357D01*
X133055413Y-119571500D01*
X132942587Y-119571500D01*
X132833607Y-119600700D01*
X132735897Y-119657112D01*
X132735892Y-119657116D01*
X132656116Y-119736892D01*
X132656112Y-119736897D01*
X132599700Y-119834607D01*
X132570500Y-119943587D01*
X131427500Y-119943587D01*
X131398299Y-119834605D01*
X131341886Y-119736895D01*
X131262105Y-119657114D01*
X131164395Y-119600701D01*
X131164392Y-119600700D01*
X131118328Y-119588357D01*
X131055413Y-119571500D01*
X130942587Y-119571500D01*
X130833607Y-119600700D01*
X130735897Y-119657112D01*
X130735892Y-119657116D01*
X130656116Y-119736892D01*
X130656112Y-119736897D01*
X130599700Y-119834607D01*
X130570500Y-119943587D01*
X129427500Y-119943587D01*
X129398299Y-119834605D01*
X129341886Y-119736895D01*
X129262105Y-119657114D01*
X129164395Y-119600701D01*
X129164392Y-119600700D01*
X129118328Y-119588357D01*
X129055413Y-119571500D01*
X128942587Y-119571500D01*
X128833607Y-119600700D01*
X128735897Y-119657112D01*
X128735892Y-119657116D01*
X128656116Y-119736892D01*
X128656112Y-119736897D01*
X128599700Y-119834607D01*
X128570500Y-119943587D01*
X127427500Y-119943587D01*
X127398299Y-119834605D01*
X127341886Y-119736895D01*
X127262105Y-119657114D01*
X127164395Y-119600701D01*
X127164392Y-119600700D01*
X127118328Y-119588357D01*
X127055413Y-119571500D01*
X126942587Y-119571500D01*
X126833607Y-119600700D01*
X126735897Y-119657112D01*
X126735892Y-119657116D01*
X126656116Y-119736892D01*
X126656112Y-119736897D01*
X126599700Y-119834607D01*
X126570500Y-119943587D01*
X125427500Y-119943587D01*
X125398299Y-119834605D01*
X125341886Y-119736895D01*
X125262105Y-119657114D01*
X125164395Y-119600701D01*
X125164392Y-119600700D01*
X125118328Y-119588357D01*
X125055413Y-119571500D01*
X124942587Y-119571500D01*
X124833607Y-119600700D01*
X124735897Y-119657112D01*
X124735892Y-119657116D01*
X124656116Y-119736892D01*
X124656112Y-119736897D01*
X124599700Y-119834607D01*
X124570500Y-119943587D01*
X123427500Y-119943587D01*
X123398299Y-119834605D01*
X123341886Y-119736895D01*
X123262105Y-119657114D01*
X123164395Y-119600701D01*
X123164392Y-119600700D01*
X123118328Y-119588357D01*
X123055413Y-119571500D01*
X122942587Y-119571500D01*
X122833607Y-119600700D01*
X122735897Y-119657112D01*
X122735892Y-119657116D01*
X122656116Y-119736892D01*
X122656112Y-119736897D01*
X122599700Y-119834607D01*
X122570500Y-119943587D01*
X121427500Y-119943587D01*
X121398299Y-119834605D01*
X121341886Y-119736895D01*
X121262105Y-119657114D01*
X121164395Y-119600701D01*
X121164392Y-119600700D01*
X121118328Y-119588357D01*
X121055413Y-119571500D01*
X120942587Y-119571500D01*
X120833607Y-119600700D01*
X120735897Y-119657112D01*
X120735892Y-119657116D01*
X120656116Y-119736892D01*
X120656112Y-119736897D01*
X120599700Y-119834607D01*
X120570500Y-119943587D01*
X119327500Y-119943587D01*
X119298299Y-119834605D01*
X119241886Y-119736895D01*
X119162105Y-119657114D01*
X119064395Y-119600701D01*
X119064392Y-119600700D01*
X119018328Y-119588357D01*
X118955413Y-119571500D01*
X118842587Y-119571500D01*
X118733607Y-119600700D01*
X118635897Y-119657112D01*
X118635892Y-119657116D01*
X118556116Y-119736892D01*
X118556112Y-119736897D01*
X118499700Y-119834607D01*
X118470500Y-119943587D01*
X117427500Y-119943587D01*
X117398299Y-119834605D01*
X117341886Y-119736895D01*
X117262105Y-119657114D01*
X117164395Y-119600701D01*
X117164392Y-119600700D01*
X117118328Y-119588357D01*
X117055413Y-119571500D01*
X116942587Y-119571500D01*
X116833607Y-119600700D01*
X116735897Y-119657112D01*
X116735892Y-119657116D01*
X116656116Y-119736892D01*
X116656112Y-119736897D01*
X116599700Y-119834607D01*
X116570500Y-119943587D01*
X91999000Y-119943587D01*
X91999000Y-118556621D01*
X92018194Y-118497549D01*
X92068444Y-118461040D01*
X92130556Y-118461040D01*
X92170564Y-118485557D01*
X92181063Y-118496056D01*
X92296199Y-118572988D01*
X92296201Y-118572989D01*
X92424145Y-118625985D01*
X92527700Y-118646583D01*
X92527700Y-118311031D01*
X92579830Y-118325000D01*
X92678570Y-118325000D01*
X92730700Y-118311031D01*
X92730700Y-118646582D01*
X92834254Y-118625985D01*
X92962198Y-118572989D01*
X92962200Y-118572988D01*
X93077336Y-118496056D01*
X93175257Y-118398135D01*
X93180636Y-118390085D01*
X93229413Y-118351631D01*
X93291478Y-118349191D01*
X93343123Y-118383697D01*
X93347764Y-118390085D01*
X93353142Y-118398135D01*
X93451063Y-118496056D01*
X93566199Y-118572988D01*
X93566201Y-118572989D01*
X93694145Y-118625985D01*
X93797700Y-118646583D01*
X93797700Y-118311031D01*
X93849830Y-118325000D01*
X93948570Y-118325000D01*
X94000700Y-118311031D01*
X94000700Y-118646582D01*
X94104254Y-118625985D01*
X94232198Y-118572989D01*
X94232200Y-118572988D01*
X94347336Y-118496056D01*
X94445256Y-118398136D01*
X94522188Y-118283000D01*
X94522189Y-118282998D01*
X94575185Y-118155054D01*
X94595783Y-118051500D01*
X94260232Y-118051500D01*
X94274200Y-117999370D01*
X94274200Y-117900630D01*
X94268863Y-117880710D01*
X99455500Y-117880710D01*
X99455500Y-118019289D01*
X99482533Y-118155195D01*
X99482536Y-118155205D01*
X99535565Y-118283233D01*
X99535566Y-118283234D01*
X99612550Y-118398447D01*
X99612554Y-118398452D01*
X99612556Y-118398455D01*
X99710545Y-118496444D01*
X99710549Y-118496446D01*
X99710552Y-118496449D01*
X99825765Y-118573433D01*
X99825766Y-118573434D01*
X99892648Y-118601136D01*
X99953797Y-118626465D01*
X100089711Y-118653500D01*
X100089712Y-118653500D01*
X100228288Y-118653500D01*
X100228289Y-118653500D01*
X100364203Y-118626465D01*
X100458791Y-118587285D01*
X100492233Y-118573434D01*
X100492234Y-118573433D01*
X100605801Y-118497549D01*
X100607455Y-118496444D01*
X100705444Y-118398455D01*
X100710437Y-118390983D01*
X100759214Y-118352529D01*
X100821279Y-118350090D01*
X100872924Y-118384597D01*
X100877563Y-118390983D01*
X100882552Y-118398450D01*
X100882555Y-118398453D01*
X100882556Y-118398455D01*
X100980545Y-118496444D01*
X100980549Y-118496446D01*
X100980552Y-118496449D01*
X101095765Y-118573433D01*
X101095766Y-118573434D01*
X101162648Y-118601136D01*
X101223797Y-118626465D01*
X101359711Y-118653500D01*
X101359712Y-118653500D01*
X101498288Y-118653500D01*
X101498289Y-118653500D01*
X101634203Y-118626465D01*
X101728791Y-118587285D01*
X101762233Y-118573434D01*
X101762234Y-118573433D01*
X101875801Y-118497549D01*
X101877455Y-118496444D01*
X101975444Y-118398455D01*
X101980437Y-118390983D01*
X102029214Y-118352529D01*
X102091279Y-118350090D01*
X102142924Y-118384597D01*
X102147563Y-118390983D01*
X102152552Y-118398450D01*
X102152555Y-118398453D01*
X102152556Y-118398455D01*
X102250545Y-118496444D01*
X102250549Y-118496446D01*
X102250552Y-118496449D01*
X102365765Y-118573433D01*
X102365766Y-118573434D01*
X102432648Y-118601136D01*
X102493797Y-118626465D01*
X102629711Y-118653500D01*
X102629712Y-118653500D01*
X102768288Y-118653500D01*
X102768289Y-118653500D01*
X102904203Y-118626465D01*
X102998791Y-118587285D01*
X103032233Y-118573434D01*
X103032234Y-118573433D01*
X103145801Y-118497549D01*
X103147455Y-118496444D01*
X103245444Y-118398455D01*
X103250437Y-118390983D01*
X103299214Y-118352529D01*
X103361279Y-118350090D01*
X103412924Y-118384597D01*
X103417563Y-118390983D01*
X103422552Y-118398450D01*
X103422555Y-118398453D01*
X103422556Y-118398455D01*
X103520545Y-118496444D01*
X103520549Y-118496446D01*
X103520552Y-118496449D01*
X103635765Y-118573433D01*
X103635766Y-118573434D01*
X103702648Y-118601136D01*
X103763797Y-118626465D01*
X103899711Y-118653500D01*
X103899712Y-118653500D01*
X104038288Y-118653500D01*
X104038289Y-118653500D01*
X104174203Y-118626465D01*
X104268791Y-118587285D01*
X104302233Y-118573434D01*
X104302234Y-118573433D01*
X104415801Y-118497549D01*
X104417455Y-118496444D01*
X104515444Y-118398455D01*
X104520437Y-118390983D01*
X104569214Y-118352529D01*
X104631279Y-118350090D01*
X104682924Y-118384597D01*
X104687563Y-118390983D01*
X104692552Y-118398450D01*
X104692555Y-118398453D01*
X104692556Y-118398455D01*
X104790545Y-118496444D01*
X104790549Y-118496446D01*
X104790552Y-118496449D01*
X104905765Y-118573433D01*
X104905766Y-118573434D01*
X104972648Y-118601136D01*
X105033797Y-118626465D01*
X105169711Y-118653500D01*
X105169712Y-118653500D01*
X105308288Y-118653500D01*
X105308289Y-118653500D01*
X105444203Y-118626465D01*
X105538791Y-118587285D01*
X105572233Y-118573434D01*
X105572234Y-118573433D01*
X105685801Y-118497549D01*
X105687455Y-118496444D01*
X105785444Y-118398455D01*
X105790437Y-118390983D01*
X105839214Y-118352529D01*
X105901279Y-118350090D01*
X105952924Y-118384597D01*
X105957563Y-118390983D01*
X105962552Y-118398450D01*
X105962555Y-118398453D01*
X105962556Y-118398455D01*
X106060545Y-118496444D01*
X106060549Y-118496446D01*
X106060552Y-118496449D01*
X106175765Y-118573433D01*
X106175766Y-118573434D01*
X106242648Y-118601136D01*
X106303797Y-118626465D01*
X106439711Y-118653500D01*
X106439712Y-118653500D01*
X106578288Y-118653500D01*
X106578289Y-118653500D01*
X106714203Y-118626465D01*
X106808791Y-118587285D01*
X106842233Y-118573434D01*
X106842234Y-118573433D01*
X106955801Y-118497549D01*
X106957455Y-118496444D01*
X107055444Y-118398455D01*
X107060437Y-118390983D01*
X107109214Y-118352529D01*
X107171279Y-118350090D01*
X107222924Y-118384597D01*
X107227563Y-118390983D01*
X107232552Y-118398450D01*
X107232555Y-118398453D01*
X107232556Y-118398455D01*
X107330545Y-118496444D01*
X107330549Y-118496446D01*
X107330552Y-118496449D01*
X107445765Y-118573433D01*
X107445766Y-118573434D01*
X107512648Y-118601136D01*
X107573797Y-118626465D01*
X107709711Y-118653500D01*
X107709712Y-118653500D01*
X107848288Y-118653500D01*
X107848289Y-118653500D01*
X107984203Y-118626465D01*
X108078791Y-118587285D01*
X108112233Y-118573434D01*
X108112234Y-118573433D01*
X108225801Y-118497549D01*
X108227455Y-118496444D01*
X108325444Y-118398455D01*
X108375572Y-118323434D01*
X108402433Y-118283234D01*
X108402434Y-118283233D01*
X108423729Y-118231820D01*
X108455465Y-118155203D01*
X108482500Y-118019289D01*
X108482500Y-117880711D01*
X108477442Y-117855283D01*
X111495500Y-117855283D01*
X111495500Y-118044717D01*
X111513000Y-118155203D01*
X111525135Y-118231821D01*
X111583672Y-118411982D01*
X111608669Y-118461040D01*
X111669675Y-118580771D01*
X111669683Y-118580782D01*
X111781020Y-118734025D01*
X111781022Y-118734027D01*
X111914973Y-118867978D01*
X112068229Y-118979325D01*
X112237017Y-119065327D01*
X112417180Y-119123865D01*
X112604283Y-119153500D01*
X112604287Y-119153500D01*
X112793713Y-119153500D01*
X112793717Y-119153500D01*
X112980820Y-119123865D01*
X113160983Y-119065327D01*
X113329771Y-118979325D01*
X113483027Y-118867978D01*
X113616978Y-118734027D01*
X113728325Y-118580771D01*
X113814327Y-118411983D01*
X113872865Y-118231820D01*
X113902500Y-118044717D01*
X113902500Y-117855283D01*
X113872865Y-117668180D01*
X113814327Y-117488017D01*
X113728325Y-117319229D01*
X113616978Y-117165973D01*
X113483027Y-117032022D01*
X113483025Y-117032020D01*
X113329782Y-116920683D01*
X113329771Y-116920675D01*
X113216525Y-116862973D01*
X113160982Y-116834672D01*
X112980820Y-116776135D01*
X112980822Y-116776135D01*
X112927362Y-116767667D01*
X112793717Y-116746500D01*
X112604283Y-116746500D01*
X112479547Y-116766256D01*
X112417178Y-116776135D01*
X112237017Y-116834672D01*
X112151090Y-116878455D01*
X112068229Y-116920675D01*
X112068228Y-116920676D01*
X112068217Y-116920683D01*
X111914974Y-117032020D01*
X111781020Y-117165974D01*
X111669683Y-117319217D01*
X111669677Y-117319224D01*
X111669675Y-117319229D01*
X111665710Y-117327011D01*
X111583672Y-117488017D01*
X111525135Y-117668178D01*
X111525135Y-117668180D01*
X111495500Y-117855283D01*
X108477442Y-117855283D01*
X108455465Y-117744797D01*
X108430136Y-117683648D01*
X108402434Y-117616766D01*
X108402433Y-117616765D01*
X108325449Y-117501552D01*
X108325442Y-117501543D01*
X108227456Y-117403557D01*
X108227447Y-117403550D01*
X108112234Y-117326566D01*
X108112233Y-117326565D01*
X107984205Y-117273536D01*
X107984206Y-117273536D01*
X107984203Y-117273535D01*
X107984199Y-117273534D01*
X107984195Y-117273533D01*
X107848289Y-117246500D01*
X107709711Y-117246500D01*
X107709710Y-117246500D01*
X107573804Y-117273533D01*
X107573794Y-117273536D01*
X107445766Y-117326565D01*
X107445765Y-117326566D01*
X107330552Y-117403550D01*
X107330543Y-117403557D01*
X107232557Y-117501543D01*
X107232551Y-117501550D01*
X107227561Y-117509019D01*
X107178782Y-117547471D01*
X107116717Y-117549908D01*
X107065074Y-117515399D01*
X107060439Y-117509019D01*
X107055448Y-117501550D01*
X107055442Y-117501543D01*
X106957456Y-117403557D01*
X106957447Y-117403550D01*
X106842234Y-117326566D01*
X106842233Y-117326565D01*
X106714205Y-117273536D01*
X106714206Y-117273536D01*
X106714203Y-117273535D01*
X106714199Y-117273534D01*
X106714195Y-117273533D01*
X106578289Y-117246500D01*
X106439711Y-117246500D01*
X106439710Y-117246500D01*
X106303804Y-117273533D01*
X106303794Y-117273536D01*
X106175766Y-117326565D01*
X106175765Y-117326566D01*
X106060552Y-117403550D01*
X106060543Y-117403557D01*
X105962557Y-117501543D01*
X105962551Y-117501550D01*
X105957561Y-117509019D01*
X105908782Y-117547471D01*
X105846717Y-117549908D01*
X105795074Y-117515399D01*
X105790439Y-117509019D01*
X105785448Y-117501550D01*
X105785442Y-117501543D01*
X105687456Y-117403557D01*
X105687447Y-117403550D01*
X105572234Y-117326566D01*
X105572233Y-117326565D01*
X105444205Y-117273536D01*
X105444206Y-117273536D01*
X105444203Y-117273535D01*
X105444199Y-117273534D01*
X105444195Y-117273533D01*
X105308289Y-117246500D01*
X105169711Y-117246500D01*
X105169710Y-117246500D01*
X105033804Y-117273533D01*
X105033794Y-117273536D01*
X104905766Y-117326565D01*
X104905765Y-117326566D01*
X104790552Y-117403550D01*
X104790543Y-117403557D01*
X104692557Y-117501543D01*
X104692551Y-117501550D01*
X104687561Y-117509019D01*
X104638782Y-117547471D01*
X104576717Y-117549908D01*
X104525074Y-117515399D01*
X104520439Y-117509019D01*
X104515448Y-117501550D01*
X104515442Y-117501543D01*
X104417456Y-117403557D01*
X104417447Y-117403550D01*
X104302234Y-117326566D01*
X104302233Y-117326565D01*
X104174205Y-117273536D01*
X104174206Y-117273536D01*
X104174203Y-117273535D01*
X104174199Y-117273534D01*
X104174195Y-117273533D01*
X104038289Y-117246500D01*
X103899711Y-117246500D01*
X103899710Y-117246500D01*
X103763804Y-117273533D01*
X103763794Y-117273536D01*
X103635766Y-117326565D01*
X103635765Y-117326566D01*
X103520552Y-117403550D01*
X103520543Y-117403557D01*
X103422557Y-117501543D01*
X103422551Y-117501550D01*
X103417561Y-117509019D01*
X103368782Y-117547471D01*
X103306717Y-117549908D01*
X103255074Y-117515399D01*
X103250439Y-117509019D01*
X103245448Y-117501550D01*
X103245442Y-117501543D01*
X103147456Y-117403557D01*
X103147447Y-117403550D01*
X103032234Y-117326566D01*
X103032233Y-117326565D01*
X102904205Y-117273536D01*
X102904206Y-117273536D01*
X102904203Y-117273535D01*
X102904199Y-117273534D01*
X102904195Y-117273533D01*
X102768289Y-117246500D01*
X102629711Y-117246500D01*
X102629710Y-117246500D01*
X102493804Y-117273533D01*
X102493794Y-117273536D01*
X102365766Y-117326565D01*
X102365765Y-117326566D01*
X102250552Y-117403550D01*
X102250543Y-117403557D01*
X102152557Y-117501543D01*
X102152551Y-117501550D01*
X102147561Y-117509019D01*
X102098782Y-117547471D01*
X102036717Y-117549908D01*
X101985074Y-117515399D01*
X101980439Y-117509019D01*
X101975448Y-117501550D01*
X101975442Y-117501543D01*
X101877456Y-117403557D01*
X101877447Y-117403550D01*
X101762234Y-117326566D01*
X101762233Y-117326565D01*
X101634205Y-117273536D01*
X101634206Y-117273536D01*
X101634203Y-117273535D01*
X101634199Y-117273534D01*
X101634195Y-117273533D01*
X101498289Y-117246500D01*
X101359711Y-117246500D01*
X101359710Y-117246500D01*
X101223804Y-117273533D01*
X101223794Y-117273536D01*
X101095766Y-117326565D01*
X101095765Y-117326566D01*
X100980552Y-117403550D01*
X100980543Y-117403557D01*
X100882557Y-117501543D01*
X100882551Y-117501550D01*
X100877561Y-117509019D01*
X100828782Y-117547471D01*
X100766717Y-117549908D01*
X100715074Y-117515399D01*
X100710439Y-117509019D01*
X100705448Y-117501550D01*
X100705442Y-117501543D01*
X100607456Y-117403557D01*
X100607447Y-117403550D01*
X100492234Y-117326566D01*
X100492233Y-117326565D01*
X100364205Y-117273536D01*
X100364206Y-117273536D01*
X100364203Y-117273535D01*
X100364199Y-117273534D01*
X100364195Y-117273533D01*
X100228289Y-117246500D01*
X100089711Y-117246500D01*
X100089710Y-117246500D01*
X99953804Y-117273533D01*
X99953794Y-117273536D01*
X99825766Y-117326565D01*
X99825765Y-117326566D01*
X99710552Y-117403550D01*
X99710543Y-117403557D01*
X99612557Y-117501543D01*
X99612550Y-117501552D01*
X99535566Y-117616765D01*
X99535565Y-117616766D01*
X99482536Y-117744794D01*
X99482533Y-117744804D01*
X99455500Y-117880710D01*
X94268863Y-117880710D01*
X94260232Y-117848500D01*
X94595783Y-117848500D01*
X94575185Y-117744945D01*
X94522189Y-117617001D01*
X94522188Y-117616999D01*
X94445256Y-117501863D01*
X94347336Y-117403943D01*
X94232200Y-117327011D01*
X94232198Y-117327010D01*
X94104256Y-117274014D01*
X94104250Y-117274013D01*
X94000700Y-117253415D01*
X94000700Y-117588968D01*
X93948570Y-117575000D01*
X93849830Y-117575000D01*
X93797700Y-117588968D01*
X93797700Y-117253416D01*
X93797699Y-117253415D01*
X93694149Y-117274013D01*
X93694143Y-117274014D01*
X93566201Y-117327010D01*
X93566199Y-117327011D01*
X93451063Y-117403943D01*
X93353145Y-117501861D01*
X93353141Y-117501866D01*
X93347762Y-117509917D01*
X93298983Y-117548370D01*
X93236919Y-117550807D01*
X93185275Y-117516299D01*
X93180638Y-117509917D01*
X93175258Y-117501866D01*
X93175254Y-117501861D01*
X93077336Y-117403943D01*
X92962200Y-117327011D01*
X92962198Y-117327010D01*
X92834256Y-117274014D01*
X92834250Y-117274013D01*
X92730700Y-117253415D01*
X92730700Y-117588968D01*
X92678570Y-117575000D01*
X92579830Y-117575000D01*
X92527700Y-117588968D01*
X92527700Y-117253416D01*
X92527699Y-117253415D01*
X92424149Y-117274013D01*
X92424143Y-117274014D01*
X92296201Y-117327010D01*
X92296199Y-117327011D01*
X92181063Y-117403943D01*
X92181061Y-117403945D01*
X92170564Y-117414443D01*
X92115222Y-117442642D01*
X92053874Y-117432925D01*
X92009954Y-117389005D01*
X91999000Y-117343379D01*
X91999000Y-113931000D01*
X92018194Y-113871928D01*
X92068444Y-113835419D01*
X92099500Y-113830500D01*
X151342508Y-113830500D01*
X151342511Y-113830500D01*
X151426568Y-113807977D01*
X151501932Y-113764466D01*
X158336961Y-106929435D01*
X158344186Y-106925754D01*
X158348953Y-106919194D01*
X158371332Y-106911922D01*
X158392303Y-106901237D01*
X158408025Y-106900000D01*
X158547179Y-106900000D01*
X158606251Y-106919194D01*
G37*
%TD.AperFunction*%
%TA.AperFunction,Conductor*%
G36*
X93524200Y-117900630D02*
G01*
X93524200Y-117999370D01*
X93538168Y-118051500D01*
X92990232Y-118051500D01*
X93004200Y-117999370D01*
X93004200Y-117900630D01*
X92990232Y-117848500D01*
X93538168Y-117848500D01*
X93524200Y-117900630D01*
G37*
%TD.AperFunction*%
%TA.AperFunction,Conductor*%
G36*
X159255500Y-108438968D02*
G01*
X159203370Y-108425000D01*
X159104630Y-108425000D01*
X159052500Y-108438968D01*
X159052500Y-107891031D01*
X159104630Y-107905000D01*
X159203370Y-107905000D01*
X159255500Y-107891031D01*
X159255500Y-108438968D01*
G37*
%TD.AperFunction*%
%TD*%
%TA.AperFunction,Conductor*%
%TO.N,/Right Drive/+12V*%
G36*
X160757572Y-89519194D02*
G01*
X160794081Y-89569444D01*
X160799000Y-89600500D01*
X160799000Y-94099500D01*
X160779806Y-94158572D01*
X160729556Y-94195081D01*
X160698500Y-94200000D01*
X159750821Y-94200000D01*
X159691749Y-94180806D01*
X159655240Y-94130556D01*
X159655240Y-94068444D01*
X159679757Y-94028436D01*
X159700054Y-94008138D01*
X159700056Y-94008136D01*
X159776988Y-93893000D01*
X159776989Y-93892998D01*
X159829985Y-93765054D01*
X159850583Y-93661500D01*
X159515032Y-93661500D01*
X159529000Y-93609370D01*
X159529000Y-93510630D01*
X159515032Y-93458500D01*
X159850583Y-93458500D01*
X159829985Y-93354945D01*
X159776989Y-93227001D01*
X159776988Y-93226999D01*
X159700056Y-93111863D01*
X159602135Y-93013942D01*
X159594085Y-93008564D01*
X159555631Y-92959787D01*
X159553191Y-92897722D01*
X159587697Y-92846077D01*
X159594085Y-92841436D01*
X159602135Y-92836057D01*
X159700056Y-92738136D01*
X159776988Y-92623000D01*
X159776989Y-92622998D01*
X159829985Y-92495054D01*
X159850583Y-92391500D01*
X159515032Y-92391500D01*
X159529000Y-92339370D01*
X159529000Y-92240630D01*
X159515032Y-92188500D01*
X159850583Y-92188500D01*
X159829985Y-92084945D01*
X159776989Y-91957001D01*
X159776988Y-91956999D01*
X159700056Y-91841863D01*
X159602135Y-91743942D01*
X159594085Y-91738564D01*
X159555631Y-91689787D01*
X159553191Y-91627722D01*
X159587697Y-91576077D01*
X159594085Y-91571436D01*
X159602135Y-91566057D01*
X159700056Y-91468136D01*
X159776988Y-91353000D01*
X159776989Y-91352998D01*
X159829985Y-91225054D01*
X159850583Y-91121500D01*
X159515032Y-91121500D01*
X159529000Y-91069370D01*
X159529000Y-90970630D01*
X159515032Y-90918500D01*
X159850583Y-90918500D01*
X159829985Y-90814945D01*
X159776989Y-90687001D01*
X159776988Y-90686999D01*
X159700056Y-90571863D01*
X159602136Y-90473943D01*
X159487000Y-90397011D01*
X159486998Y-90397010D01*
X159359056Y-90344014D01*
X159359050Y-90344013D01*
X159255500Y-90323415D01*
X159255500Y-90658968D01*
X159203370Y-90645000D01*
X159104630Y-90645000D01*
X159052500Y-90658968D01*
X159052500Y-90323416D01*
X159052499Y-90323415D01*
X158948949Y-90344013D01*
X158948943Y-90344014D01*
X158821001Y-90397010D01*
X158820999Y-90397011D01*
X158705863Y-90473943D01*
X158607943Y-90571863D01*
X158531011Y-90686999D01*
X158531010Y-90687001D01*
X158478014Y-90814945D01*
X158457416Y-90918500D01*
X158792968Y-90918500D01*
X158779000Y-90970630D01*
X158779000Y-91069370D01*
X158792968Y-91121500D01*
X158457417Y-91121500D01*
X158478014Y-91225054D01*
X158531010Y-91352998D01*
X158531011Y-91353000D01*
X158607943Y-91468136D01*
X158705861Y-91566054D01*
X158705866Y-91566058D01*
X158713917Y-91571438D01*
X158752370Y-91620217D01*
X158754807Y-91682281D01*
X158720299Y-91733925D01*
X158713917Y-91738562D01*
X158705866Y-91743941D01*
X158705861Y-91743945D01*
X158607943Y-91841863D01*
X158531011Y-91956999D01*
X158531010Y-91957001D01*
X158478014Y-92084945D01*
X158457416Y-92188500D01*
X158792968Y-92188500D01*
X158779000Y-92240630D01*
X158779000Y-92339370D01*
X158792968Y-92391500D01*
X158457417Y-92391500D01*
X158478014Y-92495054D01*
X158531010Y-92622998D01*
X158531011Y-92623000D01*
X158607943Y-92738136D01*
X158705861Y-92836054D01*
X158705866Y-92836058D01*
X158713917Y-92841438D01*
X158752370Y-92890217D01*
X158754807Y-92952281D01*
X158720299Y-93003925D01*
X158713917Y-93008562D01*
X158705866Y-93013941D01*
X158705861Y-93013945D01*
X158607943Y-93111863D01*
X158531011Y-93226999D01*
X158531010Y-93227001D01*
X158478014Y-93354945D01*
X158457416Y-93458500D01*
X158792968Y-93458500D01*
X158779000Y-93510630D01*
X158779000Y-93609370D01*
X158792968Y-93661500D01*
X158457417Y-93661500D01*
X158478014Y-93765054D01*
X158531010Y-93892998D01*
X158531011Y-93893000D01*
X158607943Y-94008136D01*
X158628243Y-94028436D01*
X158656442Y-94083778D01*
X158646725Y-94145126D01*
X158602805Y-94189046D01*
X158557179Y-94200000D01*
X158299000Y-94200000D01*
X158299000Y-95903401D01*
X158279806Y-95962473D01*
X158229556Y-95998982D01*
X158185389Y-96003042D01*
X158173670Y-96001500D01*
X157724334Y-96001500D01*
X157724328Y-96001501D01*
X157675039Y-96007989D01*
X157675037Y-96007989D01*
X157566848Y-96058439D01*
X157566845Y-96058441D01*
X157482441Y-96142845D01*
X157482439Y-96142848D01*
X157431989Y-96251038D01*
X157431989Y-96251039D01*
X157425500Y-96300330D01*
X157425500Y-96649665D01*
X157425501Y-96649671D01*
X157431989Y-96698960D01*
X157431989Y-96698962D01*
X157486155Y-96815120D01*
X157483406Y-96816401D01*
X157497287Y-96861850D01*
X157477049Y-96920572D01*
X157467867Y-96931132D01*
X157263936Y-97135064D01*
X157208594Y-97163263D01*
X157192872Y-97164500D01*
X156953682Y-97164500D01*
X156953666Y-97164499D01*
X156947511Y-97164499D01*
X156860489Y-97164499D01*
X156860486Y-97164499D01*
X156776435Y-97187021D01*
X156776433Y-97187022D01*
X156701066Y-97230535D01*
X155934535Y-97997066D01*
X155891022Y-98072434D01*
X155868500Y-98156490D01*
X155868500Y-102121474D01*
X155849306Y-102180546D01*
X155839064Y-102192538D01*
X152491538Y-105540064D01*
X152436196Y-105568263D01*
X152420474Y-105569500D01*
X89262511Y-105569500D01*
X89175489Y-105569500D01*
X89144723Y-105577743D01*
X89091434Y-105592022D01*
X89016066Y-105635535D01*
X82534535Y-112117066D01*
X82491022Y-112192434D01*
X82468500Y-112276490D01*
X82468500Y-116171673D01*
X82449306Y-116230745D01*
X82439064Y-116242737D01*
X81461237Y-117220564D01*
X81454011Y-117224245D01*
X81449245Y-117230806D01*
X81426865Y-117238077D01*
X81405895Y-117248763D01*
X81390173Y-117250000D01*
X81295983Y-117250000D01*
X81276378Y-117248069D01*
X81268491Y-117246500D01*
X81268489Y-117246500D01*
X81129911Y-117246500D01*
X81129908Y-117246500D01*
X81122022Y-117248069D01*
X81102417Y-117250000D01*
X80016085Y-117250000D01*
X79998489Y-117246500D01*
X79859911Y-117246500D01*
X79842315Y-117250000D01*
X79299000Y-117250000D01*
X79299000Y-117352979D01*
X79279806Y-117412051D01*
X79229556Y-117448560D01*
X79167444Y-117448560D01*
X79127436Y-117424043D01*
X79107336Y-117403943D01*
X78992200Y-117327011D01*
X78992198Y-117327010D01*
X78864256Y-117274014D01*
X78864250Y-117274013D01*
X78760700Y-117253415D01*
X78760700Y-117588968D01*
X78708570Y-117575000D01*
X78609830Y-117575000D01*
X78557700Y-117588968D01*
X78557700Y-117253416D01*
X78557699Y-117253415D01*
X78454149Y-117274013D01*
X78454143Y-117274014D01*
X78326201Y-117327010D01*
X78326199Y-117327011D01*
X78211063Y-117403943D01*
X78113145Y-117501861D01*
X78113141Y-117501866D01*
X78107762Y-117509917D01*
X78058983Y-117548370D01*
X77996919Y-117550807D01*
X77945275Y-117516299D01*
X77940638Y-117509917D01*
X77935258Y-117501866D01*
X77935254Y-117501861D01*
X77837336Y-117403943D01*
X77722200Y-117327011D01*
X77722198Y-117327010D01*
X77594256Y-117274014D01*
X77594250Y-117274013D01*
X77490700Y-117253415D01*
X77490700Y-117588968D01*
X77438570Y-117575000D01*
X77339830Y-117575000D01*
X77287700Y-117588968D01*
X77287700Y-117253416D01*
X77287699Y-117253415D01*
X77184149Y-117274013D01*
X77184143Y-117274014D01*
X77056201Y-117327010D01*
X77056199Y-117327011D01*
X76941063Y-117403943D01*
X76843145Y-117501861D01*
X76843141Y-117501866D01*
X76837762Y-117509917D01*
X76788983Y-117548370D01*
X76726919Y-117550807D01*
X76675275Y-117516299D01*
X76670638Y-117509917D01*
X76665258Y-117501866D01*
X76665254Y-117501861D01*
X76567336Y-117403943D01*
X76452200Y-117327011D01*
X76452198Y-117327010D01*
X76324256Y-117274014D01*
X76324250Y-117274013D01*
X76220700Y-117253415D01*
X76220700Y-117588968D01*
X76168570Y-117575000D01*
X76069830Y-117575000D01*
X76017700Y-117588968D01*
X76017700Y-117253416D01*
X76017699Y-117253415D01*
X75914149Y-117274013D01*
X75914143Y-117274014D01*
X75786201Y-117327010D01*
X75786199Y-117327011D01*
X75671063Y-117403943D01*
X75573143Y-117501863D01*
X75496211Y-117616999D01*
X75496210Y-117617001D01*
X75443214Y-117744945D01*
X75422616Y-117848500D01*
X75758168Y-117848500D01*
X75744200Y-117900630D01*
X75744200Y-117999370D01*
X75758168Y-118051500D01*
X75422617Y-118051500D01*
X75443214Y-118155054D01*
X75496210Y-118282998D01*
X75496211Y-118283000D01*
X75573143Y-118398136D01*
X75671063Y-118496056D01*
X75786199Y-118572988D01*
X75786201Y-118572989D01*
X75914145Y-118625985D01*
X76017700Y-118646583D01*
X76017700Y-118311031D01*
X76069830Y-118325000D01*
X76168570Y-118325000D01*
X76220700Y-118311031D01*
X76220700Y-118646582D01*
X76324254Y-118625985D01*
X76452198Y-118572989D01*
X76452200Y-118572988D01*
X76567336Y-118496056D01*
X76665257Y-118398135D01*
X76670636Y-118390085D01*
X76719413Y-118351631D01*
X76781478Y-118349191D01*
X76833123Y-118383697D01*
X76837764Y-118390085D01*
X76843142Y-118398135D01*
X76941063Y-118496056D01*
X77056199Y-118572988D01*
X77056201Y-118572989D01*
X77184145Y-118625985D01*
X77287700Y-118646583D01*
X77287700Y-118311031D01*
X77339830Y-118325000D01*
X77438570Y-118325000D01*
X77490700Y-118311031D01*
X77490700Y-118646582D01*
X77594254Y-118625985D01*
X77722198Y-118572989D01*
X77722200Y-118572988D01*
X77837336Y-118496056D01*
X77935257Y-118398135D01*
X77940636Y-118390085D01*
X77989413Y-118351631D01*
X78051478Y-118349191D01*
X78103123Y-118383697D01*
X78107764Y-118390085D01*
X78113142Y-118398135D01*
X78211063Y-118496056D01*
X78326199Y-118572988D01*
X78326201Y-118572989D01*
X78454145Y-118625985D01*
X78557700Y-118646583D01*
X78557700Y-118311031D01*
X78609830Y-118325000D01*
X78708570Y-118325000D01*
X78760700Y-118311031D01*
X78760700Y-118646582D01*
X78864254Y-118625985D01*
X78992198Y-118572989D01*
X78992200Y-118572988D01*
X79107336Y-118496056D01*
X79107338Y-118496054D01*
X79127436Y-118475957D01*
X79182778Y-118447758D01*
X79244126Y-118457475D01*
X79288046Y-118501395D01*
X79299000Y-118547021D01*
X79299000Y-118999500D01*
X79279806Y-119058572D01*
X79229556Y-119095081D01*
X79198500Y-119100000D01*
X74949500Y-119100000D01*
X74890428Y-119080806D01*
X74853919Y-119030556D01*
X74849000Y-118999500D01*
X74849000Y-98801000D01*
X74868194Y-98741928D01*
X74918444Y-98705419D01*
X74949500Y-98700500D01*
X153938882Y-98700500D01*
X154012574Y-98669976D01*
X154068976Y-98613574D01*
X154099500Y-98539882D01*
X154099500Y-89600500D01*
X154118694Y-89541428D01*
X154168944Y-89504919D01*
X154200000Y-89500000D01*
X160698500Y-89500000D01*
X160757572Y-89519194D01*
G37*
%TD.AperFunction*%
%TA.AperFunction,Conductor*%
G36*
X77014200Y-117900630D02*
G01*
X77014200Y-117999370D01*
X77028168Y-118051500D01*
X76480232Y-118051500D01*
X76494200Y-117999370D01*
X76494200Y-117900630D01*
X76480232Y-117848500D01*
X77028168Y-117848500D01*
X77014200Y-117900630D01*
G37*
%TD.AperFunction*%
%TA.AperFunction,Conductor*%
G36*
X78284200Y-117900630D02*
G01*
X78284200Y-117999370D01*
X78298168Y-118051500D01*
X77750232Y-118051500D01*
X77764200Y-117999370D01*
X77764200Y-117900630D01*
X77750232Y-117848500D01*
X78298168Y-117848500D01*
X78284200Y-117900630D01*
G37*
%TD.AperFunction*%
%TA.AperFunction,Conductor*%
G36*
X159255500Y-93198968D02*
G01*
X159203370Y-93185000D01*
X159104630Y-93185000D01*
X159052500Y-93198968D01*
X159052500Y-92651031D01*
X159104630Y-92665000D01*
X159203370Y-92665000D01*
X159255500Y-92651031D01*
X159255500Y-93198968D01*
G37*
%TD.AperFunction*%
%TA.AperFunction,Conductor*%
G36*
X159255500Y-91928968D02*
G01*
X159203370Y-91915000D01*
X159104630Y-91915000D01*
X159052500Y-91928968D01*
X159052500Y-91381031D01*
X159104630Y-91395000D01*
X159203370Y-91395000D01*
X159255500Y-91381031D01*
X159255500Y-91928968D01*
G37*
%TD.AperFunction*%
%TD*%
%TA.AperFunction,Conductor*%
%TO.N,/Left Drive/+3.3V*%
G36*
X200057572Y-103219194D02*
G01*
X200094081Y-103269444D01*
X200099000Y-103300500D01*
X200099000Y-107471000D01*
X200079806Y-107530072D01*
X200029556Y-107566581D01*
X199998500Y-107571500D01*
X199942587Y-107571500D01*
X199833607Y-107600700D01*
X199735897Y-107657112D01*
X199735892Y-107657116D01*
X199656116Y-107736892D01*
X199656112Y-107736897D01*
X199599700Y-107834607D01*
X199570500Y-107943587D01*
X199570500Y-108056412D01*
X199599175Y-108163434D01*
X199599701Y-108165395D01*
X199656114Y-108263105D01*
X199735895Y-108342886D01*
X199833605Y-108399299D01*
X199942587Y-108428500D01*
X199942592Y-108428500D01*
X199998500Y-108428500D01*
X200057572Y-108447694D01*
X200094081Y-108497944D01*
X200099000Y-108529000D01*
X200099000Y-118999500D01*
X200079806Y-119058572D01*
X200029556Y-119095081D01*
X199998500Y-119100000D01*
X197099500Y-119100000D01*
X197040428Y-119080806D01*
X197003919Y-119030556D01*
X196999000Y-118999500D01*
X196999000Y-118506621D01*
X197018194Y-118447549D01*
X197068444Y-118411040D01*
X197130556Y-118411040D01*
X197170564Y-118435557D01*
X197231063Y-118496056D01*
X197346199Y-118572988D01*
X197346201Y-118572989D01*
X197474145Y-118625985D01*
X197577700Y-118646583D01*
X197577700Y-118311031D01*
X197629830Y-118325000D01*
X197728570Y-118325000D01*
X197780700Y-118311031D01*
X197780700Y-118646582D01*
X197884254Y-118625985D01*
X198012198Y-118572989D01*
X198012200Y-118572988D01*
X198127336Y-118496056D01*
X198225257Y-118398135D01*
X198230636Y-118390085D01*
X198279413Y-118351631D01*
X198341478Y-118349191D01*
X198393123Y-118383697D01*
X198397764Y-118390085D01*
X198403142Y-118398135D01*
X198501063Y-118496056D01*
X198616199Y-118572988D01*
X198616201Y-118572989D01*
X198744145Y-118625985D01*
X198847700Y-118646583D01*
X198847700Y-118311031D01*
X198899830Y-118325000D01*
X198998570Y-118325000D01*
X199050700Y-118311031D01*
X199050700Y-118646582D01*
X199154254Y-118625985D01*
X199282198Y-118572989D01*
X199282200Y-118572988D01*
X199397336Y-118496056D01*
X199495256Y-118398136D01*
X199572188Y-118283000D01*
X199572189Y-118282998D01*
X199625185Y-118155054D01*
X199645783Y-118051500D01*
X199310232Y-118051500D01*
X199324200Y-117999370D01*
X199324200Y-117900630D01*
X199310232Y-117848500D01*
X199645783Y-117848500D01*
X199625185Y-117744945D01*
X199572189Y-117617001D01*
X199572188Y-117616999D01*
X199495256Y-117501863D01*
X199397336Y-117403943D01*
X199282200Y-117327011D01*
X199282198Y-117327010D01*
X199154256Y-117274014D01*
X199154250Y-117274013D01*
X199050700Y-117253415D01*
X199050700Y-117588968D01*
X198998570Y-117575000D01*
X198899830Y-117575000D01*
X198847700Y-117588968D01*
X198847700Y-117253416D01*
X198847699Y-117253415D01*
X198744149Y-117274013D01*
X198744143Y-117274014D01*
X198616201Y-117327010D01*
X198616199Y-117327011D01*
X198501063Y-117403943D01*
X198403145Y-117501861D01*
X198403141Y-117501866D01*
X198397762Y-117509917D01*
X198348983Y-117548370D01*
X198286919Y-117550807D01*
X198235275Y-117516299D01*
X198230638Y-117509917D01*
X198225258Y-117501866D01*
X198225254Y-117501861D01*
X198127336Y-117403943D01*
X198012200Y-117327011D01*
X198012198Y-117327010D01*
X197884256Y-117274014D01*
X197884250Y-117274013D01*
X197780700Y-117253415D01*
X197780700Y-117588968D01*
X197728570Y-117575000D01*
X197629830Y-117575000D01*
X197577700Y-117588968D01*
X197577700Y-117253416D01*
X197577699Y-117253415D01*
X197474149Y-117274013D01*
X197474143Y-117274014D01*
X197346201Y-117327010D01*
X197346199Y-117327011D01*
X197231063Y-117403943D01*
X197133145Y-117501861D01*
X197133141Y-117501866D01*
X197128062Y-117509468D01*
X197079283Y-117547921D01*
X197017219Y-117550358D01*
X196965575Y-117515850D01*
X196960937Y-117509466D01*
X196955647Y-117501549D01*
X196955642Y-117501543D01*
X196857656Y-117403557D01*
X196857647Y-117403550D01*
X196742434Y-117326566D01*
X196742433Y-117326565D01*
X196614405Y-117273536D01*
X196614406Y-117273536D01*
X196614403Y-117273535D01*
X196614399Y-117273534D01*
X196614395Y-117273533D01*
X196478489Y-117246500D01*
X196339911Y-117246500D01*
X196339910Y-117246500D01*
X196253459Y-117263696D01*
X196191777Y-117256395D01*
X196162789Y-117236191D01*
X193070185Y-114143587D01*
X194570500Y-114143587D01*
X194570500Y-114256413D01*
X194599701Y-114365395D01*
X194656114Y-114463105D01*
X194735895Y-114542886D01*
X194833605Y-114599299D01*
X194942587Y-114628500D01*
X194942592Y-114628500D01*
X195055408Y-114628500D01*
X195055413Y-114628500D01*
X195164395Y-114599299D01*
X195262105Y-114542886D01*
X195341886Y-114463105D01*
X195398299Y-114365395D01*
X195427500Y-114256413D01*
X195427500Y-114143587D01*
X196570500Y-114143587D01*
X196570500Y-114256413D01*
X196599701Y-114365395D01*
X196656114Y-114463105D01*
X196735895Y-114542886D01*
X196833605Y-114599299D01*
X196942587Y-114628500D01*
X196942592Y-114628500D01*
X197055408Y-114628500D01*
X197055413Y-114628500D01*
X197164395Y-114599299D01*
X197262105Y-114542886D01*
X197341886Y-114463105D01*
X197398299Y-114365395D01*
X197427500Y-114256413D01*
X197427500Y-114143587D01*
X198570500Y-114143587D01*
X198570500Y-114256413D01*
X198599701Y-114365395D01*
X198656114Y-114463105D01*
X198735895Y-114542886D01*
X198833605Y-114599299D01*
X198942587Y-114628500D01*
X198942592Y-114628500D01*
X199055408Y-114628500D01*
X199055413Y-114628500D01*
X199164395Y-114599299D01*
X199262105Y-114542886D01*
X199341886Y-114463105D01*
X199398299Y-114365395D01*
X199427500Y-114256413D01*
X199427500Y-114143587D01*
X199398299Y-114034605D01*
X199341886Y-113936895D01*
X199262105Y-113857114D01*
X199164395Y-113800701D01*
X199164392Y-113800700D01*
X199118328Y-113788357D01*
X199055413Y-113771500D01*
X198942587Y-113771500D01*
X198833607Y-113800700D01*
X198735897Y-113857112D01*
X198735892Y-113857116D01*
X198656116Y-113936892D01*
X198656112Y-113936897D01*
X198608427Y-114019491D01*
X198599701Y-114034605D01*
X198570500Y-114143587D01*
X197427500Y-114143587D01*
X197398299Y-114034605D01*
X197341886Y-113936895D01*
X197262105Y-113857114D01*
X197164395Y-113800701D01*
X197164392Y-113800700D01*
X197118328Y-113788357D01*
X197055413Y-113771500D01*
X196942587Y-113771500D01*
X196833607Y-113800700D01*
X196735897Y-113857112D01*
X196735892Y-113857116D01*
X196656116Y-113936892D01*
X196656112Y-113936897D01*
X196608427Y-114019491D01*
X196599701Y-114034605D01*
X196570500Y-114143587D01*
X195427500Y-114143587D01*
X195398299Y-114034605D01*
X195341886Y-113936895D01*
X195262105Y-113857114D01*
X195164395Y-113800701D01*
X195164392Y-113800700D01*
X195118328Y-113788357D01*
X195055413Y-113771500D01*
X194942587Y-113771500D01*
X194833607Y-113800700D01*
X194735897Y-113857112D01*
X194735892Y-113857116D01*
X194656116Y-113936892D01*
X194656112Y-113936897D01*
X194608427Y-114019491D01*
X194599701Y-114034605D01*
X194570500Y-114143587D01*
X193070185Y-114143587D01*
X186870185Y-107943587D01*
X187570500Y-107943587D01*
X187570500Y-108056412D01*
X187599175Y-108163434D01*
X187599701Y-108165395D01*
X187656114Y-108263105D01*
X187735895Y-108342886D01*
X187833605Y-108399299D01*
X187942587Y-108428500D01*
X187942592Y-108428500D01*
X188055408Y-108428500D01*
X188055413Y-108428500D01*
X188164395Y-108399299D01*
X188262105Y-108342886D01*
X188341886Y-108263105D01*
X188398299Y-108165395D01*
X188427500Y-108056413D01*
X188427500Y-107943587D01*
X189570500Y-107943587D01*
X189570500Y-108056412D01*
X189599175Y-108163434D01*
X189599701Y-108165395D01*
X189656114Y-108263105D01*
X189735895Y-108342886D01*
X189833605Y-108399299D01*
X189942587Y-108428500D01*
X189942592Y-108428500D01*
X190055408Y-108428500D01*
X190055413Y-108428500D01*
X190164395Y-108399299D01*
X190262105Y-108342886D01*
X190341886Y-108263105D01*
X190398299Y-108165395D01*
X190427500Y-108056413D01*
X190427500Y-107943587D01*
X191570500Y-107943587D01*
X191570500Y-108056412D01*
X191599175Y-108163434D01*
X191599701Y-108165395D01*
X191656114Y-108263105D01*
X191735895Y-108342886D01*
X191833605Y-108399299D01*
X191942587Y-108428500D01*
X191942592Y-108428500D01*
X192055408Y-108428500D01*
X192055413Y-108428500D01*
X192164395Y-108399299D01*
X192262105Y-108342886D01*
X192341886Y-108263105D01*
X192398299Y-108165395D01*
X192427500Y-108056413D01*
X192427500Y-107943587D01*
X193570500Y-107943587D01*
X193570500Y-108056412D01*
X193599175Y-108163434D01*
X193599701Y-108165395D01*
X193656114Y-108263105D01*
X193735895Y-108342886D01*
X193833605Y-108399299D01*
X193942587Y-108428500D01*
X193942592Y-108428500D01*
X194055408Y-108428500D01*
X194055413Y-108428500D01*
X194164395Y-108399299D01*
X194262105Y-108342886D01*
X194341886Y-108263105D01*
X194398299Y-108165395D01*
X194427500Y-108056413D01*
X194427500Y-107943587D01*
X195570500Y-107943587D01*
X195570500Y-108056412D01*
X195599175Y-108163434D01*
X195599701Y-108165395D01*
X195656114Y-108263105D01*
X195735895Y-108342886D01*
X195833605Y-108399299D01*
X195942587Y-108428500D01*
X195942592Y-108428500D01*
X196055408Y-108428500D01*
X196055413Y-108428500D01*
X196164395Y-108399299D01*
X196262105Y-108342886D01*
X196341886Y-108263105D01*
X196398299Y-108165395D01*
X196427500Y-108056413D01*
X196427500Y-107943587D01*
X197570500Y-107943587D01*
X197570500Y-108056412D01*
X197599175Y-108163434D01*
X197599701Y-108165395D01*
X197656114Y-108263105D01*
X197735895Y-108342886D01*
X197833605Y-108399299D01*
X197942587Y-108428500D01*
X197942592Y-108428500D01*
X198055408Y-108428500D01*
X198055413Y-108428500D01*
X198164395Y-108399299D01*
X198262105Y-108342886D01*
X198341886Y-108263105D01*
X198398299Y-108165395D01*
X198427500Y-108056413D01*
X198427500Y-107943587D01*
X198398299Y-107834605D01*
X198341886Y-107736895D01*
X198262105Y-107657114D01*
X198164395Y-107600701D01*
X198164392Y-107600700D01*
X198118328Y-107588357D01*
X198055413Y-107571500D01*
X197942587Y-107571500D01*
X197833607Y-107600700D01*
X197735897Y-107657112D01*
X197735892Y-107657116D01*
X197656116Y-107736892D01*
X197656112Y-107736897D01*
X197599700Y-107834607D01*
X197570500Y-107943587D01*
X196427500Y-107943587D01*
X196398299Y-107834605D01*
X196341886Y-107736895D01*
X196262105Y-107657114D01*
X196164395Y-107600701D01*
X196164392Y-107600700D01*
X196118328Y-107588357D01*
X196055413Y-107571500D01*
X195942587Y-107571500D01*
X195833607Y-107600700D01*
X195735897Y-107657112D01*
X195735892Y-107657116D01*
X195656116Y-107736892D01*
X195656112Y-107736897D01*
X195599700Y-107834607D01*
X195570500Y-107943587D01*
X194427500Y-107943587D01*
X194398299Y-107834605D01*
X194341886Y-107736895D01*
X194262105Y-107657114D01*
X194164395Y-107600701D01*
X194164392Y-107600700D01*
X194118328Y-107588357D01*
X194055413Y-107571500D01*
X193942587Y-107571500D01*
X193833607Y-107600700D01*
X193735897Y-107657112D01*
X193735892Y-107657116D01*
X193656116Y-107736892D01*
X193656112Y-107736897D01*
X193599700Y-107834607D01*
X193570500Y-107943587D01*
X192427500Y-107943587D01*
X192398299Y-107834605D01*
X192341886Y-107736895D01*
X192262105Y-107657114D01*
X192164395Y-107600701D01*
X192164392Y-107600700D01*
X192118328Y-107588357D01*
X192055413Y-107571500D01*
X191942587Y-107571500D01*
X191833607Y-107600700D01*
X191735897Y-107657112D01*
X191735892Y-107657116D01*
X191656116Y-107736892D01*
X191656112Y-107736897D01*
X191599700Y-107834607D01*
X191570500Y-107943587D01*
X190427500Y-107943587D01*
X190398299Y-107834605D01*
X190341886Y-107736895D01*
X190262105Y-107657114D01*
X190164395Y-107600701D01*
X190164392Y-107600700D01*
X190118328Y-107588357D01*
X190055413Y-107571500D01*
X189942587Y-107571500D01*
X189833607Y-107600700D01*
X189735897Y-107657112D01*
X189735892Y-107657116D01*
X189656116Y-107736892D01*
X189656112Y-107736897D01*
X189599700Y-107834607D01*
X189570500Y-107943587D01*
X188427500Y-107943587D01*
X188398299Y-107834605D01*
X188341886Y-107736895D01*
X188262105Y-107657114D01*
X188164395Y-107600701D01*
X188164392Y-107600700D01*
X188118328Y-107588357D01*
X188055413Y-107571500D01*
X187942587Y-107571500D01*
X187833607Y-107600700D01*
X187735897Y-107657112D01*
X187735892Y-107657116D01*
X187656116Y-107736892D01*
X187656112Y-107736897D01*
X187599700Y-107834607D01*
X187570500Y-107943587D01*
X186870185Y-107943587D01*
X186202133Y-107275535D01*
X186202132Y-107275534D01*
X186126768Y-107232023D01*
X186126765Y-107232022D01*
X186104242Y-107225987D01*
X186042711Y-107209500D01*
X186042709Y-107209500D01*
X185741926Y-107209500D01*
X185703466Y-107201850D01*
X185699000Y-107200000D01*
X175578742Y-107200000D01*
X175519670Y-107180806D01*
X175483161Y-107130556D01*
X175483161Y-107068444D01*
X175519670Y-107018194D01*
X175552732Y-107002424D01*
X175564395Y-106999299D01*
X175662105Y-106942886D01*
X175741886Y-106863105D01*
X175798299Y-106765395D01*
X175827500Y-106656413D01*
X175827500Y-106543587D01*
X175798299Y-106434605D01*
X175741886Y-106336895D01*
X175662105Y-106257114D01*
X175564395Y-106200701D01*
X175564392Y-106200700D01*
X175518328Y-106188357D01*
X175455413Y-106171500D01*
X175342587Y-106171500D01*
X175233607Y-106200700D01*
X175135897Y-106257112D01*
X175135892Y-106257116D01*
X175056116Y-106336892D01*
X175056112Y-106336897D01*
X174999700Y-106434607D01*
X174970500Y-106543587D01*
X174970500Y-106656413D01*
X174999701Y-106765395D01*
X175056114Y-106863105D01*
X175135895Y-106942886D01*
X175233605Y-106999299D01*
X175245268Y-107002424D01*
X175297360Y-107036252D01*
X175319620Y-107094239D01*
X175303545Y-107154235D01*
X175255276Y-107193324D01*
X175219258Y-107200000D01*
X171826630Y-107200000D01*
X171767558Y-107180806D01*
X171743067Y-107155335D01*
X171700444Y-107091545D01*
X171602452Y-106993553D01*
X171594531Y-106988261D01*
X171556078Y-106939483D01*
X171553640Y-106877418D01*
X171588149Y-106825774D01*
X171594539Y-106821132D01*
X171602135Y-106816057D01*
X171700056Y-106718136D01*
X171776988Y-106603000D01*
X171776989Y-106602998D01*
X171829985Y-106475054D01*
X171850583Y-106371500D01*
X171515032Y-106371500D01*
X171529000Y-106319370D01*
X171529000Y-106220630D01*
X171515032Y-106168500D01*
X171850583Y-106168500D01*
X171829985Y-106064945D01*
X171776989Y-105937001D01*
X171776988Y-105936999D01*
X171700056Y-105821863D01*
X171602135Y-105723942D01*
X171594085Y-105718564D01*
X171555631Y-105669787D01*
X171553191Y-105607722D01*
X171587697Y-105556077D01*
X171594085Y-105551436D01*
X171602135Y-105546057D01*
X171700056Y-105448136D01*
X171776988Y-105333000D01*
X171776989Y-105332998D01*
X171829985Y-105205054D01*
X171842212Y-105143587D01*
X173770500Y-105143587D01*
X173770500Y-105256413D01*
X173799701Y-105365395D01*
X173856114Y-105463105D01*
X173935895Y-105542886D01*
X174033605Y-105599299D01*
X174142587Y-105628500D01*
X174142592Y-105628500D01*
X174255408Y-105628500D01*
X174255413Y-105628500D01*
X174364395Y-105599299D01*
X174462105Y-105542886D01*
X174541886Y-105463105D01*
X174598299Y-105365395D01*
X174627500Y-105256413D01*
X174627500Y-105143587D01*
X174598299Y-105034605D01*
X174541886Y-104936895D01*
X174462105Y-104857114D01*
X174458885Y-104855255D01*
X174435921Y-104841996D01*
X174364395Y-104800701D01*
X174364392Y-104800700D01*
X174318328Y-104788357D01*
X174255413Y-104771500D01*
X174142587Y-104771500D01*
X174033607Y-104800700D01*
X173935897Y-104857112D01*
X173935892Y-104857116D01*
X173856116Y-104936892D01*
X173856112Y-104936897D01*
X173799700Y-105034607D01*
X173777518Y-105117394D01*
X173770500Y-105143587D01*
X171842212Y-105143587D01*
X171847422Y-105117394D01*
X171847422Y-105117393D01*
X171850584Y-105101500D01*
X171515032Y-105101500D01*
X171529000Y-105049370D01*
X171529000Y-104950630D01*
X171515032Y-104898500D01*
X171850583Y-104898500D01*
X171829985Y-104794945D01*
X171776989Y-104667001D01*
X171776988Y-104666999D01*
X171700056Y-104551863D01*
X171602136Y-104453943D01*
X171487000Y-104377011D01*
X171486998Y-104377010D01*
X171359056Y-104324014D01*
X171359050Y-104324013D01*
X171255500Y-104303415D01*
X171255500Y-104638968D01*
X171203370Y-104625000D01*
X171104630Y-104625000D01*
X171052500Y-104638968D01*
X171052500Y-104303416D01*
X171052499Y-104303415D01*
X170948949Y-104324013D01*
X170948943Y-104324014D01*
X170821001Y-104377010D01*
X170820999Y-104377011D01*
X170705863Y-104453943D01*
X170607943Y-104551863D01*
X170531011Y-104666999D01*
X170531010Y-104667001D01*
X170478014Y-104794945D01*
X170457416Y-104898500D01*
X170792968Y-104898500D01*
X170779000Y-104950630D01*
X170779000Y-105049370D01*
X170792968Y-105101500D01*
X170457417Y-105101500D01*
X170478014Y-105205054D01*
X170531010Y-105332998D01*
X170531011Y-105333000D01*
X170607943Y-105448136D01*
X170705861Y-105546054D01*
X170705866Y-105546058D01*
X170713917Y-105551438D01*
X170752370Y-105600217D01*
X170754807Y-105662281D01*
X170720299Y-105713925D01*
X170713917Y-105718562D01*
X170705866Y-105723941D01*
X170705861Y-105723945D01*
X170607943Y-105821863D01*
X170531011Y-105936999D01*
X170531010Y-105937001D01*
X170478014Y-106064945D01*
X170457416Y-106168500D01*
X170792968Y-106168500D01*
X170779000Y-106220630D01*
X170779000Y-106319370D01*
X170792968Y-106371500D01*
X170457417Y-106371500D01*
X170478014Y-106475054D01*
X170531010Y-106602998D01*
X170531011Y-106603000D01*
X170607943Y-106718136D01*
X170705861Y-106816054D01*
X170705866Y-106816058D01*
X170713463Y-106821134D01*
X170751919Y-106869910D01*
X170754360Y-106931975D01*
X170719854Y-106983621D01*
X170713471Y-106988259D01*
X170705549Y-106993552D01*
X170705543Y-106993557D01*
X170607555Y-107091545D01*
X170564933Y-107155335D01*
X170516155Y-107193788D01*
X170481370Y-107200000D01*
X169599500Y-107200000D01*
X169540428Y-107180806D01*
X169503919Y-107130556D01*
X169499000Y-107099500D01*
X169499000Y-103300500D01*
X169518194Y-103241428D01*
X169568444Y-103204919D01*
X169599500Y-103200000D01*
X199998500Y-103200000D01*
X200057572Y-103219194D01*
G37*
%TD.AperFunction*%
%TA.AperFunction,Conductor*%
G36*
X198574200Y-117900630D02*
G01*
X198574200Y-117999370D01*
X198588168Y-118051500D01*
X198040232Y-118051500D01*
X198054200Y-117999370D01*
X198054200Y-117900630D01*
X198040232Y-117848500D01*
X198588168Y-117848500D01*
X198574200Y-117900630D01*
G37*
%TD.AperFunction*%
%TA.AperFunction,Conductor*%
G36*
X171255500Y-105908968D02*
G01*
X171203370Y-105895000D01*
X171104630Y-105895000D01*
X171052500Y-105908968D01*
X171052500Y-105361031D01*
X171104630Y-105375000D01*
X171203370Y-105375000D01*
X171255500Y-105361031D01*
X171255500Y-105908968D01*
G37*
%TD.AperFunction*%
%TD*%
%TA.AperFunction,Conductor*%
%TO.N,/Right Drive/+5V*%
G36*
X86380700Y-118646582D02*
G01*
X86484254Y-118625985D01*
X86612198Y-118572989D01*
X86612200Y-118572988D01*
X86727336Y-118496056D01*
X86727338Y-118496054D01*
X86777436Y-118445957D01*
X86832778Y-118417758D01*
X86894126Y-118427475D01*
X86938046Y-118471395D01*
X86949000Y-118517021D01*
X86949000Y-118700000D01*
X91045573Y-120871677D01*
X91088774Y-120916303D01*
X91099000Y-120960471D01*
X91099000Y-122699000D01*
X91079806Y-122758072D01*
X91029556Y-122794581D01*
X90998500Y-122799500D01*
X80299500Y-122799500D01*
X80240428Y-122780306D01*
X80203919Y-122730056D01*
X80199000Y-122699000D01*
X80199000Y-121990569D01*
X80446000Y-121990569D01*
X80448790Y-122020319D01*
X80448790Y-122020320D01*
X80492645Y-122145651D01*
X80492648Y-122145656D01*
X80571500Y-122252499D01*
X80678343Y-122331351D01*
X80678348Y-122331354D01*
X80803679Y-122375209D01*
X80833430Y-122377999D01*
X80833442Y-122378000D01*
X81072500Y-122378000D01*
X81275500Y-122378000D01*
X81514558Y-122378000D01*
X81514569Y-122377999D01*
X81544319Y-122375209D01*
X81544320Y-122375209D01*
X81669651Y-122331354D01*
X81669656Y-122331351D01*
X81776499Y-122252499D01*
X81855351Y-122145656D01*
X81855354Y-122145651D01*
X81899209Y-122020320D01*
X81899209Y-122020319D01*
X81901999Y-121990569D01*
X89396000Y-121990569D01*
X89398790Y-122020319D01*
X89398790Y-122020320D01*
X89442645Y-122145651D01*
X89442648Y-122145656D01*
X89521500Y-122252499D01*
X89628343Y-122331351D01*
X89628348Y-122331354D01*
X89753679Y-122375209D01*
X89783430Y-122377999D01*
X89783442Y-122378000D01*
X90022500Y-122378000D01*
X90225500Y-122378000D01*
X90464558Y-122378000D01*
X90464569Y-122377999D01*
X90494319Y-122375209D01*
X90494320Y-122375209D01*
X90619651Y-122331354D01*
X90619656Y-122331351D01*
X90726499Y-122252499D01*
X90805351Y-122145656D01*
X90805354Y-122145651D01*
X90849209Y-122020320D01*
X90849209Y-122020319D01*
X90851999Y-121990569D01*
X90852000Y-121990558D01*
X90852000Y-121801500D01*
X90225500Y-121801500D01*
X90225500Y-122378000D01*
X90022500Y-122378000D01*
X90022500Y-121801500D01*
X89396000Y-121801500D01*
X89396000Y-121990569D01*
X81901999Y-121990569D01*
X81902000Y-121990558D01*
X81902000Y-121801500D01*
X81275500Y-121801500D01*
X81275500Y-122378000D01*
X81072500Y-122378000D01*
X81072500Y-121801500D01*
X80446000Y-121801500D01*
X80446000Y-121990569D01*
X80199000Y-121990569D01*
X80199000Y-121409430D01*
X80446000Y-121409430D01*
X80446000Y-121598500D01*
X81072500Y-121598500D01*
X81275500Y-121598500D01*
X81902000Y-121598500D01*
X81902000Y-121409442D01*
X81901999Y-121409430D01*
X89396000Y-121409430D01*
X89396000Y-121598500D01*
X90022500Y-121598500D01*
X90225500Y-121598500D01*
X90852000Y-121598500D01*
X90852000Y-121409442D01*
X90851999Y-121409430D01*
X90849209Y-121379680D01*
X90849209Y-121379679D01*
X90805354Y-121254348D01*
X90805351Y-121254343D01*
X90726499Y-121147500D01*
X90619656Y-121068648D01*
X90619651Y-121068645D01*
X90494320Y-121024790D01*
X90464569Y-121022000D01*
X90225500Y-121022000D01*
X90225500Y-121598500D01*
X90022500Y-121598500D01*
X90022500Y-121022000D01*
X89783430Y-121022000D01*
X89753680Y-121024790D01*
X89753679Y-121024790D01*
X89628348Y-121068645D01*
X89628343Y-121068648D01*
X89521500Y-121147500D01*
X89442648Y-121254343D01*
X89442645Y-121254348D01*
X89398790Y-121379679D01*
X89398790Y-121379680D01*
X89396000Y-121409430D01*
X81901999Y-121409430D01*
X81899209Y-121379680D01*
X81899209Y-121379679D01*
X81855354Y-121254348D01*
X81855351Y-121254343D01*
X81776499Y-121147500D01*
X81669656Y-121068648D01*
X81669651Y-121068645D01*
X81544320Y-121024790D01*
X81514569Y-121022000D01*
X81275500Y-121022000D01*
X81275500Y-121598500D01*
X81072500Y-121598500D01*
X81072500Y-121022000D01*
X80833430Y-121022000D01*
X80803680Y-121024790D01*
X80803679Y-121024790D01*
X80678348Y-121068645D01*
X80678343Y-121068648D01*
X80571500Y-121147500D01*
X80492648Y-121254343D01*
X80492645Y-121254348D01*
X80448790Y-121379679D01*
X80448790Y-121379680D01*
X80446000Y-121409430D01*
X80199000Y-121409430D01*
X80199000Y-121391818D01*
X80205527Y-121359001D01*
X80205272Y-121358933D01*
X80206317Y-121355029D01*
X80206651Y-121353355D01*
X80206974Y-121352573D01*
X80206977Y-121352569D01*
X80229500Y-121268511D01*
X80229500Y-121181489D01*
X80229500Y-120926340D01*
X80248694Y-120867268D01*
X80268947Y-120846511D01*
X83099000Y-118682352D01*
X83099000Y-118546621D01*
X83118194Y-118487549D01*
X83168444Y-118451040D01*
X83230556Y-118451040D01*
X83270564Y-118475557D01*
X83291063Y-118496056D01*
X83406199Y-118572988D01*
X83406201Y-118572989D01*
X83534145Y-118625985D01*
X83637700Y-118646583D01*
X83637700Y-118311031D01*
X83689830Y-118325000D01*
X83788570Y-118325000D01*
X83840700Y-118311031D01*
X83840700Y-118646582D01*
X83944254Y-118625985D01*
X84072198Y-118572989D01*
X84072200Y-118572988D01*
X84187336Y-118496056D01*
X84285257Y-118398135D01*
X84290636Y-118390085D01*
X84339413Y-118351631D01*
X84401478Y-118349191D01*
X84453123Y-118383697D01*
X84457764Y-118390085D01*
X84463142Y-118398135D01*
X84561063Y-118496056D01*
X84676199Y-118572988D01*
X84676201Y-118572989D01*
X84804145Y-118625985D01*
X84907700Y-118646583D01*
X84907700Y-118311031D01*
X84959830Y-118325000D01*
X85058570Y-118325000D01*
X85110700Y-118311031D01*
X85110700Y-118646582D01*
X85214254Y-118625985D01*
X85342198Y-118572989D01*
X85342200Y-118572988D01*
X85457336Y-118496056D01*
X85555257Y-118398135D01*
X85560636Y-118390085D01*
X85609413Y-118351631D01*
X85671478Y-118349191D01*
X85723123Y-118383697D01*
X85727764Y-118390085D01*
X85733142Y-118398135D01*
X85831063Y-118496056D01*
X85946199Y-118572988D01*
X85946201Y-118572989D01*
X86074145Y-118625985D01*
X86177700Y-118646583D01*
X86177700Y-118311031D01*
X86229830Y-118325000D01*
X86328570Y-118325000D01*
X86380700Y-118311031D01*
X86380700Y-118646582D01*
G37*
%TD.AperFunction*%
%TA.AperFunction,Conductor*%
G36*
X84634200Y-117900630D02*
G01*
X84634200Y-117999370D01*
X84648168Y-118051500D01*
X84100232Y-118051500D01*
X84114200Y-117999370D01*
X84114200Y-117900630D01*
X84100232Y-117848500D01*
X84648168Y-117848500D01*
X84634200Y-117900630D01*
G37*
%TD.AperFunction*%
%TA.AperFunction,Conductor*%
G36*
X85904200Y-117900630D02*
G01*
X85904200Y-117999370D01*
X85918168Y-118051500D01*
X85370232Y-118051500D01*
X85384200Y-117999370D01*
X85384200Y-117900630D01*
X85370232Y-117848500D01*
X85918168Y-117848500D01*
X85904200Y-117900630D01*
G37*
%TD.AperFunction*%
%TA.AperFunction,Conductor*%
G36*
X158616251Y-98019194D02*
G01*
X158652760Y-98069444D01*
X158652760Y-98131556D01*
X158628243Y-98171564D01*
X158607945Y-98191861D01*
X158607943Y-98191863D01*
X158531011Y-98306999D01*
X158531010Y-98307001D01*
X158478014Y-98434945D01*
X158457416Y-98538500D01*
X158792968Y-98538500D01*
X158779000Y-98590630D01*
X158779000Y-98689370D01*
X158792968Y-98741500D01*
X158457417Y-98741500D01*
X158478014Y-98845054D01*
X158531010Y-98972998D01*
X158531011Y-98973000D01*
X158607943Y-99088136D01*
X158705861Y-99186054D01*
X158705866Y-99186058D01*
X158713917Y-99191438D01*
X158752370Y-99240217D01*
X158754807Y-99302281D01*
X158720299Y-99353925D01*
X158713917Y-99358562D01*
X158705866Y-99363941D01*
X158705861Y-99363945D01*
X158607943Y-99461863D01*
X158531011Y-99576999D01*
X158531010Y-99577001D01*
X158478014Y-99704945D01*
X158457416Y-99808500D01*
X158792968Y-99808500D01*
X158779000Y-99860630D01*
X158779000Y-99959370D01*
X158792968Y-100011500D01*
X158457417Y-100011500D01*
X158478014Y-100115054D01*
X158531010Y-100242998D01*
X158531011Y-100243000D01*
X158607943Y-100358136D01*
X158705861Y-100456054D01*
X158705866Y-100456058D01*
X158713917Y-100461438D01*
X158752370Y-100510217D01*
X158754807Y-100572281D01*
X158720299Y-100623925D01*
X158713917Y-100628562D01*
X158705866Y-100633941D01*
X158705861Y-100633945D01*
X158607943Y-100731863D01*
X158531011Y-100846999D01*
X158531010Y-100847001D01*
X158478014Y-100974945D01*
X158457416Y-101078500D01*
X158792968Y-101078500D01*
X158779000Y-101130630D01*
X158779000Y-101229370D01*
X158792968Y-101281500D01*
X158457417Y-101281500D01*
X158478014Y-101385054D01*
X158531010Y-101512998D01*
X158531011Y-101513000D01*
X158607943Y-101628136D01*
X158608243Y-101628436D01*
X158608330Y-101628607D01*
X158611073Y-101631949D01*
X158610339Y-101632550D01*
X158636442Y-101683778D01*
X158626725Y-101745126D01*
X158582805Y-101789046D01*
X158537179Y-101800000D01*
X158399000Y-101800000D01*
X158399000Y-105901176D01*
X158379806Y-105960248D01*
X158348751Y-105988211D01*
X158336073Y-105995530D01*
X158336065Y-105995536D01*
X151191538Y-113140064D01*
X151136196Y-113168263D01*
X151120474Y-113169500D01*
X91855489Y-113169500D01*
X91824723Y-113177743D01*
X91771434Y-113192022D01*
X91696066Y-113235535D01*
X91634532Y-113297070D01*
X91157238Y-113774361D01*
X91153055Y-113778312D01*
X88118075Y-116484199D01*
X86973582Y-117504591D01*
X86967369Y-117510130D01*
X86910503Y-117535115D01*
X86849812Y-117521903D01*
X86829509Y-117504591D01*
X86828747Y-117505354D01*
X86727336Y-117403943D01*
X86612200Y-117327011D01*
X86612198Y-117327010D01*
X86484256Y-117274014D01*
X86484250Y-117274013D01*
X86380700Y-117253415D01*
X86380700Y-117588968D01*
X86328570Y-117575000D01*
X86229830Y-117575000D01*
X86177700Y-117588968D01*
X86177700Y-117253416D01*
X86177699Y-117253415D01*
X86074149Y-117274013D01*
X86074143Y-117274014D01*
X85946201Y-117327010D01*
X85946199Y-117327011D01*
X85831063Y-117403943D01*
X85733145Y-117501861D01*
X85733141Y-117501866D01*
X85727762Y-117509917D01*
X85678983Y-117548370D01*
X85616919Y-117550807D01*
X85565275Y-117516299D01*
X85560638Y-117509917D01*
X85555258Y-117501866D01*
X85555254Y-117501861D01*
X85457336Y-117403943D01*
X85342200Y-117327011D01*
X85342198Y-117327010D01*
X85214256Y-117274014D01*
X85214250Y-117274013D01*
X85110700Y-117253415D01*
X85110700Y-117588968D01*
X85058570Y-117575000D01*
X84959830Y-117575000D01*
X84907700Y-117588968D01*
X84907700Y-117253416D01*
X84907699Y-117253415D01*
X84804149Y-117274013D01*
X84804143Y-117274014D01*
X84676201Y-117327010D01*
X84676199Y-117327011D01*
X84561063Y-117403943D01*
X84463145Y-117501861D01*
X84463141Y-117501866D01*
X84457762Y-117509917D01*
X84408983Y-117548370D01*
X84346919Y-117550807D01*
X84295275Y-117516299D01*
X84290638Y-117509917D01*
X84285258Y-117501866D01*
X84285254Y-117501861D01*
X84187336Y-117403943D01*
X84072200Y-117327011D01*
X84072198Y-117327010D01*
X83944256Y-117274014D01*
X83944250Y-117274013D01*
X83840700Y-117253415D01*
X83840700Y-117588968D01*
X83788570Y-117575000D01*
X83689830Y-117575000D01*
X83637700Y-117588968D01*
X83637700Y-117253416D01*
X83637699Y-117253415D01*
X83534149Y-117274013D01*
X83534143Y-117274014D01*
X83406201Y-117327010D01*
X83406199Y-117327011D01*
X83291063Y-117403943D01*
X83291061Y-117403945D01*
X83270564Y-117424443D01*
X83215222Y-117452642D01*
X83153874Y-117442925D01*
X83109954Y-117399005D01*
X83099000Y-117353379D01*
X83099000Y-116517017D01*
X83105527Y-116484199D01*
X83105272Y-116484131D01*
X83106318Y-116480224D01*
X83106651Y-116478554D01*
X83106972Y-116477775D01*
X83106977Y-116477768D01*
X83129500Y-116393711D01*
X83129500Y-116306689D01*
X83129500Y-112498526D01*
X83148694Y-112439454D01*
X83158936Y-112427462D01*
X85842811Y-109743587D01*
X99570500Y-109743587D01*
X99570500Y-109856413D01*
X99599701Y-109965395D01*
X99656114Y-110063105D01*
X99735895Y-110142886D01*
X99833605Y-110199299D01*
X99942587Y-110228500D01*
X99942592Y-110228500D01*
X100055408Y-110228500D01*
X100055413Y-110228500D01*
X100164395Y-110199299D01*
X100262105Y-110142886D01*
X100341886Y-110063105D01*
X100398299Y-109965395D01*
X100427500Y-109856413D01*
X100427500Y-109743587D01*
X101570500Y-109743587D01*
X101570500Y-109856413D01*
X101599701Y-109965395D01*
X101656114Y-110063105D01*
X101735895Y-110142886D01*
X101833605Y-110199299D01*
X101942587Y-110228500D01*
X101942592Y-110228500D01*
X102055408Y-110228500D01*
X102055413Y-110228500D01*
X102164395Y-110199299D01*
X102262105Y-110142886D01*
X102341886Y-110063105D01*
X102398299Y-109965395D01*
X102427500Y-109856413D01*
X102427500Y-109743587D01*
X103570500Y-109743587D01*
X103570500Y-109856413D01*
X103599701Y-109965395D01*
X103656114Y-110063105D01*
X103735895Y-110142886D01*
X103833605Y-110199299D01*
X103942587Y-110228500D01*
X103942592Y-110228500D01*
X104055408Y-110228500D01*
X104055413Y-110228500D01*
X104164395Y-110199299D01*
X104262105Y-110142886D01*
X104341886Y-110063105D01*
X104398299Y-109965395D01*
X104427500Y-109856413D01*
X104427500Y-109743587D01*
X120570500Y-109743587D01*
X120570500Y-109856413D01*
X120599701Y-109965395D01*
X120656114Y-110063105D01*
X120735895Y-110142886D01*
X120833605Y-110199299D01*
X120942587Y-110228500D01*
X120942592Y-110228500D01*
X121055408Y-110228500D01*
X121055413Y-110228500D01*
X121164395Y-110199299D01*
X121262105Y-110142886D01*
X121341886Y-110063105D01*
X121398299Y-109965395D01*
X121427500Y-109856413D01*
X121427500Y-109743587D01*
X122570500Y-109743587D01*
X122570500Y-109856413D01*
X122599701Y-109965395D01*
X122656114Y-110063105D01*
X122735895Y-110142886D01*
X122833605Y-110199299D01*
X122942587Y-110228500D01*
X122942592Y-110228500D01*
X123055408Y-110228500D01*
X123055413Y-110228500D01*
X123164395Y-110199299D01*
X123262105Y-110142886D01*
X123341886Y-110063105D01*
X123398299Y-109965395D01*
X123427500Y-109856413D01*
X123427500Y-109743587D01*
X124570500Y-109743587D01*
X124570500Y-109856413D01*
X124599701Y-109965395D01*
X124656114Y-110063105D01*
X124735895Y-110142886D01*
X124833605Y-110199299D01*
X124942587Y-110228500D01*
X124942592Y-110228500D01*
X125055408Y-110228500D01*
X125055413Y-110228500D01*
X125164395Y-110199299D01*
X125262105Y-110142886D01*
X125341886Y-110063105D01*
X125398299Y-109965395D01*
X125427500Y-109856413D01*
X125427500Y-109743587D01*
X126570500Y-109743587D01*
X126570500Y-109856413D01*
X126599701Y-109965395D01*
X126656114Y-110063105D01*
X126735895Y-110142886D01*
X126833605Y-110199299D01*
X126942587Y-110228500D01*
X126942592Y-110228500D01*
X127055408Y-110228500D01*
X127055413Y-110228500D01*
X127164395Y-110199299D01*
X127262105Y-110142886D01*
X127341886Y-110063105D01*
X127398299Y-109965395D01*
X127427500Y-109856413D01*
X127427500Y-109743587D01*
X128570500Y-109743587D01*
X128570500Y-109856413D01*
X128599701Y-109965395D01*
X128656114Y-110063105D01*
X128735895Y-110142886D01*
X128833605Y-110199299D01*
X128942587Y-110228500D01*
X128942592Y-110228500D01*
X129055408Y-110228500D01*
X129055413Y-110228500D01*
X129164395Y-110199299D01*
X129262105Y-110142886D01*
X129341886Y-110063105D01*
X129398299Y-109965395D01*
X129427500Y-109856413D01*
X129427500Y-109743587D01*
X130570500Y-109743587D01*
X130570500Y-109856413D01*
X130599701Y-109965395D01*
X130656114Y-110063105D01*
X130735895Y-110142886D01*
X130833605Y-110199299D01*
X130942587Y-110228500D01*
X130942592Y-110228500D01*
X131055408Y-110228500D01*
X131055413Y-110228500D01*
X131164395Y-110199299D01*
X131262105Y-110142886D01*
X131341886Y-110063105D01*
X131398299Y-109965395D01*
X131427500Y-109856413D01*
X131427500Y-109743587D01*
X132570500Y-109743587D01*
X132570500Y-109856413D01*
X132599701Y-109965395D01*
X132656114Y-110063105D01*
X132735895Y-110142886D01*
X132833605Y-110199299D01*
X132942587Y-110228500D01*
X132942592Y-110228500D01*
X133055408Y-110228500D01*
X133055413Y-110228500D01*
X133164395Y-110199299D01*
X133262105Y-110142886D01*
X133341886Y-110063105D01*
X133398299Y-109965395D01*
X133427500Y-109856413D01*
X133427500Y-109743587D01*
X134570500Y-109743587D01*
X134570500Y-109856413D01*
X134599701Y-109965395D01*
X134656114Y-110063105D01*
X134735895Y-110142886D01*
X134833605Y-110199299D01*
X134942587Y-110228500D01*
X134942592Y-110228500D01*
X135055408Y-110228500D01*
X135055413Y-110228500D01*
X135164395Y-110199299D01*
X135262105Y-110142886D01*
X135341886Y-110063105D01*
X135398299Y-109965395D01*
X135427500Y-109856413D01*
X135427500Y-109743587D01*
X136570500Y-109743587D01*
X136570500Y-109856413D01*
X136599701Y-109965395D01*
X136656114Y-110063105D01*
X136735895Y-110142886D01*
X136833605Y-110199299D01*
X136942587Y-110228500D01*
X136942592Y-110228500D01*
X137055408Y-110228500D01*
X137055413Y-110228500D01*
X137164395Y-110199299D01*
X137262105Y-110142886D01*
X137341886Y-110063105D01*
X137398299Y-109965395D01*
X137427500Y-109856413D01*
X137427500Y-109743587D01*
X138570500Y-109743587D01*
X138570500Y-109856413D01*
X138599701Y-109965395D01*
X138656114Y-110063105D01*
X138735895Y-110142886D01*
X138833605Y-110199299D01*
X138942587Y-110228500D01*
X138942592Y-110228500D01*
X139055408Y-110228500D01*
X139055413Y-110228500D01*
X139164395Y-110199299D01*
X139262105Y-110142886D01*
X139341886Y-110063105D01*
X139398299Y-109965395D01*
X139427500Y-109856413D01*
X139427500Y-109743587D01*
X140670500Y-109743587D01*
X140670500Y-109856413D01*
X140699701Y-109965395D01*
X140756114Y-110063105D01*
X140835895Y-110142886D01*
X140933605Y-110199299D01*
X141042587Y-110228500D01*
X141042592Y-110228500D01*
X141155408Y-110228500D01*
X141155413Y-110228500D01*
X141264395Y-110199299D01*
X141362105Y-110142886D01*
X141441886Y-110063105D01*
X141498299Y-109965395D01*
X141527500Y-109856413D01*
X141527500Y-109743587D01*
X142570500Y-109743587D01*
X142570500Y-109856413D01*
X142599701Y-109965395D01*
X142656114Y-110063105D01*
X142735895Y-110142886D01*
X142833605Y-110199299D01*
X142942587Y-110228500D01*
X142942592Y-110228500D01*
X143055408Y-110228500D01*
X143055413Y-110228500D01*
X143164395Y-110199299D01*
X143262105Y-110142886D01*
X143341886Y-110063105D01*
X143398299Y-109965395D01*
X143427500Y-109856413D01*
X143427500Y-109743587D01*
X144670500Y-109743587D01*
X144670500Y-109856413D01*
X144699701Y-109965395D01*
X144756114Y-110063105D01*
X144835895Y-110142886D01*
X144933605Y-110199299D01*
X145042587Y-110228500D01*
X145042592Y-110228500D01*
X145155408Y-110228500D01*
X145155413Y-110228500D01*
X145264395Y-110199299D01*
X145362105Y-110142886D01*
X145441886Y-110063105D01*
X145498299Y-109965395D01*
X145527500Y-109856413D01*
X145527500Y-109743587D01*
X146570500Y-109743587D01*
X146570500Y-109856413D01*
X146599701Y-109965395D01*
X146656114Y-110063105D01*
X146735895Y-110142886D01*
X146833605Y-110199299D01*
X146942587Y-110228500D01*
X146942592Y-110228500D01*
X147055408Y-110228500D01*
X147055413Y-110228500D01*
X147164395Y-110199299D01*
X147262105Y-110142886D01*
X147341886Y-110063105D01*
X147398299Y-109965395D01*
X147427500Y-109856413D01*
X147427500Y-109743587D01*
X148570500Y-109743587D01*
X148570500Y-109856413D01*
X148599701Y-109965395D01*
X148656114Y-110063105D01*
X148735895Y-110142886D01*
X148833605Y-110199299D01*
X148942587Y-110228500D01*
X148942592Y-110228500D01*
X149055408Y-110228500D01*
X149055413Y-110228500D01*
X149164395Y-110199299D01*
X149262105Y-110142886D01*
X149341886Y-110063105D01*
X149398299Y-109965395D01*
X149427500Y-109856413D01*
X149427500Y-109743587D01*
X150670500Y-109743587D01*
X150670500Y-109856413D01*
X150699701Y-109965395D01*
X150756114Y-110063105D01*
X150835895Y-110142886D01*
X150933605Y-110199299D01*
X151042587Y-110228500D01*
X151042592Y-110228500D01*
X151155408Y-110228500D01*
X151155413Y-110228500D01*
X151264395Y-110199299D01*
X151362105Y-110142886D01*
X151441886Y-110063105D01*
X151498299Y-109965395D01*
X151527500Y-109856413D01*
X151527500Y-109743587D01*
X151498299Y-109634605D01*
X151441886Y-109536895D01*
X151362105Y-109457114D01*
X151264395Y-109400701D01*
X151264392Y-109400700D01*
X151218328Y-109388357D01*
X151155413Y-109371500D01*
X151042587Y-109371500D01*
X150933607Y-109400700D01*
X150835897Y-109457112D01*
X150835892Y-109457116D01*
X150756116Y-109536892D01*
X150756112Y-109536897D01*
X150708427Y-109619491D01*
X150699701Y-109634605D01*
X150670500Y-109743587D01*
X149427500Y-109743587D01*
X149398299Y-109634605D01*
X149341886Y-109536895D01*
X149262105Y-109457114D01*
X149164395Y-109400701D01*
X149164392Y-109400700D01*
X149118328Y-109388357D01*
X149055413Y-109371500D01*
X148942587Y-109371500D01*
X148833607Y-109400700D01*
X148735897Y-109457112D01*
X148735892Y-109457116D01*
X148656116Y-109536892D01*
X148656112Y-109536897D01*
X148608427Y-109619491D01*
X148599701Y-109634605D01*
X148570500Y-109743587D01*
X147427500Y-109743587D01*
X147398299Y-109634605D01*
X147341886Y-109536895D01*
X147262105Y-109457114D01*
X147164395Y-109400701D01*
X147164392Y-109400700D01*
X147118328Y-109388357D01*
X147055413Y-109371500D01*
X146942587Y-109371500D01*
X146833607Y-109400700D01*
X146735897Y-109457112D01*
X146735892Y-109457116D01*
X146656116Y-109536892D01*
X146656112Y-109536897D01*
X146608427Y-109619491D01*
X146599701Y-109634605D01*
X146570500Y-109743587D01*
X145527500Y-109743587D01*
X145498299Y-109634605D01*
X145441886Y-109536895D01*
X145362105Y-109457114D01*
X145264395Y-109400701D01*
X145264392Y-109400700D01*
X145218328Y-109388357D01*
X145155413Y-109371500D01*
X145042587Y-109371500D01*
X144933607Y-109400700D01*
X144835897Y-109457112D01*
X144835892Y-109457116D01*
X144756116Y-109536892D01*
X144756112Y-109536897D01*
X144708427Y-109619491D01*
X144699701Y-109634605D01*
X144670500Y-109743587D01*
X143427500Y-109743587D01*
X143398299Y-109634605D01*
X143341886Y-109536895D01*
X143262105Y-109457114D01*
X143164395Y-109400701D01*
X143164392Y-109400700D01*
X143118328Y-109388357D01*
X143055413Y-109371500D01*
X142942587Y-109371500D01*
X142833607Y-109400700D01*
X142735897Y-109457112D01*
X142735892Y-109457116D01*
X142656116Y-109536892D01*
X142656112Y-109536897D01*
X142608427Y-109619491D01*
X142599701Y-109634605D01*
X142570500Y-109743587D01*
X141527500Y-109743587D01*
X141498299Y-109634605D01*
X141441886Y-109536895D01*
X141362105Y-109457114D01*
X141264395Y-109400701D01*
X141264392Y-109400700D01*
X141218328Y-109388357D01*
X141155413Y-109371500D01*
X141042587Y-109371500D01*
X140933607Y-109400700D01*
X140835897Y-109457112D01*
X140835892Y-109457116D01*
X140756116Y-109536892D01*
X140756112Y-109536897D01*
X140708427Y-109619491D01*
X140699701Y-109634605D01*
X140670500Y-109743587D01*
X139427500Y-109743587D01*
X139398299Y-109634605D01*
X139341886Y-109536895D01*
X139262105Y-109457114D01*
X139164395Y-109400701D01*
X139164392Y-109400700D01*
X139118328Y-109388357D01*
X139055413Y-109371500D01*
X138942587Y-109371500D01*
X138833607Y-109400700D01*
X138735897Y-109457112D01*
X138735892Y-109457116D01*
X138656116Y-109536892D01*
X138656112Y-109536897D01*
X138608427Y-109619491D01*
X138599701Y-109634605D01*
X138570500Y-109743587D01*
X137427500Y-109743587D01*
X137398299Y-109634605D01*
X137341886Y-109536895D01*
X137262105Y-109457114D01*
X137164395Y-109400701D01*
X137164392Y-109400700D01*
X137118328Y-109388357D01*
X137055413Y-109371500D01*
X136942587Y-109371500D01*
X136833607Y-109400700D01*
X136735897Y-109457112D01*
X136735892Y-109457116D01*
X136656116Y-109536892D01*
X136656112Y-109536897D01*
X136608427Y-109619491D01*
X136599701Y-109634605D01*
X136570500Y-109743587D01*
X135427500Y-109743587D01*
X135398299Y-109634605D01*
X135341886Y-109536895D01*
X135262105Y-109457114D01*
X135164395Y-109400701D01*
X135164392Y-109400700D01*
X135118328Y-109388357D01*
X135055413Y-109371500D01*
X134942587Y-109371500D01*
X134833607Y-109400700D01*
X134735897Y-109457112D01*
X134735892Y-109457116D01*
X134656116Y-109536892D01*
X134656112Y-109536897D01*
X134608427Y-109619491D01*
X134599701Y-109634605D01*
X134570500Y-109743587D01*
X133427500Y-109743587D01*
X133398299Y-109634605D01*
X133341886Y-109536895D01*
X133262105Y-109457114D01*
X133164395Y-109400701D01*
X133164392Y-109400700D01*
X133118328Y-109388357D01*
X133055413Y-109371500D01*
X132942587Y-109371500D01*
X132833607Y-109400700D01*
X132735897Y-109457112D01*
X132735892Y-109457116D01*
X132656116Y-109536892D01*
X132656112Y-109536897D01*
X132608427Y-109619491D01*
X132599701Y-109634605D01*
X132570500Y-109743587D01*
X131427500Y-109743587D01*
X131398299Y-109634605D01*
X131341886Y-109536895D01*
X131262105Y-109457114D01*
X131164395Y-109400701D01*
X131164392Y-109400700D01*
X131118328Y-109388357D01*
X131055413Y-109371500D01*
X130942587Y-109371500D01*
X130833607Y-109400700D01*
X130735897Y-109457112D01*
X130735892Y-109457116D01*
X130656116Y-109536892D01*
X130656112Y-109536897D01*
X130608427Y-109619491D01*
X130599701Y-109634605D01*
X130570500Y-109743587D01*
X129427500Y-109743587D01*
X129398299Y-109634605D01*
X129341886Y-109536895D01*
X129262105Y-109457114D01*
X129164395Y-109400701D01*
X129164392Y-109400700D01*
X129118328Y-109388357D01*
X129055413Y-109371500D01*
X128942587Y-109371500D01*
X128833607Y-109400700D01*
X128735897Y-109457112D01*
X128735892Y-109457116D01*
X128656116Y-109536892D01*
X128656112Y-109536897D01*
X128608427Y-109619491D01*
X128599701Y-109634605D01*
X128570500Y-109743587D01*
X127427500Y-109743587D01*
X127398299Y-109634605D01*
X127341886Y-109536895D01*
X127262105Y-109457114D01*
X127164395Y-109400701D01*
X127164392Y-109400700D01*
X127118328Y-109388357D01*
X127055413Y-109371500D01*
X126942587Y-109371500D01*
X126833607Y-109400700D01*
X126735897Y-109457112D01*
X126735892Y-109457116D01*
X126656116Y-109536892D01*
X126656112Y-109536897D01*
X126608427Y-109619491D01*
X126599701Y-109634605D01*
X126570500Y-109743587D01*
X125427500Y-109743587D01*
X125398299Y-109634605D01*
X125341886Y-109536895D01*
X125262105Y-109457114D01*
X125164395Y-109400701D01*
X125164392Y-109400700D01*
X125118328Y-109388357D01*
X125055413Y-109371500D01*
X124942587Y-109371500D01*
X124833607Y-109400700D01*
X124735897Y-109457112D01*
X124735892Y-109457116D01*
X124656116Y-109536892D01*
X124656112Y-109536897D01*
X124608427Y-109619491D01*
X124599701Y-109634605D01*
X124570500Y-109743587D01*
X123427500Y-109743587D01*
X123398299Y-109634605D01*
X123341886Y-109536895D01*
X123262105Y-109457114D01*
X123164395Y-109400701D01*
X123164392Y-109400700D01*
X123118328Y-109388357D01*
X123055413Y-109371500D01*
X122942587Y-109371500D01*
X122833607Y-109400700D01*
X122735897Y-109457112D01*
X122735892Y-109457116D01*
X122656116Y-109536892D01*
X122656112Y-109536897D01*
X122608427Y-109619491D01*
X122599701Y-109634605D01*
X122570500Y-109743587D01*
X121427500Y-109743587D01*
X121398299Y-109634605D01*
X121341886Y-109536895D01*
X121262105Y-109457114D01*
X121164395Y-109400701D01*
X121164392Y-109400700D01*
X121118328Y-109388357D01*
X121055413Y-109371500D01*
X120942587Y-109371500D01*
X120833607Y-109400700D01*
X120735897Y-109457112D01*
X120735892Y-109457116D01*
X120656116Y-109536892D01*
X120656112Y-109536897D01*
X120608427Y-109619491D01*
X120599701Y-109634605D01*
X120570500Y-109743587D01*
X104427500Y-109743587D01*
X104398299Y-109634605D01*
X104341886Y-109536895D01*
X104262105Y-109457114D01*
X104164395Y-109400701D01*
X104164392Y-109400700D01*
X104118328Y-109388357D01*
X104055413Y-109371500D01*
X103942587Y-109371500D01*
X103833607Y-109400700D01*
X103735897Y-109457112D01*
X103735892Y-109457116D01*
X103656116Y-109536892D01*
X103656112Y-109536897D01*
X103608427Y-109619491D01*
X103599701Y-109634605D01*
X103570500Y-109743587D01*
X102427500Y-109743587D01*
X102398299Y-109634605D01*
X102341886Y-109536895D01*
X102262105Y-109457114D01*
X102164395Y-109400701D01*
X102164392Y-109400700D01*
X102118328Y-109388357D01*
X102055413Y-109371500D01*
X101942587Y-109371500D01*
X101833607Y-109400700D01*
X101735897Y-109457112D01*
X101735892Y-109457116D01*
X101656116Y-109536892D01*
X101656112Y-109536897D01*
X101608427Y-109619491D01*
X101599701Y-109634605D01*
X101570500Y-109743587D01*
X100427500Y-109743587D01*
X100398299Y-109634605D01*
X100341886Y-109536895D01*
X100262105Y-109457114D01*
X100164395Y-109400701D01*
X100164392Y-109400700D01*
X100118328Y-109388357D01*
X100055413Y-109371500D01*
X99942587Y-109371500D01*
X99833607Y-109400700D01*
X99735897Y-109457112D01*
X99735892Y-109457116D01*
X99656116Y-109536892D01*
X99656112Y-109536897D01*
X99608427Y-109619491D01*
X99599701Y-109634605D01*
X99570500Y-109743587D01*
X85842811Y-109743587D01*
X89326462Y-106259936D01*
X89381804Y-106231737D01*
X89397526Y-106230500D01*
X152642508Y-106230500D01*
X152642511Y-106230500D01*
X152726568Y-106207977D01*
X152801932Y-106164466D01*
X156463466Y-102502932D01*
X156506977Y-102427568D01*
X156529500Y-102343511D01*
X156529500Y-102256489D01*
X156529500Y-98378526D01*
X156548694Y-98319454D01*
X156558936Y-98307462D01*
X156836962Y-98029436D01*
X156892304Y-98001237D01*
X156908026Y-98000000D01*
X158557179Y-98000000D01*
X158616251Y-98019194D01*
G37*
%TD.AperFunction*%
%TA.AperFunction,Conductor*%
G36*
X160757572Y-98019194D02*
G01*
X160794081Y-98069444D01*
X160799000Y-98100500D01*
X160799000Y-101699500D01*
X160779806Y-101758572D01*
X160729556Y-101795081D01*
X160698500Y-101800000D01*
X159770821Y-101800000D01*
X159711749Y-101780806D01*
X159675240Y-101730556D01*
X159675240Y-101668444D01*
X159697377Y-101632318D01*
X159696927Y-101631949D01*
X159699599Y-101628692D01*
X159699757Y-101628436D01*
X159700054Y-101628138D01*
X159700056Y-101628136D01*
X159776988Y-101513000D01*
X159776989Y-101512998D01*
X159829985Y-101385054D01*
X159850583Y-101281500D01*
X159515032Y-101281500D01*
X159529000Y-101229370D01*
X159529000Y-101130630D01*
X159515032Y-101078500D01*
X159850583Y-101078500D01*
X159829985Y-100974945D01*
X159776989Y-100847001D01*
X159776988Y-100846999D01*
X159700056Y-100731863D01*
X159602135Y-100633942D01*
X159594085Y-100628564D01*
X159555631Y-100579787D01*
X159553191Y-100517722D01*
X159587697Y-100466077D01*
X159594085Y-100461436D01*
X159602135Y-100456057D01*
X159700056Y-100358136D01*
X159776988Y-100243000D01*
X159776989Y-100242998D01*
X159829985Y-100115054D01*
X159850583Y-100011500D01*
X159515032Y-100011500D01*
X159529000Y-99959370D01*
X159529000Y-99860630D01*
X159515032Y-99808500D01*
X159850583Y-99808500D01*
X159829985Y-99704945D01*
X159776989Y-99577001D01*
X159776988Y-99576999D01*
X159700056Y-99461863D01*
X159602135Y-99363942D01*
X159594085Y-99358564D01*
X159555631Y-99309787D01*
X159553191Y-99247722D01*
X159587697Y-99196077D01*
X159594085Y-99191436D01*
X159602135Y-99186057D01*
X159700056Y-99088136D01*
X159776988Y-98973000D01*
X159776989Y-98972998D01*
X159829985Y-98845054D01*
X159850583Y-98741500D01*
X159515032Y-98741500D01*
X159529000Y-98689370D01*
X159529000Y-98590630D01*
X159515032Y-98538500D01*
X159850583Y-98538500D01*
X159829985Y-98434945D01*
X159776989Y-98307001D01*
X159776988Y-98306999D01*
X159700056Y-98191863D01*
X159679757Y-98171564D01*
X159651558Y-98116222D01*
X159661275Y-98054874D01*
X159705195Y-98010954D01*
X159750821Y-98000000D01*
X160698500Y-98000000D01*
X160757572Y-98019194D01*
G37*
%TD.AperFunction*%
%TA.AperFunction,Conductor*%
G36*
X159255500Y-100818968D02*
G01*
X159203370Y-100805000D01*
X159104630Y-100805000D01*
X159052500Y-100818968D01*
X159052500Y-100271031D01*
X159104630Y-100285000D01*
X159203370Y-100285000D01*
X159255500Y-100271031D01*
X159255500Y-100818968D01*
G37*
%TD.AperFunction*%
%TA.AperFunction,Conductor*%
G36*
X159255500Y-99548968D02*
G01*
X159203370Y-99535000D01*
X159104630Y-99535000D01*
X159052500Y-99548968D01*
X159052500Y-99001031D01*
X159104630Y-99015000D01*
X159203370Y-99015000D01*
X159255500Y-99001031D01*
X159255500Y-99548968D01*
G37*
%TD.AperFunction*%
%TD*%
%TA.AperFunction,Conductor*%
%TO.N,/Left Drive/+5V*%
G36*
X191430700Y-118646582D02*
G01*
X191534254Y-118625985D01*
X191662198Y-118572989D01*
X191662200Y-118572988D01*
X191777334Y-118496057D01*
X191873457Y-118399934D01*
X191900262Y-118386275D01*
X191926781Y-118372076D01*
X191927843Y-118372222D01*
X191928800Y-118371735D01*
X191988314Y-118380541D01*
X192063233Y-118416811D01*
X192090505Y-118436204D01*
X192150745Y-118496444D01*
X192150749Y-118496446D01*
X192150752Y-118496449D01*
X192265965Y-118573433D01*
X192265966Y-118573434D01*
X192332260Y-118600893D01*
X192393997Y-118626465D01*
X192529911Y-118653500D01*
X192529920Y-118653500D01*
X192534826Y-118653984D01*
X192534745Y-118654798D01*
X192572875Y-118663542D01*
X197442294Y-121020960D01*
X197487098Y-121063975D01*
X197499000Y-121111416D01*
X197499000Y-122699000D01*
X197479806Y-122758072D01*
X197429556Y-122794581D01*
X197398500Y-122799500D01*
X186949500Y-122799500D01*
X186890428Y-122780306D01*
X186853919Y-122730056D01*
X186849000Y-122699000D01*
X186849000Y-121990569D01*
X187096000Y-121990569D01*
X187098790Y-122020319D01*
X187098790Y-122020320D01*
X187142645Y-122145651D01*
X187142648Y-122145656D01*
X187221500Y-122252499D01*
X187328343Y-122331351D01*
X187328348Y-122331354D01*
X187453679Y-122375209D01*
X187483430Y-122377999D01*
X187483442Y-122378000D01*
X187722500Y-122378000D01*
X187925500Y-122378000D01*
X188164558Y-122378000D01*
X188164569Y-122377999D01*
X188194319Y-122375209D01*
X188194320Y-122375209D01*
X188319651Y-122331354D01*
X188319656Y-122331351D01*
X188426499Y-122252499D01*
X188505351Y-122145656D01*
X188505354Y-122145651D01*
X188549209Y-122020320D01*
X188549209Y-122020319D01*
X188551999Y-121990569D01*
X195796000Y-121990569D01*
X195798790Y-122020319D01*
X195798790Y-122020320D01*
X195842645Y-122145651D01*
X195842648Y-122145656D01*
X195921500Y-122252499D01*
X196028343Y-122331351D01*
X196028348Y-122331354D01*
X196153679Y-122375209D01*
X196183430Y-122377999D01*
X196183442Y-122378000D01*
X196422500Y-122378000D01*
X196625500Y-122378000D01*
X196864558Y-122378000D01*
X196864569Y-122377999D01*
X196894319Y-122375209D01*
X196894320Y-122375209D01*
X197019651Y-122331354D01*
X197019656Y-122331351D01*
X197126499Y-122252499D01*
X197205351Y-122145656D01*
X197205354Y-122145651D01*
X197249209Y-122020320D01*
X197249209Y-122020319D01*
X197251999Y-121990569D01*
X197252000Y-121990558D01*
X197252000Y-121801500D01*
X196625500Y-121801500D01*
X196625500Y-122378000D01*
X196422500Y-122378000D01*
X196422500Y-121801500D01*
X195796000Y-121801500D01*
X195796000Y-121990569D01*
X188551999Y-121990569D01*
X188552000Y-121990558D01*
X188552000Y-121801500D01*
X187925500Y-121801500D01*
X187925500Y-122378000D01*
X187722500Y-122378000D01*
X187722500Y-121801500D01*
X187096000Y-121801500D01*
X187096000Y-121990569D01*
X186849000Y-121990569D01*
X186849000Y-121409430D01*
X187096000Y-121409430D01*
X187096000Y-121598500D01*
X187722500Y-121598500D01*
X187925500Y-121598500D01*
X188552000Y-121598500D01*
X188552000Y-121409442D01*
X188551999Y-121409430D01*
X195796000Y-121409430D01*
X195796000Y-121598500D01*
X196422500Y-121598500D01*
X196625500Y-121598500D01*
X197252000Y-121598500D01*
X197252000Y-121409442D01*
X197251999Y-121409430D01*
X197249209Y-121379680D01*
X197249209Y-121379679D01*
X197205354Y-121254348D01*
X197205351Y-121254343D01*
X197126499Y-121147500D01*
X197019656Y-121068648D01*
X197019651Y-121068645D01*
X196894320Y-121024790D01*
X196864569Y-121022000D01*
X196625500Y-121022000D01*
X196625500Y-121598500D01*
X196422500Y-121598500D01*
X196422500Y-121022000D01*
X196183430Y-121022000D01*
X196153680Y-121024790D01*
X196153679Y-121024790D01*
X196028348Y-121068645D01*
X196028343Y-121068648D01*
X195921500Y-121147500D01*
X195842648Y-121254343D01*
X195842645Y-121254348D01*
X195798790Y-121379679D01*
X195798790Y-121379680D01*
X195796000Y-121409430D01*
X188551999Y-121409430D01*
X188549209Y-121379680D01*
X188549209Y-121379679D01*
X188505354Y-121254348D01*
X188505351Y-121254343D01*
X188426499Y-121147500D01*
X188319656Y-121068648D01*
X188319651Y-121068645D01*
X188194320Y-121024790D01*
X188164569Y-121022000D01*
X187925500Y-121022000D01*
X187925500Y-121598500D01*
X187722500Y-121598500D01*
X187722500Y-121022000D01*
X187483430Y-121022000D01*
X187453680Y-121024790D01*
X187453679Y-121024790D01*
X187328348Y-121068645D01*
X187328343Y-121068648D01*
X187221500Y-121147500D01*
X187142648Y-121254343D01*
X187142645Y-121254348D01*
X187098790Y-121379679D01*
X187098790Y-121379680D01*
X187096000Y-121409430D01*
X186849000Y-121409430D01*
X186849000Y-119250623D01*
X186868194Y-119191551D01*
X186895544Y-119165835D01*
X187770651Y-118608948D01*
X187786121Y-118600900D01*
X187852432Y-118573434D01*
X187967655Y-118496444D01*
X187995229Y-118468869D01*
X188012323Y-118455156D01*
X188120214Y-118386499D01*
X188180353Y-118370979D01*
X188238132Y-118393772D01*
X188245231Y-118400224D01*
X188341063Y-118496056D01*
X188456199Y-118572988D01*
X188456201Y-118572989D01*
X188584145Y-118625985D01*
X188687700Y-118646583D01*
X188687700Y-118311031D01*
X188739830Y-118325000D01*
X188838570Y-118325000D01*
X188890700Y-118311031D01*
X188890700Y-118646582D01*
X188994254Y-118625985D01*
X189122198Y-118572989D01*
X189122200Y-118572988D01*
X189237336Y-118496056D01*
X189335257Y-118398135D01*
X189340636Y-118390085D01*
X189389413Y-118351631D01*
X189451478Y-118349191D01*
X189503123Y-118383697D01*
X189507764Y-118390085D01*
X189513142Y-118398135D01*
X189611063Y-118496056D01*
X189726199Y-118572988D01*
X189726201Y-118572989D01*
X189854145Y-118625985D01*
X189957700Y-118646583D01*
X189957700Y-118311031D01*
X190009830Y-118325000D01*
X190108570Y-118325000D01*
X190160700Y-118311031D01*
X190160700Y-118646582D01*
X190264254Y-118625985D01*
X190392198Y-118572989D01*
X190392200Y-118572988D01*
X190507336Y-118496056D01*
X190605257Y-118398135D01*
X190610636Y-118390085D01*
X190659413Y-118351631D01*
X190721478Y-118349191D01*
X190773123Y-118383697D01*
X190777764Y-118390085D01*
X190783142Y-118398135D01*
X190881063Y-118496056D01*
X190996199Y-118572988D01*
X190996201Y-118572989D01*
X191124145Y-118625985D01*
X191227700Y-118646583D01*
X191227700Y-118311031D01*
X191279830Y-118325000D01*
X191378570Y-118325000D01*
X191430700Y-118311031D01*
X191430700Y-118646582D01*
G37*
%TD.AperFunction*%
%TA.AperFunction,Conductor*%
G36*
X189684200Y-117900630D02*
G01*
X189684200Y-117999370D01*
X189698168Y-118051500D01*
X189150232Y-118051500D01*
X189164200Y-117999370D01*
X189164200Y-117900630D01*
X189150232Y-117848500D01*
X189698168Y-117848500D01*
X189684200Y-117900630D01*
G37*
%TD.AperFunction*%
%TA.AperFunction,Conductor*%
G36*
X190954200Y-117900630D02*
G01*
X190954200Y-117999370D01*
X190968168Y-118051500D01*
X190420232Y-118051500D01*
X190434200Y-117999370D01*
X190434200Y-117900630D01*
X190420232Y-117848500D01*
X190968168Y-117848500D01*
X190954200Y-117900630D01*
G37*
%TD.AperFunction*%
%TA.AperFunction,Conductor*%
G36*
X189909246Y-111919194D02*
G01*
X189921238Y-111929436D01*
X191969564Y-113977762D01*
X191997763Y-114033104D01*
X191999000Y-114048826D01*
X191999000Y-117382979D01*
X191979806Y-117442051D01*
X191929556Y-117478560D01*
X191867444Y-117478560D01*
X191827436Y-117454043D01*
X191777336Y-117403943D01*
X191662200Y-117327011D01*
X191662198Y-117327010D01*
X191534256Y-117274014D01*
X191534250Y-117274013D01*
X191430700Y-117253415D01*
X191430700Y-117588968D01*
X191378570Y-117575000D01*
X191279830Y-117575000D01*
X191227700Y-117588968D01*
X191227700Y-117253416D01*
X191227699Y-117253415D01*
X191124149Y-117274013D01*
X191124143Y-117274014D01*
X190996201Y-117327010D01*
X190996199Y-117327011D01*
X190881063Y-117403943D01*
X190783145Y-117501861D01*
X190783141Y-117501866D01*
X190777762Y-117509917D01*
X190728983Y-117548370D01*
X190666919Y-117550807D01*
X190615275Y-117516299D01*
X190610638Y-117509917D01*
X190605258Y-117501866D01*
X190605254Y-117501861D01*
X190507336Y-117403943D01*
X190392200Y-117327011D01*
X190392198Y-117327010D01*
X190264256Y-117274014D01*
X190264250Y-117274013D01*
X190160700Y-117253415D01*
X190160700Y-117588968D01*
X190108570Y-117575000D01*
X190009830Y-117575000D01*
X189957700Y-117588968D01*
X189957700Y-117253416D01*
X189957699Y-117253415D01*
X189854149Y-117274013D01*
X189854143Y-117274014D01*
X189726201Y-117327010D01*
X189726199Y-117327011D01*
X189611063Y-117403943D01*
X189513145Y-117501861D01*
X189513141Y-117501866D01*
X189507762Y-117509917D01*
X189458983Y-117548370D01*
X189396919Y-117550807D01*
X189345275Y-117516299D01*
X189340638Y-117509917D01*
X189335258Y-117501866D01*
X189335254Y-117501861D01*
X189237336Y-117403943D01*
X189122200Y-117327011D01*
X189122198Y-117327010D01*
X188994256Y-117274014D01*
X188994250Y-117274013D01*
X188890700Y-117253415D01*
X188890700Y-117588968D01*
X188838570Y-117575000D01*
X188739830Y-117575000D01*
X188687700Y-117588968D01*
X188687700Y-117253416D01*
X188687699Y-117253415D01*
X188584149Y-117274013D01*
X188584143Y-117274014D01*
X188456201Y-117327010D01*
X188456199Y-117327011D01*
X188355335Y-117394407D01*
X188295554Y-117411267D01*
X188237281Y-117389768D01*
X188202773Y-117338124D01*
X188199000Y-117310844D01*
X188199000Y-117201259D01*
X186011079Y-117202783D01*
X185951993Y-117183630D01*
X185939945Y-117173347D01*
X184402133Y-115635535D01*
X184402132Y-115635534D01*
X184326768Y-115592023D01*
X184326765Y-115592022D01*
X184304242Y-115585987D01*
X184242711Y-115569500D01*
X184242709Y-115569500D01*
X173873672Y-115569500D01*
X173814600Y-115550306D01*
X173792616Y-115523640D01*
X173790603Y-115525050D01*
X173785558Y-115517845D01*
X173701154Y-115433441D01*
X173701151Y-115433439D01*
X173592961Y-115382989D01*
X173543669Y-115376500D01*
X173194334Y-115376500D01*
X173194328Y-115376501D01*
X173145039Y-115382989D01*
X173145037Y-115382989D01*
X173036848Y-115433439D01*
X173036845Y-115433441D01*
X172952441Y-115517845D01*
X172952440Y-115517847D01*
X172950084Y-115522900D01*
X172907723Y-115568326D01*
X172846751Y-115580177D01*
X172790459Y-115553926D01*
X172767916Y-115522900D01*
X172765561Y-115517849D01*
X172765559Y-115517847D01*
X172765558Y-115517845D01*
X172681154Y-115433441D01*
X172681151Y-115433439D01*
X172572961Y-115382989D01*
X172523669Y-115376500D01*
X172174334Y-115376500D01*
X172174328Y-115376501D01*
X172125039Y-115382989D01*
X172125037Y-115382989D01*
X172016848Y-115433439D01*
X172000873Y-115449414D01*
X171945529Y-115477611D01*
X171884182Y-115467893D01*
X171840263Y-115423972D01*
X171830548Y-115362624D01*
X171831241Y-115358742D01*
X171850583Y-115261500D01*
X171515032Y-115261500D01*
X171529000Y-115209370D01*
X171529000Y-115110630D01*
X171515032Y-115058500D01*
X171850583Y-115058500D01*
X171829985Y-114954945D01*
X171776989Y-114827001D01*
X171776988Y-114826999D01*
X171700056Y-114711863D01*
X171602135Y-114613942D01*
X171594085Y-114608564D01*
X171555631Y-114559787D01*
X171553191Y-114497722D01*
X171587697Y-114446077D01*
X171594085Y-114441436D01*
X171602135Y-114436057D01*
X171700056Y-114338136D01*
X171776988Y-114223000D01*
X171776989Y-114222998D01*
X171809883Y-114143587D01*
X181570500Y-114143587D01*
X181570500Y-114256413D01*
X181599701Y-114365395D01*
X181640496Y-114436054D01*
X181643604Y-114441438D01*
X181656114Y-114463105D01*
X181735895Y-114542886D01*
X181833605Y-114599299D01*
X181942587Y-114628500D01*
X181942592Y-114628500D01*
X182055408Y-114628500D01*
X182055413Y-114628500D01*
X182164395Y-114599299D01*
X182262105Y-114542886D01*
X182341886Y-114463105D01*
X182398299Y-114365395D01*
X182427500Y-114256413D01*
X182427500Y-114143587D01*
X183570500Y-114143587D01*
X183570500Y-114256413D01*
X183599701Y-114365395D01*
X183640496Y-114436054D01*
X183643604Y-114441438D01*
X183656114Y-114463105D01*
X183735895Y-114542886D01*
X183833605Y-114599299D01*
X183942587Y-114628500D01*
X183942592Y-114628500D01*
X184055408Y-114628500D01*
X184055413Y-114628500D01*
X184164395Y-114599299D01*
X184262105Y-114542886D01*
X184341886Y-114463105D01*
X184398299Y-114365395D01*
X184427500Y-114256413D01*
X184427500Y-114143587D01*
X185570500Y-114143587D01*
X185570500Y-114256413D01*
X185599701Y-114365395D01*
X185640496Y-114436054D01*
X185643604Y-114441438D01*
X185656114Y-114463105D01*
X185735895Y-114542886D01*
X185833605Y-114599299D01*
X185942587Y-114628500D01*
X185942592Y-114628500D01*
X186055408Y-114628500D01*
X186055413Y-114628500D01*
X186164395Y-114599299D01*
X186262105Y-114542886D01*
X186341886Y-114463105D01*
X186398299Y-114365395D01*
X186427500Y-114256413D01*
X186427500Y-114143587D01*
X187570500Y-114143587D01*
X187570500Y-114256413D01*
X187599701Y-114365395D01*
X187640496Y-114436054D01*
X187643604Y-114441438D01*
X187656114Y-114463105D01*
X187735895Y-114542886D01*
X187833605Y-114599299D01*
X187942587Y-114628500D01*
X187942592Y-114628500D01*
X188055408Y-114628500D01*
X188055413Y-114628500D01*
X188164395Y-114599299D01*
X188262105Y-114542886D01*
X188341886Y-114463105D01*
X188398299Y-114365395D01*
X188427500Y-114256413D01*
X188427500Y-114143587D01*
X189570500Y-114143587D01*
X189570500Y-114256413D01*
X189599701Y-114365395D01*
X189640496Y-114436054D01*
X189643604Y-114441438D01*
X189656114Y-114463105D01*
X189735895Y-114542886D01*
X189833605Y-114599299D01*
X189942587Y-114628500D01*
X189942592Y-114628500D01*
X190055408Y-114628500D01*
X190055413Y-114628500D01*
X190164395Y-114599299D01*
X190262105Y-114542886D01*
X190341886Y-114463105D01*
X190398299Y-114365395D01*
X190427500Y-114256413D01*
X190427500Y-114143587D01*
X190398299Y-114034605D01*
X190341886Y-113936895D01*
X190262105Y-113857114D01*
X190164395Y-113800701D01*
X190164392Y-113800700D01*
X190118328Y-113788357D01*
X190055413Y-113771500D01*
X189942587Y-113771500D01*
X189833607Y-113800700D01*
X189735897Y-113857112D01*
X189735892Y-113857116D01*
X189656116Y-113936892D01*
X189656112Y-113936897D01*
X189599700Y-114034607D01*
X189583504Y-114095054D01*
X189570500Y-114143587D01*
X188427500Y-114143587D01*
X188398299Y-114034605D01*
X188341886Y-113936895D01*
X188262105Y-113857114D01*
X188164395Y-113800701D01*
X188164392Y-113800700D01*
X188118328Y-113788357D01*
X188055413Y-113771500D01*
X187942587Y-113771500D01*
X187833607Y-113800700D01*
X187735897Y-113857112D01*
X187735892Y-113857116D01*
X187656116Y-113936892D01*
X187656112Y-113936897D01*
X187599700Y-114034607D01*
X187583504Y-114095054D01*
X187570500Y-114143587D01*
X186427500Y-114143587D01*
X186398299Y-114034605D01*
X186341886Y-113936895D01*
X186262105Y-113857114D01*
X186164395Y-113800701D01*
X186164392Y-113800700D01*
X186118328Y-113788357D01*
X186055413Y-113771500D01*
X185942587Y-113771500D01*
X185833607Y-113800700D01*
X185735897Y-113857112D01*
X185735892Y-113857116D01*
X185656116Y-113936892D01*
X185656112Y-113936897D01*
X185599700Y-114034607D01*
X185583504Y-114095054D01*
X185570500Y-114143587D01*
X184427500Y-114143587D01*
X184398299Y-114034605D01*
X184341886Y-113936895D01*
X184262105Y-113857114D01*
X184164395Y-113800701D01*
X184164392Y-113800700D01*
X184118328Y-113788357D01*
X184055413Y-113771500D01*
X183942587Y-113771500D01*
X183833607Y-113800700D01*
X183735897Y-113857112D01*
X183735892Y-113857116D01*
X183656116Y-113936892D01*
X183656112Y-113936897D01*
X183599700Y-114034607D01*
X183583504Y-114095054D01*
X183570500Y-114143587D01*
X182427500Y-114143587D01*
X182398299Y-114034605D01*
X182341886Y-113936895D01*
X182262105Y-113857114D01*
X182164395Y-113800701D01*
X182164392Y-113800700D01*
X182118328Y-113788357D01*
X182055413Y-113771500D01*
X181942587Y-113771500D01*
X181833607Y-113800700D01*
X181735897Y-113857112D01*
X181735892Y-113857116D01*
X181656116Y-113936892D01*
X181656112Y-113936897D01*
X181599700Y-114034607D01*
X181583504Y-114095054D01*
X181570500Y-114143587D01*
X171809883Y-114143587D01*
X171828542Y-114098540D01*
X171829985Y-114095054D01*
X171850583Y-113991500D01*
X171515032Y-113991500D01*
X171529000Y-113939370D01*
X171529000Y-113840630D01*
X171515032Y-113788500D01*
X171850583Y-113788500D01*
X171829985Y-113684945D01*
X171776989Y-113557001D01*
X171776988Y-113556999D01*
X171700056Y-113441863D01*
X171602135Y-113343942D01*
X171594085Y-113338564D01*
X171555631Y-113289787D01*
X171553191Y-113227722D01*
X171587697Y-113176077D01*
X171594085Y-113171436D01*
X171602135Y-113166057D01*
X171700056Y-113068136D01*
X171776988Y-112953000D01*
X171776989Y-112952998D01*
X171829985Y-112825054D01*
X171850583Y-112721500D01*
X171515032Y-112721500D01*
X171529000Y-112669370D01*
X171529000Y-112643587D01*
X180370500Y-112643587D01*
X180370500Y-112756413D01*
X180399701Y-112865395D01*
X180456114Y-112963105D01*
X180535895Y-113042886D01*
X180633605Y-113099299D01*
X180742587Y-113128500D01*
X180742592Y-113128500D01*
X180855408Y-113128500D01*
X180855413Y-113128500D01*
X180964395Y-113099299D01*
X181062105Y-113042886D01*
X181141886Y-112963105D01*
X181198299Y-112865395D01*
X181227500Y-112756413D01*
X181227500Y-112643587D01*
X181198299Y-112534605D01*
X181141886Y-112436895D01*
X181062105Y-112357114D01*
X180964395Y-112300701D01*
X180964392Y-112300700D01*
X180913257Y-112286999D01*
X180855413Y-112271500D01*
X180742587Y-112271500D01*
X180633607Y-112300700D01*
X180535897Y-112357112D01*
X180535892Y-112357116D01*
X180456116Y-112436892D01*
X180456112Y-112436897D01*
X180408999Y-112518500D01*
X180399701Y-112534605D01*
X180370500Y-112643587D01*
X171529000Y-112643587D01*
X171529000Y-112570630D01*
X171515032Y-112518500D01*
X171850583Y-112518500D01*
X171829985Y-112414945D01*
X171776989Y-112287001D01*
X171776988Y-112286999D01*
X171700056Y-112171863D01*
X171599757Y-112071564D01*
X171571558Y-112016222D01*
X171581275Y-111954874D01*
X171625195Y-111910954D01*
X171670821Y-111900000D01*
X189850174Y-111900000D01*
X189909246Y-111919194D01*
G37*
%TD.AperFunction*%
%TA.AperFunction,Conductor*%
G36*
X170696251Y-111919194D02*
G01*
X170732760Y-111969444D01*
X170732760Y-112031556D01*
X170708243Y-112071564D01*
X170607945Y-112171861D01*
X170607943Y-112171863D01*
X170531011Y-112286999D01*
X170531010Y-112287001D01*
X170478014Y-112414945D01*
X170457416Y-112518500D01*
X170792968Y-112518500D01*
X170779000Y-112570630D01*
X170779000Y-112669370D01*
X170792968Y-112721500D01*
X170457417Y-112721500D01*
X170478014Y-112825054D01*
X170531010Y-112952998D01*
X170531011Y-112953000D01*
X170607943Y-113068136D01*
X170705861Y-113166054D01*
X170705866Y-113166058D01*
X170713917Y-113171438D01*
X170752370Y-113220217D01*
X170754807Y-113282281D01*
X170720299Y-113333925D01*
X170713917Y-113338562D01*
X170705866Y-113343941D01*
X170705861Y-113343945D01*
X170607943Y-113441863D01*
X170531011Y-113556999D01*
X170531010Y-113557001D01*
X170478014Y-113684945D01*
X170457416Y-113788500D01*
X170792968Y-113788500D01*
X170779000Y-113840630D01*
X170779000Y-113939370D01*
X170792968Y-113991500D01*
X170457417Y-113991500D01*
X170478014Y-114095054D01*
X170531010Y-114222998D01*
X170531011Y-114223000D01*
X170607943Y-114338136D01*
X170705861Y-114436054D01*
X170705866Y-114436058D01*
X170713917Y-114441438D01*
X170752370Y-114490217D01*
X170754807Y-114552281D01*
X170720299Y-114603925D01*
X170713917Y-114608562D01*
X170705866Y-114613941D01*
X170705861Y-114613945D01*
X170607943Y-114711863D01*
X170531011Y-114826999D01*
X170531010Y-114827001D01*
X170478014Y-114954945D01*
X170457416Y-115058500D01*
X170792968Y-115058500D01*
X170779000Y-115110630D01*
X170779000Y-115209370D01*
X170792968Y-115261500D01*
X170457417Y-115261500D01*
X170478014Y-115365054D01*
X170531010Y-115492998D01*
X170531011Y-115493000D01*
X170607943Y-115608136D01*
X170628243Y-115628436D01*
X170656442Y-115683778D01*
X170646725Y-115745126D01*
X170602805Y-115789046D01*
X170557179Y-115800000D01*
X170199500Y-115800000D01*
X170140428Y-115780806D01*
X170103919Y-115730556D01*
X170099000Y-115699500D01*
X170099000Y-115166817D01*
X170105527Y-115133999D01*
X170105272Y-115133931D01*
X170106318Y-115130024D01*
X170106651Y-115128354D01*
X170106972Y-115127575D01*
X170106977Y-115127568D01*
X170129500Y-115043511D01*
X170129500Y-114956489D01*
X170129500Y-113431489D01*
X170106977Y-113347432D01*
X170106974Y-113347428D01*
X170106649Y-113346640D01*
X170106315Y-113344964D01*
X170105272Y-113341069D01*
X170105527Y-113341000D01*
X170099000Y-113308182D01*
X170099000Y-112000500D01*
X170118194Y-111941428D01*
X170168444Y-111904919D01*
X170199500Y-111900000D01*
X170637179Y-111900000D01*
X170696251Y-111919194D01*
G37*
%TD.AperFunction*%
%TA.AperFunction,Conductor*%
G36*
X171255500Y-114798968D02*
G01*
X171203370Y-114785000D01*
X171104630Y-114785000D01*
X171052500Y-114798968D01*
X171052500Y-114251031D01*
X171104630Y-114265000D01*
X171203370Y-114265000D01*
X171255500Y-114251031D01*
X171255500Y-114798968D01*
G37*
%TD.AperFunction*%
%TA.AperFunction,Conductor*%
G36*
X171255500Y-113528968D02*
G01*
X171203370Y-113515000D01*
X171104630Y-113515000D01*
X171052500Y-113528968D01*
X171052500Y-112981031D01*
X171104630Y-112995000D01*
X171203370Y-112995000D01*
X171255500Y-112981031D01*
X171255500Y-113528968D01*
G37*
%TD.AperFunction*%
%TD*%
%TA.AperFunction,Conductor*%
%TO.N,/Left Drive/+12V*%
G36*
X172884267Y-116225893D02*
G01*
X172898578Y-116227194D01*
X172911717Y-116238693D01*
X172927539Y-116246071D01*
X172940447Y-116263837D01*
X172945318Y-116268100D01*
X172946125Y-116271652D01*
X172950085Y-116277102D01*
X172952439Y-116282152D01*
X173036845Y-116366558D01*
X173036848Y-116366560D01*
X173036849Y-116366561D01*
X173145038Y-116417010D01*
X173194335Y-116423500D01*
X173543664Y-116423499D01*
X173543665Y-116423499D01*
X173543668Y-116423498D01*
X173592962Y-116417010D01*
X173701151Y-116366561D01*
X173785561Y-116282151D01*
X173785562Y-116282147D01*
X173790603Y-116274950D01*
X173793412Y-116276917D01*
X173824956Y-116243096D01*
X173873672Y-116230500D01*
X184020674Y-116230500D01*
X184079746Y-116249694D01*
X184091738Y-116259936D01*
X184319564Y-116487762D01*
X184347763Y-116543104D01*
X184349000Y-116558826D01*
X184349000Y-117352979D01*
X184329806Y-117412051D01*
X184279556Y-117448560D01*
X184217444Y-117448560D01*
X184177436Y-117424043D01*
X184157336Y-117403943D01*
X184042200Y-117327011D01*
X184042198Y-117327010D01*
X183914256Y-117274014D01*
X183914250Y-117274013D01*
X183810700Y-117253415D01*
X183810700Y-117588968D01*
X183758570Y-117575000D01*
X183659830Y-117575000D01*
X183607700Y-117588968D01*
X183607700Y-117253416D01*
X183607699Y-117253415D01*
X183504149Y-117274013D01*
X183504143Y-117274014D01*
X183376201Y-117327010D01*
X183376199Y-117327011D01*
X183261063Y-117403943D01*
X183163145Y-117501861D01*
X183163141Y-117501866D01*
X183157762Y-117509917D01*
X183108983Y-117548370D01*
X183046919Y-117550807D01*
X182995275Y-117516299D01*
X182990638Y-117509917D01*
X182985258Y-117501866D01*
X182985254Y-117501861D01*
X182887336Y-117403943D01*
X182772200Y-117327011D01*
X182772198Y-117327010D01*
X182644256Y-117274014D01*
X182644250Y-117274013D01*
X182540700Y-117253415D01*
X182540700Y-117588968D01*
X182488570Y-117575000D01*
X182389830Y-117575000D01*
X182337700Y-117588968D01*
X182337700Y-117253416D01*
X182337699Y-117253415D01*
X182234149Y-117274013D01*
X182234143Y-117274014D01*
X182106201Y-117327010D01*
X182106199Y-117327011D01*
X181991063Y-117403943D01*
X181893145Y-117501861D01*
X181893141Y-117501866D01*
X181887762Y-117509917D01*
X181838983Y-117548370D01*
X181776919Y-117550807D01*
X181725275Y-117516299D01*
X181720638Y-117509917D01*
X181715258Y-117501866D01*
X181715254Y-117501861D01*
X181617336Y-117403943D01*
X181502200Y-117327011D01*
X181502198Y-117327010D01*
X181374256Y-117274014D01*
X181374250Y-117274013D01*
X181270700Y-117253415D01*
X181270700Y-117588968D01*
X181218570Y-117575000D01*
X181119830Y-117575000D01*
X181067700Y-117588968D01*
X181067700Y-117253416D01*
X181067699Y-117253415D01*
X180964149Y-117274013D01*
X180964143Y-117274014D01*
X180836201Y-117327010D01*
X180836199Y-117327011D01*
X180721063Y-117403943D01*
X180623143Y-117501863D01*
X180546211Y-117616999D01*
X180546210Y-117617001D01*
X180493214Y-117744945D01*
X180472616Y-117848500D01*
X180808168Y-117848500D01*
X180794200Y-117900630D01*
X180794200Y-117999370D01*
X180808168Y-118051500D01*
X180472617Y-118051500D01*
X180493214Y-118155054D01*
X180546210Y-118282998D01*
X180546211Y-118283000D01*
X180623143Y-118398136D01*
X180721063Y-118496056D01*
X180836199Y-118572988D01*
X180836201Y-118572989D01*
X180964145Y-118625985D01*
X181067700Y-118646583D01*
X181067700Y-118311031D01*
X181119830Y-118325000D01*
X181218570Y-118325000D01*
X181270700Y-118311031D01*
X181270700Y-118646582D01*
X181374254Y-118625985D01*
X181502198Y-118572989D01*
X181502200Y-118572988D01*
X181617336Y-118496056D01*
X181715257Y-118398135D01*
X181720636Y-118390085D01*
X181769413Y-118351631D01*
X181831478Y-118349191D01*
X181883123Y-118383697D01*
X181887764Y-118390085D01*
X181893142Y-118398135D01*
X181991063Y-118496056D01*
X182106199Y-118572988D01*
X182106201Y-118572989D01*
X182234145Y-118625985D01*
X182337700Y-118646583D01*
X182337700Y-118311031D01*
X182389830Y-118325000D01*
X182488570Y-118325000D01*
X182540700Y-118311031D01*
X182540700Y-118646582D01*
X182644254Y-118625985D01*
X182772198Y-118572989D01*
X182772200Y-118572988D01*
X182887336Y-118496056D01*
X182985257Y-118398135D01*
X182990636Y-118390085D01*
X183039413Y-118351631D01*
X183101478Y-118349191D01*
X183153123Y-118383697D01*
X183157764Y-118390085D01*
X183163142Y-118398135D01*
X183261063Y-118496056D01*
X183376199Y-118572988D01*
X183376201Y-118572989D01*
X183504145Y-118625985D01*
X183607700Y-118646583D01*
X183607700Y-118311031D01*
X183659830Y-118325000D01*
X183758570Y-118325000D01*
X183810700Y-118311031D01*
X183810700Y-118646582D01*
X183914254Y-118625985D01*
X184042198Y-118572989D01*
X184042200Y-118572988D01*
X184157336Y-118496056D01*
X184157338Y-118496054D01*
X184177436Y-118475957D01*
X184232778Y-118447758D01*
X184294126Y-118457475D01*
X184338046Y-118501395D01*
X184349000Y-118547021D01*
X184349000Y-120499000D01*
X184329806Y-120558072D01*
X184279556Y-120594581D01*
X184248500Y-120599500D01*
X176059118Y-120599500D01*
X175985425Y-120630024D01*
X175929024Y-120686425D01*
X175898500Y-120760118D01*
X175898500Y-124199500D01*
X175879306Y-124258572D01*
X175829056Y-124295081D01*
X175798000Y-124300000D01*
X169999500Y-124300000D01*
X169940428Y-124280806D01*
X169903919Y-124230556D01*
X169899000Y-124199500D01*
X169899000Y-119700500D01*
X169918194Y-119641428D01*
X169968444Y-119604919D01*
X169999500Y-119600000D01*
X170557179Y-119600000D01*
X170616251Y-119619194D01*
X170652760Y-119669444D01*
X170652760Y-119731556D01*
X170628243Y-119771564D01*
X170607945Y-119791861D01*
X170607943Y-119791863D01*
X170531011Y-119906999D01*
X170531010Y-119907001D01*
X170478014Y-120034945D01*
X170457416Y-120138500D01*
X170792968Y-120138500D01*
X170779000Y-120190630D01*
X170779000Y-120289370D01*
X170792968Y-120341500D01*
X170457417Y-120341500D01*
X170478014Y-120445054D01*
X170531010Y-120572998D01*
X170531011Y-120573000D01*
X170607943Y-120688136D01*
X170705861Y-120786054D01*
X170705866Y-120786058D01*
X170713917Y-120791438D01*
X170752370Y-120840217D01*
X170754807Y-120902281D01*
X170720299Y-120953925D01*
X170713917Y-120958562D01*
X170705866Y-120963941D01*
X170705861Y-120963945D01*
X170607943Y-121061863D01*
X170531011Y-121176999D01*
X170531010Y-121177001D01*
X170478014Y-121304945D01*
X170457416Y-121408500D01*
X170792968Y-121408500D01*
X170779000Y-121460630D01*
X170779000Y-121559370D01*
X170792968Y-121611500D01*
X170457417Y-121611500D01*
X170478014Y-121715054D01*
X170531010Y-121842998D01*
X170531011Y-121843000D01*
X170607943Y-121958136D01*
X170705861Y-122056054D01*
X170705866Y-122056058D01*
X170713917Y-122061438D01*
X170752370Y-122110217D01*
X170754807Y-122172281D01*
X170720299Y-122223925D01*
X170713917Y-122228562D01*
X170705866Y-122233941D01*
X170705861Y-122233945D01*
X170607943Y-122331863D01*
X170531011Y-122446999D01*
X170531010Y-122447001D01*
X170478014Y-122574945D01*
X170457416Y-122678500D01*
X170792968Y-122678500D01*
X170779000Y-122730630D01*
X170779000Y-122829370D01*
X170792968Y-122881500D01*
X170457417Y-122881500D01*
X170478014Y-122985054D01*
X170531010Y-123112998D01*
X170531011Y-123113000D01*
X170607943Y-123228136D01*
X170705863Y-123326056D01*
X170820999Y-123402988D01*
X170821001Y-123402989D01*
X170948945Y-123455985D01*
X171052500Y-123476583D01*
X171052500Y-123141031D01*
X171104630Y-123155000D01*
X171203370Y-123155000D01*
X171255500Y-123141031D01*
X171255500Y-123476582D01*
X171359054Y-123455985D01*
X171486998Y-123402989D01*
X171487000Y-123402988D01*
X171602136Y-123326056D01*
X171700056Y-123228136D01*
X171776988Y-123113000D01*
X171776989Y-123112998D01*
X171829985Y-122985054D01*
X171850583Y-122881500D01*
X171515032Y-122881500D01*
X171529000Y-122829370D01*
X171529000Y-122730630D01*
X171515032Y-122678500D01*
X171850583Y-122678500D01*
X171829985Y-122574945D01*
X171776989Y-122447001D01*
X171776988Y-122446999D01*
X171700056Y-122331863D01*
X171602135Y-122233942D01*
X171594085Y-122228564D01*
X171555631Y-122179787D01*
X171553191Y-122117722D01*
X171587697Y-122066077D01*
X171594085Y-122061436D01*
X171602135Y-122056057D01*
X171700056Y-121958136D01*
X171776988Y-121843000D01*
X171776989Y-121842998D01*
X171829985Y-121715054D01*
X171850583Y-121611500D01*
X171515032Y-121611500D01*
X171529000Y-121559370D01*
X171529000Y-121460630D01*
X171515032Y-121408500D01*
X171850583Y-121408500D01*
X171829985Y-121304945D01*
X171776989Y-121177001D01*
X171776988Y-121176999D01*
X171700056Y-121061863D01*
X171602135Y-120963942D01*
X171594085Y-120958564D01*
X171555631Y-120909787D01*
X171553191Y-120847722D01*
X171587697Y-120796077D01*
X171594085Y-120791436D01*
X171602135Y-120786057D01*
X171700056Y-120688136D01*
X171776988Y-120573000D01*
X171776989Y-120572998D01*
X171829985Y-120445054D01*
X171850583Y-120341500D01*
X171515032Y-120341500D01*
X171529000Y-120289370D01*
X171529000Y-120190630D01*
X171515032Y-120138500D01*
X171850583Y-120138500D01*
X171829985Y-120034945D01*
X171776989Y-119907001D01*
X171776988Y-119906999D01*
X171700056Y-119791863D01*
X171674660Y-119766467D01*
X171646461Y-119711125D01*
X171656178Y-119649777D01*
X171674660Y-119624338D01*
X171698998Y-119600000D01*
X171699000Y-119600000D01*
X171699000Y-119451103D01*
X171715938Y-119395268D01*
X171777433Y-119303234D01*
X171777434Y-119303233D01*
X171791285Y-119269791D01*
X171830465Y-119175203D01*
X171857500Y-119039289D01*
X171857500Y-118900711D01*
X171830465Y-118764797D01*
X171784365Y-118653500D01*
X171777435Y-118636769D01*
X171715937Y-118544731D01*
X171699000Y-118488896D01*
X171699000Y-118181103D01*
X171715938Y-118125268D01*
X171777433Y-118033234D01*
X171777434Y-118033233D01*
X171793887Y-117993511D01*
X171830465Y-117905203D01*
X171840395Y-117855283D01*
X175045700Y-117855283D01*
X175045700Y-118044717D01*
X175062131Y-118148455D01*
X175075335Y-118231821D01*
X175133872Y-118411982D01*
X175152101Y-118447758D01*
X175219875Y-118580771D01*
X175219883Y-118580782D01*
X175331220Y-118734025D01*
X175331222Y-118734027D01*
X175465173Y-118867978D01*
X175618429Y-118979325D01*
X175787217Y-119065327D01*
X175967380Y-119123865D01*
X176154483Y-119153500D01*
X176154487Y-119153500D01*
X176343913Y-119153500D01*
X176343917Y-119153500D01*
X176531020Y-119123865D01*
X176711183Y-119065327D01*
X176879971Y-118979325D01*
X177033227Y-118867978D01*
X177167178Y-118734027D01*
X177278525Y-118580771D01*
X177364527Y-118411983D01*
X177423065Y-118231820D01*
X177452700Y-118044717D01*
X177452700Y-117855283D01*
X177423065Y-117668180D01*
X177364527Y-117488017D01*
X177278525Y-117319229D01*
X177167178Y-117165973D01*
X177033227Y-117032022D01*
X177033225Y-117032020D01*
X176879982Y-116920683D01*
X176879971Y-116920675D01*
X176766725Y-116862973D01*
X176711182Y-116834672D01*
X176531020Y-116776135D01*
X176531022Y-116776135D01*
X176477562Y-116767667D01*
X176343917Y-116746500D01*
X176154483Y-116746500D01*
X176029747Y-116766256D01*
X175967378Y-116776135D01*
X175787217Y-116834672D01*
X175701290Y-116878455D01*
X175618429Y-116920675D01*
X175618428Y-116920676D01*
X175618417Y-116920683D01*
X175465174Y-117032020D01*
X175331220Y-117165974D01*
X175219883Y-117319217D01*
X175219877Y-117319224D01*
X175219875Y-117319229D01*
X175195653Y-117366768D01*
X175133872Y-117488017D01*
X175075335Y-117668178D01*
X175075335Y-117668180D01*
X175045700Y-117855283D01*
X171840395Y-117855283D01*
X171857500Y-117769289D01*
X171857500Y-117630711D01*
X171840303Y-117544257D01*
X171847603Y-117482577D01*
X171867805Y-117453591D01*
X172613466Y-116707932D01*
X172656977Y-116632569D01*
X172679500Y-116548511D01*
X172679500Y-116461489D01*
X172679500Y-116409840D01*
X172680958Y-116405350D01*
X172679912Y-116400746D01*
X172688215Y-116383016D01*
X172698694Y-116350768D01*
X172704373Y-116343653D01*
X172706574Y-116341137D01*
X172765561Y-116282151D01*
X172773957Y-116264144D01*
X172783373Y-116253386D01*
X172798367Y-116244444D01*
X172810275Y-116231675D01*
X172824379Y-116228933D01*
X172836720Y-116221574D01*
X172854107Y-116223153D01*
X172871246Y-116219822D01*
X172884267Y-116225893D01*
G37*
%TD.AperFunction*%
%TA.AperFunction,Conductor*%
G36*
X171255500Y-122418968D02*
G01*
X171203370Y-122405000D01*
X171104630Y-122405000D01*
X171052500Y-122418968D01*
X171052500Y-121871031D01*
X171104630Y-121885000D01*
X171203370Y-121885000D01*
X171255500Y-121871031D01*
X171255500Y-122418968D01*
G37*
%TD.AperFunction*%
%TA.AperFunction,Conductor*%
G36*
X171255500Y-121148968D02*
G01*
X171203370Y-121135000D01*
X171104630Y-121135000D01*
X171052500Y-121148968D01*
X171052500Y-120601031D01*
X171104630Y-120615000D01*
X171203370Y-120615000D01*
X171255500Y-120601031D01*
X171255500Y-121148968D01*
G37*
%TD.AperFunction*%
%TA.AperFunction,Conductor*%
G36*
X182064200Y-117900630D02*
G01*
X182064200Y-117999370D01*
X182078168Y-118051500D01*
X181530232Y-118051500D01*
X181544200Y-117999370D01*
X181544200Y-117900630D01*
X181530232Y-117848500D01*
X182078168Y-117848500D01*
X182064200Y-117900630D01*
G37*
%TD.AperFunction*%
%TA.AperFunction,Conductor*%
G36*
X183334200Y-117900630D02*
G01*
X183334200Y-117999370D01*
X183348168Y-118051500D01*
X182800232Y-118051500D01*
X182814200Y-117999370D01*
X182814200Y-117900630D01*
X182800232Y-117848500D01*
X183348168Y-117848500D01*
X183334200Y-117900630D01*
G37*
%TD.AperFunction*%
%TD*%
M02*
