%TF.GenerationSoftware,KiCad,Pcbnew,9.0.0*%
%TF.CreationDate,2025-06-18T14:15:24-07:00*%
%TF.ProjectId,1U Backplane,31552042-6163-46b7-906c-616e652e6b69,rev?*%
%TF.SameCoordinates,Original*%
%TF.FileFunction,Copper,L1,Top*%
%TF.FilePolarity,Positive*%
%FSLAX46Y46*%
G04 Gerber Fmt 4.6, Leading zero omitted, Abs format (unit mm)*
G04 Created by KiCad (PCBNEW 9.0.0) date 2025-06-18 14:15:24*
%MOMM*%
%LPD*%
G01*
G04 APERTURE LIST*
G04 Aperture macros list*
%AMRoundRect*
0 Rectangle with rounded corners*
0 $1 Rounding radius*
0 $2 $3 $4 $5 $6 $7 $8 $9 X,Y pos of 4 corners*
0 Add a 4 corners polygon primitive as box body*
4,1,4,$2,$3,$4,$5,$6,$7,$8,$9,$2,$3,0*
0 Add four circle primitives for the rounded corners*
1,1,$1+$1,$2,$3*
1,1,$1+$1,$4,$5*
1,1,$1+$1,$6,$7*
1,1,$1+$1,$8,$9*
0 Add four rect primitives between the rounded corners*
20,1,$1+$1,$2,$3,$4,$5,0*
20,1,$1+$1,$4,$5,$6,$7,0*
20,1,$1+$1,$6,$7,$8,$9,0*
20,1,$1+$1,$8,$9,$2,$3,0*%
G04 Aperture macros list end*
%TA.AperFunction,ComponentPad*%
%ADD10C,6.500000*%
%TD*%
%TA.AperFunction,SMDPad,CuDef*%
%ADD11RoundRect,0.250000X0.250000X0.250000X-0.250000X0.250000X-0.250000X-0.250000X0.250000X-0.250000X0*%
%TD*%
%TA.AperFunction,ComponentPad*%
%ADD12O,1.000000X1.000000*%
%TD*%
%TA.AperFunction,ComponentPad*%
%ADD13O,2.000000X2.000000*%
%TD*%
%TA.AperFunction,SMDPad,CuDef*%
%ADD14RoundRect,0.237500X0.250000X0.237500X-0.250000X0.237500X-0.250000X-0.237500X0.250000X-0.237500X0*%
%TD*%
%TA.AperFunction,ComponentPad*%
%ADD15RoundRect,0.250000X-0.845000X0.620000X-0.845000X-0.620000X0.845000X-0.620000X0.845000X0.620000X0*%
%TD*%
%TA.AperFunction,ComponentPad*%
%ADD16O,2.190000X1.740000*%
%TD*%
%TA.AperFunction,ComponentPad*%
%ADD17RoundRect,0.250000X0.845000X-0.620000X0.845000X0.620000X-0.845000X0.620000X-0.845000X-0.620000X0*%
%TD*%
%TA.AperFunction,SMDPad,CuDef*%
%ADD18RoundRect,0.237500X0.237500X-0.250000X0.237500X0.250000X-0.237500X0.250000X-0.237500X-0.250000X0*%
%TD*%
%TA.AperFunction,SMDPad,CuDef*%
%ADD19RoundRect,0.237500X0.300000X0.237500X-0.300000X0.237500X-0.300000X-0.237500X0.300000X-0.237500X0*%
%TD*%
%TA.AperFunction,SMDPad,CuDef*%
%ADD20RoundRect,0.150000X0.150000X-0.512500X0.150000X0.512500X-0.150000X0.512500X-0.150000X-0.512500X0*%
%TD*%
%TA.AperFunction,SMDPad,CuDef*%
%ADD21R,1.300000X1.600000*%
%TD*%
%TA.AperFunction,SMDPad,CuDef*%
%ADD22R,2.000000X1.600000*%
%TD*%
%TA.AperFunction,ViaPad*%
%ADD23C,0.685800*%
%TD*%
%TA.AperFunction,ViaPad*%
%ADD24C,0.450000*%
%TD*%
%TA.AperFunction,Conductor*%
%ADD25C,0.254000*%
%TD*%
%TA.AperFunction,Conductor*%
%ADD26C,0.120900*%
%TD*%
%TA.AperFunction,Conductor*%
%ADD27C,0.762000*%
%TD*%
%TA.AperFunction,Conductor*%
%ADD28C,0.203200*%
%TD*%
G04 APERTURE END LIST*
D10*
%TO.P,Pad_gge6706,1*%
%TO.N,N/C*%
X66000000Y-115750000D03*
%TD*%
D11*
%TO.P,D8,1,K*%
%TO.N,/Right Drive/RESERVED_DRIVE*%
X92199000Y-121800000D03*
%TO.P,D8,2,A*%
%TO.N,/Right Drive/GNDPWR*%
X89699000Y-121800000D03*
%TD*%
D12*
%TO.P,J5,1,1*%
%TO.N,/Right Drive/GNDS*%
X159154000Y-122780000D03*
%TO.P,J5,2,2*%
%TO.N,/Right Drive/TX+*%
X159154000Y-121510000D03*
%TO.P,J5,3,3*%
%TO.N,/Right Drive/TX-*%
X159154000Y-120240000D03*
%TO.P,J5,4,4*%
%TO.N,/Right Drive/GNDS*%
X159154000Y-118970000D03*
%TO.P,J5,5,5*%
%TO.N,/Right Drive/RX-*%
X159154000Y-117700000D03*
%TO.P,J5,6,6*%
%TO.N,/Right Drive/RX+*%
X159154000Y-116430000D03*
%TO.P,J5,7,7*%
%TO.N,/Right Drive/GNDS*%
X159154000Y-115160000D03*
%TO.P,J5,8,8*%
%TO.N,/Right Drive/+3.3V*%
X159154000Y-108800000D03*
%TO.P,J5,9,9*%
X159154000Y-107530000D03*
%TO.P,J5,10,10*%
%TO.N,/Right Drive/+3.3V_PWRDIS*%
X159154000Y-106260000D03*
%TO.P,J5,11,11*%
%TO.N,/Right Drive/GNDPWR*%
X159154000Y-104990000D03*
%TO.P,J5,12,12*%
X159154000Y-103720000D03*
%TO.P,J5,13,13*%
X159154000Y-102450000D03*
%TO.P,J5,14,14*%
%TO.N,/Right Drive/+5V*%
X159154000Y-101180000D03*
%TO.P,J5,15,15*%
X159154000Y-99910000D03*
%TO.P,J5,16,16*%
X159154000Y-98640000D03*
%TO.P,J5,17,17*%
%TO.N,/Right Drive/GNDPWR*%
X159154000Y-97370000D03*
%TO.P,J5,18,18*%
%TO.N,/Right Drive/RESERVED_HOST*%
X159154000Y-96100000D03*
%TO.P,J5,19,19*%
%TO.N,/Right Drive/GNDPWR*%
X159154000Y-94830000D03*
%TO.P,J5,20,20*%
%TO.N,/Right Drive/+12V*%
X159154000Y-93560000D03*
%TO.P,J5,21,21*%
X159154000Y-92290000D03*
%TO.P,J5,22,22*%
X159154000Y-91020000D03*
D13*
%TO.P,J5,23,23*%
%TO.N,unconnected-(J5-Pad23)*%
X159154000Y-111979900D03*
%TD*%
D14*
%TO.P,R2,1*%
%TO.N,/Left Drive/+5V*%
X189649000Y-120900000D03*
%TO.P,R2,2*%
%TO.N,/Left Drive/RESERVED_DRIVE*%
X187824000Y-120900000D03*
%TD*%
D15*
%TO.P,J3,1,Pin_1*%
%TO.N,/Left Drive/GNDPWR*%
X165154000Y-112000000D03*
D16*
%TO.P,J3,2,Pin_2*%
%TO.N,/Left Drive/+12V*%
X165154000Y-114540000D03*
%TO.P,J3,3,Pin_3*%
%TO.N,unconnected-(J3-Pin_3-Pad3)*%
X165154000Y-117080000D03*
%TO.P,J3,4,Pin_4*%
%TO.N,/PWM*%
X165154000Y-119620000D03*
%TD*%
D17*
%TO.P,J6,1,Pin_1*%
%TO.N,/Right Drive/GNDPWR*%
X165154000Y-101800000D03*
D16*
%TO.P,J6,2,Pin_2*%
%TO.N,/Right Drive/+12V*%
X165154000Y-99260000D03*
%TO.P,J6,3,Pin_3*%
%TO.N,unconnected-(J6-Pin_3-Pad3)*%
X165154000Y-96720000D03*
%TO.P,J6,4,Pin_4*%
%TO.N,/PWM*%
X165154000Y-94180000D03*
%TD*%
D10*
%TO.P,Pad_gge8659,1*%
%TO.N,N/C*%
X165159800Y-124900000D03*
%TD*%
%TO.P,Pad_gge8716,1*%
%TO.N,N/C*%
X165159800Y-88900100D03*
%TD*%
D11*
%TO.P,D5,1,K*%
%TO.N,/Left Drive/RESERVED_DRIVE*%
X197624000Y-121200000D03*
%TO.P,D5,2,A*%
%TO.N,/Left Drive/GNDPWR*%
X195124000Y-121200000D03*
%TD*%
D18*
%TO.P,R5,1*%
%TO.N,Net-(D7-K)*%
X79899000Y-121300000D03*
%TO.P,R5,2*%
%TO.N,/Right Drive/GNDPWR*%
X79899000Y-119475000D03*
%TD*%
D19*
%TO.P,C3,1*%
%TO.N,/Left Drive/+5V*%
X189549000Y-119300000D03*
%TO.P,C3,2*%
%TO.N,/Left Drive/GNDPWR*%
X187824000Y-119300000D03*
%TD*%
D10*
%TO.P,Pad_gge8677,1*%
%TO.N,N/C*%
X223049700Y-115750000D03*
%TD*%
D14*
%TO.P,R6,1*%
%TO.N,/Right Drive/+5V*%
X84024000Y-121100000D03*
%TO.P,R6,2*%
%TO.N,/Right Drive/RESERVED_DRIVE*%
X82199000Y-121100000D03*
%TD*%
%TO.P,R8,1*%
%TO.N,Net-(D9-K)*%
X91499000Y-119600000D03*
%TO.P,R8,2*%
%TO.N,Net-(U3-Y)*%
X89674000Y-119600000D03*
%TD*%
D12*
%TO.P,J2,1,1*%
%TO.N,/Left Drive/GNDS*%
X171154000Y-91020000D03*
%TO.P,J2,2,2*%
%TO.N,/Left Drive/TX+*%
X171154000Y-92290000D03*
%TO.P,J2,3,3*%
%TO.N,/Left Drive/TX-*%
X171154000Y-93560000D03*
%TO.P,J2,4,4*%
%TO.N,/Left Drive/GNDS*%
X171154000Y-94830000D03*
%TO.P,J2,5,5*%
%TO.N,/Left Drive/RX-*%
X171154000Y-96100000D03*
%TO.P,J2,6,6*%
%TO.N,/Left Drive/RX+*%
X171154000Y-97370000D03*
%TO.P,J2,7,7*%
%TO.N,/Left Drive/GNDS*%
X171154000Y-98640000D03*
%TO.P,J2,8,8*%
%TO.N,/Left Drive/+3.3V*%
X171154000Y-105000000D03*
%TO.P,J2,9,9*%
X171154000Y-106270000D03*
%TO.P,J2,10,10*%
%TO.N,/Left Drive/+3.3V_PWRDIS*%
X171154000Y-107540000D03*
%TO.P,J2,11,11*%
%TO.N,/Left Drive/GNDPWR*%
X171154000Y-108810000D03*
%TO.P,J2,12,12*%
X171154000Y-110080000D03*
%TO.P,J2,13,13*%
X171154000Y-111350000D03*
%TO.P,J2,14,14*%
%TO.N,/Left Drive/+5V*%
X171154000Y-112620000D03*
%TO.P,J2,15,15*%
X171154000Y-113890000D03*
%TO.P,J2,16,16*%
X171154000Y-115160000D03*
%TO.P,J2,17,17*%
%TO.N,/Left Drive/GNDPWR*%
X171154000Y-116430000D03*
%TO.P,J2,18,18*%
%TO.N,/Left Drive/RESERVED_HOST*%
X171154000Y-117700000D03*
%TO.P,J2,19,19*%
%TO.N,/Left Drive/GNDPWR*%
X171154000Y-118970000D03*
%TO.P,J2,20,20*%
%TO.N,/Left Drive/+12V*%
X171154000Y-120240000D03*
%TO.P,J2,21,21*%
X171154000Y-121510000D03*
%TO.P,J2,22,22*%
X171154000Y-122780000D03*
D13*
%TO.P,J2,23,23*%
%TO.N,unconnected-(J2-Pad23)*%
X171154000Y-101820100D03*
%TD*%
D20*
%TO.P,U3,1,NC*%
%TO.N,unconnected-(U3-NC-Pad1)*%
X85699000Y-121775000D03*
%TO.P,U3,2,A*%
%TO.N,/Right Drive/RESERVED_DRIVE*%
X86649000Y-121775000D03*
%TO.P,U3,3,GND*%
%TO.N,/Right Drive/GNDPWR*%
X87599000Y-121775000D03*
%TO.P,U3,4,Y*%
%TO.N,Net-(U3-Y)*%
X87599000Y-119500000D03*
%TO.P,U3,5,VCC*%
%TO.N,/Right Drive/+5V*%
X85699000Y-119500000D03*
%TD*%
D18*
%TO.P,R1,1*%
%TO.N,Net-(D4-K)*%
X185824000Y-121525000D03*
%TO.P,R1,2*%
%TO.N,/Left Drive/GNDPWR*%
X185824000Y-119700000D03*
%TD*%
D21*
%TO.P,RV1,1,1*%
%TO.N,Net-(D1-K-Pad2)*%
X166404000Y-105600000D03*
D22*
%TO.P,RV1,2,2*%
%TO.N,Net-(U1-T{slash}T)*%
X165154000Y-108500000D03*
D21*
%TO.P,RV1,3,3*%
%TO.N,Net-(D1-K-Pad1)*%
X163904000Y-105600000D03*
%TD*%
D14*
%TO.P,R4,1*%
%TO.N,Net-(D6-K)*%
X196824000Y-119400000D03*
%TO.P,R4,2*%
%TO.N,Net-(U2-Y)*%
X194999000Y-119400000D03*
%TD*%
D19*
%TO.P,C4,1*%
%TO.N,/Right Drive/+5V*%
X83999000Y-119500000D03*
%TO.P,C4,2*%
%TO.N,/Right Drive/GNDPWR*%
X82274000Y-119500000D03*
%TD*%
D20*
%TO.P,U2,1,NC*%
%TO.N,unconnected-(U2-NC-Pad1)*%
X191574000Y-121775000D03*
%TO.P,U2,2,A*%
%TO.N,/Left Drive/RESERVED_DRIVE*%
X192524000Y-121775000D03*
%TO.P,U2,3,GND*%
%TO.N,/Left Drive/GNDPWR*%
X193474000Y-121775000D03*
%TO.P,U2,4,Y*%
%TO.N,Net-(U2-Y)*%
X193474000Y-119500000D03*
%TO.P,U2,5,VCC*%
%TO.N,/Left Drive/+5V*%
X191574000Y-119500000D03*
%TD*%
D12*
%TO.P,J4,1,1*%
%TO.N,/Right Drive/GNDS*%
X107779000Y-117950000D03*
%TO.P,J4,2,2*%
%TO.N,/Right Drive/TX+*%
X106509000Y-117950000D03*
%TO.P,J4,3,3*%
%TO.N,/Right Drive/TX-*%
X105239000Y-117950000D03*
%TO.P,J4,4,4*%
%TO.N,/Right Drive/GNDS*%
X103969000Y-117950000D03*
%TO.P,J4,5,5*%
%TO.N,/Right Drive/RX-*%
X102699000Y-117950000D03*
%TO.P,J4,6,6*%
%TO.N,/Right Drive/RX+*%
X101429000Y-117950000D03*
%TO.P,J4,7,7*%
%TO.N,/Right Drive/GNDS*%
X100159000Y-117950000D03*
%TO.P,J4,8,8*%
%TO.N,/Right Drive/+3.3V*%
X93899200Y-117950000D03*
%TO.P,J4,9,9*%
X92629200Y-117950000D03*
%TO.P,J4,10,10*%
%TO.N,/Right Drive/+3.3V_PWRDIS*%
X91359200Y-117950000D03*
%TO.P,J4,11,11*%
%TO.N,/Right Drive/GNDPWR*%
X90089200Y-117950000D03*
%TO.P,J4,12,12*%
X88819200Y-117950000D03*
%TO.P,J4,13,13*%
X87549200Y-117950000D03*
%TO.P,J4,14,14*%
%TO.N,/Right Drive/+5V*%
X86279200Y-117950000D03*
%TO.P,J4,15,15*%
X85009200Y-117950000D03*
%TO.P,J4,16,16*%
X83739200Y-117950000D03*
%TO.P,J4,17,17*%
%TO.N,/Right Drive/GNDPWR*%
X82469200Y-117950000D03*
%TO.P,J4,18,18*%
%TO.N,/Right Drive/RESERVED_DRIVE*%
X81199200Y-117950000D03*
%TO.P,J4,19,19*%
%TO.N,/Right Drive/GNDPWR*%
X79929200Y-117950000D03*
%TO.P,J4,20,20*%
%TO.N,/Right Drive/+12V*%
X78659200Y-117950000D03*
%TO.P,J4,21,21*%
X77389200Y-117950000D03*
%TO.P,J4,22,22*%
X76119200Y-117950000D03*
D13*
%TO.P,J4,23,23*%
%TO.N,unconnected-(J4-Pad23)*%
X112699000Y-117950000D03*
%TO.P,J4,24,24*%
%TO.N,unconnected-(J4-Pad24)*%
X71199200Y-117950000D03*
%TD*%
D12*
%TO.P,J1,1,1*%
%TO.N,/Left Drive/GNDS*%
X212829000Y-117950000D03*
%TO.P,J1,2,2*%
%TO.N,/Left Drive/TX+*%
X211559000Y-117950000D03*
%TO.P,J1,3,3*%
%TO.N,/Left Drive/TX-*%
X210289000Y-117950000D03*
%TO.P,J1,4,4*%
%TO.N,/Left Drive/GNDS*%
X209019000Y-117950000D03*
%TO.P,J1,5,5*%
%TO.N,/Left Drive/RX-*%
X207749000Y-117950000D03*
%TO.P,J1,6,6*%
%TO.N,/Left Drive/RX+*%
X206479000Y-117950000D03*
%TO.P,J1,7,7*%
%TO.N,/Left Drive/GNDS*%
X205209000Y-117950000D03*
%TO.P,J1,8,8*%
%TO.N,/Left Drive/+3.3V*%
X198949200Y-117950000D03*
%TO.P,J1,9,9*%
X197679200Y-117950000D03*
%TO.P,J1,10,10*%
%TO.N,/Left Drive/+3.3V_PWRDIS*%
X196409200Y-117950000D03*
%TO.P,J1,11,11*%
%TO.N,/Left Drive/GNDPWR*%
X195139200Y-117950000D03*
%TO.P,J1,12,12*%
X193869200Y-117950000D03*
%TO.P,J1,13,13*%
X192599200Y-117950000D03*
%TO.P,J1,14,14*%
%TO.N,/Left Drive/+5V*%
X191329200Y-117950000D03*
%TO.P,J1,15,15*%
X190059200Y-117950000D03*
%TO.P,J1,16,16*%
X188789200Y-117950000D03*
%TO.P,J1,17,17*%
%TO.N,/Left Drive/GNDPWR*%
X187519200Y-117950000D03*
%TO.P,J1,18,18*%
%TO.N,/Left Drive/RESERVED_DRIVE*%
X186249200Y-117950000D03*
%TO.P,J1,19,19*%
%TO.N,/Left Drive/GNDPWR*%
X184979200Y-117950000D03*
%TO.P,J1,20,20*%
%TO.N,/Left Drive/+12V*%
X183709200Y-117950000D03*
%TO.P,J1,21,21*%
X182439200Y-117950000D03*
%TO.P,J1,22,22*%
X181169200Y-117950000D03*
D13*
%TO.P,J1,23,23*%
%TO.N,unconnected-(J1-Pad23)*%
X217749000Y-117950000D03*
%TO.P,J1,24,24*%
%TO.N,unconnected-(J1-Pad24)*%
X176249200Y-117950000D03*
%TD*%
D23*
%TO.N,Net-(U1-T{slash}T)*%
X163599000Y-110600000D03*
%TO.N,Net-(D1-K-Pad2)*%
X162786197Y-110600000D03*
%TO.N,Net-(D1-K-Pad1)*%
X161999000Y-108500000D03*
D24*
%TO.N,/Left Drive/GNDS*%
X209199000Y-107100000D03*
X174199000Y-105200000D03*
X202999000Y-114200000D03*
X199999000Y-101800000D03*
X185999000Y-109000000D03*
X177099000Y-108600000D03*
X211899000Y-110000000D03*
X197999000Y-108000000D03*
X183999000Y-114200000D03*
X200999000Y-114200000D03*
X199999000Y-108000000D03*
X183999000Y-101800000D03*
X179599000Y-111200000D03*
X206399000Y-104600000D03*
X180299000Y-100500000D03*
X181999000Y-101800000D03*
X185999000Y-114200000D03*
X189999000Y-101800000D03*
X187999000Y-114200000D03*
X178799000Y-99400000D03*
X178399000Y-109900000D03*
X195999000Y-108000000D03*
X204999000Y-103300000D03*
X196999000Y-114200000D03*
X194999000Y-114200000D03*
X198099000Y-101800000D03*
X180799000Y-112700000D03*
X189999000Y-114200000D03*
X193999000Y-101800000D03*
X185999000Y-101800000D03*
X187999000Y-101800000D03*
X181999000Y-114200000D03*
X198999000Y-114200000D03*
X187999000Y-108000000D03*
D23*
X174899000Y-91000000D03*
D24*
X195999000Y-101800000D03*
X201999000Y-108000000D03*
X193999000Y-108000000D03*
X191999000Y-101800000D03*
X189999000Y-108000000D03*
X203799000Y-101800000D03*
X201999000Y-101800000D03*
X210599000Y-108600000D03*
X191999000Y-108000000D03*
X183999000Y-109000000D03*
X207699000Y-105800000D03*
X175399000Y-106600000D03*
%TO.N,/Right Drive/GNDS*%
X99999000Y-109800000D03*
X144999000Y-120000000D03*
X134999000Y-120000000D03*
X138999000Y-109800000D03*
X126999000Y-109800000D03*
X132999000Y-109800000D03*
X138999000Y-120000000D03*
X146999000Y-109800000D03*
X101999000Y-109800000D03*
X151099000Y-109800000D03*
X120999000Y-109800000D03*
X136999000Y-109800000D03*
X124999000Y-120000000D03*
X132999000Y-120000000D03*
X116999000Y-120000000D03*
X142999000Y-109800000D03*
X148999000Y-120000000D03*
X142999000Y-120000000D03*
X122999000Y-109800000D03*
X118899000Y-120000000D03*
X103999000Y-109800000D03*
X141099000Y-109800000D03*
X154999000Y-122000000D03*
X128999000Y-109800000D03*
X134999000Y-109800000D03*
X128999000Y-120000000D03*
X148999000Y-109800000D03*
X151099000Y-120000000D03*
X130999000Y-120000000D03*
X136999000Y-120000000D03*
X140999000Y-120000000D03*
X130999000Y-109800000D03*
X145099000Y-109800000D03*
X152999000Y-120000000D03*
X126999000Y-120000000D03*
X146999000Y-120000000D03*
X120999000Y-120000000D03*
X124999000Y-109800000D03*
X122999000Y-120000000D03*
D23*
%TO.N,Net-(D6-K)*%
X198924000Y-120500000D03*
%TO.N,Net-(D4-K)*%
X185824000Y-120657400D03*
%TO.N,Net-(D7-K)*%
X79899000Y-120432400D03*
%TO.N,Net-(D9-K)*%
X91599000Y-120500000D03*
%TO.N,/PWM*%
X161973394Y-110600000D03*
%TD*%
D25*
%TO.N,Net-(U1-T{slash}T)*%
X163599000Y-110055000D02*
X165154000Y-108500000D01*
X163599000Y-110600000D02*
X163599000Y-110055000D01*
%TO.N,Net-(D1-K-Pad2)*%
X166404000Y-105600000D02*
X165349000Y-106655000D01*
X162799000Y-110587197D02*
X162786197Y-110600000D01*
X162799000Y-108100000D02*
X162799000Y-110587197D01*
X164244000Y-106655000D02*
X162799000Y-108100000D01*
X165349000Y-106655000D02*
X164244000Y-106655000D01*
%TO.N,Net-(D1-K-Pad1)*%
X161999000Y-107505000D02*
X163904000Y-105600000D01*
X161999000Y-108500000D02*
X161999000Y-107505000D01*
D26*
%TO.N,/Left Drive/TX+*%
X174759450Y-94133538D02*
X174759450Y-98733538D01*
X174759450Y-98733538D02*
X180765462Y-104739550D01*
X173390462Y-92764550D02*
X174759450Y-94133538D01*
X180765462Y-104739550D02*
X202365462Y-104739550D01*
X211084450Y-117475450D02*
X211559000Y-117950000D01*
X211084450Y-113458538D02*
X211084450Y-117475450D01*
X171628550Y-92764550D02*
X173390462Y-92764550D01*
X202365462Y-104739550D02*
X211084450Y-113458538D01*
X171154000Y-92290000D02*
X171628550Y-92764550D01*
D27*
%TO.N,/Left Drive/+12V*%
X170446894Y-120240000D02*
X171154000Y-120240000D01*
X166239000Y-114540000D02*
X167899000Y-116200000D01*
X165154000Y-114540000D02*
X166239000Y-114540000D01*
X167899000Y-117692106D02*
X170446894Y-120240000D01*
X167899000Y-116200000D02*
X167899000Y-117692106D01*
D26*
%TO.N,/Left Drive/RX+*%
X206953550Y-117475450D02*
X206953550Y-114481462D01*
X198945785Y-111671400D02*
X198447264Y-111671400D01*
X201743334Y-111260450D02*
X201583128Y-111260450D01*
X193071775Y-111304975D02*
X193027250Y-111260450D01*
X199178875Y-110894025D02*
X199178875Y-111438311D01*
X194357375Y-110894025D02*
X194312850Y-110849500D01*
X194357375Y-111438311D02*
X194357375Y-110894025D01*
X200464475Y-111304975D02*
X200464475Y-111438311D01*
X199732864Y-111671400D02*
X199499775Y-111438311D01*
X193803385Y-111671400D02*
X193304864Y-111671400D01*
X197161664Y-111671400D02*
X196928575Y-111438311D01*
X199223400Y-110849500D02*
X199178875Y-110894025D01*
X195322075Y-110894025D02*
X195322075Y-111438311D01*
X197893275Y-111438311D02*
X197660185Y-111671400D01*
X194590464Y-111671400D02*
X194357375Y-111438311D01*
X202706034Y-111421144D02*
X202545828Y-111421144D01*
X203026934Y-111260450D02*
X202866728Y-111260450D01*
X201422434Y-111421144D02*
X201262228Y-111421144D01*
X198169650Y-110849500D02*
X197937800Y-110849500D01*
X197660185Y-111671400D02*
X197161664Y-111671400D01*
X199499775Y-110894025D02*
X199455250Y-110849500D01*
X198214175Y-111438311D02*
X198214175Y-110894025D01*
X202064234Y-111421144D02*
X201904028Y-111421144D01*
X203732538Y-111260450D02*
X203508528Y-111260450D01*
X196374585Y-111671400D02*
X195876064Y-111671400D01*
X195366600Y-110849500D02*
X195322075Y-110894025D01*
X206953550Y-114481462D02*
X203732538Y-111260450D01*
X193071775Y-111438311D02*
X193071775Y-111304975D01*
X202385134Y-111260450D02*
X202224928Y-111260450D01*
X194312850Y-110849500D02*
X194081000Y-110849500D01*
X199178875Y-111438311D02*
X198945785Y-111671400D01*
X200464475Y-111438311D02*
X200231385Y-111671400D01*
X200732743Y-111260450D02*
X200509000Y-111260450D01*
X194081000Y-110849500D02*
X194036475Y-110894025D01*
X197893275Y-110894025D02*
X197893275Y-111438311D01*
X201101534Y-111260450D02*
X200732743Y-111260450D01*
X192189000Y-111260450D02*
X184032538Y-111260450D01*
X194036475Y-110894025D02*
X194036475Y-111438311D01*
X193027250Y-111260450D02*
X192189000Y-111260450D01*
X200231385Y-111671400D02*
X199732864Y-111671400D01*
X195088985Y-111671400D02*
X194590464Y-111671400D01*
X201583128Y-111260450D02*
X201422434Y-111421144D01*
X202224928Y-111260450D02*
X202064234Y-111421144D01*
X195598450Y-110849500D02*
X195366600Y-110849500D01*
X195642975Y-110894025D02*
X195598450Y-110849500D01*
X198214175Y-110894025D02*
X198169650Y-110849500D01*
X201262228Y-111421144D02*
X201101534Y-111260450D01*
X196928575Y-111438311D02*
X196928575Y-110894025D01*
X199499775Y-111438311D02*
X199499775Y-110894025D01*
X203508528Y-111260450D02*
X203347834Y-111421144D01*
X195642975Y-111438311D02*
X195642975Y-110894025D01*
X202545828Y-111421144D02*
X202385134Y-111260450D01*
X196928575Y-110894025D02*
X196884050Y-110849500D01*
X171628550Y-96895450D02*
X171154000Y-97370000D01*
X198447264Y-111671400D02*
X198214175Y-111438311D01*
X196884050Y-110849500D02*
X196652200Y-110849500D01*
X203187628Y-111421144D02*
X203026934Y-111260450D01*
X195876064Y-111671400D02*
X195642975Y-111438311D01*
X203347834Y-111421144D02*
X203187628Y-111421144D01*
X199455250Y-110849500D02*
X199223400Y-110849500D01*
X173038550Y-97639550D02*
X172294450Y-96895450D01*
X197937800Y-110849500D02*
X197893275Y-110894025D01*
X200509000Y-111260450D02*
X200464475Y-111304975D01*
X195322075Y-111438311D02*
X195088985Y-111671400D01*
X172294450Y-96895450D02*
X171628550Y-96895450D01*
X201904028Y-111421144D02*
X201743334Y-111260450D01*
X196607675Y-110894025D02*
X196607675Y-111438311D01*
X184032538Y-111260450D02*
X173038550Y-100266462D01*
X194036475Y-111438311D02*
X193803385Y-111671400D01*
X196607675Y-111438311D02*
X196374585Y-111671400D01*
X173038550Y-100266462D02*
X173038550Y-97639550D01*
X206479000Y-117950000D02*
X206953550Y-117475450D01*
X196652200Y-110849500D02*
X196607675Y-110894025D01*
X193304864Y-111671400D02*
X193071775Y-111438311D01*
X202866728Y-111260450D02*
X202706034Y-111421144D01*
%TO.N,/Left Drive/RX-*%
X193393675Y-111304975D02*
X193393675Y-111171640D01*
X207275450Y-114348126D02*
X204054438Y-111127115D01*
X200098050Y-111349500D02*
X199866200Y-111349500D01*
X193947664Y-110527600D02*
X193714575Y-110760689D01*
X198812450Y-111349500D02*
X198580600Y-111349500D01*
X197571375Y-111304975D02*
X197526850Y-111349500D01*
X196518864Y-110527600D02*
X196285775Y-110760689D01*
X197250475Y-110760689D02*
X197017385Y-110527600D01*
X195964875Y-110760689D02*
X195731785Y-110527600D01*
X199821675Y-111304975D02*
X199821675Y-110760689D01*
X195731785Y-110527600D02*
X195233264Y-110527600D01*
X207749000Y-117950000D02*
X207275450Y-117476450D01*
X192189000Y-110938550D02*
X184165874Y-110938550D01*
X196285775Y-111304975D02*
X196241250Y-111349500D01*
X198302985Y-110527600D02*
X197804464Y-110527600D01*
X196009400Y-111349500D02*
X195964875Y-111304975D01*
X194723800Y-111349500D02*
X194679275Y-111304975D01*
X198536075Y-110760689D02*
X198302985Y-110527600D01*
X197526850Y-111349500D02*
X197295000Y-111349500D01*
X197295000Y-111349500D02*
X197250475Y-111304975D01*
X194679275Y-111304975D02*
X194679275Y-110760689D01*
X173360450Y-100133126D02*
X173360450Y-97506214D01*
X196241250Y-111349500D02*
X196009400Y-111349500D01*
X197804464Y-110527600D02*
X197571375Y-110760689D01*
X199588585Y-110527600D02*
X199090064Y-110527600D01*
X207275450Y-117476450D02*
X207275450Y-114348126D01*
X200375664Y-110938550D02*
X200142575Y-111171640D01*
X197250475Y-111304975D02*
X197250475Y-110760689D01*
X193714575Y-110760689D02*
X193714575Y-111304975D01*
X197571375Y-110760689D02*
X197571375Y-111304975D01*
X194679275Y-110760689D02*
X194446185Y-110527600D01*
X173360450Y-97506214D02*
X172616350Y-96762115D01*
X193714575Y-111304975D02*
X193670050Y-111349500D01*
X204054438Y-111127115D02*
X203865874Y-110938550D01*
X200142575Y-111304975D02*
X200098050Y-111349500D01*
X196285775Y-110760689D02*
X196285775Y-111304975D01*
X172616350Y-96762115D02*
X172427786Y-96573550D01*
X198536075Y-111304975D02*
X198536075Y-110760689D01*
X193160585Y-110938550D02*
X192189000Y-110938550D01*
X195000175Y-111304975D02*
X194955650Y-111349500D01*
X194955650Y-111349500D02*
X194723800Y-111349500D01*
X193393675Y-111171640D02*
X193160585Y-110938550D01*
X193438200Y-111349500D02*
X193393675Y-111304975D01*
X198856975Y-110760689D02*
X198856975Y-111304975D01*
X200142575Y-111171640D02*
X200142575Y-111304975D01*
X198856975Y-111304975D02*
X198812450Y-111349500D01*
X199090064Y-110527600D02*
X198856975Y-110760689D01*
X195000175Y-110760689D02*
X195000175Y-111304975D01*
X184165874Y-110938550D02*
X173360450Y-100133126D01*
X172427786Y-96573550D02*
X171627550Y-96573550D01*
X200509000Y-110938550D02*
X200375664Y-110938550D01*
X194446185Y-110527600D02*
X193947664Y-110527600D01*
X195233264Y-110527600D02*
X195000175Y-110760689D01*
X171627550Y-96573550D02*
X171154000Y-96100000D01*
X199821675Y-110760689D02*
X199588585Y-110527600D01*
X193670050Y-111349500D02*
X193438200Y-111349500D01*
X203865874Y-110938550D02*
X200509000Y-110938550D01*
X198580600Y-111349500D02*
X198536075Y-111304975D01*
X199866200Y-111349500D02*
X199821675Y-111304975D01*
X195964875Y-111304975D02*
X195964875Y-110760689D01*
X197017385Y-110527600D02*
X196518864Y-110527600D01*
%TO.N,/Left Drive/TX-*%
X200234040Y-105060450D02*
X200073600Y-105060450D01*
X210289000Y-117950000D02*
X210763550Y-117475450D01*
X199592270Y-105060450D02*
X198778000Y-105060450D01*
X200875840Y-105060450D02*
X200715400Y-105060450D01*
X210763550Y-117475450D02*
X210763550Y-113591462D01*
X201678100Y-105220910D02*
X201517640Y-105060450D01*
X198778000Y-105060450D02*
X180632538Y-105060450D01*
X201357200Y-105060450D02*
X201196740Y-105220910D01*
X201196740Y-105220910D02*
X201036300Y-105220910D01*
X180632538Y-105060450D02*
X174438550Y-98866462D01*
X200073600Y-105060450D02*
X199913170Y-105220880D01*
X201838540Y-105220910D02*
X201678100Y-105220910D01*
X174438550Y-98866462D02*
X174438550Y-94266462D01*
X200394500Y-105220910D02*
X200234040Y-105060450D01*
X173257538Y-93085450D02*
X171628550Y-93085450D01*
X171628550Y-93085450D02*
X171154000Y-93560000D01*
X174438550Y-94266462D02*
X173257538Y-93085450D01*
X199752700Y-105220880D02*
X199592270Y-105060450D01*
X199913170Y-105220880D02*
X199752700Y-105220880D01*
X210763550Y-113591462D02*
X202232538Y-105060450D01*
X201999000Y-105060450D02*
X201838540Y-105220910D01*
X200554940Y-105220910D02*
X200394500Y-105220910D01*
X201517640Y-105060450D02*
X201357200Y-105060450D01*
X202232538Y-105060450D02*
X201999000Y-105060450D01*
X201036300Y-105220910D02*
X200875840Y-105060450D01*
X200715400Y-105060450D02*
X200554940Y-105220910D01*
D27*
%TO.N,/Right Drive/+12V*%
X159659000Y-93560000D02*
X159154000Y-93560000D01*
X161999000Y-95900000D02*
X159659000Y-93560000D01*
X165154000Y-99260000D02*
X164559000Y-99260000D01*
X161999000Y-96700000D02*
X161999000Y-95900000D01*
X164559000Y-99260000D02*
X161999000Y-96700000D01*
D26*
%TO.N,/Right Drive/TX+*%
X122705135Y-117531400D02*
X122958225Y-117278310D01*
X121929000Y-117080450D02*
X121993525Y-117144975D01*
X120351154Y-117241154D02*
X120511858Y-117080450D01*
X106509000Y-117950000D02*
X106034450Y-117475450D01*
X126815025Y-117278310D02*
X126815025Y-117144975D01*
X122958225Y-117278310D02*
X122958225Y-116694025D01*
X122958225Y-116694025D02*
X123022750Y-116629500D01*
X126879550Y-117080450D02*
X127799000Y-117080450D01*
X125850325Y-116694025D02*
X125850325Y-117278310D01*
X123279125Y-116694025D02*
X123279125Y-117278310D01*
X125850325Y-117278310D02*
X126103414Y-117531400D01*
X119549158Y-117241154D02*
X119709354Y-117241154D01*
X123214600Y-116629500D02*
X123279125Y-116694025D01*
X123990735Y-117531400D02*
X124243825Y-117278310D01*
X119228258Y-117080450D02*
X119388454Y-117080450D01*
X120992954Y-117241154D02*
X121153658Y-117080450D01*
X120190958Y-117241154D02*
X120351154Y-117241154D01*
X122246614Y-117531400D02*
X122705135Y-117531400D01*
X119388454Y-117080450D02*
X119549158Y-117241154D01*
X119709354Y-117241154D02*
X119870058Y-117080450D01*
X120511858Y-117080450D02*
X120672054Y-117080450D01*
X121993525Y-117144975D02*
X121993525Y-117278310D01*
X126561935Y-117531400D02*
X126815025Y-117278310D01*
X125276335Y-117531400D02*
X125529425Y-117278310D01*
X123022750Y-116629500D02*
X123214600Y-116629500D01*
X126103414Y-117531400D02*
X126561935Y-117531400D01*
X119870058Y-117080450D02*
X120030254Y-117080450D01*
X125785800Y-116629500D02*
X125850325Y-116694025D01*
X124243825Y-116694025D02*
X124308350Y-116629500D01*
X156764450Y-121035450D02*
X158679450Y-121035450D01*
X124308350Y-116629500D02*
X124500200Y-116629500D01*
X106034450Y-117475450D02*
X106034450Y-116531462D01*
X121153658Y-117080450D02*
X121564450Y-117080450D01*
X120832758Y-117241154D02*
X120992954Y-117241154D01*
X108215462Y-114350450D02*
X115762538Y-114350450D01*
X125529425Y-117278310D02*
X125529425Y-116694025D01*
X125529425Y-116694025D02*
X125593950Y-116629500D01*
X124564725Y-117278310D02*
X124817814Y-117531400D01*
X124564725Y-116694025D02*
X124564725Y-117278310D01*
X118907358Y-117241154D02*
X119067554Y-117241154D01*
X106034450Y-116531462D02*
X108215462Y-114350450D01*
X126815025Y-117144975D02*
X126879550Y-117080450D01*
X120030254Y-117080450D02*
X120190958Y-117241154D01*
X121993525Y-117278310D02*
X122246614Y-117531400D01*
X115762538Y-114350450D02*
X118492538Y-117080450D01*
X125593950Y-116629500D02*
X125785800Y-116629500D01*
X158679450Y-121035450D02*
X159154000Y-121510000D01*
X152809450Y-117080450D02*
X156764450Y-121035450D01*
X123279125Y-117278310D02*
X123532214Y-117531400D01*
X124817814Y-117531400D02*
X125276335Y-117531400D01*
X118746654Y-117080450D02*
X118907358Y-117241154D01*
X127799000Y-117080450D02*
X152809450Y-117080450D01*
X119067554Y-117241154D02*
X119228258Y-117080450D01*
X120672054Y-117080450D02*
X120832758Y-117241154D01*
X124243825Y-117278310D02*
X124243825Y-116694025D01*
X121564450Y-117080450D02*
X121929000Y-117080450D01*
X118492538Y-117080450D02*
X118746654Y-117080450D01*
X123532214Y-117531400D02*
X123990735Y-117531400D01*
X124500200Y-116629500D02*
X124564725Y-116694025D01*
%TO.N,/Right Drive/TX-*%
X122636325Y-116560690D02*
X122889414Y-116307600D01*
X156897786Y-120713550D02*
X158680450Y-120713550D01*
X127799000Y-116758550D02*
X152942786Y-116758550D01*
X122315425Y-117011639D02*
X122315425Y-117144975D01*
X118625874Y-116758550D02*
X121929000Y-116758550D01*
X152942786Y-116758550D02*
X156897786Y-120713550D01*
X123921925Y-117144975D02*
X123921925Y-116560690D01*
X108082126Y-114028550D02*
X115895874Y-114028550D01*
X105712550Y-116398126D02*
X107893562Y-114217115D01*
X107893562Y-114217115D02*
X108082126Y-114028550D01*
X125207525Y-117144975D02*
X125207525Y-116560690D01*
X124886625Y-116560690D02*
X124886625Y-117144975D01*
X124951150Y-117209500D02*
X125143000Y-117209500D01*
X125207525Y-116560690D02*
X125460614Y-116307600D01*
X121929000Y-116758550D02*
X122062335Y-116758550D01*
X124175014Y-116307600D02*
X124633535Y-116307600D01*
X123601025Y-116560690D02*
X123601025Y-117144975D01*
X115895874Y-114028550D02*
X118625874Y-116758550D01*
X105239000Y-117950000D02*
X105712550Y-117476450D01*
X122379950Y-117209500D02*
X122571800Y-117209500D01*
X125143000Y-117209500D02*
X125207525Y-117144975D01*
X126493125Y-117144975D02*
X126493125Y-117011639D01*
X105712550Y-117476450D02*
X105712550Y-116398126D01*
X123347935Y-116307600D02*
X123601025Y-116560690D01*
X126746214Y-116758550D02*
X127799000Y-116758550D01*
X122571800Y-117209500D02*
X122636325Y-117144975D01*
X158680450Y-120713550D02*
X159154000Y-120240000D01*
X124633535Y-116307600D02*
X124886625Y-116560690D01*
X122062335Y-116758550D02*
X122315425Y-117011639D01*
X122889414Y-116307600D02*
X123347935Y-116307600D01*
X123601025Y-117144975D02*
X123665550Y-117209500D01*
X126493125Y-117011639D02*
X126746214Y-116758550D01*
X126236750Y-117209500D02*
X126428600Y-117209500D01*
X123857400Y-117209500D02*
X123921925Y-117144975D01*
X124886625Y-117144975D02*
X124951150Y-117209500D01*
X125919135Y-116307600D02*
X126172225Y-116560690D01*
X122636325Y-117144975D02*
X122636325Y-116560690D01*
X126428600Y-117209500D02*
X126493125Y-117144975D01*
X123665550Y-117209500D02*
X123857400Y-117209500D01*
X122315425Y-117144975D02*
X122379950Y-117209500D01*
X125460614Y-116307600D02*
X125919135Y-116307600D01*
X123921925Y-116560690D02*
X124175014Y-116307600D01*
X126172225Y-117144975D02*
X126236750Y-117209500D01*
X126172225Y-116560690D02*
X126172225Y-117144975D01*
%TO.N,/Right Drive/RX+*%
X120182786Y-112808550D02*
X118672786Y-111298550D01*
X153035874Y-112808550D02*
X120182786Y-112808550D01*
X101902550Y-115898126D02*
X101902550Y-117476450D01*
X157130874Y-116903550D02*
X153035874Y-112808550D01*
X118672786Y-111298550D02*
X106502126Y-111298550D01*
X102091115Y-115709562D02*
X101902550Y-115898126D01*
X158680450Y-116903550D02*
X157130874Y-116903550D01*
X106502126Y-111298550D02*
X102091115Y-115709562D01*
X101902550Y-117476450D02*
X101429000Y-117950000D01*
X159154000Y-116430000D02*
X158680450Y-116903550D01*
D28*
%TO.N,/Left Drive/RESERVED_DRIVE*%
X197624000Y-121200000D02*
X196131500Y-122692500D01*
D25*
X186774200Y-118475000D02*
X186249200Y-117950000D01*
X186774200Y-119850200D02*
X186774200Y-118475000D01*
D28*
X189316500Y-122692500D02*
X187574000Y-120950000D01*
X192524000Y-121775000D02*
X192524000Y-122692500D01*
X191918999Y-122692500D02*
X189316500Y-122692500D01*
D25*
X187824000Y-120900000D02*
X186774200Y-119850200D01*
D28*
X196131500Y-122692500D02*
X191918999Y-122692500D01*
D26*
%TO.N,/Right Drive/RX-*%
X122922786Y-113130450D02*
X152902538Y-113130450D01*
X120768391Y-113130450D02*
X120928597Y-113130450D01*
X120049450Y-113130450D02*
X120286797Y-113130450D01*
X122051991Y-113130450D02*
X122212197Y-113130450D01*
X158679450Y-117225450D02*
X159154000Y-117700000D01*
X121410191Y-113130450D02*
X121570397Y-113130450D01*
X121731091Y-113291144D02*
X121891297Y-113291144D01*
X122533097Y-113291144D02*
X122693791Y-113130450D01*
X120607697Y-113291144D02*
X120768391Y-113130450D01*
X121249497Y-113291144D02*
X121410191Y-113130450D01*
X121570397Y-113130450D02*
X121731091Y-113291144D01*
X118539450Y-111620450D02*
X120049450Y-113130450D01*
X122693791Y-113130450D02*
X122922786Y-113130450D01*
X120447491Y-113291144D02*
X120607697Y-113291144D01*
X120928597Y-113130450D02*
X121089291Y-113291144D01*
X152902538Y-113130450D02*
X156997538Y-117225450D01*
X122372891Y-113291144D02*
X122533097Y-113291144D01*
X122212197Y-113130450D02*
X122372891Y-113291144D01*
X121089291Y-113291144D02*
X121249497Y-113291144D01*
X102224450Y-117475450D02*
X102224450Y-116031462D01*
X102699000Y-117950000D02*
X102224450Y-117475450D01*
X102224450Y-116031462D02*
X106635462Y-111620450D01*
X120286797Y-113130450D02*
X120447491Y-113291144D01*
X156997538Y-117225450D02*
X158679450Y-117225450D01*
X121891297Y-113291144D02*
X122051991Y-113130450D01*
X106635462Y-111620450D02*
X118539450Y-111620450D01*
D25*
%TO.N,Net-(D6-K)*%
X196824000Y-119400000D02*
X197824000Y-119400000D01*
X197824000Y-119400000D02*
X198924000Y-120500000D01*
%TO.N,Net-(D4-K)*%
X185824000Y-121525000D02*
X185824000Y-120657400D01*
%TO.N,Net-(D7-K)*%
X79899000Y-121300000D02*
X79899000Y-120432400D01*
%TO.N,Net-(U2-Y)*%
X194899000Y-119500000D02*
X194999000Y-119400000D01*
X193474000Y-119500000D02*
X194899000Y-119500000D01*
D28*
%TO.N,/Right Drive/RESERVED_DRIVE*%
X83391500Y-122692500D02*
X86599000Y-122692500D01*
X91306500Y-122692500D02*
X92199000Y-121800000D01*
D25*
X81199200Y-120100200D02*
X82199000Y-121100000D01*
D28*
X86649000Y-121775000D02*
X86649000Y-122642500D01*
X82199000Y-121500000D02*
X83391500Y-122692500D01*
D25*
X82199000Y-121100000D02*
X82199000Y-121500000D01*
X81199200Y-117950000D02*
X81199200Y-120100200D01*
D28*
X86599000Y-122692500D02*
X91306500Y-122692500D01*
D25*
%TO.N,/Left Drive/GNDPWR*%
X193061499Y-120700000D02*
X191299000Y-120700000D01*
X193474000Y-121775000D02*
X193474000Y-121112501D01*
X187824000Y-119300000D02*
X188024000Y-119100000D01*
X193924000Y-121775000D02*
X193474000Y-121775000D01*
X190199000Y-121800000D02*
X189058420Y-121800000D01*
X187519200Y-117950000D02*
X187824000Y-118254800D01*
X195124000Y-121200000D02*
X194499000Y-121200000D01*
X191299000Y-120700000D02*
X190199000Y-121800000D01*
X184979200Y-118855200D02*
X185824000Y-119700000D01*
X188724000Y-121465580D02*
X188724000Y-120200000D01*
X187624000Y-119500000D02*
X187824000Y-119300000D01*
X194499000Y-121200000D02*
X193924000Y-121775000D01*
X189058420Y-121800000D02*
X188724000Y-121465580D01*
X188724000Y-120200000D02*
X187824000Y-119300000D01*
X184979200Y-117950000D02*
X184979200Y-118855200D01*
X187824000Y-118254800D02*
X187824000Y-119300000D01*
X193474000Y-121112501D02*
X193061499Y-120700000D01*
%TO.N,/Right Drive/GNDPWR*%
X83733420Y-122000000D02*
X84399000Y-122000000D01*
X84899000Y-121500000D02*
X84899000Y-121200000D01*
X85447080Y-120651920D02*
X86765334Y-120651920D01*
X79899000Y-117980200D02*
X79929200Y-117950000D01*
X82274000Y-119500000D02*
X82941500Y-120167500D01*
X90099000Y-117959800D02*
X90089200Y-117950000D01*
X82941500Y-121208080D02*
X83733420Y-122000000D01*
X87599000Y-121485586D02*
X87599000Y-121775000D01*
X82469200Y-117950000D02*
X82469200Y-119304800D01*
X84399000Y-122000000D02*
X84899000Y-121500000D01*
X82469200Y-119304800D02*
X82274000Y-119500000D01*
X84899000Y-121200000D02*
X85447080Y-120651920D01*
X82274000Y-118145200D02*
X82469200Y-117950000D01*
X86765334Y-120651920D02*
X87599000Y-121485586D01*
X87624000Y-121800000D02*
X87599000Y-121775000D01*
X89699000Y-121800000D02*
X87624000Y-121800000D01*
X79899000Y-119475000D02*
X79899000Y-117980200D01*
X82941500Y-120167500D02*
X82941500Y-121208080D01*
%TO.N,Net-(D9-K)*%
X91599000Y-119700000D02*
X91499000Y-119600000D01*
X91599000Y-120500000D02*
X91599000Y-119700000D01*
%TO.N,/PWM*%
X161299000Y-102300000D02*
X163099000Y-100500000D01*
X161973394Y-110600000D02*
X161299000Y-109925606D01*
X161299000Y-109925606D02*
X161299000Y-102300000D01*
X167399000Y-96100000D02*
X165479000Y-94180000D01*
X167399000Y-99600000D02*
X167399000Y-96100000D01*
X166499000Y-100500000D02*
X167399000Y-99600000D01*
X165479000Y-94180000D02*
X165154000Y-94180000D01*
X163099000Y-100500000D02*
X166499000Y-100500000D01*
%TO.N,/Right Drive/+5V*%
X84024000Y-121100000D02*
X84024000Y-119525000D01*
X84099000Y-119900000D02*
X83999000Y-119800000D01*
X85699000Y-119500000D02*
X83999000Y-119500000D01*
X83739200Y-117950000D02*
X83739200Y-119240200D01*
X83999000Y-118209800D02*
X83739200Y-117950000D01*
X84024000Y-119525000D02*
X83999000Y-119500000D01*
X83739200Y-119240200D02*
X83999000Y-119500000D01*
%TO.N,/Left Drive/+5V*%
X191574000Y-119500000D02*
X189749000Y-119500000D01*
X189549000Y-121100000D02*
X189649000Y-121200000D01*
X188789200Y-117950000D02*
X188789200Y-118540200D01*
X188789200Y-118540200D02*
X189549000Y-119300000D01*
X189749000Y-119500000D02*
X189549000Y-119300000D01*
X189549000Y-119300000D02*
X189549000Y-121100000D01*
%TO.N,Net-(U3-Y)*%
X89574000Y-119500000D02*
X89674000Y-119600000D01*
X87599000Y-119500000D02*
X89574000Y-119500000D01*
%TD*%
%TA.AperFunction,Conductor*%
%TO.N,/Right Drive/GNDS*%
G36*
X118448544Y-111900307D02*
G01*
X118460357Y-111910396D01*
X119901633Y-113351672D01*
X119929725Y-113363307D01*
X119997544Y-113391400D01*
X120137700Y-113391400D01*
X120195891Y-113410307D01*
X120207703Y-113420396D01*
X120299675Y-113512367D01*
X120395584Y-113552094D01*
X120395585Y-113552094D01*
X120659602Y-113552094D01*
X120659603Y-113552094D01*
X120707558Y-113532230D01*
X120755513Y-113512367D01*
X120786489Y-113481390D01*
X120796087Y-113475402D01*
X120815333Y-113470616D01*
X120833005Y-113461612D01*
X120844334Y-113463406D01*
X120855464Y-113460639D01*
X120873848Y-113468080D01*
X120893438Y-113471183D01*
X120908441Y-113482083D01*
X120912179Y-113483596D01*
X120913551Y-113485795D01*
X120918494Y-113489386D01*
X120941475Y-113512367D01*
X120941476Y-113512367D01*
X120941477Y-113512368D01*
X121037384Y-113552094D01*
X121037385Y-113552094D01*
X121301402Y-113552094D01*
X121301403Y-113552094D01*
X121349358Y-113532230D01*
X121397313Y-113512367D01*
X121428289Y-113481390D01*
X121437887Y-113475402D01*
X121457133Y-113470616D01*
X121474805Y-113461612D01*
X121486134Y-113463406D01*
X121497264Y-113460639D01*
X121515648Y-113468080D01*
X121535238Y-113471183D01*
X121550241Y-113482083D01*
X121553979Y-113483596D01*
X121555351Y-113485795D01*
X121560294Y-113489386D01*
X121583275Y-113512367D01*
X121583276Y-113512367D01*
X121583277Y-113512368D01*
X121679184Y-113552094D01*
X121679185Y-113552094D01*
X121943202Y-113552094D01*
X121943203Y-113552094D01*
X121991158Y-113532230D01*
X122039113Y-113512367D01*
X122070089Y-113481390D01*
X122079687Y-113475402D01*
X122098933Y-113470616D01*
X122116605Y-113461612D01*
X122127934Y-113463406D01*
X122139064Y-113460639D01*
X122157448Y-113468080D01*
X122177038Y-113471183D01*
X122192041Y-113482083D01*
X122195779Y-113483596D01*
X122197151Y-113485795D01*
X122202094Y-113489386D01*
X122225075Y-113512367D01*
X122225076Y-113512367D01*
X122225077Y-113512368D01*
X122320984Y-113552094D01*
X122320985Y-113552094D01*
X122585002Y-113552094D01*
X122585003Y-113552094D01*
X122632958Y-113532230D01*
X122680913Y-113512367D01*
X122772884Y-113420396D01*
X122827401Y-113392619D01*
X122842888Y-113391400D01*
X122870880Y-113391400D01*
X152753441Y-113391400D01*
X152811632Y-113410307D01*
X152823445Y-113420396D01*
X156849722Y-117446673D01*
X156849723Y-117446673D01*
X156849724Y-117446674D01*
X156945631Y-117486400D01*
X156945632Y-117486400D01*
X158361632Y-117486400D01*
X158419823Y-117505307D01*
X158455787Y-117554807D01*
X158458730Y-117604714D01*
X158453500Y-117631004D01*
X158453500Y-117631007D01*
X158453500Y-117768993D01*
X158479684Y-117900630D01*
X158480420Y-117904327D01*
X158480420Y-117904329D01*
X158533222Y-118031806D01*
X158533228Y-118031817D01*
X158575276Y-118094745D01*
X158609886Y-118146542D01*
X158707458Y-118244114D01*
X158720734Y-118252985D01*
X158758613Y-118301033D01*
X158761015Y-118362171D01*
X158727023Y-118413045D01*
X158720738Y-118417612D01*
X158707779Y-118426271D01*
X158610271Y-118523779D01*
X158533666Y-118638428D01*
X158480903Y-118765810D01*
X158480901Y-118765816D01*
X158480069Y-118770000D01*
X158836457Y-118770000D01*
X158804556Y-118825255D01*
X158779000Y-118920630D01*
X158779000Y-119019370D01*
X158804556Y-119114745D01*
X158836457Y-119170000D01*
X158480069Y-119170000D01*
X158480901Y-119174183D01*
X158480903Y-119174189D01*
X158533666Y-119301571D01*
X158610271Y-119416220D01*
X158707780Y-119513729D01*
X158720734Y-119522385D01*
X158758613Y-119570436D01*
X158761015Y-119631574D01*
X158727021Y-119682447D01*
X158720737Y-119687012D01*
X158720735Y-119687015D01*
X158707457Y-119695887D01*
X158707454Y-119695889D01*
X158609885Y-119793458D01*
X158533228Y-119908182D01*
X158533222Y-119908193D01*
X158480420Y-120035670D01*
X158480420Y-120035672D01*
X158453500Y-120171004D01*
X158453500Y-120308995D01*
X158458531Y-120334286D01*
X158451339Y-120395047D01*
X158409807Y-120439977D01*
X158361433Y-120452600D01*
X157046883Y-120452600D01*
X156988692Y-120433693D01*
X156976879Y-120423604D01*
X153090602Y-116537327D01*
X153042647Y-116517464D01*
X152994692Y-116497600D01*
X127850906Y-116497600D01*
X126694308Y-116497600D01*
X126681560Y-116502880D01*
X126650952Y-116515558D01*
X126650943Y-116515562D01*
X126646353Y-116517464D01*
X126598398Y-116537327D01*
X126584395Y-116551329D01*
X126571558Y-116558229D01*
X126555086Y-116561209D01*
X126540173Y-116568807D01*
X126525734Y-116566519D01*
X126511350Y-116569122D01*
X126496274Y-116561852D01*
X126479742Y-116559233D01*
X126469405Y-116548895D01*
X126456238Y-116542546D01*
X126448314Y-116527802D01*
X126436479Y-116515966D01*
X126433227Y-116508911D01*
X126433175Y-116508785D01*
X126433175Y-116508784D01*
X126393447Y-116412874D01*
X126393447Y-116412873D01*
X126230884Y-116250310D01*
X126066953Y-116086378D01*
X126066951Y-116086377D01*
X126018996Y-116066514D01*
X125971041Y-116046650D01*
X125408708Y-116046650D01*
X125408707Y-116046650D01*
X125368980Y-116063105D01*
X125312797Y-116086376D01*
X125117077Y-116282096D01*
X125062561Y-116309873D01*
X125002129Y-116300302D01*
X124977070Y-116282096D01*
X124781351Y-116086377D01*
X124781349Y-116086376D01*
X124733396Y-116066514D01*
X124685441Y-116046650D01*
X124123108Y-116046650D01*
X124123107Y-116046650D01*
X124083380Y-116063105D01*
X124027197Y-116086376D01*
X123831477Y-116282096D01*
X123776961Y-116309873D01*
X123716529Y-116300302D01*
X123691470Y-116282096D01*
X123495751Y-116086377D01*
X123495749Y-116086376D01*
X123447796Y-116066514D01*
X123399841Y-116046650D01*
X122837508Y-116046650D01*
X122837507Y-116046650D01*
X122797780Y-116063104D01*
X122797780Y-116063105D01*
X122741597Y-116086377D01*
X122741596Y-116086377D01*
X122741594Y-116086379D01*
X122415101Y-116412874D01*
X122408874Y-116427909D01*
X122406735Y-116433075D01*
X122379432Y-116498991D01*
X122375322Y-116508913D01*
X122335585Y-116555438D01*
X122276091Y-116569722D01*
X122219563Y-116546307D01*
X122213867Y-116541043D01*
X122210151Y-116537327D01*
X122170423Y-116520872D01*
X122114241Y-116497600D01*
X122114240Y-116497600D01*
X118774971Y-116497600D01*
X118716780Y-116478693D01*
X118704967Y-116468604D01*
X116043690Y-113807327D01*
X116043688Y-113807326D01*
X115995735Y-113787464D01*
X115947780Y-113767600D01*
X108030220Y-113767600D01*
X107974036Y-113790872D01*
X107934311Y-113807326D01*
X107745746Y-113995892D01*
X105491326Y-116250310D01*
X105473889Y-116292409D01*
X105473889Y-116292410D01*
X105451600Y-116346220D01*
X105451600Y-117157433D01*
X105432693Y-117215624D01*
X105383193Y-117251588D01*
X105333286Y-117254531D01*
X105307995Y-117249500D01*
X105307993Y-117249500D01*
X105170007Y-117249500D01*
X105170004Y-117249500D01*
X105034672Y-117276420D01*
X105034670Y-117276420D01*
X104907193Y-117329222D01*
X104907182Y-117329228D01*
X104792458Y-117405885D01*
X104694889Y-117503454D01*
X104694887Y-117503457D01*
X104686014Y-117516736D01*
X104637963Y-117554614D01*
X104576824Y-117557014D01*
X104525952Y-117523020D01*
X104521385Y-117516734D01*
X104512729Y-117503780D01*
X104415220Y-117406271D01*
X104300571Y-117329666D01*
X104173189Y-117276903D01*
X104173183Y-117276901D01*
X104169000Y-117276069D01*
X104169000Y-117632457D01*
X104113745Y-117600556D01*
X104018370Y-117575000D01*
X103919630Y-117575000D01*
X103824255Y-117600556D01*
X103769000Y-117632457D01*
X103769000Y-117276069D01*
X103764816Y-117276901D01*
X103764810Y-117276903D01*
X103637428Y-117329666D01*
X103522779Y-117406271D01*
X103425271Y-117503779D01*
X103416612Y-117516738D01*
X103368560Y-117554615D01*
X103307421Y-117557014D01*
X103256549Y-117523018D01*
X103251987Y-117516738D01*
X103243114Y-117503458D01*
X103145542Y-117405886D01*
X103145541Y-117405885D01*
X103030817Y-117329228D01*
X103030806Y-117329222D01*
X102903328Y-117276420D01*
X102767995Y-117249500D01*
X102767993Y-117249500D01*
X102630007Y-117249500D01*
X102630006Y-117249500D01*
X102629996Y-117249501D01*
X102603711Y-117254729D01*
X102542950Y-117247536D01*
X102498022Y-117206002D01*
X102485400Y-117157631D01*
X102485400Y-116180559D01*
X102504307Y-116122368D01*
X102514396Y-116110555D01*
X106714555Y-111910396D01*
X106769072Y-111882619D01*
X106784559Y-111881400D01*
X118390353Y-111881400D01*
X118448544Y-111900307D01*
G37*
%TD.AperFunction*%
%TA.AperFunction,Conductor*%
G36*
X155252388Y-108918907D02*
G01*
X155252629Y-108919083D01*
X156999800Y-110200000D01*
X160900800Y-110200000D01*
X160958991Y-110218907D01*
X160994955Y-110268407D01*
X160999800Y-110299000D01*
X160999800Y-124301000D01*
X160980893Y-124359191D01*
X160931393Y-124395155D01*
X160900800Y-124400000D01*
X154298500Y-124400000D01*
X154240309Y-124381093D01*
X154204345Y-124331593D01*
X154199500Y-124301000D01*
X154199500Y-120860117D01*
X154168977Y-120786428D01*
X154168976Y-120786427D01*
X154168976Y-120786426D01*
X154112574Y-120730024D01*
X154112572Y-120730023D01*
X154112571Y-120730022D01*
X154038883Y-120699500D01*
X154038882Y-120699500D01*
X97647954Y-120699500D01*
X97589763Y-120680593D01*
X97553799Y-120631093D01*
X97548954Y-120600493D01*
X97548957Y-120571817D01*
X97549169Y-117750000D01*
X99485069Y-117750000D01*
X99841457Y-117750000D01*
X99809556Y-117805255D01*
X99784000Y-117900630D01*
X99784000Y-117999370D01*
X99809556Y-118094745D01*
X99841457Y-118150000D01*
X99485069Y-118150000D01*
X99485901Y-118154183D01*
X99485903Y-118154189D01*
X99538666Y-118281571D01*
X99615271Y-118396220D01*
X99712779Y-118493728D01*
X99827428Y-118570333D01*
X99954813Y-118623097D01*
X99954819Y-118623099D01*
X99959000Y-118623929D01*
X99959000Y-118267542D01*
X100014255Y-118299444D01*
X100109630Y-118325000D01*
X100208370Y-118325000D01*
X100303745Y-118299444D01*
X100359000Y-118267542D01*
X100359000Y-118623929D01*
X100363180Y-118623099D01*
X100363186Y-118623097D01*
X100490571Y-118570333D01*
X100605220Y-118493728D01*
X100702730Y-118396218D01*
X100711384Y-118383267D01*
X100759433Y-118345387D01*
X100820571Y-118342984D01*
X100871445Y-118376976D01*
X100876009Y-118383257D01*
X100884886Y-118396542D01*
X100884889Y-118396545D01*
X100982458Y-118494114D01*
X101097182Y-118570771D01*
X101097193Y-118570777D01*
X101117519Y-118579196D01*
X101224672Y-118623580D01*
X101360007Y-118650500D01*
X101360008Y-118650500D01*
X101497992Y-118650500D01*
X101497993Y-118650500D01*
X101633328Y-118623580D01*
X101760811Y-118570775D01*
X101761473Y-118570333D01*
X101831145Y-118523779D01*
X101875542Y-118494114D01*
X101973114Y-118396542D01*
X101981686Y-118383712D01*
X102029732Y-118345835D01*
X102090871Y-118343431D01*
X102141745Y-118377423D01*
X102146295Y-118383685D01*
X102154886Y-118396542D01*
X102154889Y-118396545D01*
X102154890Y-118396546D01*
X102252458Y-118494114D01*
X102367182Y-118570771D01*
X102367193Y-118570777D01*
X102387519Y-118579196D01*
X102494672Y-118623580D01*
X102630007Y-118650500D01*
X102630008Y-118650500D01*
X102767992Y-118650500D01*
X102767993Y-118650500D01*
X102903328Y-118623580D01*
X103030811Y-118570775D01*
X103031473Y-118570333D01*
X103101145Y-118523779D01*
X103145542Y-118494114D01*
X103243114Y-118396542D01*
X103251985Y-118383265D01*
X103300030Y-118345387D01*
X103361168Y-118342983D01*
X103412043Y-118376974D01*
X103416613Y-118383263D01*
X103425271Y-118396220D01*
X103522779Y-118493728D01*
X103637428Y-118570333D01*
X103764813Y-118623097D01*
X103764819Y-118623099D01*
X103769000Y-118623929D01*
X103769000Y-118267542D01*
X103824255Y-118299444D01*
X103919630Y-118325000D01*
X104018370Y-118325000D01*
X104113745Y-118299444D01*
X104169000Y-118267542D01*
X104169000Y-118623929D01*
X104173180Y-118623099D01*
X104173186Y-118623097D01*
X104300571Y-118570333D01*
X104415220Y-118493728D01*
X104512730Y-118396218D01*
X104521384Y-118383267D01*
X104569433Y-118345387D01*
X104630571Y-118342984D01*
X104681445Y-118376976D01*
X104686009Y-118383257D01*
X104694886Y-118396542D01*
X104694889Y-118396545D01*
X104792458Y-118494114D01*
X104907182Y-118570771D01*
X104907193Y-118570777D01*
X104927519Y-118579196D01*
X105034672Y-118623580D01*
X105170007Y-118650500D01*
X105170008Y-118650500D01*
X105307992Y-118650500D01*
X105307993Y-118650500D01*
X105443328Y-118623580D01*
X105570811Y-118570775D01*
X105571473Y-118570333D01*
X105641145Y-118523779D01*
X105685542Y-118494114D01*
X105783114Y-118396542D01*
X105791686Y-118383712D01*
X105839732Y-118345835D01*
X105900871Y-118343431D01*
X105951745Y-118377423D01*
X105956295Y-118383685D01*
X105964886Y-118396542D01*
X105964889Y-118396545D01*
X105964890Y-118396546D01*
X106062458Y-118494114D01*
X106177182Y-118570771D01*
X106177193Y-118570777D01*
X106197519Y-118579196D01*
X106304672Y-118623580D01*
X106440007Y-118650500D01*
X106440008Y-118650500D01*
X106577992Y-118650500D01*
X106577993Y-118650500D01*
X106713328Y-118623580D01*
X106840811Y-118570775D01*
X106841473Y-118570333D01*
X106911145Y-118523779D01*
X106955542Y-118494114D01*
X107053114Y-118396542D01*
X107061985Y-118383265D01*
X107110030Y-118345387D01*
X107171168Y-118342983D01*
X107222043Y-118376974D01*
X107226613Y-118383263D01*
X107235271Y-118396220D01*
X107332779Y-118493728D01*
X107447428Y-118570333D01*
X107574813Y-118623097D01*
X107574819Y-118623099D01*
X107579000Y-118623929D01*
X107579000Y-118267542D01*
X107634255Y-118299444D01*
X107729630Y-118325000D01*
X107828370Y-118325000D01*
X107923745Y-118299444D01*
X107979000Y-118267542D01*
X107979000Y-118623929D01*
X107983180Y-118623099D01*
X107983186Y-118623097D01*
X108110571Y-118570333D01*
X108225220Y-118493728D01*
X108322728Y-118396220D01*
X108399333Y-118281571D01*
X108452096Y-118154189D01*
X108452098Y-118154183D01*
X108452931Y-118150000D01*
X108096543Y-118150000D01*
X108128444Y-118094745D01*
X108154000Y-117999370D01*
X108154000Y-117900630D01*
X108141911Y-117855515D01*
X111498500Y-117855515D01*
X111498500Y-118044484D01*
X111528058Y-118231113D01*
X111586453Y-118410832D01*
X111667948Y-118570777D01*
X111672240Y-118579199D01*
X111783310Y-118732073D01*
X111916927Y-118865690D01*
X112069801Y-118976760D01*
X112238168Y-119062547D01*
X112417882Y-119120940D01*
X112417883Y-119120940D01*
X112417886Y-119120941D01*
X112604516Y-119150500D01*
X112604519Y-119150500D01*
X112793484Y-119150500D01*
X112980113Y-119120941D01*
X112980114Y-119120940D01*
X112980118Y-119120940D01*
X113159832Y-119062547D01*
X113328199Y-118976760D01*
X113481073Y-118865690D01*
X113614690Y-118732073D01*
X113725760Y-118579199D01*
X113811547Y-118410832D01*
X113869940Y-118231118D01*
X113882102Y-118154328D01*
X113899500Y-118044484D01*
X113899500Y-117855515D01*
X113869941Y-117668886D01*
X113857634Y-117631008D01*
X113811547Y-117489168D01*
X113725760Y-117320801D01*
X113614690Y-117167927D01*
X113481073Y-117034310D01*
X113328199Y-116923240D01*
X113328198Y-116923239D01*
X113328196Y-116923238D01*
X113159832Y-116837453D01*
X112980113Y-116779058D01*
X112793484Y-116749500D01*
X112793481Y-116749500D01*
X112604519Y-116749500D01*
X112604516Y-116749500D01*
X112417886Y-116779058D01*
X112238167Y-116837453D01*
X112069803Y-116923238D01*
X111916928Y-117034309D01*
X111783309Y-117167928D01*
X111672238Y-117320803D01*
X111586453Y-117489167D01*
X111528058Y-117668886D01*
X111498500Y-117855515D01*
X108141911Y-117855515D01*
X108128444Y-117805255D01*
X108096543Y-117750000D01*
X108452931Y-117750000D01*
X108452098Y-117745816D01*
X108452096Y-117745810D01*
X108399333Y-117618428D01*
X108322728Y-117503779D01*
X108225220Y-117406271D01*
X108110571Y-117329666D01*
X107983189Y-117276903D01*
X107983183Y-117276901D01*
X107979000Y-117276069D01*
X107979000Y-117632457D01*
X107923745Y-117600556D01*
X107828370Y-117575000D01*
X107729630Y-117575000D01*
X107634255Y-117600556D01*
X107579000Y-117632457D01*
X107579000Y-117276069D01*
X107574816Y-117276901D01*
X107574810Y-117276903D01*
X107447428Y-117329666D01*
X107332779Y-117406271D01*
X107235271Y-117503779D01*
X107226612Y-117516738D01*
X107178560Y-117554615D01*
X107117421Y-117557014D01*
X107066549Y-117523018D01*
X107061987Y-117516738D01*
X107053114Y-117503458D01*
X106955542Y-117405886D01*
X106955541Y-117405885D01*
X106840817Y-117329228D01*
X106840806Y-117329222D01*
X106713328Y-117276420D01*
X106577995Y-117249500D01*
X106577993Y-117249500D01*
X106440007Y-117249500D01*
X106440006Y-117249500D01*
X106439996Y-117249501D01*
X106413711Y-117254729D01*
X106352950Y-117247536D01*
X106308022Y-117206002D01*
X106295400Y-117157631D01*
X106295400Y-116680559D01*
X106314307Y-116622368D01*
X106324396Y-116610555D01*
X108294555Y-114640396D01*
X108349072Y-114612619D01*
X108364559Y-114611400D01*
X115613441Y-114611400D01*
X115671632Y-114630307D01*
X115683445Y-114640396D01*
X118344722Y-117301673D01*
X118392677Y-117321536D01*
X118440632Y-117341400D01*
X118597557Y-117341400D01*
X118655748Y-117360307D01*
X118667561Y-117370396D01*
X118759542Y-117462377D01*
X118800871Y-117479496D01*
X118800872Y-117479496D01*
X118855452Y-117502104D01*
X118855453Y-117502104D01*
X119119459Y-117502104D01*
X119119460Y-117502104D01*
X119174042Y-117479495D01*
X119215370Y-117462377D01*
X119245982Y-117431764D01*
X119255084Y-117425954D01*
X119274757Y-117420846D01*
X119292869Y-117411618D01*
X119303695Y-117413332D01*
X119314306Y-117410578D01*
X119333223Y-117418009D01*
X119353301Y-117421189D01*
X119367407Y-117431437D01*
X119371255Y-117432949D01*
X119372783Y-117435343D01*
X119378360Y-117439395D01*
X119401342Y-117462377D01*
X119442671Y-117479496D01*
X119442672Y-117479496D01*
X119497252Y-117502104D01*
X119497253Y-117502104D01*
X119761259Y-117502104D01*
X119761260Y-117502104D01*
X119815842Y-117479495D01*
X119857170Y-117462377D01*
X119887782Y-117431764D01*
X119896884Y-117425954D01*
X119916557Y-117420846D01*
X119934669Y-117411618D01*
X119945495Y-117413332D01*
X119956106Y-117410578D01*
X119975023Y-117418009D01*
X119995101Y-117421189D01*
X120009207Y-117431437D01*
X120013055Y-117432949D01*
X120014583Y-117435343D01*
X120020160Y-117439395D01*
X120043142Y-117462377D01*
X120084471Y-117479496D01*
X120084472Y-117479496D01*
X120139052Y-117502104D01*
X120139053Y-117502104D01*
X120403059Y-117502104D01*
X120403060Y-117502104D01*
X120457642Y-117479495D01*
X120498970Y-117462377D01*
X120529582Y-117431764D01*
X120538684Y-117425954D01*
X120558357Y-117420846D01*
X120576469Y-117411618D01*
X120587295Y-117413332D01*
X120597906Y-117410578D01*
X120616823Y-117418009D01*
X120636901Y-117421189D01*
X120651007Y-117431437D01*
X120654855Y-117432949D01*
X120656383Y-117435343D01*
X120661960Y-117439395D01*
X120684942Y-117462377D01*
X120726271Y-117479496D01*
X120726272Y-117479496D01*
X120780852Y-117502104D01*
X120780853Y-117502104D01*
X121044859Y-117502104D01*
X121044860Y-117502104D01*
X121099440Y-117479496D01*
X121099441Y-117479496D01*
X121123651Y-117469467D01*
X121140770Y-117462377D01*
X121232751Y-117370396D01*
X121287268Y-117342619D01*
X121302755Y-117341400D01*
X121512544Y-117341400D01*
X121671058Y-117341400D01*
X121729249Y-117360307D01*
X121762522Y-117402514D01*
X121764078Y-117406271D01*
X121772302Y-117426126D01*
X121772304Y-117426129D01*
X122065919Y-117719745D01*
X122098797Y-117752623D01*
X122127763Y-117764620D01*
X122154658Y-117775761D01*
X122154671Y-117775766D01*
X122194708Y-117792350D01*
X122194709Y-117792350D01*
X122757039Y-117792350D01*
X122757041Y-117792350D01*
X122813429Y-117768993D01*
X122852951Y-117752623D01*
X123048670Y-117556902D01*
X123103187Y-117529125D01*
X123163619Y-117538696D01*
X123188677Y-117556902D01*
X123384397Y-117752623D01*
X123413363Y-117764620D01*
X123440258Y-117775761D01*
X123440271Y-117775766D01*
X123480308Y-117792350D01*
X123480309Y-117792350D01*
X124042639Y-117792350D01*
X124042641Y-117792350D01*
X124099029Y-117768993D01*
X124138551Y-117752623D01*
X124334270Y-117556902D01*
X124388787Y-117529125D01*
X124449219Y-117538696D01*
X124474277Y-117556902D01*
X124669997Y-117752623D01*
X124698963Y-117764620D01*
X124725858Y-117775761D01*
X124725871Y-117775766D01*
X124765908Y-117792350D01*
X124765909Y-117792350D01*
X125328239Y-117792350D01*
X125328241Y-117792350D01*
X125384629Y-117768993D01*
X125424151Y-117752623D01*
X125619870Y-117556902D01*
X125674387Y-117529125D01*
X125734819Y-117538696D01*
X125759877Y-117556902D01*
X125955597Y-117752623D01*
X125984563Y-117764620D01*
X126011458Y-117775761D01*
X126011471Y-117775766D01*
X126051508Y-117792350D01*
X126051509Y-117792350D01*
X126613839Y-117792350D01*
X126613841Y-117792350D01*
X126670229Y-117768993D01*
X126709751Y-117752623D01*
X127036247Y-117426127D01*
X127046028Y-117402514D01*
X127085765Y-117355989D01*
X127137492Y-117341400D01*
X127747094Y-117341400D01*
X152660353Y-117341400D01*
X152718544Y-117360307D01*
X152730357Y-117370396D01*
X156616634Y-121256673D01*
X156616635Y-121256673D01*
X156616636Y-121256674D01*
X156712543Y-121296400D01*
X156712544Y-121296400D01*
X156816356Y-121296400D01*
X158361632Y-121296400D01*
X158419823Y-121315307D01*
X158455787Y-121364807D01*
X158458730Y-121414714D01*
X158453500Y-121441004D01*
X158453500Y-121578995D01*
X158480420Y-121714327D01*
X158480420Y-121714329D01*
X158533222Y-121841806D01*
X158533228Y-121841817D01*
X158609885Y-121956541D01*
X158609886Y-121956542D01*
X158707458Y-122054114D01*
X158720734Y-122062985D01*
X158758613Y-122111033D01*
X158761015Y-122172171D01*
X158727023Y-122223045D01*
X158720738Y-122227612D01*
X158707779Y-122236271D01*
X158610271Y-122333779D01*
X158533666Y-122448428D01*
X158480903Y-122575810D01*
X158480901Y-122575816D01*
X158480069Y-122580000D01*
X158836457Y-122580000D01*
X158804556Y-122635255D01*
X158779000Y-122730630D01*
X158779000Y-122829370D01*
X158804556Y-122924745D01*
X158836457Y-122980000D01*
X158480069Y-122980000D01*
X158480901Y-122984183D01*
X158480903Y-122984189D01*
X158533666Y-123111571D01*
X158610271Y-123226220D01*
X158707779Y-123323728D01*
X158822428Y-123400333D01*
X158949813Y-123453097D01*
X158949819Y-123453099D01*
X158954000Y-123453929D01*
X158954000Y-123097542D01*
X159009255Y-123129444D01*
X159104630Y-123155000D01*
X159203370Y-123155000D01*
X159298745Y-123129444D01*
X159354000Y-123097542D01*
X159354000Y-123453929D01*
X159358180Y-123453099D01*
X159358186Y-123453097D01*
X159485571Y-123400333D01*
X159600220Y-123323728D01*
X159697728Y-123226220D01*
X159774333Y-123111571D01*
X159827096Y-122984189D01*
X159827098Y-122984183D01*
X159827931Y-122980000D01*
X159471543Y-122980000D01*
X159503444Y-122924745D01*
X159529000Y-122829370D01*
X159529000Y-122730630D01*
X159503444Y-122635255D01*
X159471543Y-122580000D01*
X159827931Y-122580000D01*
X159827098Y-122575816D01*
X159827096Y-122575810D01*
X159774333Y-122448428D01*
X159697728Y-122333779D01*
X159600220Y-122236271D01*
X159587263Y-122227613D01*
X159549385Y-122179562D01*
X159546985Y-122118424D01*
X159580979Y-122067551D01*
X159587243Y-122062999D01*
X159600542Y-122054114D01*
X159698114Y-121956542D01*
X159774775Y-121841811D01*
X159827580Y-121714328D01*
X159854500Y-121578993D01*
X159854500Y-121441007D01*
X159827580Y-121305672D01*
X159774775Y-121178189D01*
X159774774Y-121178187D01*
X159774771Y-121178182D01*
X159698114Y-121063458D01*
X159600546Y-120965890D01*
X159600542Y-120965886D01*
X159587712Y-120957313D01*
X159549835Y-120909268D01*
X159547431Y-120848129D01*
X159581423Y-120797255D01*
X159587685Y-120792704D01*
X159600542Y-120784114D01*
X159698114Y-120686542D01*
X159774775Y-120571811D01*
X159827580Y-120444328D01*
X159854500Y-120308993D01*
X159854500Y-120171007D01*
X159827580Y-120035672D01*
X159774775Y-119908189D01*
X159774774Y-119908187D01*
X159774771Y-119908182D01*
X159698114Y-119793458D01*
X159600545Y-119695889D01*
X159600542Y-119695886D01*
X159587264Y-119687014D01*
X159549386Y-119638965D01*
X159546984Y-119577827D01*
X159580977Y-119526953D01*
X159587267Y-119522384D01*
X159600218Y-119513730D01*
X159697728Y-119416220D01*
X159774333Y-119301571D01*
X159827096Y-119174189D01*
X159827098Y-119174183D01*
X159827931Y-119170000D01*
X159471543Y-119170000D01*
X159503444Y-119114745D01*
X159529000Y-119019370D01*
X159529000Y-118920630D01*
X159503444Y-118825255D01*
X159471543Y-118770000D01*
X159827931Y-118770000D01*
X159827098Y-118765816D01*
X159827096Y-118765810D01*
X159774333Y-118638428D01*
X159697728Y-118523779D01*
X159600220Y-118426271D01*
X159587263Y-118417613D01*
X159549385Y-118369562D01*
X159546985Y-118308424D01*
X159580979Y-118257551D01*
X159587243Y-118252999D01*
X159600542Y-118244114D01*
X159698114Y-118146542D01*
X159774775Y-118031811D01*
X159827580Y-117904328D01*
X159854500Y-117768993D01*
X159854500Y-117631007D01*
X159827580Y-117495672D01*
X159800973Y-117431437D01*
X159774777Y-117368193D01*
X159774771Y-117368182D01*
X159698114Y-117253458D01*
X159600546Y-117155890D01*
X159600542Y-117155886D01*
X159587712Y-117147313D01*
X159549835Y-117099268D01*
X159547431Y-117038129D01*
X159581423Y-116987255D01*
X159587685Y-116982704D01*
X159600542Y-116974114D01*
X159698114Y-116876542D01*
X159774775Y-116761811D01*
X159827580Y-116634328D01*
X159854500Y-116498993D01*
X159854500Y-116361007D01*
X159827580Y-116225672D01*
X159774775Y-116098189D01*
X159774774Y-116098187D01*
X159774771Y-116098182D01*
X159698114Y-115983458D01*
X159600545Y-115885889D01*
X159600542Y-115885886D01*
X159587264Y-115877014D01*
X159549386Y-115828965D01*
X159546984Y-115767827D01*
X159580977Y-115716953D01*
X159587267Y-115712384D01*
X159600218Y-115703730D01*
X159697728Y-115606220D01*
X159774333Y-115491571D01*
X159827096Y-115364189D01*
X159827098Y-115364183D01*
X159827931Y-115360000D01*
X159471543Y-115360000D01*
X159503444Y-115304745D01*
X159529000Y-115209370D01*
X159529000Y-115110630D01*
X159503444Y-115015255D01*
X159471543Y-114960000D01*
X159827931Y-114960000D01*
X159827098Y-114955816D01*
X159827096Y-114955810D01*
X159774333Y-114828428D01*
X159697728Y-114713779D01*
X159600220Y-114616271D01*
X159485571Y-114539666D01*
X159358189Y-114486903D01*
X159358183Y-114486901D01*
X159354000Y-114486069D01*
X159354000Y-114842457D01*
X159298745Y-114810556D01*
X159203370Y-114785000D01*
X159104630Y-114785000D01*
X159009255Y-114810556D01*
X158954000Y-114842457D01*
X158954000Y-114486069D01*
X158949816Y-114486901D01*
X158949810Y-114486903D01*
X158822428Y-114539666D01*
X158707779Y-114616271D01*
X158610271Y-114713779D01*
X158533666Y-114828428D01*
X158480903Y-114955810D01*
X158480901Y-114955816D01*
X158480069Y-114960000D01*
X158836457Y-114960000D01*
X158804556Y-115015255D01*
X158779000Y-115110630D01*
X158779000Y-115209370D01*
X158804556Y-115304745D01*
X158836457Y-115360000D01*
X158480069Y-115360000D01*
X158480901Y-115364183D01*
X158480903Y-115364189D01*
X158533666Y-115491571D01*
X158610271Y-115606220D01*
X158707780Y-115703729D01*
X158720734Y-115712385D01*
X158758613Y-115760436D01*
X158761015Y-115821574D01*
X158727021Y-115872447D01*
X158720737Y-115877012D01*
X158720735Y-115877015D01*
X158707457Y-115885887D01*
X158707454Y-115885889D01*
X158609885Y-115983458D01*
X158533228Y-116098182D01*
X158533222Y-116098193D01*
X158480420Y-116225670D01*
X158480420Y-116225672D01*
X158453500Y-116361004D01*
X158453500Y-116498995D01*
X158458531Y-116524286D01*
X158451339Y-116585047D01*
X158409807Y-116629977D01*
X158361433Y-116642600D01*
X157279971Y-116642600D01*
X157221780Y-116623693D01*
X157209967Y-116613604D01*
X153183690Y-112587327D01*
X153135735Y-112567464D01*
X153087780Y-112547600D01*
X153087779Y-112547600D01*
X120331883Y-112547600D01*
X120273692Y-112528693D01*
X120261879Y-112518604D01*
X119628690Y-111885415D01*
X157953500Y-111885415D01*
X157953500Y-112074384D01*
X157983058Y-112261013D01*
X158041453Y-112440732D01*
X158116146Y-112587327D01*
X158127240Y-112609099D01*
X158238310Y-112761973D01*
X158371927Y-112895590D01*
X158524801Y-113006660D01*
X158693168Y-113092447D01*
X158872882Y-113150840D01*
X158872883Y-113150840D01*
X158872886Y-113150841D01*
X159059516Y-113180400D01*
X159059519Y-113180400D01*
X159248484Y-113180400D01*
X159435113Y-113150841D01*
X159435114Y-113150840D01*
X159435118Y-113150840D01*
X159614832Y-113092447D01*
X159783199Y-113006660D01*
X159936073Y-112895590D01*
X160069690Y-112761973D01*
X160180760Y-112609099D01*
X160266547Y-112440732D01*
X160324940Y-112261018D01*
X160354500Y-112074381D01*
X160354500Y-111885419D01*
X160354500Y-111885415D01*
X160324941Y-111698786D01*
X160324940Y-111698782D01*
X160266547Y-111519068D01*
X160180760Y-111350701D01*
X160069690Y-111197827D01*
X159936073Y-111064210D01*
X159783199Y-110953140D01*
X159783198Y-110953139D01*
X159783196Y-110953138D01*
X159614832Y-110867353D01*
X159435113Y-110808958D01*
X159248484Y-110779400D01*
X159248481Y-110779400D01*
X159059519Y-110779400D01*
X159059516Y-110779400D01*
X158872886Y-110808958D01*
X158693167Y-110867353D01*
X158524803Y-110953138D01*
X158371928Y-111064209D01*
X158238309Y-111197828D01*
X158127238Y-111350703D01*
X158041453Y-111519067D01*
X157983058Y-111698786D01*
X157953500Y-111885415D01*
X119628690Y-111885415D01*
X118820602Y-111077327D01*
X118820600Y-111077326D01*
X118772647Y-111057464D01*
X118724692Y-111037600D01*
X106450220Y-111037600D01*
X106385979Y-111064210D01*
X106385978Y-111064210D01*
X106354311Y-111077326D01*
X101943299Y-115488339D01*
X101943298Y-115488339D01*
X101681328Y-115750307D01*
X101672960Y-115770511D01*
X101672960Y-115770512D01*
X101641600Y-115846220D01*
X101641600Y-117157433D01*
X101622693Y-117215624D01*
X101573193Y-117251588D01*
X101523286Y-117254531D01*
X101497995Y-117249500D01*
X101497993Y-117249500D01*
X101360007Y-117249500D01*
X101360004Y-117249500D01*
X101224672Y-117276420D01*
X101224670Y-117276420D01*
X101097193Y-117329222D01*
X101097182Y-117329228D01*
X100982458Y-117405885D01*
X100884889Y-117503454D01*
X100884887Y-117503457D01*
X100876014Y-117516736D01*
X100827963Y-117554614D01*
X100766824Y-117557014D01*
X100715952Y-117523020D01*
X100711385Y-117516734D01*
X100702729Y-117503780D01*
X100605220Y-117406271D01*
X100490571Y-117329666D01*
X100363189Y-117276903D01*
X100363183Y-117276901D01*
X100359000Y-117276069D01*
X100359000Y-117632457D01*
X100303745Y-117600556D01*
X100208370Y-117575000D01*
X100109630Y-117575000D01*
X100014255Y-117600556D01*
X99959000Y-117632457D01*
X99959000Y-117276069D01*
X99954816Y-117276901D01*
X99954810Y-117276903D01*
X99827428Y-117329666D01*
X99712779Y-117406271D01*
X99615271Y-117503779D01*
X99538666Y-117618428D01*
X99485903Y-117745810D01*
X99485901Y-117745816D01*
X99485069Y-117750000D01*
X97549169Y-117750000D01*
X97549554Y-112609096D01*
X97549825Y-108998993D01*
X97568737Y-108940803D01*
X97618239Y-108904843D01*
X97648825Y-108900000D01*
X155194197Y-108900000D01*
X155252388Y-108918907D01*
G37*
%TD.AperFunction*%
%TD*%
%TA.AperFunction,Conductor*%
%TO.N,/Left Drive/GNDS*%
G36*
X173166632Y-93365307D02*
G01*
X173178445Y-93375396D01*
X174148604Y-94345555D01*
X174176381Y-94400072D01*
X174177600Y-94415559D01*
X174177600Y-98918367D01*
X174197464Y-98966323D01*
X174197464Y-98966324D01*
X174217326Y-99014277D01*
X174217327Y-99014278D01*
X180484722Y-105281673D01*
X180532677Y-105301536D01*
X180580632Y-105321400D01*
X198726094Y-105321400D01*
X199443173Y-105321400D01*
X199446086Y-105322346D01*
X199449050Y-105321575D01*
X199462978Y-105327835D01*
X199501364Y-105340307D01*
X199506015Y-105343903D01*
X199509762Y-105346981D01*
X199604883Y-105442102D01*
X199632975Y-105453737D01*
X199700794Y-105481830D01*
X199700797Y-105481830D01*
X199965074Y-105481830D01*
X199965076Y-105481830D01*
X200016534Y-105460515D01*
X200060986Y-105442103D01*
X200091638Y-105411450D01*
X200101002Y-105405544D01*
X200120451Y-105400606D01*
X200138333Y-105391496D01*
X200149423Y-105393252D01*
X200160306Y-105390490D01*
X200178942Y-105397927D01*
X200198765Y-105401067D01*
X200213337Y-105411654D01*
X200217133Y-105413169D01*
X200218580Y-105415463D01*
X200223824Y-105419273D01*
X200246684Y-105442133D01*
X200294639Y-105461996D01*
X200342594Y-105481860D01*
X200342595Y-105481860D01*
X200606845Y-105481860D01*
X200606846Y-105481860D01*
X200654801Y-105461996D01*
X200702756Y-105442133D01*
X200733623Y-105411265D01*
X200743239Y-105405270D01*
X200762472Y-105400494D01*
X200780133Y-105391496D01*
X200791475Y-105393292D01*
X200802621Y-105390525D01*
X200820988Y-105397966D01*
X200840565Y-105401067D01*
X200855596Y-105411987D01*
X200859329Y-105413500D01*
X200860696Y-105415692D01*
X200865624Y-105419273D01*
X200888484Y-105442133D01*
X200936439Y-105461996D01*
X200984394Y-105481860D01*
X200984395Y-105481860D01*
X201248645Y-105481860D01*
X201248646Y-105481860D01*
X201296601Y-105461996D01*
X201344556Y-105442133D01*
X201375423Y-105411265D01*
X201385039Y-105405270D01*
X201404272Y-105400494D01*
X201421933Y-105391496D01*
X201433275Y-105393292D01*
X201444421Y-105390525D01*
X201462788Y-105397966D01*
X201482365Y-105401067D01*
X201497396Y-105411987D01*
X201501129Y-105413500D01*
X201502496Y-105415692D01*
X201507424Y-105419273D01*
X201530284Y-105442133D01*
X201578239Y-105461996D01*
X201626194Y-105481860D01*
X201626195Y-105481860D01*
X201890445Y-105481860D01*
X201890446Y-105481860D01*
X201938401Y-105461996D01*
X201986356Y-105442133D01*
X202051372Y-105377116D01*
X202057808Y-105372469D01*
X202079746Y-105365409D01*
X202100282Y-105354947D01*
X202108311Y-105356218D01*
X202116053Y-105353728D01*
X202137952Y-105360913D01*
X202160714Y-105364518D01*
X202170409Y-105371561D01*
X202174189Y-105372802D01*
X202176477Y-105375970D01*
X202185773Y-105382724D01*
X210473604Y-113670555D01*
X210501381Y-113725072D01*
X210502600Y-113740559D01*
X210502600Y-117157631D01*
X210483693Y-117215822D01*
X210434193Y-117251786D01*
X210384289Y-117254729D01*
X210358003Y-117249501D01*
X210357993Y-117249500D01*
X210220007Y-117249500D01*
X210220004Y-117249500D01*
X210084672Y-117276420D01*
X210084670Y-117276420D01*
X209957193Y-117329222D01*
X209957182Y-117329228D01*
X209842458Y-117405885D01*
X209744889Y-117503454D01*
X209744887Y-117503457D01*
X209736014Y-117516736D01*
X209687963Y-117554614D01*
X209626824Y-117557014D01*
X209575952Y-117523020D01*
X209571385Y-117516734D01*
X209562729Y-117503780D01*
X209465220Y-117406271D01*
X209350571Y-117329666D01*
X209223189Y-117276903D01*
X209223183Y-117276901D01*
X209219000Y-117276069D01*
X209219000Y-117632457D01*
X209163745Y-117600556D01*
X209068370Y-117575000D01*
X208969630Y-117575000D01*
X208874255Y-117600556D01*
X208819000Y-117632457D01*
X208819000Y-117276069D01*
X208814816Y-117276901D01*
X208814810Y-117276903D01*
X208687428Y-117329666D01*
X208572779Y-117406271D01*
X208475271Y-117503779D01*
X208466612Y-117516738D01*
X208418560Y-117554615D01*
X208357421Y-117557014D01*
X208306549Y-117523018D01*
X208301987Y-117516738D01*
X208293114Y-117503458D01*
X208195542Y-117405886D01*
X208195541Y-117405885D01*
X208080817Y-117329228D01*
X208080806Y-117329222D01*
X207953328Y-117276420D01*
X207817995Y-117249500D01*
X207817993Y-117249500D01*
X207680007Y-117249500D01*
X207680004Y-117249500D01*
X207654714Y-117254531D01*
X207593953Y-117247339D01*
X207549023Y-117205807D01*
X207536400Y-117157433D01*
X207536400Y-114296220D01*
X207496672Y-114200310D01*
X207496672Y-114200309D01*
X204202254Y-110905892D01*
X204202254Y-110905891D01*
X204202253Y-110905891D01*
X204013691Y-110717328D01*
X204013689Y-110717327D01*
X203973728Y-110700775D01*
X203917780Y-110677600D01*
X200560906Y-110677600D01*
X200323758Y-110677600D01*
X200316446Y-110680629D01*
X200270874Y-110699505D01*
X200270863Y-110699509D01*
X200267810Y-110700775D01*
X200227847Y-110717328D01*
X200220936Y-110724238D01*
X200206364Y-110731456D01*
X200191383Y-110733654D01*
X200177892Y-110740525D01*
X200161875Y-110737984D01*
X200145827Y-110740340D01*
X200132414Y-110733312D01*
X200117462Y-110730941D01*
X200105996Y-110719470D01*
X200091630Y-110711943D01*
X200084910Y-110698374D01*
X200074207Y-110687667D01*
X200070962Y-110680627D01*
X200058068Y-110649499D01*
X200049278Y-110628277D01*
X200047554Y-110624114D01*
X200042898Y-110612873D01*
X199736403Y-110306379D01*
X199736401Y-110306377D01*
X199696673Y-110289922D01*
X199640491Y-110266650D01*
X199141970Y-110266650D01*
X199038158Y-110266650D01*
X199038157Y-110266650D01*
X198942248Y-110306376D01*
X198766527Y-110482096D01*
X198712010Y-110509873D01*
X198651578Y-110500301D01*
X198626521Y-110482096D01*
X198450803Y-110306379D01*
X198450801Y-110306377D01*
X198411073Y-110289922D01*
X198354891Y-110266650D01*
X197856370Y-110266650D01*
X197752558Y-110266650D01*
X197752557Y-110266650D01*
X197656648Y-110306376D01*
X197480927Y-110482096D01*
X197426410Y-110509873D01*
X197365978Y-110500301D01*
X197340921Y-110482096D01*
X197165203Y-110306379D01*
X197165201Y-110306377D01*
X197125473Y-110289922D01*
X197069291Y-110266650D01*
X196570770Y-110266650D01*
X196466958Y-110266650D01*
X196466957Y-110266650D01*
X196371048Y-110306376D01*
X196195327Y-110482096D01*
X196140810Y-110509873D01*
X196080378Y-110500301D01*
X196055321Y-110482096D01*
X195879603Y-110306379D01*
X195879601Y-110306377D01*
X195839873Y-110289922D01*
X195783691Y-110266650D01*
X195285170Y-110266650D01*
X195181358Y-110266650D01*
X195181357Y-110266650D01*
X195085448Y-110306376D01*
X194909727Y-110482096D01*
X194855210Y-110509873D01*
X194794778Y-110500301D01*
X194769721Y-110482096D01*
X194594003Y-110306379D01*
X194594001Y-110306377D01*
X194554273Y-110289922D01*
X194498091Y-110266650D01*
X193999570Y-110266650D01*
X193895758Y-110266650D01*
X193895757Y-110266650D01*
X193799850Y-110306375D01*
X193493350Y-110612875D01*
X193478181Y-110649499D01*
X193478180Y-110649502D01*
X193465286Y-110680629D01*
X193425549Y-110727153D01*
X193366053Y-110741436D01*
X193317471Y-110721311D01*
X193316513Y-110722746D01*
X193308405Y-110717329D01*
X193308401Y-110717327D01*
X193260446Y-110697464D01*
X193212491Y-110677600D01*
X193212490Y-110677600D01*
X184314971Y-110677600D01*
X184256780Y-110658693D01*
X184244967Y-110648604D01*
X173650396Y-100054033D01*
X173622619Y-99999516D01*
X173621400Y-99984029D01*
X173621400Y-97454310D01*
X173621400Y-97454308D01*
X173615056Y-97438993D01*
X173581673Y-97358398D01*
X172764166Y-96540892D01*
X172764166Y-96540891D01*
X172764165Y-96540891D01*
X172575601Y-96352326D01*
X172535876Y-96335872D01*
X172479692Y-96312600D01*
X171946567Y-96312600D01*
X171888376Y-96293693D01*
X171852412Y-96244193D01*
X171849469Y-96194286D01*
X171850344Y-96189883D01*
X171854500Y-96168993D01*
X171854500Y-96031007D01*
X171827580Y-95895672D01*
X171774775Y-95768189D01*
X171774774Y-95768187D01*
X171774771Y-95768182D01*
X171698114Y-95653458D01*
X171600545Y-95555889D01*
X171600542Y-95555886D01*
X171587264Y-95547014D01*
X171549386Y-95498965D01*
X171546984Y-95437827D01*
X171580977Y-95386953D01*
X171587267Y-95382384D01*
X171600218Y-95373730D01*
X171697728Y-95276220D01*
X171774333Y-95161571D01*
X171827096Y-95034189D01*
X171827098Y-95034183D01*
X171827931Y-95030000D01*
X171471543Y-95030000D01*
X171503444Y-94974745D01*
X171529000Y-94879370D01*
X171529000Y-94780630D01*
X171503444Y-94685255D01*
X171471543Y-94630000D01*
X171827931Y-94630000D01*
X171827098Y-94625816D01*
X171827096Y-94625810D01*
X171774333Y-94498428D01*
X171697728Y-94383779D01*
X171600220Y-94286271D01*
X171587263Y-94277613D01*
X171549385Y-94229562D01*
X171546985Y-94168424D01*
X171580979Y-94117551D01*
X171587243Y-94112999D01*
X171600542Y-94104114D01*
X171698114Y-94006542D01*
X171774775Y-93891811D01*
X171827580Y-93764328D01*
X171854500Y-93628993D01*
X171854500Y-93491007D01*
X171849270Y-93464714D01*
X171856462Y-93403953D01*
X171897994Y-93359023D01*
X171946368Y-93346400D01*
X173108441Y-93346400D01*
X173166632Y-93365307D01*
G37*
%TD.AperFunction*%
%TA.AperFunction,Conductor*%
G36*
X175857691Y-89019007D02*
G01*
X175893655Y-89068507D01*
X175898500Y-89099100D01*
X175898500Y-98539882D01*
X175929022Y-98613571D01*
X175929023Y-98613572D01*
X175929024Y-98613574D01*
X175985426Y-98669976D01*
X175985427Y-98669976D01*
X175985428Y-98669977D01*
X176059117Y-98700500D01*
X176059118Y-98700500D01*
X204162904Y-98700500D01*
X204221095Y-98719407D01*
X204232720Y-98729309D01*
X213552480Y-107999758D01*
X214969818Y-109409596D01*
X214997740Y-109464039D01*
X214999000Y-109479785D01*
X214999000Y-119901000D01*
X214980093Y-119959191D01*
X214930593Y-119995155D01*
X214900000Y-120000000D01*
X203498000Y-120000000D01*
X203439809Y-119981093D01*
X203403845Y-119931593D01*
X203399000Y-119901000D01*
X203399000Y-117300001D01*
X203399000Y-117300000D01*
X202499000Y-116400000D01*
X202498999Y-116400000D01*
X181540008Y-116400000D01*
X181481817Y-116381093D01*
X181470004Y-116371004D01*
X173127754Y-108028754D01*
X173099977Y-107974237D01*
X173098758Y-107958756D01*
X173098795Y-105424634D01*
X171174190Y-103500000D01*
X169198100Y-103500000D01*
X169139909Y-103481093D01*
X169103945Y-103431593D01*
X169099100Y-103401000D01*
X169099100Y-101725615D01*
X169953500Y-101725615D01*
X169953500Y-101914584D01*
X169983058Y-102101213D01*
X169983060Y-102101218D01*
X170041453Y-102280932D01*
X170127240Y-102449299D01*
X170238310Y-102602173D01*
X170371927Y-102735790D01*
X170524801Y-102846860D01*
X170693168Y-102932647D01*
X170872882Y-102991040D01*
X170872883Y-102991040D01*
X170872886Y-102991041D01*
X171059516Y-103020600D01*
X171059519Y-103020600D01*
X171248484Y-103020600D01*
X171435113Y-102991041D01*
X171435114Y-102991040D01*
X171435118Y-102991040D01*
X171614832Y-102932647D01*
X171783199Y-102846860D01*
X171936073Y-102735790D01*
X172069690Y-102602173D01*
X172180760Y-102449299D01*
X172266547Y-102280932D01*
X172324940Y-102101218D01*
X172354500Y-101914581D01*
X172354500Y-101725619D01*
X172354500Y-101725615D01*
X172324941Y-101538986D01*
X172324940Y-101538982D01*
X172266547Y-101359268D01*
X172180760Y-101190901D01*
X172069690Y-101038027D01*
X171936073Y-100904410D01*
X171783199Y-100793340D01*
X171783198Y-100793339D01*
X171783196Y-100793338D01*
X171614832Y-100707553D01*
X171435113Y-100649158D01*
X171248484Y-100619600D01*
X171248481Y-100619600D01*
X171059519Y-100619600D01*
X171059516Y-100619600D01*
X170872886Y-100649158D01*
X170693167Y-100707553D01*
X170524803Y-100793338D01*
X170371928Y-100904409D01*
X170238309Y-101038028D01*
X170127238Y-101190903D01*
X170041453Y-101359267D01*
X169983058Y-101538986D01*
X169953500Y-101725615D01*
X169099100Y-101725615D01*
X169099100Y-92221004D01*
X170453500Y-92221004D01*
X170453500Y-92221007D01*
X170453500Y-92358993D01*
X170478503Y-92484693D01*
X170480420Y-92494327D01*
X170480420Y-92494329D01*
X170533222Y-92621806D01*
X170533228Y-92621817D01*
X170609885Y-92736541D01*
X170609886Y-92736542D01*
X170707458Y-92834114D01*
X170720286Y-92842685D01*
X170758165Y-92890735D01*
X170760567Y-92951873D01*
X170726574Y-93002747D01*
X170720293Y-93007309D01*
X170707458Y-93015886D01*
X170707454Y-93015889D01*
X170609885Y-93113458D01*
X170533228Y-93228182D01*
X170533222Y-93228193D01*
X170480420Y-93355670D01*
X170480420Y-93355672D01*
X170453500Y-93491004D01*
X170453500Y-93628995D01*
X170480420Y-93764327D01*
X170480420Y-93764329D01*
X170533222Y-93891806D01*
X170533228Y-93891817D01*
X170609885Y-94006541D01*
X170609886Y-94006542D01*
X170707458Y-94104114D01*
X170720734Y-94112985D01*
X170758613Y-94161033D01*
X170761015Y-94222171D01*
X170727023Y-94273045D01*
X170720738Y-94277612D01*
X170707779Y-94286271D01*
X170610271Y-94383779D01*
X170533666Y-94498428D01*
X170480903Y-94625810D01*
X170480901Y-94625816D01*
X170480069Y-94630000D01*
X170836457Y-94630000D01*
X170804556Y-94685255D01*
X170779000Y-94780630D01*
X170779000Y-94879370D01*
X170804556Y-94974745D01*
X170836457Y-95030000D01*
X170480069Y-95030000D01*
X170480901Y-95034183D01*
X170480903Y-95034189D01*
X170533666Y-95161571D01*
X170610271Y-95276220D01*
X170707780Y-95373729D01*
X170720734Y-95382385D01*
X170758613Y-95430436D01*
X170761015Y-95491574D01*
X170727021Y-95542447D01*
X170720737Y-95547012D01*
X170720735Y-95547015D01*
X170707457Y-95555887D01*
X170707454Y-95555889D01*
X170609885Y-95653458D01*
X170533228Y-95768182D01*
X170533222Y-95768193D01*
X170480420Y-95895670D01*
X170480420Y-95895672D01*
X170453500Y-96031004D01*
X170453500Y-96168995D01*
X170480420Y-96304327D01*
X170480420Y-96304329D01*
X170533222Y-96431806D01*
X170533228Y-96431817D01*
X170609885Y-96546541D01*
X170609886Y-96546542D01*
X170707458Y-96644114D01*
X170720286Y-96652685D01*
X170758165Y-96700735D01*
X170760567Y-96761873D01*
X170726574Y-96812747D01*
X170720293Y-96817309D01*
X170707458Y-96825886D01*
X170707454Y-96825889D01*
X170609885Y-96923458D01*
X170533228Y-97038182D01*
X170533222Y-97038193D01*
X170480420Y-97165670D01*
X170480420Y-97165672D01*
X170453500Y-97301004D01*
X170453500Y-97438995D01*
X170480420Y-97574327D01*
X170480420Y-97574329D01*
X170533222Y-97701806D01*
X170533228Y-97701817D01*
X170591247Y-97788647D01*
X170609886Y-97816542D01*
X170707458Y-97914114D01*
X170720734Y-97922985D01*
X170758613Y-97971033D01*
X170761015Y-98032171D01*
X170727023Y-98083045D01*
X170720738Y-98087612D01*
X170707779Y-98096271D01*
X170610271Y-98193779D01*
X170533666Y-98308428D01*
X170480903Y-98435810D01*
X170480901Y-98435816D01*
X170480069Y-98440000D01*
X170836457Y-98440000D01*
X170804556Y-98495255D01*
X170779000Y-98590630D01*
X170779000Y-98689370D01*
X170804556Y-98784745D01*
X170836457Y-98840000D01*
X170480069Y-98840000D01*
X170480901Y-98844183D01*
X170480903Y-98844189D01*
X170533666Y-98971571D01*
X170610271Y-99086220D01*
X170707779Y-99183728D01*
X170822428Y-99260333D01*
X170949813Y-99313097D01*
X170949819Y-99313099D01*
X170954000Y-99313929D01*
X170954000Y-98957542D01*
X171009255Y-98989444D01*
X171104630Y-99015000D01*
X171203370Y-99015000D01*
X171298745Y-98989444D01*
X171354000Y-98957542D01*
X171354000Y-99313929D01*
X171358180Y-99313099D01*
X171358186Y-99313097D01*
X171485571Y-99260333D01*
X171600220Y-99183728D01*
X171697728Y-99086220D01*
X171774333Y-98971571D01*
X171827096Y-98844189D01*
X171827098Y-98844183D01*
X171827931Y-98840000D01*
X171471543Y-98840000D01*
X171503444Y-98784745D01*
X171529000Y-98689370D01*
X171529000Y-98590630D01*
X171503444Y-98495255D01*
X171471543Y-98440000D01*
X171827931Y-98440000D01*
X171827098Y-98435816D01*
X171827096Y-98435810D01*
X171774333Y-98308428D01*
X171697728Y-98193779D01*
X171600220Y-98096271D01*
X171587263Y-98087613D01*
X171549385Y-98039562D01*
X171546985Y-97978424D01*
X171580979Y-97927551D01*
X171587243Y-97922999D01*
X171600542Y-97914114D01*
X171698114Y-97816542D01*
X171774775Y-97701811D01*
X171827580Y-97574328D01*
X171854500Y-97438993D01*
X171854500Y-97301007D01*
X171849270Y-97274714D01*
X171852213Y-97249850D01*
X171852213Y-97224807D01*
X171855754Y-97219933D01*
X171856462Y-97213953D01*
X171873456Y-97195568D01*
X171888177Y-97175307D01*
X171893905Y-97173445D01*
X171897994Y-97169023D01*
X171946368Y-97156400D01*
X172145353Y-97156400D01*
X172203544Y-97175307D01*
X172215357Y-97185396D01*
X172748604Y-97718643D01*
X172776381Y-97773160D01*
X172777600Y-97788647D01*
X172777600Y-100318367D01*
X172792503Y-100354346D01*
X172792503Y-100354347D01*
X172817327Y-100414278D01*
X183884722Y-111481673D01*
X183932677Y-111501536D01*
X183980632Y-111521400D01*
X192137094Y-111521400D01*
X192757592Y-111521400D01*
X192815783Y-111540307D01*
X192849057Y-111582517D01*
X192850553Y-111586129D01*
X193157048Y-111892623D01*
X193252957Y-111932350D01*
X193252958Y-111932350D01*
X193855288Y-111932350D01*
X193855291Y-111932350D01*
X193911469Y-111909078D01*
X193911472Y-111909078D01*
X193951199Y-111892624D01*
X193951199Y-111892623D01*
X193951201Y-111892623D01*
X194126921Y-111716901D01*
X194181435Y-111689125D01*
X194241868Y-111698696D01*
X194266926Y-111716902D01*
X194442648Y-111892623D01*
X194538557Y-111932350D01*
X194538558Y-111932350D01*
X195140888Y-111932350D01*
X195140891Y-111932350D01*
X195197069Y-111909078D01*
X195197072Y-111909078D01*
X195236799Y-111892624D01*
X195236799Y-111892623D01*
X195236801Y-111892623D01*
X195412521Y-111716901D01*
X195467035Y-111689125D01*
X195527468Y-111698696D01*
X195552526Y-111716902D01*
X195728248Y-111892623D01*
X195824157Y-111932350D01*
X195824158Y-111932350D01*
X196426488Y-111932350D01*
X196426491Y-111932350D01*
X196482669Y-111909078D01*
X196482672Y-111909078D01*
X196522399Y-111892624D01*
X196522399Y-111892623D01*
X196522401Y-111892623D01*
X196698121Y-111716901D01*
X196752635Y-111689125D01*
X196813068Y-111698696D01*
X196838126Y-111716902D01*
X197013848Y-111892623D01*
X197109757Y-111932350D01*
X197109758Y-111932350D01*
X197712088Y-111932350D01*
X197712091Y-111932350D01*
X197768269Y-111909078D01*
X197768272Y-111909078D01*
X197807999Y-111892624D01*
X197807999Y-111892623D01*
X197808001Y-111892623D01*
X197983721Y-111716901D01*
X198038235Y-111689125D01*
X198098668Y-111698696D01*
X198123726Y-111716902D01*
X198299448Y-111892623D01*
X198395357Y-111932350D01*
X198395358Y-111932350D01*
X198997688Y-111932350D01*
X198997691Y-111932350D01*
X199053869Y-111909078D01*
X199053872Y-111909078D01*
X199093599Y-111892624D01*
X199093599Y-111892623D01*
X199093601Y-111892623D01*
X199269321Y-111716901D01*
X199323835Y-111689125D01*
X199384268Y-111698696D01*
X199409326Y-111716902D01*
X199585048Y-111892623D01*
X199680957Y-111932350D01*
X199680958Y-111932350D01*
X200283288Y-111932350D01*
X200283291Y-111932350D01*
X200339469Y-111909078D01*
X200339472Y-111909078D01*
X200354148Y-111902998D01*
X200379201Y-111892623D01*
X200685697Y-111586128D01*
X200687193Y-111582515D01*
X200704657Y-111562066D01*
X200720467Y-111540307D01*
X200724306Y-111539059D01*
X200726929Y-111535989D01*
X200778658Y-111521400D01*
X200952437Y-111521400D01*
X201010628Y-111540307D01*
X201022440Y-111550396D01*
X201114412Y-111642367D01*
X201210321Y-111682094D01*
X201210322Y-111682094D01*
X201474339Y-111682094D01*
X201474340Y-111682094D01*
X201528806Y-111659533D01*
X201570250Y-111642367D01*
X201600868Y-111611748D01*
X201609976Y-111605937D01*
X201629640Y-111600835D01*
X201647742Y-111591612D01*
X201658579Y-111593328D01*
X201669201Y-111590573D01*
X201688110Y-111598005D01*
X201708175Y-111601183D01*
X201722295Y-111611441D01*
X201726146Y-111612955D01*
X201727673Y-111615348D01*
X201733231Y-111619386D01*
X201756212Y-111642367D01*
X201756213Y-111642367D01*
X201756214Y-111642368D01*
X201852121Y-111682094D01*
X201852122Y-111682094D01*
X202116139Y-111682094D01*
X202116140Y-111682094D01*
X202170606Y-111659533D01*
X202212050Y-111642367D01*
X202242668Y-111611748D01*
X202251776Y-111605937D01*
X202271440Y-111600835D01*
X202289542Y-111591612D01*
X202300379Y-111593328D01*
X202311001Y-111590573D01*
X202329910Y-111598005D01*
X202349975Y-111601183D01*
X202364095Y-111611441D01*
X202367946Y-111612955D01*
X202369473Y-111615348D01*
X202375031Y-111619386D01*
X202398012Y-111642367D01*
X202398013Y-111642367D01*
X202398014Y-111642368D01*
X202493921Y-111682094D01*
X202493922Y-111682094D01*
X202757939Y-111682094D01*
X202757940Y-111682094D01*
X202812406Y-111659533D01*
X202853850Y-111642367D01*
X202884468Y-111611748D01*
X202893576Y-111605937D01*
X202913240Y-111600835D01*
X202931342Y-111591612D01*
X202942179Y-111593328D01*
X202952801Y-111590573D01*
X202971710Y-111598005D01*
X202991775Y-111601183D01*
X203005895Y-111611441D01*
X203009746Y-111612955D01*
X203011273Y-111615348D01*
X203016831Y-111619386D01*
X203039812Y-111642367D01*
X203039813Y-111642367D01*
X203039814Y-111642368D01*
X203135721Y-111682094D01*
X203135722Y-111682094D01*
X203399739Y-111682094D01*
X203399740Y-111682094D01*
X203454206Y-111659533D01*
X203495650Y-111642367D01*
X203556001Y-111582015D01*
X203562266Y-111577455D01*
X203584348Y-111570256D01*
X203605046Y-111559711D01*
X203612888Y-111560953D01*
X203620439Y-111558492D01*
X203642536Y-111565648D01*
X203665478Y-111569282D01*
X203674907Y-111576132D01*
X203678648Y-111577344D01*
X203680975Y-111580541D01*
X203690537Y-111587488D01*
X206663604Y-114560555D01*
X206691381Y-114615072D01*
X206692600Y-114630559D01*
X206692600Y-117157631D01*
X206673693Y-117215822D01*
X206624193Y-117251786D01*
X206574289Y-117254729D01*
X206548003Y-117249501D01*
X206547993Y-117249500D01*
X206410007Y-117249500D01*
X206410004Y-117249500D01*
X206274672Y-117276420D01*
X206274670Y-117276420D01*
X206147193Y-117329222D01*
X206147182Y-117329228D01*
X206032458Y-117405885D01*
X205934889Y-117503454D01*
X205934887Y-117503457D01*
X205926014Y-117516736D01*
X205877963Y-117554614D01*
X205816824Y-117557014D01*
X205765952Y-117523020D01*
X205761385Y-117516734D01*
X205752729Y-117503780D01*
X205655220Y-117406271D01*
X205540571Y-117329666D01*
X205413189Y-117276903D01*
X205413183Y-117276901D01*
X205409000Y-117276069D01*
X205409000Y-117632457D01*
X205353745Y-117600556D01*
X205258370Y-117575000D01*
X205159630Y-117575000D01*
X205064255Y-117600556D01*
X205009000Y-117632457D01*
X205009000Y-117276069D01*
X205004816Y-117276901D01*
X205004810Y-117276903D01*
X204877428Y-117329666D01*
X204762779Y-117406271D01*
X204665271Y-117503779D01*
X204588666Y-117618428D01*
X204535903Y-117745810D01*
X204535901Y-117745816D01*
X204535069Y-117750000D01*
X204891457Y-117750000D01*
X204859556Y-117805255D01*
X204834000Y-117900630D01*
X204834000Y-117999370D01*
X204859556Y-118094745D01*
X204891457Y-118150000D01*
X204535069Y-118150000D01*
X204535901Y-118154183D01*
X204535903Y-118154189D01*
X204588666Y-118281571D01*
X204665271Y-118396220D01*
X204762779Y-118493728D01*
X204877428Y-118570333D01*
X205004813Y-118623097D01*
X205004819Y-118623099D01*
X205009000Y-118623929D01*
X205009000Y-118267542D01*
X205064255Y-118299444D01*
X205159630Y-118325000D01*
X205258370Y-118325000D01*
X205353745Y-118299444D01*
X205409000Y-118267542D01*
X205409000Y-118623929D01*
X205413180Y-118623099D01*
X205413186Y-118623097D01*
X205540571Y-118570333D01*
X205655220Y-118493728D01*
X205752730Y-118396218D01*
X205761384Y-118383267D01*
X205809433Y-118345387D01*
X205870571Y-118342984D01*
X205921445Y-118376976D01*
X205926009Y-118383257D01*
X205934886Y-118396542D01*
X205934889Y-118396545D01*
X206032458Y-118494114D01*
X206147182Y-118570771D01*
X206147193Y-118570777D01*
X206194283Y-118590282D01*
X206274672Y-118623580D01*
X206410007Y-118650500D01*
X206410008Y-118650500D01*
X206547992Y-118650500D01*
X206547993Y-118650500D01*
X206683328Y-118623580D01*
X206810811Y-118570775D01*
X206811473Y-118570333D01*
X206812355Y-118569743D01*
X206925542Y-118494114D01*
X207023114Y-118396542D01*
X207031686Y-118383712D01*
X207079732Y-118345835D01*
X207140871Y-118343431D01*
X207191745Y-118377423D01*
X207196295Y-118383685D01*
X207204886Y-118396542D01*
X207204889Y-118396545D01*
X207204890Y-118396546D01*
X207302458Y-118494114D01*
X207417182Y-118570771D01*
X207417193Y-118570777D01*
X207464283Y-118590282D01*
X207544672Y-118623580D01*
X207680007Y-118650500D01*
X207680008Y-118650500D01*
X207817992Y-118650500D01*
X207817993Y-118650500D01*
X207953328Y-118623580D01*
X208080811Y-118570775D01*
X208081473Y-118570333D01*
X208082355Y-118569743D01*
X208195542Y-118494114D01*
X208293114Y-118396542D01*
X208301985Y-118383265D01*
X208350030Y-118345387D01*
X208411168Y-118342983D01*
X208462043Y-118376974D01*
X208466613Y-118383263D01*
X208475271Y-118396220D01*
X208572779Y-118493728D01*
X208687428Y-118570333D01*
X208814813Y-118623097D01*
X208814819Y-118623099D01*
X208819000Y-118623929D01*
X208819000Y-118267542D01*
X208874255Y-118299444D01*
X208969630Y-118325000D01*
X209068370Y-118325000D01*
X209163745Y-118299444D01*
X209219000Y-118267542D01*
X209219000Y-118623929D01*
X209223180Y-118623099D01*
X209223186Y-118623097D01*
X209350571Y-118570333D01*
X209465220Y-118493728D01*
X209562730Y-118396218D01*
X209571384Y-118383267D01*
X209619433Y-118345387D01*
X209680571Y-118342984D01*
X209731445Y-118376976D01*
X209736009Y-118383257D01*
X209744886Y-118396542D01*
X209744889Y-118396545D01*
X209842458Y-118494114D01*
X209957182Y-118570771D01*
X209957193Y-118570777D01*
X210004283Y-118590282D01*
X210084672Y-118623580D01*
X210220007Y-118650500D01*
X210220008Y-118650500D01*
X210357992Y-118650500D01*
X210357993Y-118650500D01*
X210493328Y-118623580D01*
X210620811Y-118570775D01*
X210621473Y-118570333D01*
X210622355Y-118569743D01*
X210735542Y-118494114D01*
X210833114Y-118396542D01*
X210841686Y-118383712D01*
X210889732Y-118345835D01*
X210950871Y-118343431D01*
X211001745Y-118377423D01*
X211006295Y-118383685D01*
X211014886Y-118396542D01*
X211014889Y-118396545D01*
X211014890Y-118396546D01*
X211112458Y-118494114D01*
X211227182Y-118570771D01*
X211227193Y-118570777D01*
X211274283Y-118590282D01*
X211354672Y-118623580D01*
X211490007Y-118650500D01*
X211490008Y-118650500D01*
X211627992Y-118650500D01*
X211627993Y-118650500D01*
X211763328Y-118623580D01*
X211890811Y-118570775D01*
X211891473Y-118570333D01*
X211892355Y-118569743D01*
X212005542Y-118494114D01*
X212103114Y-118396542D01*
X212111985Y-118383265D01*
X212160030Y-118345387D01*
X212221168Y-118342983D01*
X212272043Y-118376974D01*
X212276613Y-118383263D01*
X212285271Y-118396220D01*
X212382779Y-118493728D01*
X212497428Y-118570333D01*
X212624813Y-118623097D01*
X212624819Y-118623099D01*
X212629000Y-118623929D01*
X212629000Y-118267542D01*
X212684255Y-118299444D01*
X212779630Y-118325000D01*
X212878370Y-118325000D01*
X212973745Y-118299444D01*
X213029000Y-118267542D01*
X213029000Y-118623929D01*
X213033180Y-118623099D01*
X213033186Y-118623097D01*
X213160571Y-118570333D01*
X213275220Y-118493728D01*
X213372728Y-118396220D01*
X213449333Y-118281571D01*
X213502096Y-118154189D01*
X213502098Y-118154183D01*
X213502931Y-118150000D01*
X213146543Y-118150000D01*
X213178444Y-118094745D01*
X213204000Y-117999370D01*
X213204000Y-117900630D01*
X213178444Y-117805255D01*
X213146543Y-117750000D01*
X213502931Y-117750000D01*
X213502098Y-117745816D01*
X213502096Y-117745810D01*
X213449333Y-117618428D01*
X213372728Y-117503779D01*
X213275220Y-117406271D01*
X213160571Y-117329666D01*
X213033189Y-117276903D01*
X213033183Y-117276901D01*
X213029000Y-117276069D01*
X213029000Y-117632457D01*
X212973745Y-117600556D01*
X212878370Y-117575000D01*
X212779630Y-117575000D01*
X212684255Y-117600556D01*
X212629000Y-117632457D01*
X212629000Y-117276069D01*
X212624816Y-117276901D01*
X212624810Y-117276903D01*
X212497428Y-117329666D01*
X212382779Y-117406271D01*
X212285271Y-117503779D01*
X212276612Y-117516738D01*
X212228560Y-117554615D01*
X212167421Y-117557014D01*
X212116549Y-117523018D01*
X212111987Y-117516738D01*
X212103114Y-117503458D01*
X212005542Y-117405886D01*
X212005541Y-117405885D01*
X211890817Y-117329228D01*
X211890806Y-117329222D01*
X211763328Y-117276420D01*
X211627995Y-117249500D01*
X211627993Y-117249500D01*
X211490007Y-117249500D01*
X211490006Y-117249500D01*
X211489996Y-117249501D01*
X211463711Y-117254729D01*
X211402950Y-117247536D01*
X211358022Y-117206002D01*
X211345400Y-117157631D01*
X211345400Y-113406632D01*
X211320238Y-113345885D01*
X211305674Y-113310724D01*
X211305673Y-113310723D01*
X211305673Y-113310722D01*
X202513278Y-104518327D01*
X202465323Y-104498464D01*
X202417368Y-104478600D01*
X202417367Y-104478600D01*
X180914559Y-104478600D01*
X180856368Y-104459693D01*
X180844555Y-104449604D01*
X175049396Y-98654445D01*
X175021619Y-98599928D01*
X175020400Y-98584441D01*
X175020400Y-94081632D01*
X174989296Y-94006542D01*
X174989296Y-94006541D01*
X174980672Y-93985721D01*
X173538278Y-92543327D01*
X173490323Y-92523464D01*
X173442368Y-92503600D01*
X173442367Y-92503600D01*
X171946368Y-92503600D01*
X171888177Y-92484693D01*
X171852213Y-92435193D01*
X171849270Y-92385286D01*
X171849601Y-92383620D01*
X171854500Y-92358993D01*
X171854500Y-92221007D01*
X171827580Y-92085672D01*
X171774775Y-91958189D01*
X171774774Y-91958187D01*
X171774771Y-91958182D01*
X171698114Y-91843458D01*
X171600545Y-91745889D01*
X171600542Y-91745886D01*
X171587264Y-91737014D01*
X171549386Y-91688965D01*
X171546984Y-91627827D01*
X171580977Y-91576953D01*
X171587267Y-91572384D01*
X171600218Y-91563730D01*
X171697728Y-91466220D01*
X171774333Y-91351571D01*
X171827096Y-91224189D01*
X171827098Y-91224183D01*
X171827931Y-91220000D01*
X171471543Y-91220000D01*
X171503444Y-91164745D01*
X171529000Y-91069370D01*
X171529000Y-90970630D01*
X171503444Y-90875255D01*
X171471543Y-90820000D01*
X171827931Y-90820000D01*
X171827098Y-90815816D01*
X171827096Y-90815810D01*
X171774333Y-90688428D01*
X171697728Y-90573779D01*
X171600220Y-90476271D01*
X171485571Y-90399666D01*
X171358189Y-90346903D01*
X171358183Y-90346901D01*
X171354000Y-90346069D01*
X171354000Y-90702457D01*
X171298745Y-90670556D01*
X171203370Y-90645000D01*
X171104630Y-90645000D01*
X171009255Y-90670556D01*
X170954000Y-90702457D01*
X170954000Y-90346069D01*
X170949816Y-90346901D01*
X170949810Y-90346903D01*
X170822428Y-90399666D01*
X170707779Y-90476271D01*
X170610271Y-90573779D01*
X170533666Y-90688428D01*
X170480903Y-90815810D01*
X170480901Y-90815816D01*
X170480069Y-90820000D01*
X170836457Y-90820000D01*
X170804556Y-90875255D01*
X170779000Y-90970630D01*
X170779000Y-91069370D01*
X170804556Y-91164745D01*
X170836457Y-91220000D01*
X170480069Y-91220000D01*
X170480901Y-91224183D01*
X170480903Y-91224189D01*
X170533666Y-91351571D01*
X170610271Y-91466220D01*
X170707780Y-91563729D01*
X170720734Y-91572385D01*
X170758613Y-91620436D01*
X170761015Y-91681574D01*
X170727021Y-91732447D01*
X170720737Y-91737012D01*
X170720735Y-91737015D01*
X170707457Y-91745887D01*
X170707454Y-91745889D01*
X170609885Y-91843458D01*
X170533228Y-91958182D01*
X170533222Y-91958193D01*
X170480420Y-92085670D01*
X170480420Y-92085672D01*
X170453500Y-92221004D01*
X169099100Y-92221004D01*
X169099100Y-89099100D01*
X169118007Y-89040909D01*
X169167507Y-89004945D01*
X169198100Y-89000100D01*
X175799500Y-89000100D01*
X175857691Y-89019007D01*
G37*
%TD.AperFunction*%
%TD*%
M02*
