%TF.GenerationSoftware,KiCad,Pcbnew,9.0.0*%
%TF.CreationDate,2025-06-18T14:15:24-07:00*%
%TF.ProjectId,1U Backplane,31552042-6163-46b7-906c-616e652e6b69,rev?*%
%TF.SameCoordinates,Original*%
%TF.FileFunction,Legend,Top*%
%TF.FilePolarity,Positive*%
%FSLAX46Y46*%
G04 Gerber Fmt 4.6, Leading zero omitted, Abs format (unit mm)*
G04 Created by KiCad (PCBNEW 9.0.0) date 2025-06-18 14:15:24*
%MOMM*%
%LPD*%
G01*
G04 APERTURE LIST*
%ADD10C,0.150000*%
%ADD11C,0.152400*%
%ADD12C,0.120000*%
%ADD13C,0.254000*%
G04 APERTURE END LIST*
D10*
X94560905Y-119954819D02*
X94560905Y-118954819D01*
X94560905Y-118954819D02*
X94799000Y-118954819D01*
X94799000Y-118954819D02*
X94941857Y-119002438D01*
X94941857Y-119002438D02*
X95037095Y-119097676D01*
X95037095Y-119097676D02*
X95084714Y-119192914D01*
X95084714Y-119192914D02*
X95132333Y-119383390D01*
X95132333Y-119383390D02*
X95132333Y-119526247D01*
X95132333Y-119526247D02*
X95084714Y-119716723D01*
X95084714Y-119716723D02*
X95037095Y-119811961D01*
X95037095Y-119811961D02*
X94941857Y-119907200D01*
X94941857Y-119907200D02*
X94799000Y-119954819D01*
X94799000Y-119954819D02*
X94560905Y-119954819D01*
X95703762Y-119383390D02*
X95608524Y-119335771D01*
X95608524Y-119335771D02*
X95560905Y-119288152D01*
X95560905Y-119288152D02*
X95513286Y-119192914D01*
X95513286Y-119192914D02*
X95513286Y-119145295D01*
X95513286Y-119145295D02*
X95560905Y-119050057D01*
X95560905Y-119050057D02*
X95608524Y-119002438D01*
X95608524Y-119002438D02*
X95703762Y-118954819D01*
X95703762Y-118954819D02*
X95894238Y-118954819D01*
X95894238Y-118954819D02*
X95989476Y-119002438D01*
X95989476Y-119002438D02*
X96037095Y-119050057D01*
X96037095Y-119050057D02*
X96084714Y-119145295D01*
X96084714Y-119145295D02*
X96084714Y-119192914D01*
X96084714Y-119192914D02*
X96037095Y-119288152D01*
X96037095Y-119288152D02*
X95989476Y-119335771D01*
X95989476Y-119335771D02*
X95894238Y-119383390D01*
X95894238Y-119383390D02*
X95703762Y-119383390D01*
X95703762Y-119383390D02*
X95608524Y-119431009D01*
X95608524Y-119431009D02*
X95560905Y-119478628D01*
X95560905Y-119478628D02*
X95513286Y-119573866D01*
X95513286Y-119573866D02*
X95513286Y-119764342D01*
X95513286Y-119764342D02*
X95560905Y-119859580D01*
X95560905Y-119859580D02*
X95608524Y-119907200D01*
X95608524Y-119907200D02*
X95703762Y-119954819D01*
X95703762Y-119954819D02*
X95894238Y-119954819D01*
X95894238Y-119954819D02*
X95989476Y-119907200D01*
X95989476Y-119907200D02*
X96037095Y-119859580D01*
X96037095Y-119859580D02*
X96084714Y-119764342D01*
X96084714Y-119764342D02*
X96084714Y-119573866D01*
X96084714Y-119573866D02*
X96037095Y-119478628D01*
X96037095Y-119478628D02*
X95989476Y-119431009D01*
X95989476Y-119431009D02*
X95894238Y-119383390D01*
D11*
X155634617Y-107120765D02*
X156287760Y-107120765D01*
X156287760Y-107120765D02*
X156418389Y-107164308D01*
X156418389Y-107164308D02*
X156505475Y-107251394D01*
X156505475Y-107251394D02*
X156549017Y-107382022D01*
X156549017Y-107382022D02*
X156549017Y-107469108D01*
X155634617Y-106249908D02*
X155634617Y-106685336D01*
X155634617Y-106685336D02*
X156070046Y-106728879D01*
X156070046Y-106728879D02*
X156026503Y-106685336D01*
X156026503Y-106685336D02*
X155982960Y-106598251D01*
X155982960Y-106598251D02*
X155982960Y-106380536D01*
X155982960Y-106380536D02*
X156026503Y-106293451D01*
X156026503Y-106293451D02*
X156070046Y-106249908D01*
X156070046Y-106249908D02*
X156157132Y-106206365D01*
X156157132Y-106206365D02*
X156374846Y-106206365D01*
X156374846Y-106206365D02*
X156461932Y-106249908D01*
X156461932Y-106249908D02*
X156505475Y-106293451D01*
X156505475Y-106293451D02*
X156549017Y-106380536D01*
X156549017Y-106380536D02*
X156549017Y-106598251D01*
X156549017Y-106598251D02*
X156505475Y-106685336D01*
X156505475Y-106685336D02*
X156461932Y-106728879D01*
D10*
X188557333Y-122704819D02*
X188224000Y-122228628D01*
X187985905Y-122704819D02*
X187985905Y-121704819D01*
X187985905Y-121704819D02*
X188366857Y-121704819D01*
X188366857Y-121704819D02*
X188462095Y-121752438D01*
X188462095Y-121752438D02*
X188509714Y-121800057D01*
X188509714Y-121800057D02*
X188557333Y-121895295D01*
X188557333Y-121895295D02*
X188557333Y-122038152D01*
X188557333Y-122038152D02*
X188509714Y-122133390D01*
X188509714Y-122133390D02*
X188462095Y-122181009D01*
X188462095Y-122181009D02*
X188366857Y-122228628D01*
X188366857Y-122228628D02*
X187985905Y-122228628D01*
X188938286Y-121800057D02*
X188985905Y-121752438D01*
X188985905Y-121752438D02*
X189081143Y-121704819D01*
X189081143Y-121704819D02*
X189319238Y-121704819D01*
X189319238Y-121704819D02*
X189414476Y-121752438D01*
X189414476Y-121752438D02*
X189462095Y-121800057D01*
X189462095Y-121800057D02*
X189509714Y-121895295D01*
X189509714Y-121895295D02*
X189509714Y-121990533D01*
X189509714Y-121990533D02*
X189462095Y-122133390D01*
X189462095Y-122133390D02*
X188890667Y-122704819D01*
X188890667Y-122704819D02*
X189509714Y-122704819D01*
X167765666Y-109154819D02*
X167765666Y-109869104D01*
X167765666Y-109869104D02*
X167718047Y-110011961D01*
X167718047Y-110011961D02*
X167622809Y-110107200D01*
X167622809Y-110107200D02*
X167479952Y-110154819D01*
X167479952Y-110154819D02*
X167384714Y-110154819D01*
X168146619Y-109154819D02*
X168765666Y-109154819D01*
X168765666Y-109154819D02*
X168432333Y-109535771D01*
X168432333Y-109535771D02*
X168575190Y-109535771D01*
X168575190Y-109535771D02*
X168670428Y-109583390D01*
X168670428Y-109583390D02*
X168718047Y-109631009D01*
X168718047Y-109631009D02*
X168765666Y-109726247D01*
X168765666Y-109726247D02*
X168765666Y-109964342D01*
X168765666Y-109964342D02*
X168718047Y-110059580D01*
X168718047Y-110059580D02*
X168670428Y-110107200D01*
X168670428Y-110107200D02*
X168575190Y-110154819D01*
X168575190Y-110154819D02*
X168289476Y-110154819D01*
X168289476Y-110154819D02*
X168194238Y-110107200D01*
X168194238Y-110107200D02*
X168146619Y-110059580D01*
X161965666Y-103854819D02*
X161965666Y-104569104D01*
X161965666Y-104569104D02*
X161918047Y-104711961D01*
X161918047Y-104711961D02*
X161822809Y-104807200D01*
X161822809Y-104807200D02*
X161679952Y-104854819D01*
X161679952Y-104854819D02*
X161584714Y-104854819D01*
X162870428Y-103854819D02*
X162679952Y-103854819D01*
X162679952Y-103854819D02*
X162584714Y-103902438D01*
X162584714Y-103902438D02*
X162537095Y-103950057D01*
X162537095Y-103950057D02*
X162441857Y-104092914D01*
X162441857Y-104092914D02*
X162394238Y-104283390D01*
X162394238Y-104283390D02*
X162394238Y-104664342D01*
X162394238Y-104664342D02*
X162441857Y-104759580D01*
X162441857Y-104759580D02*
X162489476Y-104807200D01*
X162489476Y-104807200D02*
X162584714Y-104854819D01*
X162584714Y-104854819D02*
X162775190Y-104854819D01*
X162775190Y-104854819D02*
X162870428Y-104807200D01*
X162870428Y-104807200D02*
X162918047Y-104759580D01*
X162918047Y-104759580D02*
X162965666Y-104664342D01*
X162965666Y-104664342D02*
X162965666Y-104426247D01*
X162965666Y-104426247D02*
X162918047Y-104331009D01*
X162918047Y-104331009D02*
X162870428Y-104283390D01*
X162870428Y-104283390D02*
X162775190Y-104235771D01*
X162775190Y-104235771D02*
X162584714Y-104235771D01*
X162584714Y-104235771D02*
X162489476Y-104283390D01*
X162489476Y-104283390D02*
X162441857Y-104331009D01*
X162441857Y-104331009D02*
X162394238Y-104426247D01*
X199785905Y-119854819D02*
X199785905Y-118854819D01*
X199785905Y-118854819D02*
X200024000Y-118854819D01*
X200024000Y-118854819D02*
X200166857Y-118902438D01*
X200166857Y-118902438D02*
X200262095Y-118997676D01*
X200262095Y-118997676D02*
X200309714Y-119092914D01*
X200309714Y-119092914D02*
X200357333Y-119283390D01*
X200357333Y-119283390D02*
X200357333Y-119426247D01*
X200357333Y-119426247D02*
X200309714Y-119616723D01*
X200309714Y-119616723D02*
X200262095Y-119711961D01*
X200262095Y-119711961D02*
X200166857Y-119807200D01*
X200166857Y-119807200D02*
X200024000Y-119854819D01*
X200024000Y-119854819D02*
X199785905Y-119854819D01*
X201262095Y-118854819D02*
X200785905Y-118854819D01*
X200785905Y-118854819D02*
X200738286Y-119331009D01*
X200738286Y-119331009D02*
X200785905Y-119283390D01*
X200785905Y-119283390D02*
X200881143Y-119235771D01*
X200881143Y-119235771D02*
X201119238Y-119235771D01*
X201119238Y-119235771D02*
X201214476Y-119283390D01*
X201214476Y-119283390D02*
X201262095Y-119331009D01*
X201262095Y-119331009D02*
X201309714Y-119426247D01*
X201309714Y-119426247D02*
X201309714Y-119664342D01*
X201309714Y-119664342D02*
X201262095Y-119759580D01*
X201262095Y-119759580D02*
X201214476Y-119807200D01*
X201214476Y-119807200D02*
X201119238Y-119854819D01*
X201119238Y-119854819D02*
X200881143Y-119854819D01*
X200881143Y-119854819D02*
X200785905Y-119807200D01*
X200785905Y-119807200D02*
X200738286Y-119759580D01*
X77832333Y-120154819D02*
X77499000Y-119678628D01*
X77260905Y-120154819D02*
X77260905Y-119154819D01*
X77260905Y-119154819D02*
X77641857Y-119154819D01*
X77641857Y-119154819D02*
X77737095Y-119202438D01*
X77737095Y-119202438D02*
X77784714Y-119250057D01*
X77784714Y-119250057D02*
X77832333Y-119345295D01*
X77832333Y-119345295D02*
X77832333Y-119488152D01*
X77832333Y-119488152D02*
X77784714Y-119583390D01*
X77784714Y-119583390D02*
X77737095Y-119631009D01*
X77737095Y-119631009D02*
X77641857Y-119678628D01*
X77641857Y-119678628D02*
X77260905Y-119678628D01*
X78737095Y-119154819D02*
X78260905Y-119154819D01*
X78260905Y-119154819D02*
X78213286Y-119631009D01*
X78213286Y-119631009D02*
X78260905Y-119583390D01*
X78260905Y-119583390D02*
X78356143Y-119535771D01*
X78356143Y-119535771D02*
X78594238Y-119535771D01*
X78594238Y-119535771D02*
X78689476Y-119583390D01*
X78689476Y-119583390D02*
X78737095Y-119631009D01*
X78737095Y-119631009D02*
X78784714Y-119726247D01*
X78784714Y-119726247D02*
X78784714Y-119964342D01*
X78784714Y-119964342D02*
X78737095Y-120059580D01*
X78737095Y-120059580D02*
X78689476Y-120107200D01*
X78689476Y-120107200D02*
X78594238Y-120154819D01*
X78594238Y-120154819D02*
X78356143Y-120154819D01*
X78356143Y-120154819D02*
X78260905Y-120107200D01*
X78260905Y-120107200D02*
X78213286Y-120059580D01*
X188557333Y-116959580D02*
X188509714Y-117007200D01*
X188509714Y-117007200D02*
X188366857Y-117054819D01*
X188366857Y-117054819D02*
X188271619Y-117054819D01*
X188271619Y-117054819D02*
X188128762Y-117007200D01*
X188128762Y-117007200D02*
X188033524Y-116911961D01*
X188033524Y-116911961D02*
X187985905Y-116816723D01*
X187985905Y-116816723D02*
X187938286Y-116626247D01*
X187938286Y-116626247D02*
X187938286Y-116483390D01*
X187938286Y-116483390D02*
X187985905Y-116292914D01*
X187985905Y-116292914D02*
X188033524Y-116197676D01*
X188033524Y-116197676D02*
X188128762Y-116102438D01*
X188128762Y-116102438D02*
X188271619Y-116054819D01*
X188271619Y-116054819D02*
X188366857Y-116054819D01*
X188366857Y-116054819D02*
X188509714Y-116102438D01*
X188509714Y-116102438D02*
X188557333Y-116150057D01*
X188890667Y-116054819D02*
X189509714Y-116054819D01*
X189509714Y-116054819D02*
X189176381Y-116435771D01*
X189176381Y-116435771D02*
X189319238Y-116435771D01*
X189319238Y-116435771D02*
X189414476Y-116483390D01*
X189414476Y-116483390D02*
X189462095Y-116531009D01*
X189462095Y-116531009D02*
X189509714Y-116626247D01*
X189509714Y-116626247D02*
X189509714Y-116864342D01*
X189509714Y-116864342D02*
X189462095Y-116959580D01*
X189462095Y-116959580D02*
X189414476Y-117007200D01*
X189414476Y-117007200D02*
X189319238Y-117054819D01*
X189319238Y-117054819D02*
X189033524Y-117054819D01*
X189033524Y-117054819D02*
X188938286Y-117007200D01*
X188938286Y-117007200D02*
X188890667Y-116959580D01*
X82932333Y-122754819D02*
X82599000Y-122278628D01*
X82360905Y-122754819D02*
X82360905Y-121754819D01*
X82360905Y-121754819D02*
X82741857Y-121754819D01*
X82741857Y-121754819D02*
X82837095Y-121802438D01*
X82837095Y-121802438D02*
X82884714Y-121850057D01*
X82884714Y-121850057D02*
X82932333Y-121945295D01*
X82932333Y-121945295D02*
X82932333Y-122088152D01*
X82932333Y-122088152D02*
X82884714Y-122183390D01*
X82884714Y-122183390D02*
X82837095Y-122231009D01*
X82837095Y-122231009D02*
X82741857Y-122278628D01*
X82741857Y-122278628D02*
X82360905Y-122278628D01*
X83789476Y-121754819D02*
X83599000Y-121754819D01*
X83599000Y-121754819D02*
X83503762Y-121802438D01*
X83503762Y-121802438D02*
X83456143Y-121850057D01*
X83456143Y-121850057D02*
X83360905Y-121992914D01*
X83360905Y-121992914D02*
X83313286Y-122183390D01*
X83313286Y-122183390D02*
X83313286Y-122564342D01*
X83313286Y-122564342D02*
X83360905Y-122659580D01*
X83360905Y-122659580D02*
X83408524Y-122707200D01*
X83408524Y-122707200D02*
X83503762Y-122754819D01*
X83503762Y-122754819D02*
X83694238Y-122754819D01*
X83694238Y-122754819D02*
X83789476Y-122707200D01*
X83789476Y-122707200D02*
X83837095Y-122659580D01*
X83837095Y-122659580D02*
X83884714Y-122564342D01*
X83884714Y-122564342D02*
X83884714Y-122326247D01*
X83884714Y-122326247D02*
X83837095Y-122231009D01*
X83837095Y-122231009D02*
X83789476Y-122183390D01*
X83789476Y-122183390D02*
X83694238Y-122135771D01*
X83694238Y-122135771D02*
X83503762Y-122135771D01*
X83503762Y-122135771D02*
X83408524Y-122183390D01*
X83408524Y-122183390D02*
X83360905Y-122231009D01*
X83360905Y-122231009D02*
X83313286Y-122326247D01*
X93232333Y-119954819D02*
X92899000Y-119478628D01*
X92660905Y-119954819D02*
X92660905Y-118954819D01*
X92660905Y-118954819D02*
X93041857Y-118954819D01*
X93041857Y-118954819D02*
X93137095Y-119002438D01*
X93137095Y-119002438D02*
X93184714Y-119050057D01*
X93184714Y-119050057D02*
X93232333Y-119145295D01*
X93232333Y-119145295D02*
X93232333Y-119288152D01*
X93232333Y-119288152D02*
X93184714Y-119383390D01*
X93184714Y-119383390D02*
X93137095Y-119431009D01*
X93137095Y-119431009D02*
X93041857Y-119478628D01*
X93041857Y-119478628D02*
X92660905Y-119478628D01*
X93803762Y-119383390D02*
X93708524Y-119335771D01*
X93708524Y-119335771D02*
X93660905Y-119288152D01*
X93660905Y-119288152D02*
X93613286Y-119192914D01*
X93613286Y-119192914D02*
X93613286Y-119145295D01*
X93613286Y-119145295D02*
X93660905Y-119050057D01*
X93660905Y-119050057D02*
X93708524Y-119002438D01*
X93708524Y-119002438D02*
X93803762Y-118954819D01*
X93803762Y-118954819D02*
X93994238Y-118954819D01*
X93994238Y-118954819D02*
X94089476Y-119002438D01*
X94089476Y-119002438D02*
X94137095Y-119050057D01*
X94137095Y-119050057D02*
X94184714Y-119145295D01*
X94184714Y-119145295D02*
X94184714Y-119192914D01*
X94184714Y-119192914D02*
X94137095Y-119288152D01*
X94137095Y-119288152D02*
X94089476Y-119335771D01*
X94089476Y-119335771D02*
X93994238Y-119383390D01*
X93994238Y-119383390D02*
X93803762Y-119383390D01*
X93803762Y-119383390D02*
X93708524Y-119431009D01*
X93708524Y-119431009D02*
X93660905Y-119478628D01*
X93660905Y-119478628D02*
X93613286Y-119573866D01*
X93613286Y-119573866D02*
X93613286Y-119764342D01*
X93613286Y-119764342D02*
X93660905Y-119859580D01*
X93660905Y-119859580D02*
X93708524Y-119907200D01*
X93708524Y-119907200D02*
X93803762Y-119954819D01*
X93803762Y-119954819D02*
X93994238Y-119954819D01*
X93994238Y-119954819D02*
X94089476Y-119907200D01*
X94089476Y-119907200D02*
X94137095Y-119859580D01*
X94137095Y-119859580D02*
X94184714Y-119764342D01*
X94184714Y-119764342D02*
X94184714Y-119573866D01*
X94184714Y-119573866D02*
X94137095Y-119478628D01*
X94137095Y-119478628D02*
X94089476Y-119431009D01*
X94089476Y-119431009D02*
X93994238Y-119383390D01*
D11*
X173664769Y-107288834D02*
X174317912Y-107288834D01*
X174317912Y-107288834D02*
X174448541Y-107332377D01*
X174448541Y-107332377D02*
X174535627Y-107419463D01*
X174535627Y-107419463D02*
X174579169Y-107550091D01*
X174579169Y-107550091D02*
X174579169Y-107637177D01*
X173751855Y-106896948D02*
X173708312Y-106853405D01*
X173708312Y-106853405D02*
X173664769Y-106766320D01*
X173664769Y-106766320D02*
X173664769Y-106548605D01*
X173664769Y-106548605D02*
X173708312Y-106461520D01*
X173708312Y-106461520D02*
X173751855Y-106417977D01*
X173751855Y-106417977D02*
X173838941Y-106374434D01*
X173838941Y-106374434D02*
X173926027Y-106374434D01*
X173926027Y-106374434D02*
X174056655Y-106417977D01*
X174056655Y-106417977D02*
X174579169Y-106940491D01*
X174579169Y-106940491D02*
X174579169Y-106374434D01*
D10*
X85737095Y-116154819D02*
X85737095Y-116964342D01*
X85737095Y-116964342D02*
X85784714Y-117059580D01*
X85784714Y-117059580D02*
X85832333Y-117107200D01*
X85832333Y-117107200D02*
X85927571Y-117154819D01*
X85927571Y-117154819D02*
X86118047Y-117154819D01*
X86118047Y-117154819D02*
X86213285Y-117107200D01*
X86213285Y-117107200D02*
X86260904Y-117059580D01*
X86260904Y-117059580D02*
X86308523Y-116964342D01*
X86308523Y-116964342D02*
X86308523Y-116154819D01*
X86689476Y-116154819D02*
X87308523Y-116154819D01*
X87308523Y-116154819D02*
X86975190Y-116535771D01*
X86975190Y-116535771D02*
X87118047Y-116535771D01*
X87118047Y-116535771D02*
X87213285Y-116583390D01*
X87213285Y-116583390D02*
X87260904Y-116631009D01*
X87260904Y-116631009D02*
X87308523Y-116726247D01*
X87308523Y-116726247D02*
X87308523Y-116964342D01*
X87308523Y-116964342D02*
X87260904Y-117059580D01*
X87260904Y-117059580D02*
X87213285Y-117107200D01*
X87213285Y-117107200D02*
X87118047Y-117154819D01*
X87118047Y-117154819D02*
X86832333Y-117154819D01*
X86832333Y-117154819D02*
X86737095Y-117107200D01*
X86737095Y-117107200D02*
X86689476Y-117059580D01*
X183757333Y-120254819D02*
X183424000Y-119778628D01*
X183185905Y-120254819D02*
X183185905Y-119254819D01*
X183185905Y-119254819D02*
X183566857Y-119254819D01*
X183566857Y-119254819D02*
X183662095Y-119302438D01*
X183662095Y-119302438D02*
X183709714Y-119350057D01*
X183709714Y-119350057D02*
X183757333Y-119445295D01*
X183757333Y-119445295D02*
X183757333Y-119588152D01*
X183757333Y-119588152D02*
X183709714Y-119683390D01*
X183709714Y-119683390D02*
X183662095Y-119731009D01*
X183662095Y-119731009D02*
X183566857Y-119778628D01*
X183566857Y-119778628D02*
X183185905Y-119778628D01*
X184709714Y-120254819D02*
X184138286Y-120254819D01*
X184424000Y-120254819D02*
X184424000Y-119254819D01*
X184424000Y-119254819D02*
X184328762Y-119397676D01*
X184328762Y-119397676D02*
X184233524Y-119492914D01*
X184233524Y-119492914D02*
X184138286Y-119540533D01*
X162453819Y-107495238D02*
X161977628Y-107828571D01*
X162453819Y-108066666D02*
X161453819Y-108066666D01*
X161453819Y-108066666D02*
X161453819Y-107685714D01*
X161453819Y-107685714D02*
X161501438Y-107590476D01*
X161501438Y-107590476D02*
X161549057Y-107542857D01*
X161549057Y-107542857D02*
X161644295Y-107495238D01*
X161644295Y-107495238D02*
X161787152Y-107495238D01*
X161787152Y-107495238D02*
X161882390Y-107542857D01*
X161882390Y-107542857D02*
X161930009Y-107590476D01*
X161930009Y-107590476D02*
X161977628Y-107685714D01*
X161977628Y-107685714D02*
X161977628Y-108066666D01*
X161453819Y-107209523D02*
X162453819Y-106876190D01*
X162453819Y-106876190D02*
X161453819Y-106542857D01*
X162453819Y-105685714D02*
X162453819Y-106257142D01*
X162453819Y-105971428D02*
X161453819Y-105971428D01*
X161453819Y-105971428D02*
X161596676Y-106066666D01*
X161596676Y-106066666D02*
X161691914Y-106161904D01*
X161691914Y-106161904D02*
X161739533Y-106257142D01*
X198457333Y-119854819D02*
X198124000Y-119378628D01*
X197885905Y-119854819D02*
X197885905Y-118854819D01*
X197885905Y-118854819D02*
X198266857Y-118854819D01*
X198266857Y-118854819D02*
X198362095Y-118902438D01*
X198362095Y-118902438D02*
X198409714Y-118950057D01*
X198409714Y-118950057D02*
X198457333Y-119045295D01*
X198457333Y-119045295D02*
X198457333Y-119188152D01*
X198457333Y-119188152D02*
X198409714Y-119283390D01*
X198409714Y-119283390D02*
X198362095Y-119331009D01*
X198362095Y-119331009D02*
X198266857Y-119378628D01*
X198266857Y-119378628D02*
X197885905Y-119378628D01*
X199314476Y-119188152D02*
X199314476Y-119854819D01*
X199076381Y-118807200D02*
X198838286Y-119521485D01*
X198838286Y-119521485D02*
X199457333Y-119521485D01*
X82932333Y-117059580D02*
X82884714Y-117107200D01*
X82884714Y-117107200D02*
X82741857Y-117154819D01*
X82741857Y-117154819D02*
X82646619Y-117154819D01*
X82646619Y-117154819D02*
X82503762Y-117107200D01*
X82503762Y-117107200D02*
X82408524Y-117011961D01*
X82408524Y-117011961D02*
X82360905Y-116916723D01*
X82360905Y-116916723D02*
X82313286Y-116726247D01*
X82313286Y-116726247D02*
X82313286Y-116583390D01*
X82313286Y-116583390D02*
X82360905Y-116392914D01*
X82360905Y-116392914D02*
X82408524Y-116297676D01*
X82408524Y-116297676D02*
X82503762Y-116202438D01*
X82503762Y-116202438D02*
X82646619Y-116154819D01*
X82646619Y-116154819D02*
X82741857Y-116154819D01*
X82741857Y-116154819D02*
X82884714Y-116202438D01*
X82884714Y-116202438D02*
X82932333Y-116250057D01*
X83789476Y-116488152D02*
X83789476Y-117154819D01*
X83551381Y-116107200D02*
X83313286Y-116821485D01*
X83313286Y-116821485D02*
X83932333Y-116821485D01*
X191762095Y-116154819D02*
X191762095Y-116964342D01*
X191762095Y-116964342D02*
X191809714Y-117059580D01*
X191809714Y-117059580D02*
X191857333Y-117107200D01*
X191857333Y-117107200D02*
X191952571Y-117154819D01*
X191952571Y-117154819D02*
X192143047Y-117154819D01*
X192143047Y-117154819D02*
X192238285Y-117107200D01*
X192238285Y-117107200D02*
X192285904Y-117059580D01*
X192285904Y-117059580D02*
X192333523Y-116964342D01*
X192333523Y-116964342D02*
X192333523Y-116154819D01*
X192762095Y-116250057D02*
X192809714Y-116202438D01*
X192809714Y-116202438D02*
X192904952Y-116154819D01*
X192904952Y-116154819D02*
X193143047Y-116154819D01*
X193143047Y-116154819D02*
X193238285Y-116202438D01*
X193238285Y-116202438D02*
X193285904Y-116250057D01*
X193285904Y-116250057D02*
X193333523Y-116345295D01*
X193333523Y-116345295D02*
X193333523Y-116440533D01*
X193333523Y-116440533D02*
X193285904Y-116583390D01*
X193285904Y-116583390D02*
X192714476Y-117154819D01*
X192714476Y-117154819D02*
X193333523Y-117154819D01*
D12*
%TO.C,D8*%
X92959000Y-120950000D02*
X89699000Y-120950000D01*
X92959000Y-122650000D02*
X89699000Y-122650000D01*
X92959000Y-122650000D02*
X92959000Y-120950000D01*
D13*
%TO.C,J5*%
X157154000Y-85475000D02*
X161154000Y-85475000D01*
X157154000Y-128325000D02*
X157154000Y-85475000D01*
X161154000Y-85475000D02*
X161154000Y-128325000D01*
X161154000Y-128325000D02*
X157154000Y-128325000D01*
D12*
%TO.C,R2*%
X188991224Y-120377500D02*
X188481776Y-120377500D01*
X188991224Y-121422500D02*
X188481776Y-121422500D01*
%TO.C,J3*%
X162164000Y-110620000D02*
X162164000Y-121000000D01*
X162164000Y-112000000D02*
X163164000Y-112000000D01*
X162164000Y-112250000D02*
X163164000Y-112250000D01*
X162164000Y-119370000D02*
X163164000Y-119370000D01*
X162164000Y-121000000D02*
X168184000Y-121000000D01*
X163164000Y-112000000D02*
X163164000Y-119620000D01*
X163164000Y-112000000D02*
X163694000Y-112250000D01*
X163164000Y-119620000D02*
X162164000Y-119620000D01*
X163694000Y-112250000D02*
X163694000Y-119370000D01*
X163694000Y-119370000D02*
X163164000Y-119620000D01*
X167154000Y-110330000D02*
X163154000Y-110330000D01*
X167584000Y-111200000D02*
X167584000Y-112800000D01*
X167584000Y-112800000D02*
X168184000Y-112800000D01*
X167584000Y-113740000D02*
X167584000Y-115340000D01*
X167584000Y-115340000D02*
X168184000Y-115340000D01*
X167584000Y-116280000D02*
X167584000Y-117880000D01*
X167584000Y-117880000D02*
X168184000Y-117880000D01*
X167584000Y-118820000D02*
X167584000Y-120420000D01*
X167584000Y-120420000D02*
X168184000Y-120420000D01*
X168184000Y-110620000D02*
X162164000Y-110620000D01*
X168184000Y-111200000D02*
X167584000Y-111200000D01*
X168184000Y-113740000D02*
X167584000Y-113740000D01*
X168184000Y-116280000D02*
X167584000Y-116280000D01*
X168184000Y-118820000D02*
X167584000Y-118820000D01*
X168184000Y-121000000D02*
X168184000Y-110620000D01*
%TO.C,J6*%
X162124000Y-92800000D02*
X162124000Y-103180000D01*
X162124000Y-94980000D02*
X162724000Y-94980000D01*
X162124000Y-97520000D02*
X162724000Y-97520000D01*
X162124000Y-100060000D02*
X162724000Y-100060000D01*
X162124000Y-102600000D02*
X162724000Y-102600000D01*
X162124000Y-103180000D02*
X168144000Y-103180000D01*
X162724000Y-93380000D02*
X162124000Y-93380000D01*
X162724000Y-94980000D02*
X162724000Y-93380000D01*
X162724000Y-95920000D02*
X162124000Y-95920000D01*
X162724000Y-97520000D02*
X162724000Y-95920000D01*
X162724000Y-98460000D02*
X162124000Y-98460000D01*
X162724000Y-100060000D02*
X162724000Y-98460000D01*
X162724000Y-101000000D02*
X162124000Y-101000000D01*
X162724000Y-102600000D02*
X162724000Y-101000000D01*
X163154000Y-103470000D02*
X167154000Y-103470000D01*
X166614000Y-94430000D02*
X167144000Y-94180000D01*
X166614000Y-101550000D02*
X166614000Y-94430000D01*
X167144000Y-94180000D02*
X168144000Y-94180000D01*
X167144000Y-101800000D02*
X166614000Y-101550000D01*
X167144000Y-101800000D02*
X167144000Y-94180000D01*
X168144000Y-92800000D02*
X162124000Y-92800000D01*
X168144000Y-94430000D02*
X167144000Y-94430000D01*
X168144000Y-101550000D02*
X167144000Y-101550000D01*
X168144000Y-101800000D02*
X167144000Y-101800000D01*
X168144000Y-103180000D02*
X168144000Y-92800000D01*
%TO.C,D5*%
X198384000Y-120350000D02*
X195124000Y-120350000D01*
X198384000Y-122050000D02*
X195124000Y-122050000D01*
X198384000Y-122050000D02*
X198384000Y-120350000D01*
%TO.C,R5*%
X79376500Y-120642224D02*
X79376500Y-120132776D01*
X80421500Y-120642224D02*
X80421500Y-120132776D01*
%TO.C,C3*%
X188832767Y-118790000D02*
X188540233Y-118790000D01*
X188832767Y-119810000D02*
X188540233Y-119810000D01*
%TO.C,R6*%
X83366224Y-120577500D02*
X82856776Y-120577500D01*
X83366224Y-121622500D02*
X82856776Y-121622500D01*
%TO.C,R8*%
X90841224Y-119077500D02*
X90331776Y-119077500D01*
X90841224Y-120122500D02*
X90331776Y-120122500D01*
D13*
%TO.C,J2*%
X169154000Y-85475000D02*
X173154000Y-85475000D01*
X169154000Y-128325000D02*
X169154000Y-85475000D01*
X173154000Y-85475000D02*
X173154000Y-128325000D01*
X173154000Y-128325000D02*
X169154000Y-128325000D01*
D12*
%TO.C,U3*%
X85089000Y-120637500D02*
X85089000Y-119837500D01*
X85089000Y-120637500D02*
X85089000Y-121437500D01*
X88209000Y-120637500D02*
X88209000Y-119837500D01*
X88209000Y-120637500D02*
X88209000Y-121437500D01*
X85139000Y-121937500D02*
X84809000Y-122177500D01*
X84809000Y-121697500D01*
X85139000Y-121937500D01*
G36*
X85139000Y-121937500D02*
G01*
X84809000Y-122177500D01*
X84809000Y-121697500D01*
X85139000Y-121937500D01*
G37*
%TO.C,R1*%
X185301500Y-120867224D02*
X185301500Y-120357776D01*
X186346500Y-120867224D02*
X186346500Y-120357776D01*
%TO.C,RV1*%
X162634000Y-105180000D02*
X162634000Y-108920000D01*
X162634000Y-105180000D02*
X163014000Y-105180000D01*
X162634000Y-108920000D02*
X163914000Y-108920000D01*
X164794000Y-105180000D02*
X165514000Y-105180000D01*
X166394000Y-108920000D02*
X167674000Y-108920000D01*
X167294000Y-105180000D02*
X167674000Y-105180000D01*
X167674000Y-105180000D02*
X167674000Y-108920000D01*
%TO.C,R4*%
X196166224Y-118877500D02*
X195656776Y-118877500D01*
X196166224Y-119922500D02*
X195656776Y-119922500D01*
%TO.C,C4*%
X83282767Y-118990000D02*
X82990233Y-118990000D01*
X83282767Y-120010000D02*
X82990233Y-120010000D01*
%TO.C,U2*%
X190964000Y-120637500D02*
X190964000Y-119837500D01*
X190964000Y-120637500D02*
X190964000Y-121437500D01*
X194084000Y-120637500D02*
X194084000Y-119837500D01*
X194084000Y-120637500D02*
X194084000Y-121437500D01*
X191014000Y-121937500D02*
X190684000Y-122177500D01*
X190684000Y-121697500D01*
X191014000Y-121937500D01*
G36*
X191014000Y-121937500D02*
G01*
X190684000Y-122177500D01*
X190684000Y-121697500D01*
X191014000Y-121937500D01*
G37*
%TD*%
M02*
