%TF.GenerationSoftware,KiCad,Pcbnew,9.0.0*%
%TF.CreationDate,2025-06-18T14:15:24-07:00*%
%TF.ProjectId,1U Backplane,31552042-6163-46b7-906c-616e652e6b69,rev?*%
%TF.SameCoordinates,Original*%
%TF.FileFunction,Legend,Bot*%
%TF.FilePolarity,Positive*%
%FSLAX46Y46*%
G04 Gerber Fmt 4.6, Leading zero omitted, Abs format (unit mm)*
G04 Created by KiCad (PCBNEW 9.0.0) date 2025-06-18 14:15:24*
%MOMM*%
%LPD*%
G01*
G04 APERTURE LIST*
%ADD10C,0.150000*%
%ADD11C,0.152400*%
%ADD12C,0.120000*%
%ADD13C,0.254000*%
G04 APERTURE END LIST*
D10*
X195195428Y-121869104D02*
X194719238Y-121869104D01*
X195290666Y-122154819D02*
X194957333Y-121154819D01*
X194957333Y-121154819D02*
X194624000Y-122154819D01*
X193719238Y-122059580D02*
X193766857Y-122107200D01*
X193766857Y-122107200D02*
X193909714Y-122154819D01*
X193909714Y-122154819D02*
X194004952Y-122154819D01*
X194004952Y-122154819D02*
X194147809Y-122107200D01*
X194147809Y-122107200D02*
X194243047Y-122011961D01*
X194243047Y-122011961D02*
X194290666Y-121916723D01*
X194290666Y-121916723D02*
X194338285Y-121726247D01*
X194338285Y-121726247D02*
X194338285Y-121583390D01*
X194338285Y-121583390D02*
X194290666Y-121392914D01*
X194290666Y-121392914D02*
X194243047Y-121297676D01*
X194243047Y-121297676D02*
X194147809Y-121202438D01*
X194147809Y-121202438D02*
X194004952Y-121154819D01*
X194004952Y-121154819D02*
X193909714Y-121154819D01*
X193909714Y-121154819D02*
X193766857Y-121202438D01*
X193766857Y-121202438D02*
X193719238Y-121250057D01*
X193433523Y-121154819D02*
X192862095Y-121154819D01*
X193147809Y-122154819D02*
X193147809Y-121154819D01*
X191766856Y-122154819D02*
X191766856Y-121154819D01*
X191766856Y-121154819D02*
X191385904Y-121154819D01*
X191385904Y-121154819D02*
X191290666Y-121202438D01*
X191290666Y-121202438D02*
X191243047Y-121250057D01*
X191243047Y-121250057D02*
X191195428Y-121345295D01*
X191195428Y-121345295D02*
X191195428Y-121488152D01*
X191195428Y-121488152D02*
X191243047Y-121583390D01*
X191243047Y-121583390D02*
X191290666Y-121631009D01*
X191290666Y-121631009D02*
X191385904Y-121678628D01*
X191385904Y-121678628D02*
X191766856Y-121678628D01*
X190862094Y-121154819D02*
X190623999Y-122154819D01*
X190623999Y-122154819D02*
X190433523Y-121440533D01*
X190433523Y-121440533D02*
X190243047Y-122154819D01*
X190243047Y-122154819D02*
X190004952Y-121154819D01*
X189052571Y-122154819D02*
X189385904Y-121678628D01*
X189623999Y-122154819D02*
X189623999Y-121154819D01*
X189623999Y-121154819D02*
X189243047Y-121154819D01*
X189243047Y-121154819D02*
X189147809Y-121202438D01*
X189147809Y-121202438D02*
X189100190Y-121250057D01*
X189100190Y-121250057D02*
X189052571Y-121345295D01*
X189052571Y-121345295D02*
X189052571Y-121488152D01*
X189052571Y-121488152D02*
X189100190Y-121583390D01*
X189100190Y-121583390D02*
X189147809Y-121631009D01*
X189147809Y-121631009D02*
X189243047Y-121678628D01*
X189243047Y-121678628D02*
X189623999Y-121678628D01*
X88770428Y-121869104D02*
X88294238Y-121869104D01*
X88865666Y-122154819D02*
X88532333Y-121154819D01*
X88532333Y-121154819D02*
X88199000Y-122154819D01*
X87294238Y-122059580D02*
X87341857Y-122107200D01*
X87341857Y-122107200D02*
X87484714Y-122154819D01*
X87484714Y-122154819D02*
X87579952Y-122154819D01*
X87579952Y-122154819D02*
X87722809Y-122107200D01*
X87722809Y-122107200D02*
X87818047Y-122011961D01*
X87818047Y-122011961D02*
X87865666Y-121916723D01*
X87865666Y-121916723D02*
X87913285Y-121726247D01*
X87913285Y-121726247D02*
X87913285Y-121583390D01*
X87913285Y-121583390D02*
X87865666Y-121392914D01*
X87865666Y-121392914D02*
X87818047Y-121297676D01*
X87818047Y-121297676D02*
X87722809Y-121202438D01*
X87722809Y-121202438D02*
X87579952Y-121154819D01*
X87579952Y-121154819D02*
X87484714Y-121154819D01*
X87484714Y-121154819D02*
X87341857Y-121202438D01*
X87341857Y-121202438D02*
X87294238Y-121250057D01*
X87008523Y-121154819D02*
X86437095Y-121154819D01*
X86722809Y-122154819D02*
X86722809Y-121154819D01*
X85341856Y-122154819D02*
X85341856Y-121154819D01*
X85341856Y-121154819D02*
X84960904Y-121154819D01*
X84960904Y-121154819D02*
X84865666Y-121202438D01*
X84865666Y-121202438D02*
X84818047Y-121250057D01*
X84818047Y-121250057D02*
X84770428Y-121345295D01*
X84770428Y-121345295D02*
X84770428Y-121488152D01*
X84770428Y-121488152D02*
X84818047Y-121583390D01*
X84818047Y-121583390D02*
X84865666Y-121631009D01*
X84865666Y-121631009D02*
X84960904Y-121678628D01*
X84960904Y-121678628D02*
X85341856Y-121678628D01*
X84437094Y-121154819D02*
X84198999Y-122154819D01*
X84198999Y-122154819D02*
X84008523Y-121440533D01*
X84008523Y-121440533D02*
X83818047Y-122154819D01*
X83818047Y-122154819D02*
X83579952Y-121154819D01*
X82627571Y-122154819D02*
X82960904Y-121678628D01*
X83198999Y-122154819D02*
X83198999Y-121154819D01*
X83198999Y-121154819D02*
X82818047Y-121154819D01*
X82818047Y-121154819D02*
X82722809Y-121202438D01*
X82722809Y-121202438D02*
X82675190Y-121250057D01*
X82675190Y-121250057D02*
X82627571Y-121345295D01*
X82627571Y-121345295D02*
X82627571Y-121488152D01*
X82627571Y-121488152D02*
X82675190Y-121583390D01*
X82675190Y-121583390D02*
X82722809Y-121631009D01*
X82722809Y-121631009D02*
X82818047Y-121678628D01*
X82818047Y-121678628D02*
X83198999Y-121678628D01*
X81037094Y-120054819D02*
X81037094Y-119054819D01*
X81037094Y-119054819D02*
X80798999Y-119054819D01*
X80798999Y-119054819D02*
X80656142Y-119102438D01*
X80656142Y-119102438D02*
X80560904Y-119197676D01*
X80560904Y-119197676D02*
X80513285Y-119292914D01*
X80513285Y-119292914D02*
X80465666Y-119483390D01*
X80465666Y-119483390D02*
X80465666Y-119626247D01*
X80465666Y-119626247D02*
X80513285Y-119816723D01*
X80513285Y-119816723D02*
X80560904Y-119911961D01*
X80560904Y-119911961D02*
X80656142Y-120007200D01*
X80656142Y-120007200D02*
X80798999Y-120054819D01*
X80798999Y-120054819D02*
X81037094Y-120054819D01*
X80132332Y-119054819D02*
X79465666Y-119054819D01*
X79465666Y-119054819D02*
X79894237Y-120054819D01*
X91737094Y-120054819D02*
X91737094Y-119054819D01*
X91737094Y-119054819D02*
X91498999Y-119054819D01*
X91498999Y-119054819D02*
X91356142Y-119102438D01*
X91356142Y-119102438D02*
X91260904Y-119197676D01*
X91260904Y-119197676D02*
X91213285Y-119292914D01*
X91213285Y-119292914D02*
X91165666Y-119483390D01*
X91165666Y-119483390D02*
X91165666Y-119626247D01*
X91165666Y-119626247D02*
X91213285Y-119816723D01*
X91213285Y-119816723D02*
X91260904Y-119911961D01*
X91260904Y-119911961D02*
X91356142Y-120007200D01*
X91356142Y-120007200D02*
X91498999Y-120054819D01*
X91498999Y-120054819D02*
X91737094Y-120054819D01*
X90689475Y-120054819D02*
X90498999Y-120054819D01*
X90498999Y-120054819D02*
X90403761Y-120007200D01*
X90403761Y-120007200D02*
X90356142Y-119959580D01*
X90356142Y-119959580D02*
X90260904Y-119816723D01*
X90260904Y-119816723D02*
X90213285Y-119626247D01*
X90213285Y-119626247D02*
X90213285Y-119245295D01*
X90213285Y-119245295D02*
X90260904Y-119150057D01*
X90260904Y-119150057D02*
X90308523Y-119102438D01*
X90308523Y-119102438D02*
X90403761Y-119054819D01*
X90403761Y-119054819D02*
X90594237Y-119054819D01*
X90594237Y-119054819D02*
X90689475Y-119102438D01*
X90689475Y-119102438D02*
X90737094Y-119150057D01*
X90737094Y-119150057D02*
X90784713Y-119245295D01*
X90784713Y-119245295D02*
X90784713Y-119483390D01*
X90784713Y-119483390D02*
X90737094Y-119578628D01*
X90737094Y-119578628D02*
X90689475Y-119626247D01*
X90689475Y-119626247D02*
X90594237Y-119673866D01*
X90594237Y-119673866D02*
X90403761Y-119673866D01*
X90403761Y-119673866D02*
X90308523Y-119626247D01*
X90308523Y-119626247D02*
X90260904Y-119578628D01*
X90260904Y-119578628D02*
X90213285Y-119483390D01*
D11*
X91545765Y-114150217D02*
X91545765Y-114803360D01*
X91545765Y-114803360D02*
X91589308Y-114933989D01*
X91589308Y-114933989D02*
X91676394Y-115021075D01*
X91676394Y-115021075D02*
X91807022Y-115064617D01*
X91807022Y-115064617D02*
X91894108Y-115064617D01*
X90718451Y-114455017D02*
X90718451Y-115064617D01*
X90936165Y-114106675D02*
X91153879Y-114759817D01*
X91153879Y-114759817D02*
X90587822Y-114759817D01*
D10*
X169565666Y-120059580D02*
X169613285Y-120107200D01*
X169613285Y-120107200D02*
X169756142Y-120154819D01*
X169756142Y-120154819D02*
X169851380Y-120154819D01*
X169851380Y-120154819D02*
X169994237Y-120107200D01*
X169994237Y-120107200D02*
X170089475Y-120011961D01*
X170089475Y-120011961D02*
X170137094Y-119916723D01*
X170137094Y-119916723D02*
X170184713Y-119726247D01*
X170184713Y-119726247D02*
X170184713Y-119583390D01*
X170184713Y-119583390D02*
X170137094Y-119392914D01*
X170137094Y-119392914D02*
X170089475Y-119297676D01*
X170089475Y-119297676D02*
X169994237Y-119202438D01*
X169994237Y-119202438D02*
X169851380Y-119154819D01*
X169851380Y-119154819D02*
X169756142Y-119154819D01*
X169756142Y-119154819D02*
X169613285Y-119202438D01*
X169613285Y-119202438D02*
X169565666Y-119250057D01*
X169184713Y-119250057D02*
X169137094Y-119202438D01*
X169137094Y-119202438D02*
X169041856Y-119154819D01*
X169041856Y-119154819D02*
X168803761Y-119154819D01*
X168803761Y-119154819D02*
X168708523Y-119202438D01*
X168708523Y-119202438D02*
X168660904Y-119250057D01*
X168660904Y-119250057D02*
X168613285Y-119345295D01*
X168613285Y-119345295D02*
X168613285Y-119440533D01*
X168613285Y-119440533D02*
X168660904Y-119583390D01*
X168660904Y-119583390D02*
X169232332Y-120154819D01*
X169232332Y-120154819D02*
X168613285Y-120154819D01*
X168190666Y-111492080D02*
X168238285Y-111539700D01*
X168238285Y-111539700D02*
X168381142Y-111587319D01*
X168381142Y-111587319D02*
X168476380Y-111587319D01*
X168476380Y-111587319D02*
X168619237Y-111539700D01*
X168619237Y-111539700D02*
X168714475Y-111444461D01*
X168714475Y-111444461D02*
X168762094Y-111349223D01*
X168762094Y-111349223D02*
X168809713Y-111158747D01*
X168809713Y-111158747D02*
X168809713Y-111015890D01*
X168809713Y-111015890D02*
X168762094Y-110825414D01*
X168762094Y-110825414D02*
X168714475Y-110730176D01*
X168714475Y-110730176D02*
X168619237Y-110634938D01*
X168619237Y-110634938D02*
X168476380Y-110587319D01*
X168476380Y-110587319D02*
X168381142Y-110587319D01*
X168381142Y-110587319D02*
X168238285Y-110634938D01*
X168238285Y-110634938D02*
X168190666Y-110682557D01*
X167238285Y-111587319D02*
X167809713Y-111587319D01*
X167523999Y-111587319D02*
X167523999Y-110587319D01*
X167523999Y-110587319D02*
X167619237Y-110730176D01*
X167619237Y-110730176D02*
X167714475Y-110825414D01*
X167714475Y-110825414D02*
X167809713Y-110873033D01*
X168260904Y-119154819D02*
X168260904Y-119964342D01*
X168260904Y-119964342D02*
X168213285Y-120059580D01*
X168213285Y-120059580D02*
X168165666Y-120107200D01*
X168165666Y-120107200D02*
X168070428Y-120154819D01*
X168070428Y-120154819D02*
X167879952Y-120154819D01*
X167879952Y-120154819D02*
X167784714Y-120107200D01*
X167784714Y-120107200D02*
X167737095Y-120059580D01*
X167737095Y-120059580D02*
X167689476Y-119964342D01*
X167689476Y-119964342D02*
X167689476Y-119154819D01*
X166689476Y-120154819D02*
X167260904Y-120154819D01*
X166975190Y-120154819D02*
X166975190Y-119154819D01*
X166975190Y-119154819D02*
X167070428Y-119297676D01*
X167070428Y-119297676D02*
X167165666Y-119392914D01*
X167165666Y-119392914D02*
X167260904Y-119440533D01*
X162144238Y-120770057D02*
X162239476Y-120722438D01*
X162239476Y-120722438D02*
X162334714Y-120627200D01*
X162334714Y-120627200D02*
X162477571Y-120484342D01*
X162477571Y-120484342D02*
X162572809Y-120436723D01*
X162572809Y-120436723D02*
X162668047Y-120436723D01*
X162620428Y-120674819D02*
X162715666Y-120627200D01*
X162715666Y-120627200D02*
X162810904Y-120531961D01*
X162810904Y-120531961D02*
X162858523Y-120341485D01*
X162858523Y-120341485D02*
X162858523Y-120008152D01*
X162858523Y-120008152D02*
X162810904Y-119817676D01*
X162810904Y-119817676D02*
X162715666Y-119722438D01*
X162715666Y-119722438D02*
X162620428Y-119674819D01*
X162620428Y-119674819D02*
X162429952Y-119674819D01*
X162429952Y-119674819D02*
X162334714Y-119722438D01*
X162334714Y-119722438D02*
X162239476Y-119817676D01*
X162239476Y-119817676D02*
X162191857Y-120008152D01*
X162191857Y-120008152D02*
X162191857Y-120341485D01*
X162191857Y-120341485D02*
X162239476Y-120531961D01*
X162239476Y-120531961D02*
X162334714Y-120627200D01*
X162334714Y-120627200D02*
X162429952Y-120674819D01*
X162429952Y-120674819D02*
X162620428Y-120674819D01*
X161239476Y-120674819D02*
X161810904Y-120674819D01*
X161525190Y-120674819D02*
X161525190Y-119674819D01*
X161525190Y-119674819D02*
X161620428Y-119817676D01*
X161620428Y-119817676D02*
X161715666Y-119912914D01*
X161715666Y-119912914D02*
X161810904Y-119960533D01*
X187662094Y-120154819D02*
X187662094Y-119154819D01*
X187662094Y-119154819D02*
X187423999Y-119154819D01*
X187423999Y-119154819D02*
X187281142Y-119202438D01*
X187281142Y-119202438D02*
X187185904Y-119297676D01*
X187185904Y-119297676D02*
X187138285Y-119392914D01*
X187138285Y-119392914D02*
X187090666Y-119583390D01*
X187090666Y-119583390D02*
X187090666Y-119726247D01*
X187090666Y-119726247D02*
X187138285Y-119916723D01*
X187138285Y-119916723D02*
X187185904Y-120011961D01*
X187185904Y-120011961D02*
X187281142Y-120107200D01*
X187281142Y-120107200D02*
X187423999Y-120154819D01*
X187423999Y-120154819D02*
X187662094Y-120154819D01*
X186233523Y-119488152D02*
X186233523Y-120154819D01*
X186471618Y-119107200D02*
X186709713Y-119821485D01*
X186709713Y-119821485D02*
X186090666Y-119821485D01*
D11*
X196595765Y-114150217D02*
X196595765Y-114803360D01*
X196595765Y-114803360D02*
X196639308Y-114933989D01*
X196639308Y-114933989D02*
X196726394Y-115021075D01*
X196726394Y-115021075D02*
X196857022Y-115064617D01*
X196857022Y-115064617D02*
X196944108Y-115064617D01*
X195681365Y-115064617D02*
X196203879Y-115064617D01*
X195942622Y-115064617D02*
X195942622Y-114150217D01*
X195942622Y-114150217D02*
X196029708Y-114280846D01*
X196029708Y-114280846D02*
X196116793Y-114367932D01*
X196116793Y-114367932D02*
X196203879Y-114411475D01*
D10*
X173100666Y-117694819D02*
X173433999Y-117218628D01*
X173672094Y-117694819D02*
X173672094Y-116694819D01*
X173672094Y-116694819D02*
X173291142Y-116694819D01*
X173291142Y-116694819D02*
X173195904Y-116742438D01*
X173195904Y-116742438D02*
X173148285Y-116790057D01*
X173148285Y-116790057D02*
X173100666Y-116885295D01*
X173100666Y-116885295D02*
X173100666Y-117028152D01*
X173100666Y-117028152D02*
X173148285Y-117123390D01*
X173148285Y-117123390D02*
X173195904Y-117171009D01*
X173195904Y-117171009D02*
X173291142Y-117218628D01*
X173291142Y-117218628D02*
X173672094Y-117218628D01*
X172767332Y-116694819D02*
X172148285Y-116694819D01*
X172148285Y-116694819D02*
X172481618Y-117075771D01*
X172481618Y-117075771D02*
X172338761Y-117075771D01*
X172338761Y-117075771D02*
X172243523Y-117123390D01*
X172243523Y-117123390D02*
X172195904Y-117171009D01*
X172195904Y-117171009D02*
X172148285Y-117266247D01*
X172148285Y-117266247D02*
X172148285Y-117504342D01*
X172148285Y-117504342D02*
X172195904Y-117599580D01*
X172195904Y-117599580D02*
X172243523Y-117647200D01*
X172243523Y-117647200D02*
X172338761Y-117694819D01*
X172338761Y-117694819D02*
X172624475Y-117694819D01*
X172624475Y-117694819D02*
X172719713Y-117647200D01*
X172719713Y-117647200D02*
X172767332Y-117599580D01*
X168837094Y-105454819D02*
X168837094Y-104454819D01*
X168837094Y-104454819D02*
X168598999Y-104454819D01*
X168598999Y-104454819D02*
X168456142Y-104502438D01*
X168456142Y-104502438D02*
X168360904Y-104597676D01*
X168360904Y-104597676D02*
X168313285Y-104692914D01*
X168313285Y-104692914D02*
X168265666Y-104883390D01*
X168265666Y-104883390D02*
X168265666Y-105026247D01*
X168265666Y-105026247D02*
X168313285Y-105216723D01*
X168313285Y-105216723D02*
X168360904Y-105311961D01*
X168360904Y-105311961D02*
X168456142Y-105407200D01*
X168456142Y-105407200D02*
X168598999Y-105454819D01*
X168598999Y-105454819D02*
X168837094Y-105454819D01*
X167884713Y-104550057D02*
X167837094Y-104502438D01*
X167837094Y-104502438D02*
X167741856Y-104454819D01*
X167741856Y-104454819D02*
X167503761Y-104454819D01*
X167503761Y-104454819D02*
X167408523Y-104502438D01*
X167408523Y-104502438D02*
X167360904Y-104550057D01*
X167360904Y-104550057D02*
X167313285Y-104645295D01*
X167313285Y-104645295D02*
X167313285Y-104740533D01*
X167313285Y-104740533D02*
X167360904Y-104883390D01*
X167360904Y-104883390D02*
X167932332Y-105454819D01*
X167932332Y-105454819D02*
X167313285Y-105454819D01*
X159877094Y-114274819D02*
X159877094Y-113274819D01*
X159877094Y-113274819D02*
X159638999Y-113274819D01*
X159638999Y-113274819D02*
X159496142Y-113322438D01*
X159496142Y-113322438D02*
X159400904Y-113417676D01*
X159400904Y-113417676D02*
X159353285Y-113512914D01*
X159353285Y-113512914D02*
X159305666Y-113703390D01*
X159305666Y-113703390D02*
X159305666Y-113846247D01*
X159305666Y-113846247D02*
X159353285Y-114036723D01*
X159353285Y-114036723D02*
X159400904Y-114131961D01*
X159400904Y-114131961D02*
X159496142Y-114227200D01*
X159496142Y-114227200D02*
X159638999Y-114274819D01*
X159638999Y-114274819D02*
X159877094Y-114274819D01*
X158353285Y-114274819D02*
X158924713Y-114274819D01*
X158638999Y-114274819D02*
X158638999Y-113274819D01*
X158638999Y-113274819D02*
X158734237Y-113417676D01*
X158734237Y-113417676D02*
X158829475Y-113512914D01*
X158829475Y-113512914D02*
X158924713Y-113560533D01*
X168837094Y-108754819D02*
X168837094Y-107754819D01*
X168837094Y-107754819D02*
X168598999Y-107754819D01*
X168598999Y-107754819D02*
X168456142Y-107802438D01*
X168456142Y-107802438D02*
X168360904Y-107897676D01*
X168360904Y-107897676D02*
X168313285Y-107992914D01*
X168313285Y-107992914D02*
X168265666Y-108183390D01*
X168265666Y-108183390D02*
X168265666Y-108326247D01*
X168265666Y-108326247D02*
X168313285Y-108516723D01*
X168313285Y-108516723D02*
X168360904Y-108611961D01*
X168360904Y-108611961D02*
X168456142Y-108707200D01*
X168456142Y-108707200D02*
X168598999Y-108754819D01*
X168598999Y-108754819D02*
X168837094Y-108754819D01*
X167932332Y-107754819D02*
X167313285Y-107754819D01*
X167313285Y-107754819D02*
X167646618Y-108135771D01*
X167646618Y-108135771D02*
X167503761Y-108135771D01*
X167503761Y-108135771D02*
X167408523Y-108183390D01*
X167408523Y-108183390D02*
X167360904Y-108231009D01*
X167360904Y-108231009D02*
X167313285Y-108326247D01*
X167313285Y-108326247D02*
X167313285Y-108564342D01*
X167313285Y-108564342D02*
X167360904Y-108659580D01*
X167360904Y-108659580D02*
X167408523Y-108707200D01*
X167408523Y-108707200D02*
X167503761Y-108754819D01*
X167503761Y-108754819D02*
X167789475Y-108754819D01*
X167789475Y-108754819D02*
X167884713Y-108707200D01*
X167884713Y-108707200D02*
X167932332Y-108659580D01*
X198162094Y-120054819D02*
X198162094Y-119054819D01*
X198162094Y-119054819D02*
X197923999Y-119054819D01*
X197923999Y-119054819D02*
X197781142Y-119102438D01*
X197781142Y-119102438D02*
X197685904Y-119197676D01*
X197685904Y-119197676D02*
X197638285Y-119292914D01*
X197638285Y-119292914D02*
X197590666Y-119483390D01*
X197590666Y-119483390D02*
X197590666Y-119626247D01*
X197590666Y-119626247D02*
X197638285Y-119816723D01*
X197638285Y-119816723D02*
X197685904Y-119911961D01*
X197685904Y-119911961D02*
X197781142Y-120007200D01*
X197781142Y-120007200D02*
X197923999Y-120054819D01*
X197923999Y-120054819D02*
X198162094Y-120054819D01*
X196733523Y-119054819D02*
X196923999Y-119054819D01*
X196923999Y-119054819D02*
X197019237Y-119102438D01*
X197019237Y-119102438D02*
X197066856Y-119150057D01*
X197066856Y-119150057D02*
X197162094Y-119292914D01*
X197162094Y-119292914D02*
X197209713Y-119483390D01*
X197209713Y-119483390D02*
X197209713Y-119864342D01*
X197209713Y-119864342D02*
X197162094Y-119959580D01*
X197162094Y-119959580D02*
X197114475Y-120007200D01*
X197114475Y-120007200D02*
X197019237Y-120054819D01*
X197019237Y-120054819D02*
X196828761Y-120054819D01*
X196828761Y-120054819D02*
X196733523Y-120007200D01*
X196733523Y-120007200D02*
X196685904Y-119959580D01*
X196685904Y-119959580D02*
X196638285Y-119864342D01*
X196638285Y-119864342D02*
X196638285Y-119626247D01*
X196638285Y-119626247D02*
X196685904Y-119531009D01*
X196685904Y-119531009D02*
X196733523Y-119483390D01*
X196733523Y-119483390D02*
X196828761Y-119435771D01*
X196828761Y-119435771D02*
X197019237Y-119435771D01*
X197019237Y-119435771D02*
X197114475Y-119483390D01*
X197114475Y-119483390D02*
X197162094Y-119531009D01*
X197162094Y-119531009D02*
X197209713Y-119626247D01*
X157228819Y-96858333D02*
X156752628Y-96525000D01*
X157228819Y-96286905D02*
X156228819Y-96286905D01*
X156228819Y-96286905D02*
X156228819Y-96667857D01*
X156228819Y-96667857D02*
X156276438Y-96763095D01*
X156276438Y-96763095D02*
X156324057Y-96810714D01*
X156324057Y-96810714D02*
X156419295Y-96858333D01*
X156419295Y-96858333D02*
X156562152Y-96858333D01*
X156562152Y-96858333D02*
X156657390Y-96810714D01*
X156657390Y-96810714D02*
X156705009Y-96763095D01*
X156705009Y-96763095D02*
X156752628Y-96667857D01*
X156752628Y-96667857D02*
X156752628Y-96286905D01*
X156228819Y-97191667D02*
X156228819Y-97858333D01*
X156228819Y-97858333D02*
X157228819Y-97429762D01*
D12*
%TO.C,D7*%
X78639000Y-120965000D02*
X81099000Y-120965000D01*
X78639000Y-122435000D02*
X78639000Y-120965000D01*
X81099000Y-122435000D02*
X78639000Y-122435000D01*
%TO.C,D9*%
X90199000Y-120965000D02*
X92659000Y-120965000D01*
X92659000Y-120965000D02*
X92659000Y-122435000D01*
X92659000Y-122435000D02*
X90199000Y-122435000D01*
D13*
%TO.C,J4*%
X70149000Y-115500000D02*
X70149000Y-117309500D01*
X70149000Y-118590500D02*
X70149000Y-120400000D01*
X70149000Y-120400000D02*
X113749000Y-120400000D01*
X113749000Y-115500000D02*
X70149000Y-115500000D01*
X113749000Y-117309500D02*
X113749000Y-115500000D01*
X113749000Y-120400000D02*
X113749000Y-118590500D01*
D12*
%TO.C,C2*%
X167902733Y-113590000D02*
X168195267Y-113590000D01*
X167902733Y-114610000D02*
X168195267Y-114610000D01*
%TO.C,C1*%
X168170267Y-112052500D02*
X167877733Y-112052500D01*
X168170267Y-113072500D02*
X167877733Y-113072500D01*
%TO.C,U1*%
X166489000Y-116937500D02*
X166489000Y-116137500D01*
X166489000Y-116937500D02*
X166489000Y-117737500D01*
X169609000Y-116937500D02*
X169609000Y-116137500D01*
X169609000Y-116937500D02*
X169609000Y-117737500D01*
X166539000Y-115637500D02*
X166209000Y-115877500D01*
X166209000Y-115397500D01*
X166539000Y-115637500D01*
G36*
X166539000Y-115637500D02*
G01*
X166209000Y-115877500D01*
X166209000Y-115397500D01*
X166539000Y-115637500D01*
G37*
%TO.C,Q1*%
X160539000Y-117637500D02*
X160539000Y-116987500D01*
X160539000Y-117637500D02*
X160539000Y-118287500D01*
X163659000Y-117637500D02*
X163659000Y-116987500D01*
X163659000Y-117637500D02*
X163659000Y-118287500D01*
X163939000Y-119040000D02*
X163609000Y-118800000D01*
X163939000Y-118560000D01*
X163939000Y-119040000D01*
G36*
X163939000Y-119040000D02*
G01*
X163609000Y-118800000D01*
X163939000Y-118560000D01*
X163939000Y-119040000D01*
G37*
%TO.C,D4*%
X185289000Y-120965000D02*
X187749000Y-120965000D01*
X185289000Y-122435000D02*
X185289000Y-120965000D01*
X187749000Y-122435000D02*
X185289000Y-122435000D01*
D13*
%TO.C,J1*%
X175199000Y-115500000D02*
X175199000Y-117309500D01*
X175199000Y-118590500D02*
X175199000Y-120400000D01*
X175199000Y-120400000D02*
X218799000Y-120400000D01*
X218799000Y-115500000D02*
X175199000Y-115500000D01*
X218799000Y-117309500D02*
X218799000Y-115500000D01*
X218799000Y-120400000D02*
X218799000Y-118590500D01*
D12*
%TO.C,R3*%
X173012641Y-115520000D02*
X172705359Y-115520000D01*
X173012641Y-116280000D02*
X172705359Y-116280000D01*
%TO.C,D2*%
X165136500Y-103390000D02*
X164486500Y-103390000D01*
X165136500Y-103390000D02*
X165786500Y-103390000D01*
X165136500Y-106510000D02*
X164486500Y-106510000D01*
X165136500Y-106510000D02*
X165786500Y-106510000D01*
X164214000Y-106790000D02*
X163734000Y-106790000D01*
X163974000Y-106460000D01*
X164214000Y-106790000D01*
G36*
X164214000Y-106790000D02*
G01*
X163734000Y-106790000D01*
X163974000Y-106460000D01*
X164214000Y-106790000D01*
G37*
%TO.C,D1*%
X160489000Y-113762500D02*
X160489000Y-113112500D01*
X160489000Y-113762500D02*
X160489000Y-114412500D01*
X163609000Y-113762500D02*
X163609000Y-113112500D01*
X163609000Y-113762500D02*
X163609000Y-114412500D01*
X160539000Y-112600000D02*
X160209000Y-112840000D01*
X160209000Y-112360000D01*
X160539000Y-112600000D01*
G36*
X160539000Y-112600000D02*
G01*
X160209000Y-112840000D01*
X160209000Y-112360000D01*
X160539000Y-112600000D01*
G37*
%TO.C,D3*%
X165136500Y-106790000D02*
X164486500Y-106790000D01*
X165136500Y-106790000D02*
X165786500Y-106790000D01*
X165136500Y-109910000D02*
X164486500Y-109910000D01*
X165136500Y-109910000D02*
X165786500Y-109910000D01*
X164214000Y-110190000D02*
X163734000Y-110190000D01*
X163974000Y-109860000D01*
X164214000Y-110190000D01*
G36*
X164214000Y-110190000D02*
G01*
X163734000Y-110190000D01*
X163974000Y-109860000D01*
X164214000Y-110190000D01*
G37*
%TO.C,D6*%
X196599000Y-120965000D02*
X199059000Y-120965000D01*
X199059000Y-120965000D02*
X199059000Y-122435000D01*
X199059000Y-122435000D02*
X196599000Y-122435000D01*
%TO.C,R7*%
X157569000Y-97138641D02*
X157569000Y-96831359D01*
X158329000Y-97138641D02*
X158329000Y-96831359D01*
%TD*%
M02*
